<svg width="45" height="45" viewBox="0 0 45 45" fill="none" xmlns="http://www.w3.org/2000/svg">
<path d="M44.5846 22.4998C44.5846 34.6457 34.6471 44.5832 22.5013 44.5832C10.3555 44.5832 0.417969 34.6457 0.417969 22.4998C0.417969 10.354 10.3555 0.416504 22.5013 0.416504C34.6471 0.416504 44.5846 10.354 44.5846 22.4998ZM21.8388 30.6707L35.0888 17.4207C35.9722 16.5374 35.9722 15.2123 35.0888 14.329C34.2055 13.4456 32.8804 13.4456 31.9971 14.329L20.293 26.0332L13.0055 18.7456C12.1222 17.8623 10.7971 17.8623 9.91378 18.7456C9.03044 19.629 9.03044 20.954 9.91378 21.8374L18.7471 30.6707C19.1888 31.1124 19.8513 31.3332 20.293 31.3332C20.7346 31.3332 21.3972 31.1124 21.8388 30.6707Z" fill="#0C1E4B"/>
</svg>
