<svg width="277" height="109" viewBox="0 0 277 109" fill="none" xmlns="http://www.w3.org/2000/svg">
<g clip-path="url(#clip0_392_1061)">
<path d="M120.357 25.1375C117.077 26.2369 114.228 27.9987 111.888 30.3736C109.109 33.0586 107.095 36.3779 105.907 40.2539C104.776 43.9396 104.203 48.7247 104.203 54.4823C104.203 59.1899 103.814 62.9249 103.058 65.5747C102.351 68.0412 101.185 70.0497 99.4951 71.7058L99.4597 71.7411C98.1731 73.0589 96.5613 74.0103 94.5465 74.6516C92.4681 75.3211 90.2271 75.5607 87.8871 75.3774L84.7695 75.1308V84.7433L87.4135 84.9688C88.2406 85.0392 89.0607 85.0745 89.8666 85.0745C92.6519 85.0745 95.3029 84.6516 97.7843 83.806C101.008 82.7066 103.857 81.0012 106.253 78.7178L106.296 78.6756C109.01 75.9906 110.99 72.6431 112.17 68.7389C113.302 65.018 113.867 60.2188 113.867 54.4612C113.867 49.8241 114.256 46.1031 115.019 43.4111C115.726 40.9304 116.872 38.9572 118.54 37.3786L118.568 37.3504C119.947 36.0044 121.615 35.0178 123.665 34.3271C125.708 33.6436 127.914 33.4181 130.219 33.6577L133.407 33.9889V24.1861L130.763 23.9606C127.087 23.6435 123.58 24.0311 120.35 25.1164L120.357 25.1375Z" fill="white"/>
<path d="M147.616 23.8762H137.945V85.1028H147.616V23.8762Z" fill="white"/>
<path d="M202.305 31.17C200.813 29.676 199.152 28.3229 197.342 27.1249C192.818 24.1369 187.685 22.6217 182.093 22.6217C177.979 22.6217 174.041 23.4674 170.386 25.1305C166.767 26.7725 163.571 29.0488 160.878 31.8818C158.192 34.7078 156.05 38.0552 154.523 41.8185C152.989 45.5958 152.211 49.6691 152.211 53.9256C152.211 58.1822 152.989 62.2344 154.53 65.9483C156.064 69.6481 158.206 72.9392 160.892 75.7299C163.593 78.5347 166.795 80.7687 170.415 82.3754C174.062 83.9963 177.993 84.8208 182.093 84.8208C186.193 84.8208 190.117 83.9963 193.772 82.3754C197.384 80.7687 200.587 78.5347 203.294 75.7299C205.981 72.9392 208.123 69.6481 209.657 65.9483C211.198 62.2344 211.976 58.1892 211.976 53.9256V0H202.305V31.17ZM182.086 75.1802C179.357 75.1802 176.756 74.6305 174.345 73.5523C171.899 72.4529 169.729 70.9236 167.898 69.0068C166.053 67.0758 164.568 64.7784 163.487 62.1921C162.412 59.6269 161.868 56.8291 161.868 53.8763C161.868 50.9235 162.412 48.0764 163.494 45.4337C164.575 42.7839 166.06 40.4583 167.898 38.5344C169.736 36.6105 171.913 35.0601 174.373 33.9255C176.777 32.8191 179.372 32.2553 182.086 32.2553C184.801 32.2553 187.395 32.8191 189.799 33.9255C192.259 35.0601 194.436 36.6105 196.274 38.5344C198.113 40.4583 199.597 42.7839 200.679 45.4337C201.753 48.0764 202.305 50.9165 202.305 53.8763C202.305 56.8362 201.76 59.6269 200.693 62.1921C199.611 64.7855 198.127 67.0758 196.282 69.0068C194.451 70.9236 192.28 72.4529 189.834 73.5523C187.424 74.6305 184.815 75.1802 182.093 75.1802H182.086Z" fill="white"/>
<path d="M266.933 60.8953L266.184 62.65C265.491 64.285 264.614 65.8706 263.575 67.3788C262.585 68.8093 261.355 70.1131 259.906 71.2547C258.499 72.3682 256.739 73.2844 254.682 73.975C252.61 74.6727 250.129 75.025 247.308 75.025C245.096 75.025 242.954 74.7009 240.939 74.0596C238.91 73.4183 237.029 72.5021 235.347 71.3464C233.679 70.1977 232.18 68.7812 230.893 67.1321C230.165 66.2019 229.522 65.2011 228.97 64.1441L275.536 44.595L274.462 41.9593C273.317 39.1474 271.811 36.5117 269.987 34.1227C268.149 31.7126 266 29.6125 263.61 27.8859C261.214 26.1523 258.556 24.7851 255.693 23.8196C252.815 22.8541 249.783 22.3608 246.679 22.3608C242.572 22.3608 238.634 23.2065 234.972 24.8767C231.36 26.5258 228.157 28.802 225.464 31.6421C222.778 34.4751 220.636 37.8296 219.109 41.5999C217.575 45.3842 216.797 49.4646 216.797 53.7282C216.797 57.9918 217.596 62.0792 219.172 65.8354C220.742 69.5775 222.926 72.8827 225.662 75.6452C228.391 78.4077 231.65 80.6206 235.333 82.2273C239.044 83.8482 243.074 84.6657 247.315 84.6657C254.272 84.6657 260.238 82.9391 265.06 79.5282C269.881 76.1174 273.451 71.1349 275.678 64.7149L277 60.8953H266.933ZM246.686 31.7901C250.355 31.7901 253.628 32.7415 256.682 34.6865C258.831 36.0607 260.684 37.7521 262.218 39.7323L226.496 54.6303C226.482 54.292 226.475 53.9537 226.475 53.6225C226.475 50.5922 227.019 47.7169 228.101 45.0742C229.182 42.4173 230.674 40.0706 232.519 38.1044C234.357 36.1523 236.528 34.5949 238.981 33.4603C241.384 32.3539 243.979 31.7901 246.693 31.7901H246.686Z" fill="white"/>
<path d="M42.3956 0.147949L31.7986 10.7047L63.5896 42.3963L31.7773 74.1019L42.3744 84.6658L84.7624 42.4104L84.7412 42.3892L84.7554 42.3751L42.3956 0.147949Z" fill="#7AA62C"/>
<path d="M10.6041 52.9955L26.4819 68.8237L37.0719 58.2669L21.194 42.4387L37.1002 26.5824L26.4961 16.0115L0 42.4246L10.6041 52.9955Z" fill="white"/>
<path d="M142.783 -0.00550113L135.76 6.99585L142.783 13.9972L149.806 6.99585L142.783 -0.00550113Z" fill="#7AA62C"/>
<path d="M232.06 2.52996V10.2256H229.317V2.52996H226.581V0.155029H234.803V2.52996H232.06Z" fill="white"/>
<path d="M238.967 2.45948V4.90488H240.55C240.981 4.90488 241.321 4.79213 241.561 4.57366C241.801 4.3552 241.922 4.05921 241.922 3.67866C241.922 3.29811 241.801 3.00917 241.561 2.79071C241.321 2.57224 240.981 2.45948 240.55 2.45948H238.967ZM236.224 0.155029H240.882C242.006 0.155029 242.918 0.465109 243.618 1.08527C244.318 1.70543 244.664 2.52291 244.664 3.53772C244.664 4.23539 244.495 4.85555 244.155 5.37705C243.816 5.9056 243.343 6.31434 242.735 6.59623L245.103 10.2185H241.929L239.949 6.98383H238.967V10.2185H236.224V0.155029Z" fill="white"/>
<path d="M249.105 0.155029H246.291V10.2256H249.105V0.155029Z" fill="white"/>
<path d="M254.003 3.38257C254.215 3.55171 254.639 3.77722 255.29 4.05206C257.156 4.85545 258.089 5.91959 258.089 7.23038C258.089 8.11833 257.736 8.86534 257.029 9.46436C256.322 10.0634 255.41 10.3664 254.293 10.3664C253.812 10.3664 253.346 10.31 252.886 10.2043C252.426 10.0916 252.052 9.96472 251.755 9.80968C251.458 9.65464 251.196 9.4996 250.963 9.3516C250.73 9.19656 250.567 9.06971 250.461 8.964L250.306 8.79487L251.896 7.06829C251.981 7.15286 252.101 7.25857 252.25 7.37837C252.398 7.49817 252.695 7.66026 253.133 7.86463C253.579 8.069 254.003 8.17471 254.42 8.17471C254.667 8.17471 254.88 8.11833 255.042 7.99853C255.205 7.87873 255.29 7.72369 255.29 7.5475C255.29 7.3079 255.141 7.07534 254.858 6.85687C254.569 6.63841 254.01 6.34947 253.183 5.99711C251.656 5.33466 250.885 4.341 250.885 3.01612C250.885 2.14225 251.225 1.42343 251.896 0.8667C252.568 0.302919 253.452 0.0280762 254.533 0.0280762C255.198 0.0280762 255.827 0.140832 256.421 0.373392C257.015 0.605952 257.446 0.831464 257.707 1.06402L258.096 1.39525L256.506 3.12182C256.449 3.05135 256.364 2.97383 256.244 2.86812C256.131 2.76946 255.905 2.63556 255.565 2.47348C255.226 2.31139 254.894 2.22682 254.554 2.22682C254.286 2.22682 254.074 2.2832 253.918 2.38891C253.763 2.50167 253.685 2.63556 253.685 2.79765C253.685 3.03021 253.791 3.22753 254.003 3.39667" fill="white"/>
<path d="M268.219 0.155029V6.0113C268.219 7.32209 267.802 8.37918 266.968 9.17552C266.134 9.97186 265.045 10.3665 263.702 10.3665C262.359 10.3665 261.277 9.98596 260.478 9.21781C259.672 8.44966 259.27 7.41371 259.27 6.09587V0.155029H262.055V5.97607C262.055 6.55394 262.21 7.00497 262.521 7.34324C262.833 7.6815 263.257 7.84359 263.78 7.84359C264.303 7.84359 264.734 7.67446 265.045 7.34324C265.356 7.00497 265.512 6.55394 265.512 5.97607V0.155029H268.212H268.219Z" fill="white"/>
<path d="M269.647 0.155029V10.2256H277V7.78017H272.383V0.155029H269.647Z" fill="white"/>
<path d="M217.454 9.1966H218.31C218.6 9.1966 218.805 9.14727 218.925 9.04156C219.045 8.93585 219.102 8.80195 219.102 8.62577C219.102 8.46369 219.045 8.33683 218.925 8.23817C218.805 8.13951 218.6 8.09018 218.303 8.09018H217.447V9.18955L217.454 9.1966ZM217.454 7.06128H218.19C218.451 7.06128 218.635 7.019 218.741 6.92738C218.847 6.83577 218.897 6.70892 218.897 6.53274C218.897 6.3777 218.847 6.25084 218.741 6.15923C218.635 6.06762 218.458 6.02533 218.204 6.02533H217.462V7.05423L217.454 7.06128ZM215.758 4.92596H218.911C219.441 4.92596 219.837 5.05281 220.12 5.31356C220.402 5.57431 220.544 5.89848 220.544 6.27903C220.544 6.60321 220.445 6.87805 220.24 7.10356C220.105 7.2586 219.908 7.37841 219.653 7.46297C220.042 7.55459 220.332 7.71668 220.523 7.94923C220.706 8.17475 220.798 8.46369 220.798 8.809C220.798 9.09089 220.735 9.34459 220.6 9.57011C220.466 9.79562 220.289 9.9718 220.063 10.1057C219.922 10.1903 219.71 10.2466 219.42 10.2819C219.038 10.3312 218.791 10.3524 218.663 10.3524H215.758V4.91187V4.92596Z" fill="white"/>
<path d="M220.671 4.92603H222.544L223.64 6.76536L224.743 4.92603H226.602L224.481 8.09025V10.3665H222.792V8.09025L220.671 4.92603Z" fill="white"/>
<path d="M91.0041 106.23C91.8029 106.23 92.4463 106.146 92.9411 105.97C93.8813 105.638 94.355 105.011 94.355 104.102C94.355 103.574 94.1217 103.158 93.6551 102.869C93.1885 102.587 92.4533 102.333 91.4565 102.115L89.7457 101.734C88.0703 101.354 86.9038 100.945 86.2605 100.501C85.1718 99.761 84.6275 98.5982 84.6275 97.0196C84.6275 95.5819 85.1506 94.3839 86.204 93.4255C87.2573 92.4741 88.7984 91.9949 90.8344 91.9949C92.5382 91.9949 93.9874 92.4459 95.1892 93.3409C96.391 94.243 97.0202 95.5467 97.0767 97.2521H93.8318C93.7753 96.2867 93.3511 95.596 92.5594 95.1873C92.0362 94.9195 91.3788 94.7856 90.6011 94.7856C89.7316 94.7856 89.0388 94.9618 88.5227 95.3071C88.0067 95.6595 87.7451 96.1457 87.7451 96.7729C87.7451 97.3508 87.9996 97.7736 88.5086 98.0626C88.8338 98.2528 89.5407 98.4713 90.6082 98.725L93.3865 99.3875C94.6024 99.6764 95.5285 100.064 96.1435 100.557C97.105 101.311 97.5857 102.411 97.5857 103.841C97.5857 105.272 97.0201 106.533 95.8961 107.506C94.7721 108.478 93.1744 108.965 91.1172 108.965C89.06 108.965 87.3634 108.485 86.1545 107.527C84.9527 106.569 84.3447 105.258 84.3447 103.581H87.5613C87.6603 104.313 87.8653 104.863 88.1622 105.23C88.7065 105.892 89.6468 106.223 90.9758 106.223L91.0041 106.23Z" fill="#7AA62C"/>
<path d="M108.65 105.251H102.704L101.587 108.556H98.0596L103.821 92.467H107.632L113.344 108.556H109.689L108.65 105.251ZM107.709 102.481L105.695 96.1528L103.616 102.481H107.709Z" fill="#7AA62C"/>
<path d="M125.885 107.351C124.683 108.45 123.142 109 121.261 109C118.942 109 117.119 108.26 115.789 106.773C114.46 105.279 113.796 103.235 113.796 100.642C113.796 97.8371 114.552 95.6666 116.065 94.1514C117.38 92.8265 119.048 92.1641 121.077 92.1641C123.792 92.1641 125.779 93.052 127.037 94.8279C127.73 95.8216 128.104 96.8223 128.154 97.8301H124.782C124.563 97.0619 124.28 96.477 123.94 96.0823C123.325 95.3847 122.421 95.0323 121.212 95.0323C120.003 95.0323 119.02 95.5256 118.313 96.5122C117.606 97.4988 117.253 98.8942 117.253 100.698C117.253 102.502 117.628 103.855 118.377 104.75C119.126 105.645 120.074 106.097 121.226 106.097C122.378 106.097 123.311 105.709 123.933 104.941C124.28 104.525 124.563 103.905 124.789 103.073H128.126C127.836 104.828 127.086 106.252 125.892 107.351H125.885Z" fill="#7AA62C"/>
<path d="M136.934 109C134.63 109 132.862 108.373 131.646 107.125C130.013 105.589 129.193 103.376 129.193 100.487C129.193 97.5973 130.013 95.3281 131.646 93.8482C132.862 92.5938 134.63 91.9736 136.934 91.9736C139.239 91.9736 141.006 92.6008 142.222 93.8482C143.848 95.3281 144.661 97.541 144.661 100.487C144.661 103.432 143.848 105.589 142.222 107.125C141.006 108.38 139.239 109 136.934 109ZM140.123 104.68C140.907 103.7 141.296 102.298 141.296 100.487C141.296 98.6756 140.9 97.2873 140.116 96.3007C139.331 95.314 138.27 94.8207 136.934 94.8207C135.598 94.8207 134.531 95.314 133.739 96.2936C132.94 97.2732 132.544 98.6756 132.544 100.487C132.544 102.298 132.94 103.693 133.739 104.68C134.538 105.659 135.598 106.153 136.934 106.153C138.27 106.153 139.331 105.659 140.123 104.68Z" fill="#7AA62C"/>
<path d="M149.426 108.556H146.287V92.467H151.193L154.127 105.117L157.04 92.467H161.889V108.556H158.75V97.675C158.75 97.3649 158.75 96.9209 158.765 96.3571C158.765 95.7933 158.772 95.3564 158.772 95.0534L155.718 108.556H152.445L149.412 95.0534C149.412 95.3564 149.412 95.7933 149.426 96.3571C149.426 96.9209 149.433 97.3578 149.433 97.675V108.556H149.426Z" fill="#7AA62C"/>
<path d="M173.574 105.251H167.629L166.512 108.556H162.984L168.746 92.467H172.556L178.268 108.556H174.614L173.574 105.251ZM172.238 90.8744C172.012 90.8744 171.694 90.818 171.277 90.7123C171.036 90.6559 170.803 90.5854 170.584 90.515L169.7 90.219C169.573 90.1767 169.453 90.1414 169.34 90.1274C169.227 90.1133 169.106 90.0992 168.986 90.0992C168.711 90.0992 168.484 90.1767 168.308 90.3388C168.131 90.5079 168.011 90.7334 167.933 91.0294H166.512C166.675 90.2824 166.88 89.7116 167.134 89.324C167.601 88.6333 168.293 88.288 169.213 88.288C169.41 88.288 169.601 88.3092 169.792 88.3514C169.983 88.3937 170.146 88.4431 170.273 88.4924L171.305 88.8729C171.609 88.9716 171.814 89.0421 171.906 89.0703C171.998 89.0985 172.104 89.1125 172.224 89.1125C172.578 89.1125 172.818 89.0209 172.966 88.8307C173.115 88.6404 173.214 88.4219 173.277 88.1682H174.734C174.599 88.9293 174.338 89.5706 173.949 90.0921C173.56 90.6066 172.988 90.8673 172.238 90.8673V90.8744ZM172.634 102.474L170.619 96.1457L168.541 102.474H172.634Z" fill="#7AA62C"/>
</g>
<defs>
<clipPath id="clip0_392_1061">
<rect width="277" height="109" fill="white"/>
</clipPath>
</defs>
</svg>
