<svg xmlns="http://www.w3.org/2000/svg" width="29.002" height="29.054" viewBox="0 0 29.002 29.054"><defs><style>.a{fill:none;stroke:#f04f28;stroke-linecap:round;stroke-linejoin:round;stroke-width:3px;}</style></defs><g transform="translate(1.501 1.5)"><path class="a" d="M29.167,22.5v3.922a2.615,2.615,0,0,1-2.85,2.615,25.871,25.871,0,0,1-11.282-4.013,25.492,25.492,0,0,1-7.844-7.844A25.871,25.871,0,0,1,3.178,5.85,2.615,2.615,0,0,1,5.78,3H9.7a2.615,2.615,0,0,1,2.615,2.249,16.785,16.785,0,0,0,.915,3.673,2.615,2.615,0,0,1-.588,2.758l-1.66,1.66a20.916,20.916,0,0,0,7.844,7.844l1.66-1.66a2.615,2.615,0,0,1,2.758-.588,16.785,16.785,0,0,0,3.673.915A2.615,2.615,0,0,1,29.167,22.5Z" transform="translate(-3.168 -3)"/></g></svg>