<svg xmlns="http://www.w3.org/2000/svg" width="24" height="24" viewBox="0 0 24 24"><defs><style>.a{fill:none;}.b{fill:#f04f28;}</style></defs><rect class="a" width="24" height="24"/><path class="b" d="M58.116,18.912a.794.794,0,0,1-.4,1.025.74.74,0,0,1-.984-.413l-2.392-5.851a7.629,7.629,0,0,1-5.328.673.78.78,0,0,1,.4-1.506,6.189,6.189,0,0,0,4.339-.608l-.58-1.419a.794.794,0,0,1,.4-1.025.739.739,0,0,1,.984.413ZM58.5,8.435a8.544,8.544,0,0,1-1.131,2.434.731.731,0,0,1-1.042.2.8.8,0,0,1-.2-1.086,6.964,6.964,0,0,0,.926-1.975.857.857,0,0,0-.132-.73.786.786,0,0,0-.64-.33H45.147a.786.786,0,0,0-.64.33.857.857,0,0,0-.132.73,6.9,6.9,0,0,0,2.02,3.31l.443-1.115a.739.739,0,0,1,.979-.423.793.793,0,0,1,.406,1.021l-1.992,5.016a2.344,2.344,0,1,1-1.42-.51L45.8,12.83a8.458,8.458,0,0,1-2.865-4.395,2.459,2.459,0,0,1,.381-2.1,2.254,2.254,0,0,1,1.835-.949H56.285A2.387,2.387,0,0,1,58.5,8.435Zm-12.921,9.22a.766.766,0,0,0-.75-.781.782.782,0,0,0,0,1.562A.766.766,0,0,0,45.581,17.655ZM50.706,3.749a.726.726,0,0,1-.434-.145.82.82,0,0,1-.132-1.16c-.016-.031-.039-.071-.057-.1A1.789,1.789,0,0,1,50.059.389.733.733,0,0,1,51.083.1a.8.8,0,0,1,.272,1.068.515.515,0,0,0-.077.192,1.215,1.215,0,0,0,.091.177,1.586,1.586,0,0,1-.052,1.88A.74.74,0,0,1,50.706,3.749Zm-2.388-.328a1.586,1.586,0,0,0,.052-1.88,1.209,1.209,0,0,1-.091-.177.515.515,0,0,1,.077-.192A.8.8,0,0,0,48.084.1.733.733,0,0,0,47.06.389a1.789,1.789,0,0,0,.024,1.954c.018.032.041.071.057.1a.82.82,0,0,0,.132,1.16.726.726,0,0,0,.434.145A.74.74,0,0,0,48.319,3.421Zm5.96,0a1.586,1.586,0,0,0,.052-1.88,1.21,1.21,0,0,1-.091-.177.514.514,0,0,1,.077-.192A.8.8,0,0,0,54.045.1.733.733,0,0,0,53.02.389a1.789,1.789,0,0,0,.024,1.954c.018.032.041.071.057.1a.82.82,0,0,0,.132,1.16.726.726,0,0,0,.434.145A.74.74,0,0,0,54.279,3.421Z" transform="translate(-38.593 2.001)"/></svg>