<svg id="elevadores" xmlns="http://www.w3.org/2000/svg" width="22" height="22" viewBox="0 0 22 22">
  <g id="Grupo_4528" data-name="Grupo 4528" transform="translate(-987.831 -258.831)">
    <path id="Caminho_2036" data-name="Caminho 2036" d="M176.368,81.353a.923.923,0,0,0,1.292-.185l2.031-2.707,2.031,2.707a.923.923,0,0,0,1.477-1.108l-2.769-3.692a.923.923,0,0,0-1.477,0l-2.769,3.692A.923.923,0,0,0,176.368,81.353Z" transform="translate(819.141 182.831)" fill="#f04f28"/>
    <path id="Caminho_2037" data-name="Caminho 2037" d="M183.013,316.183a.923.923,0,0,0-1.292.185l-2.031,2.707-2.031-2.707a.923.923,0,1,0-1.477,1.108l2.769,3.692a.923.923,0,0,0,1.477,0l2.769-3.692A.923.923,0,0,0,183.013,316.183Z" transform="translate(819.141 -40.705)" fill="#f04f28"/>
    <path id="Caminho_2158" data-name="Caminho 2158" d="M.369,5.353a.923.923,0,0,0,1.292-.185L3.692,2.461,5.722,5.169A.923.923,0,0,0,7.2,4.061L4.43.369a.923.923,0,0,0-1.477,0L.185,4.061A.923.923,0,0,0,.369,5.353Z" transform="translate(987.831 273.523) rotate(-90)" fill="#f04f28"/>
    <path id="Caminho_2159" data-name="Caminho 2159" d="M7.015.185A.923.923,0,0,0,5.722.369L3.692,3.077,1.661.369A.923.923,0,1,0,.185,1.477L2.954,5.169a.923.923,0,0,0,1.477,0L7.2,1.477A.923.923,0,0,0,7.015.185Z" transform="translate(1004.293 273.523) rotate(-90)" fill="#f04f28"/>
    <circle id="Elipse_8" data-name="Elipse 8" cx="2" cy="2" r="2" transform="translate(996.831 267.831)" fill="#f04f28"/>
  </g>
</svg>
