<svg xmlns="http://www.w3.org/2000/svg" width="24" height="24" viewBox="0 0 24 24"><defs><style>.a{fill:none;}.b{fill:#f04f28;stroke:#f04f28;stroke-width:0.4px;fill-rule:evenodd;}</style></defs><rect class="a" width="24" height="24"/><g transform="translate(-2.581 -7)"><g transform="translate(0 8)"><g transform="translate(3.407)"><path class="b" d="M7.19,52.8H12.8V50.749H7.19Zm17.711,0H18.047V45.335l1.331-1.341a.516.516,0,0,0,0-.723.5.5,0,0,0-.718,0l-.613.618v-3.37a.508.508,0,1,0-1.015,0V42.1l-.866-.873a.5.5,0,0,0-.718,0,.514.514,0,0,0,0,.724l1.584,1.6V52.8h-3.22V50.749h.508a.512.512,0,0,0,0-1.023H5.666a.512.512,0,0,0,0,1.023h.508V52.8H3.914a.512.512,0,0,0,0,1.023H24.9a.512.512,0,0,0,0-1.023Z" transform="translate(-3.407 -31.819)"/><path class="b" d="M42.335,22.027a7.606,7.606,0,0,0,2.379,1.083.511.511,0,0,0,.253-.991,6.613,6.613,0,1,1,3.126.037.512.512,0,0,0,.228,1,7.614,7.614,0,1,0-5.987-1.127" transform="translate(-32.477 -8)"/></g></g></g></svg>