<svg xmlns="http://www.w3.org/2000/svg" width="24" height="24" viewBox="0 0 24 24"><defs><style>.a{fill:none;}.b{fill:#f04f28;}</style></defs><rect class="a" width="24" height="24"/><g transform="translate(0 3)"><path class="b" d="M5.93,66.791H1.406V58.456a.7.7,0,1,0-1.406,0V75.635a.7.7,0,0,0,1.406,0V71.162H6.519v4.474a.7.7,0,0,0,1.406,0V68.787a2,2,0,0,0-2-2ZM1.406,69.755V68.2H5.93a.59.59,0,0,1,.589.589v.968H1.406Z" transform="translate(0 -57.753)"/><path class="b" d="M352.252,57.753a.7.7,0,0,0-.7.7v8.335h-4.419a2,2,0,0,0-2,2v6.848a.7.7,0,0,0,1.406,0V71.161h5.008v4.474a.7.7,0,0,0,1.406,0V58.456A.7.7,0,0,0,352.252,57.753Zm-5.711,12v-.968a.59.59,0,0,1,.589-.589h4.419v1.558h-5.008Z" transform="translate(-328.956 -57.753)"/><path class="b" d="M77.971,150.718h-.876V143.85l2.208-2.47h5.18a.7.7,0,0,0,.7-.7v-2.649a.7.7,0,0,0-.7-.7H68.221a.7.7,0,0,0-.7.7v2.649a.7.7,0,0,0,.7.7h5.221l2.247,2.473v6.865h-.955a.7.7,0,0,0,0,1.406h3.237a.7.7,0,1,0,0-1.406Zm5.809-10.744H80.561l1.111-1.242H83.78Zm-3.995-1.242-3.4,3.8-3.452-3.8Zm-10.86,1.242v-1.242h2.112l1.129,1.242Z" transform="translate(-64.353 -133.596)"/></g></svg>