<svg xmlns="http://www.w3.org/2000/svg" width="24" height="24" viewBox="0 0 24 24"><defs><style>.a{fill:none;fill-rule:evenodd;}.b{fill:#f04f28;}</style></defs><path class="a" d="M0,0H24V24H0Z"/><path class="b" d="M1,18V11.842a1.433,1.433,0,0,1,.474-1.067L2.887,9.513,1.422,8.986a.66.66,0,0,1-.373-.866L1.2,7.731a.626.626,0,0,1,.578-.4H3.9l.744-2.838A2,2,0,0,1,6.578,3H17.422a2,2,0,0,1,1.935,1.493L20.1,7.33h2.118a.626.626,0,0,1,.578.4l.155.388a.66.66,0,0,1-.373.866l-1.466.527,1.413,1.262A1.433,1.433,0,0,1,23,11.842V20a1,1,0,0,1-1,1H20a1,1,0,0,1-1-1V18H5v2a1,1,0,0,1-1,1H2a1,1,0,0,1-1-1Zm8.781-6a1,1,0,0,0-.97.757L8,16h8l-.811-3.243a1,1,0,0,0-.97-.757ZM3.314,15A.328.328,0,0,0,3,15.34v.321a.321.321,0,0,0,.38.332l1.372-.321A.335.335,0,0,0,5,15.34.328.328,0,0,0,4.686,15Zm17.372,0H19.314a.328.328,0,0,0-.314.34.335.335,0,0,0,.248.332l1.372.321A.321.321,0,0,0,21,15.66V15.34A.328.328,0,0,0,20.686,15ZM5.75,9h12.5l-.816-3.336A.883.883,0,0,0,16.569,5H7.431a.883.883,0,0,0-.865.664ZM6.3,11.4l-3-.4a.29.29,0,0,0-.3.312v.669a.878.878,0,0,0,.8.9L6.8,13a.2.2,0,0,0,.2-.208v-.6A.8.8,0,0,0,6.3,11.4Zm11.4,0a.8.8,0,0,0-.7.784v.6a.2.2,0,0,0,.2.208l3-.121a.878.878,0,0,0,.8-.9v-.669A.29.29,0,0,0,20.7,11ZM6.614,8.488A.66.66,0,0,1,7.217,8H9.783a.642.642,0,0,1,.6.488L10.5,9h-4Zm7,0a.66.66,0,0,1,.6-.488h2.567a.642.642,0,0,1,.6.488L17.5,9h-4Z"/></svg>