<svg id="Componente_73" data-name="Componente 73" xmlns="http://www.w3.org/2000/svg" width="27" height="27" viewBox="0 0 27 27">
  <g id="noun_Architecture_3052856" transform="translate(58.68 -143.32)">
    <g id="Grupo_4527" data-name="Grupo 4527" transform="translate(-55 147)">
      <g id="Caminho_2156" data-name="Caminho 2156" transform="translate(55 -147)" fill="#f04f28">
        <path d="M -37.09736633300781 166.8000030517578 L -40.38232803344727 166.8000030517578 L -40.58232879638672 166.8000030517578 L -40.58232879638672 166.6000061035156 L -40.58232879638672 163.9697875976562 L -54.99999618530273 163.9697875976562 L -55.19999694824219 163.9697875976562 L -55.19999694824219 163.7697906494141 L -55.19999694824219 147.0000152587891 L -55.19999694824219 146.8000183105469 L -54.99999618530273 146.8000183105469 L -37.53639602661133 146.8000183105469 C -36.24809646606445 146.8000183105469 -35.19999694824219 147.8463745117188 -35.19999694824219 149.1325073242188 L -35.19999694824219 164.9065704345703 C -35.19999694824219 165.9506225585938 -36.05115509033203 166.8000030517578 -37.09736633300781 166.8000030517578 Z M -39.62568664550781 165.8433990478516 L -37.09736633300781 165.8433990478516 C -36.84539794921875 165.8433990478516 -36.60863876342773 165.7447814941406 -36.43068695068359 165.5657348632812 C -36.25494766235352 165.3888854980469 -36.15900802612305 165.1552276611328 -36.16055679321289 164.9078216552734 C -36.16055679321289 164.8796691894531 -36.16055679321289 164.8602294921875 -36.16293716430664 164.8412322998047 L -36.16447830200195 164.8288726806641 L -36.16447830200195 164.8173370361328 C -36.20698165893555 164.3563690185547 -36.5723762512207 164.0013885498047 -37.03726577758789 163.9697875976562 L -39.62568664550781 163.9697875976562 L -39.62568664550781 165.8433990478516 Z M -37.45791625976562 163.0170593261719 L -37.01504516601562 163.0170593261719 L -37.00720596313477 163.0170593261719 L -37.00240707397461 163.0170593261719 L -36.99761581420898 163.0172882080078 C -36.69978713989258 163.0315856933594 -36.41142654418945 163.1161651611328 -36.15664672851562 163.2610015869141 L -36.15664672851562 149.1325073242188 C -36.15664672851562 148.3738555908203 -36.77559661865234 147.7566528320312 -37.53639602661133 147.7566528320312 L -54.24335861206055 147.7566528320312 L -54.24335861206055 163.0131988525391 L -40.57952117919922 163.0169982910156 L -40.38232803344727 163.0131378173828 L -37.65791702270508 163.0131378173828 L -37.45791625976562 163.0131378173828 L -37.45791625976562 163.0170593261719 Z" stroke="none"/>
        <path d="M -54.99999618530273 147.0000152587891 L -54.99999618530273 163.7697906494141 L -40.38232803344727 163.7697906494141 L -40.38232803344727 166.6000061035156 L -37.09736633300781 166.6000061035156 C -36.16048812866211 166.6000061035156 -35.39999771118164 165.8394927978516 -35.39999771118164 164.9065704345703 L -35.39999771118164 149.1325073242188 C -35.39999771118164 147.9564819335938 -36.36039733886719 147.0000152587891 -37.53639602661133 147.0000152587891 L -54.99999618530273 147.0000152587891 M -35.95664596557617 163.6521759033203 C -36.23496627807617 163.3973693847656 -36.59952545166016 163.2366333007812 -37.00720596313477 163.2170562744141 L -37.65791702270508 163.2170562744141 L -37.65791702270508 163.213134765625 L -40.38232803344727 163.213134765625 L -40.38232803344727 163.2170562744141 L -54.44335556030273 163.213134765625 L -54.44335556030273 147.5566558837891 L -37.53639602661133 147.5566558837891 C -36.66616821289062 147.5566558837891 -35.95664596557617 148.2622528076172 -35.95664596557617 149.1325073242188 L -35.95664596557617 163.6521759033203 M -37.09736633300781 166.0433959960938 L -39.82568740844727 166.0433959960938 L -39.82568740844727 163.7697906494141 L -37.03072738647461 163.7697906494141 C -36.46232604980469 163.8050384521484 -36.01152801513672 164.2480163574219 -35.9644775390625 164.8085479736328 C -35.9644775390625 164.8124847412109 -35.9644775390625 164.8164215087891 -35.9644775390625 164.8164215087891 C -35.96055603027344 164.8477783203125 -35.96055603027344 164.8751678466797 -35.96055603027344 164.9065704345703 C -35.95664596557617 165.5337524414062 -36.47015762329102 166.0433959960938 -37.09736633300781 166.0433959960938 M -55.39999771118164 146.6000213623047 L -37.53639602661133 146.6000213623047 C -36.1378173828125 146.6000213623047 -34.99999618530273 147.736083984375 -34.99999618530273 149.1325073242188 L -34.99999618530273 164.9065704345703 C -34.99999618530273 166.0608978271484 -35.94087600708008 167.0000152587891 -37.09736633300781 167.0000152587891 L -40.78232574462891 167.0000152587891 L -40.78232574462891 164.1697845458984 L -55.39999771118164 164.1697845458984 L -55.39999771118164 146.6000213623047 Z M -36.35664749145508 162.9474487304688 L -36.35664749145508 149.1325073242188 C -36.35664749145508 148.484130859375 -36.8858757019043 147.9566650390625 -37.53639602661133 147.9566650390625 L -54.04335784912109 147.9566650390625 L -54.04335784912109 162.8132476806641 L -40.77125930786133 162.8169555664062 L -40.38232803344727 162.8131408691406 L -37.25791549682617 162.8131408691406 L -37.25791549682617 162.8170623779297 L -36.9880256652832 162.8175201416016 C -36.77048873901367 162.8279571533203 -36.55746459960938 162.8723297119141 -36.35664749145508 162.9474487304688 Z M -37.04436111450195 164.1697845458984 L -39.42568588256836 164.1697845458984 L -39.42568588256836 165.6434020996094 L -37.09736633300781 165.6434020996094 C -36.89905548095703 165.6434020996094 -36.71267700195312 165.5657501220703 -36.57254791259766 165.4247436523438 C -36.43462753295898 165.2859649658203 -36.35933685302734 165.1028289794922 -36.36054611206055 164.9090576171875 C -36.36055755615234 164.8883819580078 -36.36055755615234 164.8726806640625 -36.36138534545898 164.8660278320312 L -36.36447525024414 164.8270874023438 C -36.40143585205078 164.4710388183594 -36.68426895141602 164.1972808837891 -37.04436111450195 164.1697845458984 Z" stroke="none" fill="#f04f28"/>
      </g>
      <g id="Caminho_2157" data-name="Caminho 2157" transform="translate(-21.288 -229.437)" fill="#f04f28">
        <path d="M 38.41407775878906 243.0431060791016 L 38.21408081054688 243.0431060791016 L 24.39999961853027 243.0431060791016 L 24.19999885559082 243.0431060791016 L 24.19999885559082 242.8431091308594 L 24.19999885559082 232.800048828125 L 24.19999885559082 232.6000518798828 L 24.39999961853027 232.6000518798828 L 33.31760025024414 232.6000518798828 L 33.51760101318359 232.6000518798828 L 33.51760101318359 232.800048828125 L 33.51760101318359 233.3566741943359 L 33.51760101318359 233.5566864013672 L 33.31760025024414 233.5566864013672 L 31.22871971130371 233.5566864013672 L 31.22871971130371 234.6345825195312 L 31.22871971130371 234.8345794677734 L 31.02871894836426 234.8345794677734 L 30.46815872192383 234.8345794677734 L 30.26815986633301 234.8345794677734 L 30.26815986633301 234.6345825195312 L 30.26815986633301 233.5566864013672 L 25.15663909912109 233.5566864013672 L 25.15663909912109 237.3432312011719 L 30.26815986633301 237.3432312011719 L 30.26815986633301 237.006591796875 L 30.26815986633301 236.8065948486328 L 30.46815872192383 236.8065948486328 L 31.02871894836426 236.8065948486328 L 31.22871971130371 236.8065948486328 L 31.22871971130371 237.006591796875 L 31.22871971130371 237.3432312011719 L 33.44343948364258 237.3432312011719 L 33.64344024658203 237.3432312011719 L 33.64344024658203 237.5432281494141 L 33.64344024658203 239.1622009277344 L 33.64344024658203 239.3621978759766 L 33.44343948364258 239.3621978759766 L 32.88679885864258 239.3621978759766 L 32.68679809570312 239.3621978759766 L 32.68679809570312 239.1622009277344 L 32.68679809570312 238.2998657226562 L 25.15663909912109 238.2998657226562 L 25.15663909912109 242.08642578125 L 32.68679809570312 242.08642578125 L 32.68679809570312 241.6439514160156 L 32.68679809570312 241.4439544677734 L 32.88679885864258 241.4439544677734 L 33.44343948364258 241.4439544677734 L 33.64344024658203 241.4439544677734 L 33.64344024658203 241.6439514160156 L 33.64344024658203 242.08642578125 L 37.45743942260742 242.08642578125 L 37.45743942260742 233.5566864013672 L 36.44223785400391 233.5566864013672 L 36.24224090576172 233.5566864013672 L 36.24224090576172 233.3566741943359 L 36.24224090576172 232.800048828125 L 36.24224090576172 232.6000518798828 L 36.44223785400391 232.6000518798828 L 38.21408081054688 232.6000518798828 L 38.41407775878906 232.6000518798828 L 38.41407775878906 232.800048828125 L 38.41407775878906 242.8431091308594 L 38.41407775878906 243.0431060791016 Z" stroke="none"/>
        <path d="M 24.39999771118164 232.800048828125 L 24.39999771118164 242.8431091308594 L 38.21408081054688 242.8431091308594 L 38.21408081054688 232.800048828125 L 36.44223785400391 232.800048828125 L 36.44223785400391 233.3566741943359 L 37.65744018554688 233.3566741943359 L 37.65744018554688 242.2864227294922 L 33.44343948364258 242.2864227294922 L 33.44343948364258 241.6439514160156 L 32.88679885864258 241.6439514160156 L 32.88679885864258 242.2864227294922 L 24.95663833618164 242.2864227294922 L 24.95663833618164 238.0998687744141 L 32.88679885864258 238.0998687744141 L 32.88679885864258 239.1622009277344 L 33.44343948364258 239.1622009277344 L 33.44343948364258 237.5432281494141 L 31.02871894836426 237.5432281494141 L 31.02871894836426 237.006591796875 L 30.46815872192383 237.006591796875 L 30.46815872192383 237.5432281494141 L 24.95663833618164 237.5432281494141 L 24.95663833618164 233.3566741943359 L 30.46815872192383 233.3566741943359 L 30.46815872192383 234.6345825195312 L 31.02871894836426 234.6345825195312 L 31.02871894836426 233.3566741943359 L 33.31759643554688 233.3566741943359 L 33.31759643554688 232.800048828125 L 24.39999771118164 232.800048828125 M 24 232.4000549316406 L 33.71759796142578 232.4000549316406 L 33.71759796142578 233.7566833496094 L 31.42871856689453 233.7566833496094 L 31.42871856689453 235.0345764160156 L 30.06816101074219 235.0345764160156 L 30.06816101074219 233.7566833496094 L 25.35663986206055 233.7566833496094 L 25.35663986206055 237.1432342529297 L 30.06816101074219 237.1432342529297 L 30.06816101074219 236.6065826416016 L 31.42871856689453 236.6065826416016 L 31.42871856689453 237.1432342529297 L 33.84343719482422 237.1432342529297 L 33.84343719482422 239.5621948242188 L 32.48680114746094 239.5621948242188 L 32.48680114746094 238.4998626708984 L 25.35663986206055 238.4998626708984 L 25.35663986206055 241.8864135742188 L 32.48680114746094 241.8864135742188 L 32.48680114746094 241.2439422607422 L 33.84343719482422 241.2439422607422 L 33.84343719482422 241.8864135742188 L 37.25743865966797 241.8864135742188 L 37.25743865966797 233.7566833496094 L 36.04224014282227 233.7566833496094 L 36.04224014282227 232.4000549316406 L 38.61407852172852 232.4000549316406 L 38.61407852172852 243.2431030273438 L 24 243.2431030273438 L 24 232.4000549316406 Z" stroke="none" fill="#f04f28"/>
      </g>
    </g>
  </g>
  <path id="Caminho_1830" data-name="Caminho 1830" d="M0,0H27V27H0Z" fill="none"/>
</svg>
