<svg xmlns="http://www.w3.org/2000/svg" width="27" height="27" viewBox="0 0 27 27"><defs><style>.a{fill:#f04f28;}.b{fill:none;fill-rule:evenodd;}</style></defs><g transform="translate(3 3)"><rect class="a" width="2.643" height="13.334" transform="translate(10.19 7.591)"/><path class="a" d="M36.375,18H20.625A2.625,2.625,0,0,0,18,20.625V23.25h2.625V20.625h15.75v15.75H33.75V39h2.625A2.625,2.625,0,0,0,39,36.375V20.625A2.625,2.625,0,0,0,36.375,18Z" transform="translate(-18 -18)"/><rect class="a" width="6.652" height="2.643" transform="translate(4.904 7.591)"/><path class="a" d="M20.625,58H18v5.25a2.625,2.625,0,0,0,2.625,2.625H33.908V63.25H20.625Z" transform="translate(-18 -44.875)"/></g><path class="b" d="M0,0H27V27H0Z"/></svg>