<svg xmlns="http://www.w3.org/2000/svg" width="24.228" height="24.228" viewBox="0 0 24.228 24.228"><defs><style>.a{fill:#f04f28;stroke:#f04f28;stroke-width:0.15px;}.b{fill:none;}</style></defs><g transform="translate(0.106 0.106)"><g transform="translate(21.343 -19.246) rotate(45)"><path class="a" d="M25.464,26.88H24.5V25.7a1.609,1.609,0,0,0-1.607-1.607,1.585,1.585,0,0,0-.539.1,2.035,2.035,0,0,0-4.068.061V26.88H12.714V24.255a2.035,2.035,0,0,0-4.068-.061,1.589,1.589,0,0,0-.539-.1A1.609,1.609,0,0,0,6.5,25.7V26.88H5.536A.536.536,0,0,0,5,27.415v2.571a.536.536,0,0,0,.536.536H6.5V31.7a1.609,1.609,0,0,0,1.607,1.607,1.59,1.59,0,0,0,.539-.1,2.035,2.035,0,0,0,4.068-.061V30.522h5.571v2.625a2.035,2.035,0,0,0,4.068.061,1.584,1.584,0,0,0,.539.1A1.609,1.609,0,0,0,24.5,31.7V30.522h.964A.536.536,0,0,0,26,29.987V27.415A.537.537,0,0,0,25.464,26.88Zm-2.036,3.643V31.7a.536.536,0,0,1-1.072,0v-6a.536.536,0,0,1,1.072,0v4.821ZM21.285,31.7v1.446a.964.964,0,0,1-1.928,0V24.255a.964.964,0,0,1,1.928,0V31.7Zm-9.642-1.179v2.625a.964.964,0,0,1-1.929,0V24.255a.964.964,0,0,1,1.929,0v6.268ZM7.571,31.7v-6a.536.536,0,1,1,1.071,0v6a.536.536,0,1,1-1.071,0Zm-1.5-2.25v-1.5H6.5v1.5Zm6.642,0v-1.5h5.571v1.5Zm12.214,0H24.5v-1.5h.429Z"/></g><rect class="b" width="24" height="24"/><rect class="b" width="24" height="24"/></g></svg>