<svg xmlns="http://www.w3.org/2000/svg" width="24" height="24" viewBox="0 0 24 24"><defs><style>.a{fill:none;}.b{fill:#f04f28;}</style></defs><rect class="a" width="24" height="24"/><g transform="translate(0 4)"><path class="b" d="M23.549,76.56,12.3,72.038a.8.8,0,0,0-.6,0L.451,76.56a.677.677,0,0,0,0,1.277L4.5,79.464v4.343c0,2.341,3.295,4.174,7.5,4.174s7.5-1.833,7.5-4.174V79.464l.75-.3v7.427a.752.752,0,0,0,1.5,0v-8.03l1.8-.723A.677.677,0,0,0,23.549,76.56ZM12,73.435,21.364,77.2l-.743.3-8.529-.989a.741.741,0,0,0-.837.6.708.708,0,0,0,.651.777l6.007.7L12,80.962,2.635,77.2Zm6,10.372c0,.655-.58,1.33-1.591,1.851a10.893,10.893,0,0,1-8.818,0C6.579,85.137,6,84.462,6,83.807v-3.74l5.7,2.292a.8.8,0,0,0,.6,0L18,80.066Z" transform="translate(0 -71.981)"/></g></svg>