<svg xmlns="http://www.w3.org/2000/svg" width="24" height="24" viewBox="0 0 24 24"><defs><style>.a{fill:#f04f28;}.b{fill:none;}</style></defs><g transform="translate(2.016 5.539)"><path class="a" d="M18.917,10.4a8.925,8.925,0,0,0-8.331-8.526V1.172h1V0H8.418V1.172h1v.708A8.925,8.925,0,0,0,1.083,10.4H0v1.333A2.366,2.366,0,0,0,2.363,14.1H17.637A2.366,2.366,0,0,0,20,11.738V10.4ZM10,3.032A7.764,7.764,0,0,1,17.744,10.4H2.256A7.764,7.764,0,0,1,10,3.032Zm8.828,8.706a1.193,1.193,0,0,1-1.191,1.191H2.363a1.193,1.193,0,0,1-1.191-1.191v-.161H18.828Zm0,0"/><path class="a" d="M85.652,164.105l1.16.169a4.379,4.379,0,0,1,1.181-2.327l-.774-.88A5.519,5.519,0,0,0,85.652,164.105Zm0,0" transform="translate(-82.307 -154.775)"/></g><rect class="b" width="24" height="24"/></svg>