<svg xmlns="http://www.w3.org/2000/svg" width="24" height="24" viewBox="0 0 24 24"><defs><style>.a{fill:none;}.b{fill:#f04f28;}</style></defs><rect class="a" width="24" height="24"/><g transform="translate(2 2)"><path class="b" d="M3.073,13.1a3.385,3.385,0,0,0-2.844.961.781.781,0,0,0,1.1,1.1,1.828,1.828,0,0,1,2.583,0,3.393,3.393,0,0,0,4.792,0,1.828,1.828,0,0,1,2.583,0,3.387,3.387,0,0,0,4.792,0,1.828,1.828,0,0,1,2.583,0,.781.781,0,1,0,1.1-1.1,3.393,3.393,0,0,0-4.792,0,1.828,1.828,0,0,1-2.582,0,3.369,3.369,0,0,0-1.615-.9c0-9.864.005-9.319-.007-9.528A3.856,3.856,0,0,0,6.927,0a.781.781,0,1,0,0,1.562A2.292,2.292,0,0,1,9.215,3.719c.007.117,0,.136,0,.891H4.635c0-.736,0-.795-.007-.981A3.856,3.856,0,0,0,.781,0a.781.781,0,1,0,0,1.562A2.292,2.292,0,0,1,3.069,3.719C3.076,3.846,3.072,3.26,3.073,13.1Zm4.531.961a1.828,1.828,0,0,1-2.583,0,3.421,3.421,0,0,0-.386-.332V10.781H9.219v2.376A3.369,3.369,0,0,0,7.6,14.056ZM9.219,6.172V9.218H4.635V6.172Zm0,0"/><path class="b" d="M14.979,433.855a1.828,1.828,0,0,1-2.583,0,3.387,3.387,0,0,0-4.792,0,1.828,1.828,0,0,1-2.583,0,3.387,3.387,0,0,0-4.792,0,.781.781,0,0,0,1.1,1.1,1.825,1.825,0,0,1,2.583,0,3.393,3.393,0,0,0,4.792,0,1.825,1.825,0,0,1,2.583,0,3.387,3.387,0,0,0,4.792,0,1.825,1.825,0,0,1,2.583,0,.781.781,0,0,0,1.1-1.1A3.387,3.387,0,0,0,14.979,433.855Zm0,0" transform="translate(0 -415.954)"/></g></svg>