<svg xmlns="http://www.w3.org/2000/svg" width="24" height="24" viewBox="0 0 24 24"><defs><style>.a{fill:none;}.b{fill:#f04f28;}</style></defs><rect class="a" width="24" height="24"/><g transform="translate(1 1)"><path class="b" d="M193.6,188.734v-1.289h-1.289V186.8a4.518,4.518,0,0,0-3.867-4.465V181h-1.289v1.335a4.518,4.518,0,0,0-3.867,4.465v.645H182v1.289Zm-9.023-1.934a3.223,3.223,0,0,1,6.445,0v.645h-6.445Z" transform="translate(-174.18 -173.223)"/><path class="b" d="M14.266,0H0V18.09H5.242V22H22V3.867H14.266ZM5.242,16.8H1.289V1.289h9.6L5.242,4.113ZM12.977,1.687v2.18H8.617Zm7.734,3.469V20.711H6.531V5.156Z"/><path class="b" d="M212,421h9.023v1.289H212Z" transform="translate(-202.891 -402.91)"/></g></svg>