<svg id="noun_for_sale_2872698" data-name="noun_for sale_2872698" xmlns="http://www.w3.org/2000/svg" width="14.08" height="20.281" viewBox="0 0 14.08 20.281">
  <path id="Caminho_2127" data-name="Caminho 2127" d="M35.338,27.792a.955.955,0,0,0,.991-1.041V19.281H47.258c.615,0,1.122-1.122,1.122-1.122l-2-3.578,2-3.765a1.128,1.128,0,0,0-1.122-1.122H36.329V8.609a1,1,0,0,0-.991-1.1,1.038,1.038,0,0,0-1.038,1.1V26.751A1.011,1.011,0,0,0,35.338,27.792ZM45.584,11.813l-1.6,2.783,1.6,2.548H36.329V11.813Z" transform="translate(-34.3 -7.511)" fill="#f04f28"/>
</svg>
