<svg xmlns="http://www.w3.org/2000/svg" width="69.067" height="69.067" viewBox="0 0 69.067 69.067">
  <path id="Vector" d="M44.237,35.5a12.88,12.88,0,0,0,3.453-8.633,13.054,13.054,0,0,0-26.107,0A12.881,12.881,0,0,0,25.037,35.5,20.512,20.512,0,0,0,13.813,51.42a3.474,3.474,0,1,0,6.907.76,13.813,13.813,0,0,1,27.42,0A3.453,3.453,0,0,0,51.8,55.254h.38a3.453,3.453,0,0,0,3.039-3.8A20.513,20.513,0,0,0,44.237,35.5Zm-9.7-2.486a6.147,6.147,0,1,1,4.346-1.8A6.147,6.147,0,0,1,34.534,33.014ZM58.707,0H10.36A10.36,10.36,0,0,0,0,10.36V58.707a10.36,10.36,0,0,0,10.36,10.36H58.707a10.36,10.36,0,0,0,10.36-10.36V10.36A10.36,10.36,0,0,0,58.707,0ZM62.16,58.707a3.453,3.453,0,0,1-3.453,3.453H10.36a3.453,3.453,0,0,1-3.453-3.453V10.36A3.453,3.453,0,0,1,10.36,6.907H58.707A3.453,3.453,0,0,1,62.16,10.36Z" fill="#93989c"/>
</svg>
