<svg id="Logo" xmlns="http://www.w3.org/2000/svg" width="182.111" height="42.992" viewBox="0 0 182.111 42.992">
  <g id="logo-branco">
    <path id="Caminho_2301" data-name="Caminho 2301" d="M8.288,35.343h0V23h0V16.415h0V0H0V42.992l6.487-1.117c.567.239,1.169.459,1.8.654Z" fill="#fff"/>
    <path id="Caminho_2302" data-name="Caminho 2302" d="M20.46,22.184c-.135,0-.266.01-.4.015v7.118c3.011.741,4.706,3.437,4.706,6.769,0,3.269-1.593,6.227-4.706,7.129V50.14c7.592-.656,13.047-6.434,13.047-14.436,0-8.341-6-13.52-12.647-13.52" transform="translate(-7.193 -7.955)" fill="#fff"/>
    <path id="Caminho_2284" data-name="Caminho 2284" d="M50.349,38.375c.927,3.707,3.981,5.4,7.8,5.4a16.693,16.693,0,0,0,9.1-2.943v6.923c-2.617,1.635-6.651,2.453-10.2,2.453-8.832,0-15.21-5.506-15.21-13.9a13.834,13.834,0,0,1,14.066-14.12c6.6,0,12.811,4.362,12.811,13.357a22.091,22.091,0,0,1-.164,2.835ZM50.3,33.141H61.09A5.239,5.239,0,0,0,55.8,28.507,5.541,5.541,0,0,0,50.3,33.141" transform="translate(-15.005 -7.955)" fill="#fff"/>
    <path id="Caminho_2280" data-name="Caminho 2280" d="M91.331.9h4.906V19.113l.109.055a13.3,13.3,0,0,1,9.376-4.034,9.28,9.28,0,0,1,7.142,2.943c1.471,1.69,2.235,3.762,2.235,7.9V42.554h-4.906V26.908c0-3-.382-4.415-1.308-5.451a5.1,5.1,0,0,0-4.088-1.745,11.709,11.709,0,0,0-8.559,4.471V42.554H91.331Z" transform="translate(-32.751 -0.325)" fill="#fff"/>
    <path id="Caminho_2281" data-name="Caminho 2281" d="M144.6,23.088A13.807,13.807,0,0,1,158.776,37.1a14.175,14.175,0,0,1-28.348,0A13.807,13.807,0,0,1,144.6,23.088m0,23.55a9.19,9.19,0,0,0,9.268-9.54,9.272,9.272,0,1,0-18.535,0,9.19,9.19,0,0,0,9.268,9.54" transform="translate(-46.771 -8.279)" fill="#fff"/>
    <path id="Caminho_2282" data-name="Caminho 2282" d="M213.741,34.645c0-2.562-.382-4.2-1.363-5.342a5.383,5.383,0,0,0-4.088-1.636c-3.108,0-6.324,2.017-8.177,4.2.055.6.055,1.253.055,1.908V50.508h-4.906V34.645c0-2.89-.327-4.2-1.254-5.288a5.17,5.17,0,0,0-4.088-1.69,11.374,11.374,0,0,0-8.177,4.2V50.508h-4.906V23.688h4.906v3.271l.109.055a12.912,12.912,0,0,1,9.1-3.925,8.87,8.87,0,0,1,8.232,4.634c3.216-3.053,6.487-4.634,10.194-4.634a9.153,9.153,0,0,1,7.032,2.834c1.635,1.8,2.235,4.2,2.235,7.85V50.508h-4.906Z" transform="translate(-63.412 -8.279)" fill="#fff"/>
    <path id="Caminho_2283" data-name="Caminho 2283" d="M248.971,38.515c.709,5.288,4.634,8.177,9.921,8.177a15.289,15.289,0,0,0,9.268-3.325V48.6a18.987,18.987,0,0,1-9.595,2.507c-8.286,0-14.5-5.56-14.5-14.01s6.16-14.01,13.355-14.01c6.542,0,12.211,4.579,12.211,12.974a16.818,16.818,0,0,1-.163,2.453Zm.109-3.87h15.809a7.262,7.262,0,0,0-7.578-7.141,8.193,8.193,0,0,0-8.231,7.141" transform="translate(-87.52 -8.279)" fill="#fff"/>
  </g>
</svg>
