<svg xmlns="http://www.w3.org/2000/svg" width="21" height="21" viewBox="0 0 21 21"><defs><style>.a{fill:#57b4e5;}.b{fill:#fff;}</style></defs><g transform="translate(-659 -443)"><circle class="a" cx="10.5" cy="10.5" r="10.5" transform="translate(659 443)"/><path class="b" d="M13.275,6.376c.009.131.009.263.009.394A8.569,8.569,0,0,1,4.657,15.4,8.569,8.569,0,0,1,0,14.037a6.273,6.273,0,0,0,.732.038,6.073,6.073,0,0,0,3.765-1.3,3.038,3.038,0,0,1-2.835-2.1,3.824,3.824,0,0,0,.573.047,3.207,3.207,0,0,0,.8-.1A3.033,3.033,0,0,1,.6,7.643V7.606a3.054,3.054,0,0,0,1.371.385,3.037,3.037,0,0,1-.939-4.056A8.62,8.62,0,0,0,7.285,7.108a3.423,3.423,0,0,1-.075-.695,3.035,3.035,0,0,1,5.248-2.075,5.97,5.97,0,0,0,1.925-.732A3.024,3.024,0,0,1,13.05,5.277,6.079,6.079,0,0,0,14.8,4.808a6.519,6.519,0,0,1-1.521,1.568Z" transform="translate(662.907 444.602)"/></g></svg>