<svg xmlns="http://www.w3.org/2000/svg" width="21" height="21" viewBox="0 0 21 21"><defs><style>.a{fill:#57b4e5;}.b{fill:#fff;}</style></defs><g transform="translate(-607 -443)"><circle class="a" cx="10.5" cy="10.5" r="10.5" transform="translate(607 443)"/><path class="b" d="M6.416,5.365A3.291,3.291,0,1,0,9.707,8.656,3.286,3.286,0,0,0,6.416,5.365Zm0,5.431a2.14,2.14,0,1,1,2.14-2.14A2.143,2.143,0,0,1,6.416,10.8ZM10.609,5.23a.768.768,0,1,1-.768-.768A.766.766,0,0,1,10.609,5.23Zm2.18.779a3.8,3.8,0,0,0-1.037-2.69,3.824,3.824,0,0,0-2.69-1.037c-1.06-.06-4.236-.06-5.3,0a3.818,3.818,0,0,0-2.69,1.034A3.811,3.811,0,0,0,.04,6.006c-.06,1.06-.06,4.236,0,5.3a3.8,3.8,0,0,0,1.037,2.69,3.829,3.829,0,0,0,2.69,1.037c1.06.06,4.236.06,5.3,0a3.8,3.8,0,0,0,2.69-1.037,3.824,3.824,0,0,0,1.037-2.69c.06-1.06.06-4.233,0-5.293Zm-1.369,6.43a2.166,2.166,0,0,1-1.22,1.22,14.146,14.146,0,0,1-3.784.258,14.257,14.257,0,0,1-3.784-.258,2.166,2.166,0,0,1-1.22-1.22,14.146,14.146,0,0,1-.258-3.784,14.257,14.257,0,0,1,.258-3.784,2.166,2.166,0,0,1,1.22-1.22,14.146,14.146,0,0,1,3.784-.258,14.257,14.257,0,0,1,3.784.258,2.166,2.166,0,0,1,1.22,1.22,14.146,14.146,0,0,1,.258,3.784A14.138,14.138,0,0,1,11.419,12.439Z" transform="translate(611.005 444.762)"/></g></svg>