<svg xmlns="http://www.w3.org/2000/svg" width="62.953" height="45.331" viewBox="0 0 62.953 45.331">
  <g id="Grupo_4546" data-name="Grupo 4546" transform="translate(-328.329 -482.589)">
    <path id="Caminho_2167" data-name="Caminho 2167" d="M334.108,547.694h-3.382a2.057,2.057,0,0,0-1.572.682,1.434,1.434,0,0,0-.388,1.064l.009.053v16.078l-.052.119a.485.485,0,0,0-.045.2v6.4a.5.5,0,0,0,.5.495h61.261a.5.5,0,0,0,.5-.495v-6.4a.5.5,0,0,0-.5-.5H370.111l2.5-1.165A21.8,21.8,0,0,0,384,552.018a12.855,12.855,0,0,0,.67-2.4,1.533,1.533,0,0,0-.369-1.242,2.058,2.058,0,0,0-1.573-.685H334.108Zm-4.358,1.6.064-.128a1.007,1.007,0,0,1,.912-.478h52a1.356,1.356,0,0,1,.558.113l.492.111-.088.565a12.187,12.187,0,0,1-.62,2.2,21.414,21.414,0,0,1-20.161,13.72H329.769Zm-.081,17.095h60.27v5.408H329.67Z" transform="translate(0 -45.214)" fill="#03f5ff" stroke="#03f5ff" stroke-width="0.7"/>
    <path id="Caminho_2168" data-name="Caminho 2168" d="M341.475,488.452a.315.315,0,1,1-.316-.316A.3.3,0,0,1,341.475,488.452Zm15.769,3.28a.307.307,0,0,1-.252.315l-12.112,2.744a.308.308,0,0,0-.252.316v5.646h-5.047V488.766h.315a.315.315,0,1,0,0-.631h-.315v-2.207a2.194,2.194,0,0,1,2.207-2.208h12.616a.3.3,0,0,1,.316.316v.631a.3.3,0,0,1-.316.315h-9.462a.3.3,0,0,0-.315.316v2.838H342.42a.315.315,0,0,0,0,.631h2.209v1.576a.3.3,0,0,0,.315.316h11.985a.3.3,0,0,1,.315.315Zm-1.891,2.712H352.2v-.662l3.154-.725Zm-9.462,7.254v.631a.3.3,0,0,1-.316.316h-6.939a.3.3,0,0,1-.315-.316V501.7a.3.3,0,0,1,.315-.315h6.939A.3.3,0,0,1,345.891,501.7Zm11.039-11.67H345.26v-4.416h9.147a.93.93,0,0,0,.947-.946v-.631a.93.93,0,0,0-.947-.947H341.79a2.827,2.827,0,0,0-2.838,2.839v14.824h-.316a.928.928,0,0,0-.946.946v.631a.929.929,0,0,0,.946.947h6.939a.93.93,0,0,0,.947-.947V501.7a.929.929,0,0,0-.947-.946h-.315v-5.394l6.308-1.419v.82a.3.3,0,0,0,.315.316h3.785a.3.3,0,0,0,.316-.316V492.93l1.166-.253a1.012,1.012,0,0,0,.725-.946v-.758A.929.929,0,0,0,356.929,490.028Z" transform="translate(-6.306)" fill="#03f5ff" stroke="#03f5ff" stroke-width="1"/>
  </g>
</svg>
