<svg xmlns="http://www.w3.org/2000/svg" width="27" height="27" viewBox="0 0 27 27"><defs><style>.a{fill:none;}.b{fill:#f04f28;stroke:#f04f28;stroke-width:0.6px;}</style></defs><rect class="a" width="27" height="27"/><g transform="translate(2.25 1.125)"><path class="b" d="M-221.9,380.8l.2-.148v-.247c-.025-1.36-1.162-2.893-2.918-4.055a3.724,3.724,0,0,0,1.385-2.225l.025-.223-.148-.173c-1.014-1.212-3.091-1.682-5.242-1.187a7.07,7.07,0,0,0-2.72,1.261,7.606,7.606,0,0,0-2.6-1.78c-2.349-1.063-4.773-1.088-6.009-.049l-.2.148v.247a3.9,3.9,0,0,0,.964,2.225c-.025,0-.025,0-.049.025-3.116,1.335-5.317,3.66-5.391,5.687v.223l.173.148c1.583,1.41,5.168,1.484,8.16.223.148-.049.272-.124.4-.173a19.724,19.724,0,0,0-3.289,14.812l.074.42h7.938l-.519-.767a13.715,13.715,0,0,1-.569-14.021,16.119,16.119,0,0,0,.866,2.028c1.484,2.819,3.858,4.674,5.935,4.674h.371l.148-.2c1.063-1.434,1.113-3.833.223-6.281a4,4,0,0,0,.544.025A3.9,3.9,0,0,0-221.9,380.8Zm-11.053,14.169h-5.292c-.94-6.133,1.162-12.414,5.415-16.123.049.321.124.668.2,1.014A14.839,14.839,0,0,0-232.953,394.972Zm7.814-14.639a2.261,2.261,0,0,0-.173-.346c-.865-1.657-2.844-3.091-4.451-4.179l-.544.816c1.508,1.014,3.363,2.349,4.13,3.808,1.261,2.4,1.508,5,.618,6.4a5.577,5.577,0,0,1-3.685-2.3,6.518,6.518,0,0,1,1.311-1.805l-.668-.717a6.945,6.945,0,0,0-1.286,1.632c-.173-.272-.346-.569-.519-.865a6.055,6.055,0,0,1,1.459-2.1l-.668-.717a6.694,6.694,0,0,0-1.311,1.681,11.5,11.5,0,0,1-.989-4.13v-1.36l-.865,1.063a10.123,10.123,0,0,1-3.116,2.4,7.056,7.056,0,0,0,.074-2.275l-.989.124a5.846,5.846,0,0,1-.223,2.6l.074.025c-.346.124-.692.247-1.039.346a7,7,0,0,0,.049-2.151l-.989.124a6.344,6.344,0,0,1-.124,2.25,6.838,6.838,0,0,1-4.55-.569c.247-1.583,2.2-3.462,4.773-4.575a10.235,10.235,0,0,1,4.8-.791l.1-.989a11.553,11.553,0,0,0-4.253.47,3.575,3.575,0,0,1-.94-1.657c1.014-.618,2.967-.495,4.773.346a6.012,6.012,0,0,1,2.547,1.879l.346.445.4-.4a6.343,6.343,0,0,1,2.671-1.36,4.5,4.5,0,0,1,4.1.692,3.364,3.364,0,0,1-1.261,1.607c-.049-.025-.074-.049-.124-.074a8.756,8.756,0,0,0-4.031-1.014l.025.989a7.87,7.87,0,0,1,3.536.89c2.052,1.014,3.19,2.473,3.388,3.511A3.288,3.288,0,0,1-225.139,380.333Z" transform="translate(244.6 -371.212)"/></g></svg>