<svg xmlns="http://www.w3.org/2000/svg" width="24" height="24" viewBox="0 0 24 24"><defs><style>.a{fill:#f04f28;}</style></defs><path class="a" d="M176.374,81.438a.938.938,0,0,0,1.313-.187l2.063-2.75,2.063,2.75a.937.937,0,1,0,1.5-1.125l-2.812-3.75a.938.938,0,0,0-1.5,0l-2.812,3.75A.938.938,0,0,0,176.374,81.438Z" transform="translate(-167.749 -72.438)"/><path class="a" d="M183.124,316.186a.938.938,0,0,0-1.312.188l-2.062,2.75-2.062-2.75a.938.938,0,1,0-1.5,1.125l2.813,3.75a.938.938,0,0,0,1.5,0l2.813-3.75A.938.938,0,0,0,183.124,316.186Z" transform="translate(-167.749 -301.186)"/><path class="a" d="M23.063,0H.938A.937.937,0,0,0,0,.938V23.063A.937.937,0,0,0,.938,24H23.063A.937.937,0,0,0,24,23.063V.938A.937.937,0,0,0,23.063,0Zm-.937,22.125H1.875V1.875h20.25Z"/><path class="a" d="M176.938,237.875h5.625a.938.938,0,0,0,0-1.875h-5.625a.938.938,0,0,0,0,1.875Z" transform="translate(-167.75 -224.938)"/></svg>