<svg xmlns="http://www.w3.org/2000/svg" width="24" height="24" viewBox="0 0 24 24"><defs><style>.a{fill:#f04f28;}.b{fill:none;}</style></defs><g transform="translate(2.041 2)"><path class="a" d="M11.4,142.767a.6.6,0,0,0-.983.213L5.341,156.517a.6.6,0,0,0,.77.77l13.538-5.077a.6.6,0,0,0,.213-.983Zm-.189,1.5,2.459,2.459a10.828,10.828,0,0,0,2.163,5.636l-2.559.96a9.64,9.64,0,0,1-2.631-7.536ZM9.6,154.7a9.505,9.505,0,0,1-1.464-2.228l1.445-3.853a10.758,10.758,0,0,0,2.485,5.156Zm-2.022-.74a10.674,10.674,0,0,0,.833,1.186l-1.486.557Zm9.432-2.039a9.613,9.613,0,0,1-1.887-3.743l3.237,3.237Z" transform="translate(-5.302 -136.904)"/><g transform="translate(13.727 8.324)"><path class="a" d="M349.62,211.549a.6.6,0,0,0,.846,0c2.251-2.251,4.443-1.555,4.464-1.548a.6.6,0,0,0,.378-1.135c-.118-.039-2.921-.931-5.689,1.837A.6.6,0,0,0,349.62,211.549Z" transform="translate(-349.445 -208.699)"/></g><path class="a" d="M232.948,16.7a.6.6,0,0,0,.846,0c2.768-2.768,1.876-5.571,1.837-5.689a.6.6,0,1,0-1.135.378c.007.022.7,2.214-1.548,4.464a.6.6,0,0,0,0,.846Z" transform="translate(-223.7 -10.179)"/><path class="a" d="M285.981,7.79a.6.6,0,0,0,.843.85c.309-.154,1.268.424,1.8-.109s-.033-1.467.107-1.8c.33-.14,1.269.42,1.8-.107s-.033-1.467.107-1.8c.33-.14,1.269.42,1.8-.107s-.033-1.467.107-1.8c.328-.14,1.27.42,1.8-.107s-.044-1.494.109-1.8a.6.6,0,0,0-.85-.843,1.722,1.722,0,0,0-.29,1.613,1.723,1.723,0,0,0-1.613.29,1.723,1.723,0,0,0-.29,1.613,1.723,1.723,0,0,0-1.613.29A1.722,1.722,0,0,0,289.5,5.6a1.723,1.723,0,0,0-1.613.29,1.723,1.723,0,0,0-.29,1.613,1.723,1.723,0,0,0-1.613.291Z" transform="translate(-274.617 0)"/><path class="a" d="M350.467,43.448a.6.6,0,1,0-.846,0A.6.6,0,0,0,350.467,43.448Z" transform="translate(-335.719 -40.734)"/><circle class="a" cx="0.598" cy="0.598" r="0.598" transform="translate(17.957 5.923)"/><path class="a" d="M434.473,297.161a.6.6,0,1,0,.846,0A.6.6,0,0,0,434.473,297.161Z" transform="translate(-417.187 -285.14)"/><path class="a" d="M201.974,64.661a.6.6,0,1,0-.846,0A.6.6,0,0,0,201.974,64.661Z" transform="translate(-193.149 -61.101)"/></g><rect class="b" width="24" height="24"/></svg>