<svg id="noun_Tiler_4211857" xmlns="http://www.w3.org/2000/svg" width="24" height="18.819" viewBox="0 0 24 18.819">
  <g id="Grupo_4966" data-name="Grupo 4966">
    <path id="Caminho_2256" data-name="Caminho 2256" d="M41.176,17.435a2.375,2.375,0,1,0-1.769-2.855A2.359,2.359,0,0,0,41.176,17.435Z" transform="translate(-30.036 -12.748)" fill="#f04f28"/>
    <path id="Caminho_2257" data-name="Caminho 2257" d="M16.4,31.925a.361.361,0,0,0-.581.126l-.177.48-.808-.3a1.092,1.092,0,0,0-.455-1.036L12.739,30a7.938,7.938,0,0,0-.1-2.476,5.84,5.84,0,0,0-.783-1.642l-.531-.733a1.694,1.694,0,0,0-1.187-.682,1.669,1.669,0,0,0-1.314.43L4.831,28.287a1.369,1.369,0,0,0-.48.985L4.3,34.325,2.608,38.494a1.321,1.321,0,1,0,2.451.985l1.794-4.4a1.631,1.631,0,0,0,.1-.48v-.733l.834,1.137,1.162,4.27a1.36,1.36,0,0,0,1.415,1.036A1.3,1.3,0,0,0,11.5,38.646l-1.238-4.573a2.24,2.24,0,0,0-.2-.43L8.04,30.94l2.5-1.92c0,.455,0,1.011-.025,1.516a1.16,1.16,0,0,0,.455.935l2.122,1.541a1.024,1.024,0,0,0,.227.126,1.1,1.1,0,0,0,1.162-.253l.884.328-.177.48a.373.373,0,0,0,.354.505l2.375-.1a.272.272,0,0,0,.177-.48Z" transform="translate(-2.509 -21.503)" fill="#f04f28"/>
    <rect id="Ret창ngulo_2310" data-name="Ret창ngulo 2310" width="3.613" height="0.505" transform="translate(14.955 9.058)" fill="#f04f28"/>
    <rect id="Ret창ngulo_2311" data-name="Ret창ngulo 2311" width="3.613" height="0.505" transform="translate(14.955 10.069)" fill="#f04f28"/>
    <path id="Caminho_2258" data-name="Caminho 2258" d="M64.105,57.005h2.628V56.5H63.6Z" transform="translate(-48.165 -45.446)" fill="#f04f28"/>
    <path id="Caminho_2259" data-name="Caminho 2259" d="M66.8,61.005h2.324V60.5h-2.3A.864.864,0,0,1,66.8,61.005Z" transform="translate(-50.557 -48.435)" fill="#f04f28"/>
    <path id="Caminho_2260" data-name="Caminho 2260" d="M60.7,27v4.9h4.4v4.4H70V27Zm4.4,3.2H61.205V27.505H65.1Zm4.4,4.4H65.6V31.9h3.891Zm0-4.4H65.6V27.505h3.891Z" transform="translate(-45.998 -23.399)" fill="#f04f28"/>
  </g>
</svg>
