<svg xmlns="http://www.w3.org/2000/svg" width="24" height="24" viewBox="0 0 24 24"><defs><style>.a{fill:none;}.b{fill:#f04f28;stroke:#f04f28;stroke-width:0.6px;}</style></defs><rect class="a" width="24" height="24"/><g transform="translate(-8 -8)"><path class="b" d="M10.25,29.5a.25.25,0,0,0,0,.5h19.5a.25.25,0,0,0,0-.5H25.36V27.327A2.406,2.406,0,0,0,27.3,25.891a2.794,2.794,0,0,0,1.436-5.126,2.239,2.239,0,0,0,.286-1.1,2.262,2.262,0,0,0-1.708-2.193,2.223,2.223,0,0,0,.05-.467,2.263,2.263,0,1,0-4.525,0,2.222,2.222,0,0,0,.048.461,2.26,2.26,0,0,0-1.445,3.3,2.794,2.794,0,0,0,1.436,5.126A2.4,2.4,0,0,0,24.86,27.33V29.5H15.594V20.676a5.344,5.344,0,1,0-.5,0V29.5Zm13.04-3.943a.25.25,0,0,0-.236-.169h-.006l-.065,0a2.294,2.294,0,0,1-1.068-4.323A.25.25,0,0,0,22,20.7a1.76,1.76,0,0,1,1.234-2.787.25.25,0,0,0,.21-.331,1.763,1.763,0,1,1,3.326,0,.25.25,0,0,0,.207.331A1.759,1.759,0,0,1,28.188,20.7a.25.25,0,0,0,.085.368,2.293,2.293,0,0,1-1.083,4.322h0l-.048,0a.252.252,0,0,0-.243.169,1.908,1.908,0,0,1-1.538,1.269V24.315A2.538,2.538,0,0,0,27.7,21.793a.25.25,0,0,0-.5,0,2.038,2.038,0,0,1-1.839,2.021V20.35a.25.25,0,0,0-.5,0v2.142A1.908,1.908,0,0,1,23.17,20.6a.25.25,0,0,0-.5,0,2.409,2.409,0,0,0,2.191,2.391v3.834A1.907,1.907,0,0,1,23.289,25.557ZM10.5,15.344a4.844,4.844,0,1,1,5.094,4.832V18.429a3.535,3.535,0,0,0,3.312-3.516.25.25,0,0,0-.5,0,3.035,3.035,0,0,1-2.812,3.016v-4.19a.25.25,0,0,0-.5,0v2.315a2.617,2.617,0,0,1-2.406-2.6.25.25,0,0,0-.5,0,3.117,3.117,0,0,0,2.906,3.1v3.622A4.846,4.846,0,0,1,10.5,15.344Z"/></g></svg>