<svg xmlns="http://www.w3.org/2000/svg" width="41.762" height="54.817" viewBox="0 0 41.762 54.817">
  <path id="Caminho_2188" data-name="Caminho 2188" d="M585.209,682.19s-3.735.552-3.739.555a.352.352,0,0,0-.228.522l.507.767-.558,2.311a.342.342,0,0,0,.25.4l.682.162,1.7,1.879-2.03,2.846a.336.336,0,0,0,.025.43l2.005,2.219-2.03,2.845a.336.336,0,0,0,.025.431l2.005,2.218-2.03,2.845a.339.339,0,0,0,.025.431l2.005,2.219-2.03,2.844a.342.342,0,0,0,.024.431l2.007,2.219-2.03,2.843a.341.341,0,0,0,.025.432l2.005,2.218-2.03,2.847a.337.337,0,0,0,.025.43l2.005,2.217-1.952,2.736s-.4.059-.4.061a.358.358,0,0,0-.268.44l.539,1.652-.5.742a.347.347,0,0,0,.2.514l36.93,8.694a.379.379,0,0,0,.077.009c.016,0,.031,0,.047,0l3.744-.553a.338.338,0,0,0,.209-.553l-.471-.558s.538-1.812.54-1.814a.34.34,0,0,0-.03-.259.355.355,0,0,0-.217-.166l-1.964-.463,1.151-1.612a.349.349,0,0,0-.027-.423l-2.008-2.22,2.031-2.845a.341.341,0,0,0-.025-.431l-2-2.217a8.672,8.672,0,0,1,.52-.729c.325-.457,1.345-1.861,1.51-2.117a.344.344,0,0,0-.025-.431l-2.005-2.218,2.031-2.845a.336.336,0,0,0-.025-.429l-2.005-2.22,2.031-2.845.02-.029a.34.34,0,0,0-.045-.4L619.42,706l2.031-2.846a.34.34,0,0,0-.024-.43l-2.007-2.218,2.031-2.846a.207.207,0,0,0,.02-.03.337.337,0,0,0-.045-.4l-1.766-1.953,2.585-.382a.349.349,0,0,0,.275-.416l-.558-2.15.527-.952a.346.346,0,0,0-.219-.49L585.35,682.2a.383.383,0,0,0-.083-.01.441.441,0,0,0-.057,0m-1.909.96,1.952-.289,35.16,8.28-1.95.287Zm-.985.523-.051-.077,35.977,8.471.051.076Zm-.392,2.5.434-1.8,36.278,8.539-.436,1.8Zm2.509,2.289-1.16-1.282,35.091,8.262a.347.347,0,0,0,.14.006l.361-.054,1.349,1.492-4.187-.985v-.613a.335.335,0,0,0-.67,0v.455l-26.971-6.35v-.613a.335.335,0,0,0-.67,0v.456Zm-1.807,3.162,1.769-2.482,3.319.782v1.385a.335.335,0,1,0,.67,0v-1.227l26.971,6.349v1.388a.335.335,0,0,0,.67,0v-1.229l4.595,1.083-1.771,2.48Zm36.741,1.117a.333.333,0,0,0-.04-.249c0-.006,0-.011-.008-.017l-.3-.452,2.555-.377-.263.476-.005.009h0a.334.334,0,0,0-.026.235h0l.5,1.918-2.835.419-.052.008Zm-34.934,1.216-1.4-1.548,35.781,8.425,1.4,1.547-4.187-.985v-.613a.335.335,0,0,0-.67,0v.455l-26.971-6.349v-.614a.335.335,0,0,0-.67,0v.456Zm-1.807,3.161,1.769-2.481,3.319.782v1.386a.335.335,0,1,0,.67,0v-1.227l26.971,6.349v1.386a.335.335,0,1,0,.67,0v-1.229l4.595,1.083-1.771,2.482Zm1.807,2.333-1.4-1.547,35.78,8.423,1.4,1.547-4.187-.985v-.613a.335.335,0,0,0-.67,0v.456l-26.971-6.35v-.612a.335.335,0,0,0-.67,0v.455Zm-1.807,3.161,1.769-2.48,3.319.78V702.3a.335.335,0,0,0,.67,0v-1.229l26.971,6.35v1.385a.335.335,0,1,0,.67,0v-1.228l4.595,1.082-1.771,2.482Zm1.807,2.333-1.4-1.547,35.78,8.425,1.4,1.548-4.187-.987v-.613a.335.335,0,0,0-.67,0v.456l-26.971-6.35v-.613a.335.335,0,0,0-.67,0v.455Zm-1.807,3.162,1.769-2.482,3.319.782v1.386a.335.335,0,0,0,.67,0v-1.227l26.971,6.35V714.3a.335.335,0,1,0,.67,0v-1.228l4.595,1.082-1.77,2.48Zm1.807,2.332-1.4-1.547,35.78,8.424,1.4,1.547-4.187-.985v-.612a.335.335,0,0,0-.67,0v.455l-26.971-6.351v-.613a.335.335,0,0,0-.67,0v.455Zm-1.807,3.162,1.769-2.48,3.319.781v1.387a.335.335,0,0,0,.67,0V712.06l26.971,6.349V719.8a.335.335,0,1,0,.67,0v-1.229l4.595,1.081-1.771,2.483Zm1.807,2.333-1.4-1.548,35.781,8.426,1.4,1.547-4.187-.987v-.613a.335.335,0,0,0-.67,0v.456l-26.971-6.35v-.612a.335.335,0,0,0-.67,0v.453Zm-1.807,3.162,1.771-2.482,3.318.781v1.386a.335.335,0,1,0,.67,0v-1.227l26.971,6.349v1.389a.335.335,0,0,0,.67,0v-1.23l4.595,1.08-1.77,2.481Zm1.807,2.333-1.4-1.547,35.78,8.422,1.4,1.548-4.187-.985v-.613a.335.335,0,0,0-.67,0v.455l-26.971-6.35v-.613a.335.335,0,0,0-.67,0v.456Zm-1.807,3.161,1.769-2.48,3.319.781v1.386a.335.335,0,0,0,.67,0v-1.229l26.971,6.35v1.388a.335.335,0,0,0,.67,0v-1.23l4.595,1.081-1.152,1.614h0l-.618.868Zm-.255,1.823-.348-1.067,36.165,8.513.349,1.069Zm-.3.945.19-.282,36.232,8.532-.19.28Zm37.816,5.465.53.124-.692.1Zm-.568,2.76a.383.383,0,0,0,.043-.3l-.469-1.434,2.836-.42-.441,1.481a.341.341,0,0,0,.067.321l.2.237-2.4.353Z" transform="translate(-580.971 -681.986)" fill="#03f5ff" stroke="#03f5ff" stroke-width="0.4"/>
</svg>
