<svg xmlns="http://www.w3.org/2000/svg" width="24" height="24" viewBox="0 0 24 24"><defs><style>.a{fill:none;}.b{fill:#f04f28;}</style></defs><rect class="a" width="24" height="24"/><g transform="translate(3)"><path class="b" d="M70,0a4.89,4.89,0,0,0-4.846,4.922V7.078H63.077a.7.7,0,0,0-.689.64L61,23.233a.71.71,0,0,0,.178.538.687.687,0,0,0,.511.229H78.308a.687.687,0,0,0,.511-.229A.71.71,0,0,0,79,23.233L77.612,7.718a.7.7,0,0,0-.689-.64H74.846V4.922A4.89,4.89,0,0,0,70,0ZM66.538,4.922a3.462,3.462,0,1,1,6.923,0V7.078H66.538ZM72.077,13.7v3.224H70.692V13.7l.692-.7ZM76.29,8.484,77.55,22.594H62.45L63.709,8.484h1.445v2.109a.692.692,0,1,0,1.385,0V8.484h4.154v3.224l-1.182,1.2a.709.709,0,0,0-.2.5v4.219a.7.7,0,0,0,.692.7h2.769a.7.7,0,0,0,.692-.7V13.406a.709.709,0,0,0-.2-.5l-1.182-1.2V8.484h1.385v2.109a.692.692,0,1,0,1.385,0V8.484Z" transform="translate(-61)"/></g></svg>