<svg xmlns="http://www.w3.org/2000/svg" width="20.569" height="20.569" viewBox="0 0 20.569 20.569"><defs><style>.a{fill:#f04f28;stroke:#f04f28;stroke-width:0.7px;}</style></defs><g transform="translate(0.35 0.35)"><g transform="translate(0 0)"><path class="a" d="M21.808,38.869a.293.293,0,0,1-.293-.293V21.808a.293.293,0,0,1,.293-.293H37.318a.964.964,0,1,0,0-1.928H20.551a.965.965,0,0,0-.964.964V38.575a.293.293,0,0,1-.587,0V20.551A1.553,1.553,0,0,1,20.551,19H37.318a1.551,1.551,0,0,1,0,3.1H22.1V38.575A.293.293,0,0,1,21.808,38.869Z" transform="translate(-19 -19)"/><g transform="translate(6.288 2.515)"><path class="a" d="M169.293,81.683a.293.293,0,0,1-.293-.293v-2.1a.293.293,0,1,1,.587,0v2.1A.293.293,0,0,1,169.293,81.683Z" transform="translate(-169 -79)"/></g><g transform="translate(15.09 2.515)"><path class="a" d="M379.293,81.683a.293.293,0,0,1-.293-.293v-2.1a.293.293,0,1,1,.587,0v2.1A.293.293,0,0,1,379.293,81.683Z" transform="translate(-379 -79)"/></g><g transform="translate(4.611 4.611)"><path class="a" d="M141.449,138.809H129.293a.293.293,0,0,1-.293-.293v-9.222a.293.293,0,0,1,.293-.293h12.156a.293.293,0,0,1,.293.293v9.222A.293.293,0,0,1,141.449,138.809Zm-11.863-.587h11.569v-8.635H129.587Z" transform="translate(-129 -129)"/></g><g transform="translate(7.545 6.288)"><g transform="translate(0.838)"><path class="a" d="M224.323,175.036h-5.03a.293.293,0,0,1-.293-.293v-3.814a.293.293,0,0,1,.133-.246l2.515-1.635a.293.293,0,0,1,.32,0l2.515,1.635a.293.293,0,0,1,.134.246v3.814A.293.293,0,0,1,224.323,175.036Zm-4.737-.587h4.443v-3.362l-2.222-1.444-2.222,1.444Z" transform="translate(-219 -169)"/></g><g transform="translate(0 1.635)"><path class="a" d="M199.293,209.131a.293.293,0,0,1-.16-.539l.838-.545a.293.293,0,0,1,.32.492l-.838.545A.292.292,0,0,1,199.293,209.131Z" transform="translate(-198.999 -207.999)"/></g><g transform="translate(5.868 1.635)"><path class="a" d="M340.13,209.131a.292.292,0,0,1-.16-.047l-.838-.545a.293.293,0,1,1,.32-.492l.838.545a.293.293,0,0,1-.16.539Z" transform="translate(-338.999 -207.999)"/></g></g></g></g></svg>