<svg id="ambientes-decorados" xmlns="http://www.w3.org/2000/svg" width="24" height="24" viewBox="0 0 24 24">
  <g id="noun_lounge_3633504" transform="translate(6.765 -21)">
    <g id="Grupo_4816" data-name="Grupo 4816" transform="translate(-5.765 22)">
      <path id="Caminho_2204" data-name="Caminho 2204" d="M27.388,43.645H28.1V43H21v.645h.709l1.147,5.161H22.29v.645h4.516v-.645h-.566Zm-5.018,0h4.357L25.58,48.806H23.516Z" transform="translate(-13.548 -28.452)" fill="#03f5ff" stroke="#03f5ff" stroke-width="0.35"/>
      <path id="Caminho_2205" data-name="Caminho 2205" d="M6.484,42.871H4.458L3.431,39.79a1.154,1.154,0,0,0-1.1-.79h-.18a1.155,1.155,0,0,0-1.1,1.521l1.276,3.828a1.611,1.611,0,0,0,1.53,1.1H4.871V46.1H3.581v.645H6.806V46.1H5.516v-.645H7.129a.969.969,0,0,0,.968-.968A1.615,1.615,0,0,0,6.484,42.871Zm.645,1.935H3.865a.966.966,0,0,1-.918-.662L1.672,40.317a.51.51,0,0,1,.484-.672h.18a.51.51,0,0,1,.484.349l1.174,3.522H6.484a.969.969,0,0,1,.968.968A.323.323,0,0,1,7.129,44.806Z" transform="translate(0 -25.742)" fill="#03f5ff" stroke="#03f5ff" stroke-width="0.35"/>
      <path id="Caminho_2206" data-name="Caminho 2206" d="M46.942,39h-.18a1.153,1.153,0,0,0-1.1.79l-1.027,3.081H42.613A1.615,1.615,0,0,0,41,44.484a.969.969,0,0,0,.968.968h1.613V46.1H42.29v.645h3.226V46.1h-1.29v-.645h1.005a1.611,1.611,0,0,0,1.53-1.1l1.276-3.829a1.155,1.155,0,0,0-1.1-1.52Zm.484,1.316-1.276,3.828a.966.966,0,0,1-.918.662H41.968a.323.323,0,0,1-.323-.323.969.969,0,0,1,.968-.968H45.1l1.174-3.522a.509.509,0,0,1,.484-.349h.18a.51.51,0,0,1,.484.671Z" transform="translate(-27.097 -25.742)" fill="#03f5ff" stroke="#03f5ff" stroke-width="0.35"/>
      <path id="Caminho_2207" data-name="Caminho 2207" d="M20.355,2.935H14.548v.645h5.806v6.452H13.9V7.452h1.324l-.262-2.617A1.384,1.384,0,0,0,13.9,3.622V1.645h.645V1h-7.1v.645H8.1V3.622A1.384,1.384,0,0,0,7.035,4.834L6.773,7.452H8.1v2.581H1.645V3.581H7.452V2.935H1.645A.646.646,0,0,0,1,3.581v6.452a.646.646,0,0,0,.645.645H8.1a.646.646,0,0,0,.645-.645V7.452h.676L9.353,8.1h3.294l-.065-.645h.676v2.581a.646.646,0,0,0,.645.645h6.452A.646.646,0,0,0,21,10.032V3.581A.646.646,0,0,0,20.355,2.935ZM7.485,6.806,7.676,4.9a.747.747,0,0,1,1.486,0l.191,1.908ZM8.742,3.622V1.645h1.935V4.267a1.379,1.379,0,0,0-.866.635L9.8,4.834A1.385,1.385,0,0,0,8.742,3.622Zm1.324,3.829.191-1.908a.747.747,0,0,1,1.486,0l.191,1.908ZM12.2,4.834l-.007.068a1.381,1.381,0,0,0-.866-.635V1.645h1.935V3.622A1.384,1.384,0,0,0,12.2,4.834Zm.642.064a.747.747,0,0,1,1.486,0l.191,1.908H12.647Z" fill="#03f5ff" stroke="#03f5ff" stroke-width="0.35"/>
      <path id="Caminho_2208" data-name="Caminho 2208" d="M43,14.871v1.29h5.161V11H43.645v.645h3.871v3.871H43.645v-.645Z" transform="translate(-28.452 -6.774)" fill="#03f5ff" stroke="#03f5ff" stroke-width="0.35"/>
      <path id="Caminho_2209" data-name="Caminho 2209" d="M9.516,11.645V11H5v5.161h5.161v-1.29H9.516v.645H5.645V11.645Z" transform="translate(-2.71 -6.774)" fill="#03f5ff" stroke="#03f5ff" stroke-width="0.35"/>
    </g>
  </g>
  <rect id="Retângulo_2309" data-name="Retângulo 2309" width="24" height="24" fill="none"/>
</svg>
