<svg id="amplo-Espaço-Armário" xmlns="http://www.w3.org/2000/svg" width="24" height="24" viewBox="0 0 24 24">
  <g id="noun_wardrobe_4360554" transform="translate(-5.5 -5.477)">
    <g id="TAVOLA_9" data-name="TAVOLA 9" transform="translate(7.5 7.477)">
      <path id="Caminho_2191" data-name="Caminho 2191" d="M27.5,9.879a.352.352,0,0,0-.011-.085V7.829a.352.352,0,0,0-.352-.352H7.852a.352.352,0,0,0-.352.352v19.3a.352.352,0,0,0,.352.352h7.688a.351.351,0,0,0,.12-.021H27.137a.352.352,0,0,0,.352-.352V9.963A.352.352,0,0,0,27.5,9.879Zm-.715-.352H24.67v-.1a.352.352,0,0,0-.7,0v.1H21.68v-.1a.352.352,0,0,0-.7,0v.1H18.733v-.1a.352.352,0,0,0-.7,0v.1H15.89V8.182H26.785ZM8.2,16.079h6.98v3.095H8.2Zm2.254-3.444h2.475c.107,0,.193,1.087.193,1.193s-.087-.807-.193-.807H10.459c-.107,0-.193.913-.193.807s.087-1.193.193-1.193Zm0,1.1h2.475c.107,0,.193,1.087.193,1.193a.193.193,0,0,1-.193.193H10.459a.193.193,0,0,1-.193-.193C10.266,14.819,10.352,13.732,10.459,13.732Zm2.475-.82H10.459a.193.193,0,1,1,0-.387h2.475a.193.193,0,0,1,.193.193l0,.042-.189.151ZM8.2,26.752V23.678h6.98v3.074Zm0-6.873h6.98v3.095H8.2Zm6.98-11.7v7.193H13.711a.894.894,0,0,0-.067-1,.894.894,0,0,0-.005-1.1.9.9,0,0,0-.705-1.453H10.459a.9.9,0,0,0-.705,1.453.894.894,0,0,0-.005,1.1.894.894,0,0,0-.067,1H8.2V8.182ZM18.52,23.347a.4.4,0,0,1,.4-.395h4.869a.395.395,0,0,1,.11.774q-.054-.005-.11-.006H18.915a1.087,1.087,0,0,0-.11.006.4.4,0,0,1-.285-.379Zm5.659,2.946a.4.4,0,0,1-.4.395H18.915a.395.395,0,0,1-.11-.774q.054.005.11.006h4.869a1.087,1.087,0,0,0,.11-.006A.4.4,0,0,1,24.179,26.293ZM18.52,24.82a.4.4,0,0,1,.285-.379q.054.005.11.006h4.869a1.087,1.087,0,0,0,.11-.006.394.394,0,0,1,0,.758q-.054-.005-.11-.006H18.915a1.087,1.087,0,0,0-.11.006.4.4,0,0,1-.285-.379Zm6.263,1.932a1.1,1.1,0,0,0-.183-1.2,1.1,1.1,0,0,0,0-1.473,1.1,1.1,0,0,0-.816-1.836H18.915a1.1,1.1,0,0,0-.816,1.836,1.1,1.1,0,0,0,0,1.473,1.1,1.1,0,0,0-.183,1.2H15.893V15.727a.354.354,0,0,0,0-.045V10.231h2.139v.847c-.454.152-.76,1.577-.761,2.055v5.046a.352.352,0,0,0,.352.352h1.521a.352.352,0,0,0,.352-.352V13.133c0-.478-.307-1.9-.761-2.055v-.847h2.242v.847c-.454.152-.76,1.577-.761,2.055v5.046a.352.352,0,0,0,.352.352h1.521a.352.352,0,0,0,.352-.352V13.133c0-.478-.307-1.9-.761-2.055v-.847h2.285v.847c-.454.152-.76,1.577-.761,2.055v5.046a.352.352,0,0,0,.352.352h1.521a.352.352,0,0,0,.352-.352V13.133c0-.478-.307-1.9-.761-2.055v-.847h2.114V26.752Zm-6.49-15.017a.342.342,0,0,0,.176,0c.187.041.32,1.207.32,1.4v4.693h-.817V13.133C17.973,12.942,18.106,11.776,18.293,11.735Zm2.947,0a.342.342,0,0,0,.176,0c.187.041.32,1.207.32,1.4v4.693H20.92V13.133C20.92,12.942,21.053,11.776,21.24,11.735Zm2.99,0a.342.342,0,0,0,.176,0c.187.041.32,1.207.32,1.4v4.693H23.91V13.133c0-.191.133-1.357.32-1.4Z" transform="translate(-7.5 -7.477)" fill="#03f5ff" stroke="#03f5ff" stroke-width="0.35"/>
      <ellipse id="Elipse_185" data-name="Elipse 185" cx="0.393" cy="0.392" rx="0.393" ry="0.392" transform="translate(3.804 9.757)" fill="#03f5ff" stroke="#03f5ff" stroke-width="0.35"/>
      <ellipse id="Elipse_186" data-name="Elipse 186" cx="0.393" cy="0.392" rx="0.393" ry="0.392" transform="translate(3.804 13.556)" fill="#03f5ff" stroke="#03f5ff" stroke-width="0.35"/>
      <ellipse id="Elipse_187" data-name="Elipse 187" cx="0.393" cy="0.392" rx="0.393" ry="0.392" transform="translate(3.804 17.356)" fill="#03f5ff" stroke="#03f5ff" stroke-width="0.35"/>
    </g>
  </g>
  <rect id="Retângulo_2306" data-name="Retângulo 2306" width="24" height="24" fill="none"/>
</svg>
