<svg xmlns="http://www.w3.org/2000/svg" width="56.659" height="45.179" viewBox="0 0 56.659 45.179">
  <g id="Grupo_4547" data-name="Grupo 4547" transform="translate(-354.788 -788.04)">
    <path id="Caminho_2170" data-name="Caminho 2170" d="M355.718,829.117a.317.317,0,0,0-.247.516l11.614,14.426a.318.318,0,0,0,.247.119h31.212a.317.317,0,0,0,.247-.119L410.4,829.633a.317.317,0,0,0-.249-.516Zm.663.634h53.113l-11.1,13.792H367.483Z" transform="translate(0 -25.831)" fill="#03f5ff" stroke="#03f5ff" stroke-width="1.2"/>
    <path id="Caminho_2171" data-name="Caminho 2171" d="M359.5,820.662a.316.316,0,0,0-.22.089l-2.9,2.79a.317.317,0,0,0,.44.458l2.811-2.7H408l2.811,2.7a.319.319,0,0,0,.219.088.314.314,0,0,0,.229-.1.317.317,0,0,0-.008-.448l-2.9-2.79a.322.322,0,0,0-.22-.089Z" transform="translate(-0.56 -20.436)" fill="#03f5ff" stroke="#03f5ff" stroke-width="1.2"/>
    <g id="Grupo_4540" data-name="Grupo 4540" transform="translate(369.205 788.64)">
      <path id="Caminho_2172" data-name="Caminho 2172" d="M397.667,811.195a.313.313,0,0,0-.188.062l-3.8,2.79a.317.317,0,1,0,.375.512l3.715-2.728H416.8l3.713,2.728a.318.318,0,0,0,.188.062.318.318,0,0,0,.188-.574l-3.8-2.79a.309.309,0,0,0-.187-.062Z" transform="translate(-393.552 -803.034)" fill="#03f5ff" stroke="#03f5ff" stroke-width="1.2"/>
      <path id="Caminho_2173" data-name="Caminho 2173" d="M434.837,788.956v8.161a.317.317,0,1,0,.634,0v-8.161a.317.317,0,0,0-.634,0" transform="translate(-419.899 -788.64)" fill="#03f5ff" stroke="#03f5ff" stroke-width="1.2"/>
      <path id="Caminho_2174" data-name="Caminho 2174" d="M426.419,788.956v8.161a.317.317,0,1,0,.635,0v-8.161a.317.317,0,0,0-.635,0" transform="translate(-414.527 -788.64)" fill="#03f5ff" stroke="#03f5ff" stroke-width="1.2"/>
    </g>
    <g id="Grupo_4541" data-name="Grupo 4541" transform="translate(367.015 806.811)">
      <path id="Caminho_2175" data-name="Caminho 2175" d="M387.5,839.176V864.35a.317.317,0,0,0,.634,0V839.176a.317.317,0,1,0-.634,0" transform="translate(-387.499 -838.859)" fill="#03f5ff" stroke="#03f5ff" stroke-width="1.2"/>
      <path id="Caminho_2176" data-name="Caminho 2176" d="M401.875,846.5v22.524a.317.317,0,1,0,.635,0V846.5a.317.317,0,0,0-.635,0" transform="translate(-396.673 -843.532)" fill="#03f5ff" stroke="#03f5ff" stroke-width="1.2"/>
      <path id="Caminho_2177" data-name="Caminho 2177" d="M416.252,839.176V864.35a.318.318,0,0,0,.635,0V839.176a.318.318,0,0,0-.635,0" transform="translate(-405.848 -838.859)" fill="#03f5ff" stroke="#03f5ff" stroke-width="1.2"/>
      <path id="Caminho_2178" data-name="Caminho 2178" d="M430.628,846.5v22.524a.317.317,0,1,0,.634,0V846.5a.317.317,0,1,0-.634,0" transform="translate(-415.023 -843.532)" fill="#03f5ff" stroke="#03f5ff" stroke-width="1.2"/>
      <path id="Caminho_2179" data-name="Caminho 2179" d="M445.005,839.176V864.35a.317.317,0,0,0,.634,0V839.176a.317.317,0,1,0-.634,0" transform="translate(-424.198 -838.859)" fill="#03f5ff" stroke="#03f5ff" stroke-width="1.2"/>
      <path id="Caminho_2180" data-name="Caminho 2180" d="M459.379,846.5v22.524a.318.318,0,1,0,.635,0V846.5a.318.318,0,0,0-.635,0" transform="translate(-433.371 -843.532)" fill="#03f5ff" stroke="#03f5ff" stroke-width="1.2"/>
      <path id="Caminho_2181" data-name="Caminho 2181" d="M473.757,839.176V864.35a.318.318,0,0,0,.635,0V839.176a.318.318,0,0,0-.635,0" transform="translate(-442.546 -838.859)" fill="#03f5ff" stroke="#03f5ff" stroke-width="1.2"/>
      <path id="Caminho_2182" data-name="Caminho 2182" d="M488.134,842.838v23.849a.318.318,0,1,0,.635,0V842.838a.318.318,0,0,0-.635,0" transform="translate(-451.721 -841.196)" fill="#03f5ff" stroke="#03f5ff" stroke-width="1.2"/>
    </g>
  </g>
</svg>
