<svg xmlns="http://www.w3.org/2000/svg" width="54.504" height="49.885" viewBox="0 0 54.504 49.885">
  <g id="Grupo_4548" data-name="Grupo 4548" transform="translate(-135.873 -693.779)">
    <rect id="Retângulo_2302" data-name="Retângulo 2302" width="0.872" height="6.511" transform="translate(185.245 701.798)" fill="#03f5ff" stroke="#03f5ff" stroke-width="1"/>
    <rect id="Retângulo_2303" data-name="Retângulo 2303" width="0.872" height="0.873" transform="translate(185.245 711.195)" fill="#03f5ff" stroke="#03f5ff" stroke-width="1"/>
    <rect id="Retângulo_2304" data-name="Retângulo 2304" width="29.068" height="0.872" transform="translate(143.892 713.076)" fill="#03f5ff" stroke="#03f5ff" stroke-width="1"/>
    <path id="Caminho_2157" data-name="Caminho 2157" d="M225.9,801.19l-1.776,2.465-.708-.51,1.779-2.47-2.528-.821.27-.83,2.526.82v-2.655h.873v2.655l2.526-.82.27.83-2.526.821,1.795,2.47-.706.513Z" transform="translate(-57.135 -68.136)" fill="#03f5ff" stroke="#03f5ff" stroke-width="1"/>
    <path id="Caminho_2158" data-name="Caminho 2158" d="M156.366,806.753l-1.776,2.466-.708-.511,1.779-2.469-2.528-.821.27-.83,2.526.82v-2.655h.872v2.655l2.527-.82.269.83-2.525.82,1.795,2.47-.706.513Z" transform="translate(-11.097 -71.82)" fill="#03f5ff" stroke="#03f5ff" stroke-width="1"/>
    <path id="Caminho_2159" data-name="Caminho 2159" d="M200.324,835.808l.456.743c.108-.067.214-.135.321-.2l-.479-.73-.3.19" transform="translate(-42.342 -93.58)" fill="#03f5ff" stroke="#03f5ff" stroke-width="1"/>
    <path id="Caminho_2160" data-name="Caminho 2160" d="M211.174,826.233l.549.679c.406-.332.949-.78,1.384-1.153l-.586-.648c-.428.369-.965.811-1.347,1.123" transform="translate(-49.525 -86.622)" fill="#03f5ff" stroke="#03f5ff" stroke-width="1"/>
    <path id="Caminho_2161" data-name="Caminho 2161" d="M206.116,801.328l.64.593c.393-.437.783-.89,1.162-1.355l-.683-.543c-.364.445-.739.882-1.119,1.305" transform="translate(-46.176 -70.012)" fill="#03f5ff" stroke="#03f5ff" stroke-width="1"/>
    <path id="Caminho_2162" data-name="Caminho 2162" d="M194.915,813.952l.521.7c.134-.1.247-.194.343-.27l-.56-.669c-.1.082-.207.164-.3.239" transform="translate(-38.76 -79.077)" fill="#03f5ff" stroke="#03f5ff" stroke-width="1"/>
    <path id="Caminho_2163" data-name="Caminho 2163" d="M178.164,786.4l.447.75a20.881,20.881,0,0,0,6.15-6.059l-.753-.444a20.313,20.313,0,0,1-5.844,5.752" transform="translate(-27.67 -57.188)" fill="#03f5ff" stroke="#03f5ff" stroke-width="1"/>
    <path id="Caminho_2164" data-name="Caminho 2164" d="M158.561,786.178l.445.751.439-.272-.217-.347-.268-.38c-.126.079-.265.166-.4.248" transform="translate(-14.691 -60.681)" fill="#03f5ff" stroke="#03f5ff" stroke-width="1"/>
    <path id="Caminho_2165" data-name="Caminho 2165" d="M147.812,791.688l.258.835c.156-.054.315-.115.475-.178l-.345-.8c-.131.052-.262.1-.388.145" transform="translate(-7.574 -64.398)" fill="#03f5ff" stroke="#03f5ff" stroke-width="1"/>
    <path id="Caminho_2166" data-name="Caminho 2166" d="M178.5,694.286l-.439.028-40.268,2.8a1.567,1.567,0,0,0-1.423,1.587v7.292c0,7.085,4.381,13.04,9.973,13.559l4.188.388-.688.748a24.645,24.645,0,0,1-2.2,2.1l.552.677a23.772,23.772,0,0,0,3.186-3.222l.169-.211,14.759,1.373-.286.641a33.75,33.75,0,0,1-2.439,4.481l.729.482a34.064,34.064,0,0,0,2.754-5.181l.144-.341,6,.558-.152.574a30,30,0,0,1-1,3.1l.81.326a31.182,31.182,0,0,0,1.1-3.5l.105-.418,12.172,1.132v-.006l.506.048c.308.029.563.042.8.042a2.318,2.318,0,0,0,2.316-2.315V698.945a1.835,1.835,0,0,0-1.314-1.76l-9.407-2.823a1.843,1.843,0,0,0-.525-.083c-.035,0-.069,0-.129.007m-.844,15.467V696.125a.974.974,0,0,1,.973-.973.935.935,0,0,1,.274.046l9.406,2.821a.965.965,0,0,1,.693.926v22.087a1.445,1.445,0,0,1-1.444,1.443c-5.46,0-9.9-5.707-9.9-12.721m-31.232,8.929c-5.148-.477-9.181-6.051-9.181-12.689V698.7a.693.693,0,0,1,.61-.716l39.029-2.713-.081.611a1.777,1.777,0,0,0-.019.242v13.628a14.834,14.834,0,0,0,4.77,11.277l1.212,1.032-15.216-1.416.2-.6c.229-.677.42-1.337.572-1.969l-.855-.181a22.492,22.492,0,0,1-.706,2.3l-.132.366-14.46-1.344.415-.688a12.146,12.146,0,0,0,.666-1.253l-.813-.32a12.319,12.319,0,0,1-1.13,1.927l-.167.239Z" transform="translate(0 0)" fill="#03f5ff" stroke="#03f5ff" stroke-width="1"/>
  </g>
</svg>
