<svg xmlns="http://www.w3.org/2000/svg" width="24" height="24" viewBox="0 0 24 24"><defs><style>.a{fill:#f04f28;}.b{fill:none;}</style></defs><g transform="translate(-10.4 -23.014)"><path class="a" d="M18.588,52.478a.769.769,0,0,0-1.035.172,3.172,3.172,0,0,1-2.542,1.287,3,3,0,1,1,0-6.006,3.341,3.341,0,0,1,1.655.458.735.735,0,0,0,1.005-.229.685.685,0,0,0-.236-.972,4.593,4.593,0,0,0-2.454-.686,4.436,4.436,0,1,0,0,8.866,4.686,4.686,0,0,0,3.754-1.888A.683.683,0,0,0,18.588,52.478Z" transform="translate(0 -13.199)"/><path class="a" d="M50,51h0Z" transform="translate(-27.894 -16.412)"/><path class="a" d="M39.93,37.506l-1.035-3.175a.871.871,0,0,0-.266-.372L38.008,32.1a.591.591,0,0,0-.739-.372.227.227,0,0,0-.118.057l-.532-2.259,1.3-.4a.572.572,0,1,0-.355-1.087l-1.8.572a.528.528,0,0,0-.384.658l.266,1.173-6.592,1.773-.887-2.688.887-.086a.557.557,0,0,0,.532-.6.579.579,0,0,0-.591-.543h-3.37a.585.585,0,0,0-.532.343.619.619,0,0,0,.118.629l.3.286a.593.593,0,0,0,.414.172h.059l.976-.086L28.7,35.017l-4.582,2.231a.61.61,0,0,0-.325.629.59.59,0,0,0,.532.458l6,.572h.207c.03,0,.059-.029.089-.029a.029.029,0,0,0,.03-.029.1.1,0,0,0,.059-.029l.03-.029c.03,0,.03-.029.059-.029h0L37,32.787l.532,1.6a.611.611,0,0,0,0,.458L38.57,38.02a.7.7,0,0,0,.709.486.758.758,0,0,0,.236-.029A.841.841,0,0,0,39.93,37.506Zm-13.48-.143,2.6-1.258.207.658h0l.266.887Zm3.843-3.146h0l-.532.286-.384-1.173.591-.143v.057l.325.972m.916-1.058a2.363,2.363,0,0,0-1.153.286,2.291,2.291,0,0,1,1.153-.286l-.089-.286v-.029l4.759-1.287.148.515-5.38,5.148-.236-.8h0l-.266-.829,1.153-.572a.6.6,0,0,0,.325-.429h0v-.2" transform="translate(-9.428 0)"/><path class="a" d="M66.445,47.026a.751.751,0,0,0-.916.486.719.719,0,0,0,.5.887,3,3,0,0,1,2.217,3.232,3.08,3.08,0,0,1-3.459,2.631,3.03,3.03,0,0,1-2.069-1.115,2.97,2.97,0,0,1-.65-2.2,2.826,2.826,0,0,1,.68-1.544.682.682,0,0,0-.118-1,.736.736,0,0,0-1.035.114,4.383,4.383,0,0,0-.03,5.549,4.668,4.668,0,0,0,3.074,1.659,3.324,3.324,0,0,0,.532.029,4.435,4.435,0,0,0,1.271-8.723Z" transform="translate(-35.352 -13.553)"/></g><rect class="b" width="24" height="24" transform="translate(0)"/></svg>