<svg xmlns="http://www.w3.org/2000/svg" width="24" height="24" viewBox="0 0 24 24"><defs><style>.a{fill:none;}.b{fill:#f04f28;}</style></defs><rect class="a" width="24" height="24"/><path class="b" d="M20.917,21.067A1.059,1.059,0,0,0,22,20.036V15.519a1.059,1.059,0,0,0-1.083-1.032h-.472V12.8a1.059,1.059,0,0,0-1.083-1.032H16.645A1.059,1.059,0,0,0,15.562,12.8v1.683H14.218V12.8a1.059,1.059,0,0,0-1.083-1.032H10.418A1.059,1.059,0,0,0,9.335,12.8v1.683H8.863A1.059,1.059,0,0,0,7.78,15.519v4.321H6.438V18.156a1.059,1.059,0,0,0-1.083-1.032H2.638a1.059,1.059,0,0,0-1.083,1.032v1.683H1.083A1.06,1.06,0,0,0,0,20.871v4.517A1.059,1.059,0,0,0,1.083,26.42h6.7v4.32a1.059,1.059,0,0,0,1.083,1.032H20.917A1.059,1.059,0,0,0,22,30.74V26.223a1.059,1.059,0,0,0-1.083-1.032h-.472V23.509a1.059,1.059,0,0,0-1.083-1.032H16.645a1.059,1.059,0,0,0-1.083,1.032v1.683H14.22V21.067ZM16.851,13h2.305v1.487H16.851Zm-6.227,0h2.305v1.487H10.624Zm-7.78,5.352H5.149v1.487H2.844ZM1.289,25.192V21.068H12.931v4.124H1.289Zm15.562-1.487h2.305v1.487H16.851ZM19.8,26.42h.91v4.124H9.069V26.42ZM9.069,19.839V15.715H20.711v4.124H9.069Z" transform="translate(1 -9.772)"/></svg>