<svg xmlns="http://www.w3.org/2000/svg" width="24" height="24" viewBox="0 0 24 24"><defs><style>.a{fill:none;}.b{fill:#f04f28;}</style></defs><rect class="a" width="24" height="24" transform="translate(0)"/><path class="b" d="M19.775,9.858H18.661a7.979,7.979,0,0,0,1.851-1.633,8.736,8.736,0,0,0,2.021-5.633V.7a.7.7,0,0,0-.7-.7H19.94a8.818,8.818,0,0,0-5,1.547A8.157,8.157,0,0,0,10.155,0H8.97a.7.7,0,0,0-.7.7V1.889A8.218,8.218,0,0,0,8.5,3.827q-.15.125-.288.263L1.237,11.06A4.224,4.224,0,0,0,7,17.228a4.208,4.208,0,0,0,2.818,1.08h9.952a4.225,4.225,0,1,0,0-8.45Zm1.35-8.45V2.593a7.345,7.345,0,0,1-1.7,4.735,7.377,7.377,0,0,1-5.756,2.53l3.023-3.023a.7.7,0,0,0-1-1l-3.2,3.2A7.449,7.449,0,0,1,19.94,1.408Zm-11.451,0h.481A6.754,6.754,0,0,1,13.8,2.476a8.982,8.982,0,0,0-.745.812q-.072.089-.141.179l-.445-.445a.7.7,0,1,0-1,1l.659.659a8.8,8.8,0,0,0-.709,1.746A6.7,6.7,0,0,1,9.674,1.889ZM9,5.288a8.136,8.136,0,0,0,2.115,2.8,8.852,8.852,0,0,0,.026,1.774H9.823a4.2,4.2,0,0,0-1.533.288L6.217,8.073ZM2.233,16.039a2.816,2.816,0,0,1,0-3.983L5.221,9.069,7.05,10.9a4.218,4.218,0,0,0-.924,5.228,2.816,2.816,0,0,1-3.892-.087Zm4.773-1.956a2.82,2.82,0,0,1,2.817-2.817h4.225V16.9H9.823A2.82,2.82,0,0,1,7.006,14.083ZM19.775,16.9H15.456V11.267h4.319a2.817,2.817,0,1,1,0,5.633Zm0,0" transform="translate(0 3)"/></svg>