<svg xmlns="http://www.w3.org/2000/svg" width="24" height="24" viewBox="0 0 24 24"><defs><style>.a{fill:none;}.b{fill:#f04f28;}</style></defs><rect class="a" width="24" height="24"/><g transform="translate(1 1)"><path class="b" d="M28.045,2.251a4.251,4.251,0,0,0-4.239,3.433H17.858L16.732.513A.666.666,0,0,0,16.074,0H12.531a.659.659,0,0,0-.672.645.659.659,0,0,0,.672.645h3l.957,4.4H11.018A.644.644,0,0,0,10.466,6.7l5.464,7.574a4.514,4.514,0,0,0,3.016,1.805v4.636H16.539a.645.645,0,1,0,0,1.289H22.7a.645.645,0,1,0,0-1.289H20.289V16.075a4.514,4.514,0,0,0,3.016-1.805l2.977-4.127a4.443,4.443,0,0,0,1.763.362,4.221,4.221,0,0,0,4.3-4.126A4.221,4.221,0,0,0,28.045,2.251Zm-1.11,4.722-2.242,3.108H14.542L12.3,6.973ZM22.2,13.535a3.216,3.216,0,0,1-5.167,0L15.472,11.37h8.291Zm5.844-4.32a3.07,3.07,0,0,1-.979-.159l1.7-2.36a.644.644,0,0,0-.552-1.011H25.179a2.951,2.951,0,0,1,2.866-2.144A2.9,2.9,0,0,1,31,6.378,2.9,2.9,0,0,1,28.045,9.215Z" transform="translate(-10.345 0)"/></g></svg>