<svg xmlns="http://www.w3.org/2000/svg" width="48" height="51.326" viewBox="0 0 48 51.326">
  <g id="Grupo_4545" data-name="Grupo 4545" transform="translate(-903.882 -452.736)">
    <path id="Caminho_2187" data-name="Caminho 2187" d="M449.218,121.97h-7.151a.861.861,0,1,0,0,1.721h7.151a.861.861,0,1,0,0-1.721m-4.49-12.488a1.292,1.292,0,0,0-.379.912,1.306,1.306,0,0,0,.379.912,1.29,1.29,0,0,0,.911.379,1.29,1.29,0,0,0,.912-2.2,1.332,1.332,0,0,0-1.823,0m1.466,3.136a2.161,2.161,0,0,1-2.611-1.509,50.4,50.4,0,0,1,.114-7.807,50.348,50.348,0,0,1,4,6.7,2.136,2.136,0,0,1-1.508,2.611m-2.474-12.369a.86.86,0,0,0-1.568.421c-.116,1.528-.673,9.233-.23,10.886a3.853,3.853,0,0,0,7.443-1.993c-.445-1.654-4.781-8.048-5.645-9.314m-8.827,18.457a14.587,14.587,0,0,1-1.489-1.9l.7-.405a.86.86,0,1,0-.857-1.492l-.7.4a14.737,14.737,0,0,1-1.527-5.7h.8a.86.86,0,0,0,0-1.721h-.808a14.663,14.663,0,0,1,.491-3.029c.02-.074.036-.15.058-.224.072-.251.161-.5.247-.748.064-.179.126-.359.2-.535.081-.206.169-.408.259-.61s.179-.378.271-.564l.706.408a.861.861,0,0,0,.862-1.491l-.711-.411c.03-.043.052-.09.081-.133l.007-.009c.238-.351.495-.689.761-1.017.056-.069.112-.137.168-.2.269-.319.546-.629.839-.924.009-.008.016-.017.024-.025.287-.287.591-.557.9-.82.106-.089.212-.175.32-.262.224-.179.455-.349.689-.515.129-.09.258-.185.391-.271l.409.709a.86.86,0,0,0,1.491-.86l-.407-.706c.136-.068.274-.134.413-.2.315-.146.633-.281.958-.4.187-.072.375-.144.567-.208s.409-.13.616-.188.442-.119.665-.171c.207-.05.417-.1.628-.138q.5-.1,1.021-.156c.14-.016.279-.03.42-.043s.282-.013.424-.021v.812a.86.86,0,0,0,.86.86h0a.859.859,0,0,0,.859-.861v-.812c.157.009.315.009.47.024.107.01.213.019.32.032.419.047.836.108,1.243.189.089.018.174.043.262.062.327.072.649.155.968.249.136.04.273.081.41.125.374.122.743.254,1.1.4.093.04.185.086.279.127.222.1.439.207.655.317l-.407.7a.861.861,0,0,0,.316,1.176.859.859,0,0,0,1.174-.315l.405-.7c.094.062.193.12.285.183.25.174.491.36.73.548.118.09.236.181.35.277q.419.353.81.737c.065.063.131.123.2.187q.414.419.794.874l.142.165c.242.3.47.606.689.921.057.082.115.162.169.246.008.011.015.025.023.037l-.71.412a.861.861,0,0,0,.432,1.6.841.841,0,0,0,.43-.117l.7-.407c.084.166.165.335.243.506.092.207.186.413.27.625s.154.41.226.618c.09.262.179.527.256.8.054.19.1.382.149.577.066.272.127.544.177.817.042.23.076.463.108.7s.058.456.079.683c.011.128.012.26.019.389h-.814a.861.861,0,0,0,0,1.721h.821c0,.014,0,.029,0,.042-.012.213-.03.426-.052.637s-.047.427-.079.639q-.061.4-.146.8c-.03.15-.057.3-.093.449a14.669,14.669,0,0,1-.886,2.591c-.011.022-.022.043-.032.066-.074.163-.166.32-.247.479l-.7-.405a.86.86,0,0,0-.858,1.492l.694.4c-.119.179-.225.361-.353.536-.032.044-.062.089-.094.131a15.338,15.338,0,0,1-1.036,1.241H434.892Zm22.476,1.46a17.2,17.2,0,0,0,1.165-1.337c.017-.018.039-.024.054-.044.085-.109.158-.226.239-.337.168-.225.334-.452.488-.683.089-.135.171-.275.257-.413s.168-.262.246-.395c.005-.009.013-.014.018-.022a.122.122,0,0,0,.006-.018c.023-.039.039-.079.061-.118q.344-.605.633-1.233c.016-.034.034-.069.052-.1a16.223,16.223,0,0,0,.986-2.88c.043-.178.074-.357.111-.536.058-.286.114-.573.158-.863.037-.244.065-.49.09-.736q.035-.342.056-.688c.016-.267.029-.535.032-.8,0-.072.009-.143.009-.217h0c0-.125-.016-.245-.018-.368-.009-.343-.021-.686-.052-1.03-.022-.253-.054-.5-.088-.752s-.072-.526-.122-.789c-.055-.306-.123-.61-.2-.909-.032-.13-.051-.262-.085-.392-.024-.087-.057-.17-.083-.255-.087-.3-.182-.592-.284-.884-.082-.234-.164-.467-.255-.7s-.2-.46-.3-.689c-.129-.287-.264-.572-.41-.851-.08-.151-.164-.3-.248-.447-.013-.023-.025-.046-.039-.069s-.009-.042-.02-.062-.025-.025-.036-.041c-.162-.279-.33-.55-.507-.818-.057-.086-.118-.17-.176-.255-.249-.359-.508-.71-.784-1.047-.046-.056-.095-.11-.141-.165-.289-.344-.59-.677-.907-1-.063-.064-.129-.124-.194-.187-.3-.291-.607-.575-.929-.844-.119-.1-.241-.192-.363-.288-.275-.217-.554-.43-.844-.631-.2-.137-.4-.263-.606-.39-.168-.107-.329-.224-.5-.324,0,0-.008-.008-.011-.01s-.009,0-.013,0c-.078-.045-.159-.084-.236-.127-.11-.061-.221-.119-.333-.177-.335-.177-.674-.341-1.021-.492-.1-.044-.193-.09-.292-.132-.406-.169-.82-.318-1.239-.454-.149-.05-.3-.094-.452-.138q-.536-.158-1.083-.28c-.1-.022-.195-.048-.294-.068-.458-.093-.922-.161-1.388-.213-.12-.013-.239-.025-.358-.036-.489-.045-.98-.074-1.471-.074h-.045c-.472,0-.941.03-1.407.072-.154.013-.307.028-.46.045-.391.047-.779.1-1.163.179-.225.043-.446.1-.669.146-.257.061-.513.125-.766.2q-.34.1-.674.206c-.228.077-.453.163-.678.249-.344.132-.681.274-1.014.428-.2.092-.4.186-.591.285s-.406.211-.605.324c-.026.015-.053.028-.079.043s-.039.009-.057.019-.029.029-.046.041c-.234.136-.463.281-.69.428-.169.11-.332.225-.5.34q-.407.287-.8.6c-.114.091-.229.184-.341.279-.351.3-.694.6-1.019.926l0,0c-.338.337-.655.694-.964,1.06l-.175.211a16.419,16.419,0,0,0-1.458,2.1c0,.006-.008.008-.011.012s0,.011-.006.016c-.037.068-.069.136-.106.2-.1.175-.187.353-.278.531-.128.25-.251.5-.363.755-.1.222-.195.449-.285.676-.081.206-.155.412-.227.619-.1.274-.189.549-.27.829-.035.123-.063.246-.1.367a16.331,16.331,0,0,0-.534,3.587c0,.01,0,.021,0,.031-.008.194-.03.383-.03.578h0a16.2,16.2,0,0,0,2.179,8.145c.008.016.008.033.016.05a.878.878,0,0,0,.057.073,16.423,16.423,0,0,0,1.189,1.776.709.709,0,0,0,.088.075,16.308,16.308,0,0,0,1.128,1.306.868.868,0,0,0,.617.26h22.228a.857.857,0,0,0,.621-.26m-10.528,6.566a17.932,17.932,0,0,1-3.788-.166c-.018,0-.036.006-.053,0a18,18,0,1,1,7.308-.412,18.237,18.237,0,0,1-3.467.575m-3.058,3.465v-1.8c.61.057,1.225.093,1.847.093.526,0,1.052-.029,1.576-.072.1-.007.195,0,.292-.012V130.2Zm5.554,8.4h-7.392v-6.678h7.392Zm1.721-6.678h1.767V138.6h-1.767ZM440.224,138.6h-1.767v-6.678h1.767Zm10.528-10.778a19.759,19.759,0,1,0-8.689.342V130.2H437.6a.86.86,0,0,0-.861.861v.16H422.5a.861.861,0,1,0,0,1.721h14.234v4.638H422.5a.861.861,0,1,0,0,1.721h14.234v.159a.86.86,0,0,0,.861.86h16.087a.859.859,0,0,0,.86-.86V139.3H468.78a.861.861,0,0,0,0-1.721H454.544v-4.638H468.78a.861.861,0,0,0,0-1.721H454.544v-.16a.86.86,0,0,0-.86-.861h-4.465v-2.04c.515-.1,1.027-.2,1.534-.34" transform="translate(482.242 363.745)" fill="#03f5ff"/>
  </g>
</svg>
