<svg xmlns="http://www.w3.org/2000/svg" width="24" height="24" viewBox="0 0 24 24"><defs><style>.a{fill:none;}.b{fill:#f04f28;}</style></defs><rect class="a" width="24" height="24"/><g transform="translate(1 5)"><g transform="translate(0 1.587)"><path class="b" d="M21.063,127.077a6.629,6.629,0,0,0-4.079-3.477,4.116,4.116,0,0,0-3.165.428,8.854,8.854,0,0,1-5.735.084A4.01,4.01,0,0,0,4.99,123.7,6.588,6.588,0,0,0,.956,127.12c-1.64,3.066-1.12,6.6,1.183,8.055a4.031,4.031,0,0,0,3.148.467,6.462,6.462,0,0,0,3.907-3.154,5,5,0,0,1,3.468.024,6.573,6.573,0,0,0,3.978,3.229,4.505,4.505,0,0,0,1.08.134,3.97,3.97,0,0,0,2.129-.6C22.144,133.843,22.689,130.168,21.063,127.077ZM19.037,134.1a2.566,2.566,0,0,1-2.026.283,5.249,5.249,0,0,1-3.128-2.675.943.943,0,0,0-.455-.409l-.033-.015a6.554,6.554,0,0,0-2.505-.495,6.471,6.471,0,0,0-2.245.4l-.051.012a.766.766,0,0,0-.154.054.925.925,0,0,0-.446.4,5.149,5.149,0,0,1-3.074,2.633,2.479,2.479,0,0,1-1.963-.277c-1.634-1.029-1.947-3.892-.685-6.251a5.216,5.216,0,0,1,3.095-2.7,2.5,2.5,0,0,1,1.988.28.758.758,0,0,0,.174.081l.066.021a10.4,10.4,0,0,0,6.83-.126.763.763,0,0,0,.141-.07,2.554,2.554,0,0,1,2.039-.284,5.256,5.256,0,0,1,3.138,2.749C21.023,130.137,20.7,133.065,19.037,134.1Z" transform="translate(0 -123.461)"/></g><g transform="translate(10.271 0)"><path class="b" d="M239.775,84.606a.72.72,0,0,0-.738.7v2.571a.739.739,0,0,0,1.476,0V85.307A.72.72,0,0,0,239.775,84.606Z" transform="translate(-239.037 -84.606)"/></g><g transform="translate(3.385 4.909)"><path class="b" d="M81.108,204.8a2.224,2.224,0,1,0,2.336,2.221A2.283,2.283,0,0,0,81.108,204.8Zm0,3.039a.819.819,0,1,1,.861-.818A.841.841,0,0,1,81.108,207.843Z" transform="translate(-78.772 -204.804)"/></g><g transform="translate(15.928 4.909)"><path class="b" d="M371.415,204.8a.72.72,0,0,0-.738.7v3.273a.739.739,0,0,0,1.476,0v-3.273A.72.72,0,0,0,371.415,204.8Z" transform="translate(-370.677 -204.804)"/></g><g transform="translate(14.206 6.545)"><path class="b" d="M334.792,244.87h-3.443a.7.7,0,1,0,0,1.4h3.443a.7.7,0,1,0,0-1.4Z" transform="translate(-330.611 -244.87)"/></g></g></svg>