<svg id="Componente_97_1" data-name="Componente 97 – 1" xmlns="http://www.w3.org/2000/svg" width="24" height="24" viewBox="0 0 24 24">
  <rect id="Retângulo_2307" data-name="Retângulo 2307" width="24" height="24" fill="none"/>
  <g id="noun_Washing_Machine_4360545" data-name="noun_Washing Machine_4360545" transform="translate(1.845 -5.5)">
    <g id="TAVOLA_6" data-name="TAVOLA 6" transform="translate(2.154 7.5)">
      <path id="Caminho_2192" data-name="Caminho 2192" d="M28.433,7.5H18.062a2.849,2.849,0,0,0-2.814,2.877V24.623A2.849,2.849,0,0,0,18.062,27.5H28.433a2.849,2.849,0,0,0,2.814-2.877V10.377A2.849,2.849,0,0,0,28.433,7.5ZM15.928,24.623v-12.6H30.567v12.6a2.213,2.213,0,0,1-.141.78H16.069a2.213,2.213,0,0,1-.141-.78ZM30.567,10.377v.948H21.66V8.2h6.773A2.16,2.16,0,0,1,30.567,10.377ZM18.062,8.2H20.98v3.13H15.928v-.948A2.16,2.16,0,0,1,18.062,8.2ZM28.433,26.8H18.062a2.108,2.108,0,0,1-1.57-.706H30a2.108,2.108,0,0,1-1.57.706Z" transform="translate(-15.248 -7.5)" fill="#f04f28" stroke="#f04f28" stroke-width="0.4"/>
      <path id="Caminho_2193" data-name="Caminho 2193" d="M36.977,34.953a4.858,4.858,0,0,0-6.235-.628,5.11,5.11,0,0,0-1.819,6.128,4.917,4.917,0,0,0,5.526,3.019,5.089,5.089,0,0,0,2.528-8.519Zm-3.492,7.921a4.353,4.353,0,1,1,4.258-4.352A4.306,4.306,0,0,1,33.485,42.874Z" transform="translate(-25.485 -27.363)" fill="#f04f28" stroke="#f04f28" stroke-width="0.4"/>
      <path id="Caminho_2194" data-name="Caminho 2194" d="M41.945,43.295a.343.343,0,0,0,.227-.2.354.354,0,0,0-.022-.308,3.132,3.132,0,0,0-3.555-1.474,3.25,3.25,0,0,0,0,6.234,3.132,3.132,0,0,0,3.555-1.474.355.355,0,0,0,.022-.308.343.343,0,0,0-.227-.2,1.177,1.177,0,0,1,0-2.259Zm-1.27,3.321a2.436,2.436,0,0,1-2.69-.131A2.563,2.563,0,0,1,37,43.925h.735a1.128,1.128,0,0,1,1.02.649,1.8,1.8,0,0,0,1.63,1.037h.454a1.837,1.837,0,0,0,.5.433A2.511,2.511,0,0,1,40.675,46.616Zm-.257-2.192a1.9,1.9,0,0,0,.065.491h-.1a1.128,1.128,0,0,1-1.02-.649,1.8,1.8,0,0,0-1.63-1.037h-.49A2.478,2.478,0,0,1,39.178,41.9a2.453,2.453,0,0,1,2.158.9A1.876,1.876,0,0,0,40.418,44.424Z" transform="translate(-31.428 -33.265)" fill="#f04f28" stroke="#f04f28" stroke-width="0.4"/>
      <path id="Caminho_2195" data-name="Caminho 2195" d="M23.559,16.3h2.412a.348.348,0,0,0,0-.7H23.559a.348.348,0,0,0,0,.7Z" transform="translate(-21.384 -13.699)" fill="#f04f28" stroke="#f04f28" stroke-width="0.4"/>
      <path id="Caminho_2196" data-name="Caminho 2196" d="M49.982,16.391H51.26a.348.348,0,0,0,0-.7H49.982a.348.348,0,0,0,0,.7Z" transform="translate(-41.724 -13.767)" fill="#f04f28" stroke="#f04f28" stroke-width="0.4"/>
      <path id="Caminho_2197" data-name="Caminho 2197" d="M66.283,16.391h1.278a.348.348,0,0,0,0-.7H66.283a.348.348,0,0,0,0,.7Z" transform="translate(-54.273 -13.767)" fill="#f04f28" stroke="#f04f28" stroke-width="0.4"/>
    </g>
  </g>
</svg>
