<svg xmlns="http://www.w3.org/2000/svg" width="24" height="24" viewBox="0 0 24 24"><defs><style>.a{fill:#f04f28;}.b{fill:none;}.c,.d{stroke:none;}.d{fill:#f04f28;}</style></defs><g transform="translate(2 2)"><g class="a" transform="translate(-449.781 -102.429)"><path class="c" d="M 467.4577941894531 122.5287551879883 L 467.4374084472656 122.5287551879883 L 452.1220703125 122.5287551879883 L 452.1022033691406 122.5287551879883 L 452.0838317871094 122.5211410522461 C 451.4453125 122.2567901611328 451.4902038574219 121.690544128418 451.5262451171875 121.2355651855469 C 451.6064453125 120.2243194580078 452.1030883789062 119.4308090209961 453.0445556640625 118.809700012207 C 453.854248046875 118.2754211425781 454.7856750488281 117.9814453125 455.6702880859375 117.7261352539062 C 455.78173828125 117.6939544677734 455.8934936523438 117.6627044677734 456.0052490234375 117.631462097168 C 456.2499389648438 117.5630416870117 456.5029907226562 117.492301940918 456.7473449707031 117.4125137329102 C 456.8045654296875 117.3938522338867 456.8745727539062 117.3327255249023 456.8854370117188 117.3058700561523 C 456.9003601074219 117.0429153442383 456.8983154296875 116.7816314697266 456.8962097167969 116.5050735473633 C 456.8957214355469 116.4422760009766 456.8952331542969 116.379150390625 456.8949279785156 116.3156127929688 C 456.6309509277344 116.3116836547852 456.4324951171875 116.1834411621094 456.251708984375 116.0521545410156 C 455.5115966796875 115.5149536132812 454.7701721191406 114.9794235229492 454.0287170410156 114.4438858032227 C 453.6194152832031 114.1482543945312 453.2101440429688 113.8526229858398 452.801025390625 113.5567016601562 C 451.995361328125 112.9738235473633 451.482666015625 112.1396942138672 451.2337341308594 111.0066604614258 C 450.8844299316406 109.4170608520508 450.5134582519531 107.8040008544922 450.1546630859375 106.2440490722656 C 450.0044555664062 105.590934753418 449.854248046875 104.9378128051758 449.7051086425781 104.2844543457031 C 449.6578674316406 104.077392578125 449.6794128417969 103.9031295776367 449.7691955566406 103.7665023803711 C 449.8598327636719 103.6285400390625 450.013916015625 103.5384902954102 450.2271728515625 103.4988632202148 C 451.1222839355469 103.3326721191406 451.8647766113281 103.1997604370117 452.5638427734375 103.0806121826172 C 452.6293334960938 103.069450378418 452.6914672851562 103.0638046264648 452.7485656738281 103.0638046264648 C 453.0899963378906 103.0638046264648 453.2989807128906 103.2652816772461 453.3696899414062 103.6626434326172 C 453.4917297363281 104.3481826782227 453.6142578125 105.0195236206055 453.7439880371094 105.7302856445312 C 453.776123046875 105.9062423706055 453.8083801269531 106.0829467773438 453.8407592773438 106.2606048583984 C 453.8973083496094 106.1321563720703 453.9522705078125 106.009147644043 454.0115051269531 105.8879241943359 C 454.3783569335938 105.1376495361328 454.8856506347656 104.4767227172852 455.519287109375 103.923454284668 C 455.6233520507812 103.8325347900391 455.7301635742188 103.7864227294922 455.8367309570312 103.7864227294922 C 455.9471130371094 103.7864227294922 456.04833984375 103.8370056152344 456.1294860839844 103.9327011108398 C 456.3236999511719 104.1618347167969 456.1758728027344 104.3801345825195 456.0477600097656 104.5244140625 C 455.965576171875 104.6169738769531 455.8816223144531 104.7086486816406 455.797607421875 104.8004302978516 C 455.520751953125 105.1027755737305 455.2344970703125 105.4154052734375 455.0187072753906 105.7575912475586 C 454.8244323730469 106.0655746459961 454.6821594238281 106.4179611206055 454.5445861816406 106.7587509155273 C 454.4866943359375 106.9021606445312 454.4268493652344 107.0504455566406 454.3635864257812 107.1944198608398 C 454.3373107910156 107.2541885375977 454.3346862792969 107.3085098266602 454.4027099609375 107.3946533203125 C 454.5569763183594 107.5899505615234 454.7055358886719 107.7942810058594 454.8492126464844 107.9918823242188 C 454.87939453125 108.0334091186523 454.9096069335938 108.0749664306641 454.93994140625 108.1165237426758 C 455.8016662597656 106.8285140991211 457.1243286132812 106.0975494384766 458.4047241210938 105.3899688720703 C 459.5596008300781 104.7517395019531 460.808837890625 104.1912841796875 462.2225341796875 103.6771621704102 C 462.2199096679688 103.6759490966797 462.2172546386719 103.6747436523438 462.2146301269531 103.6735305786133 C 462.0726928710938 103.6083908081055 461.9386291503906 103.5468597412109 461.8034057617188 103.4971237182617 C 461.1203002929688 103.2457809448242 460.4336547851562 103.1183395385742 459.7625427246094 103.1183395385742 C 458.9404602050781 103.1183395385742 458.115234375 103.3096160888672 457.3097839355469 103.6868286132812 C 457.2938537597656 103.6943130493164 457.2780151367188 103.7023010253906 457.2621765136719 103.7102737426758 C 457.230224609375 103.7263717651367 457.1971740722656 103.7430191040039 457.1612548828125 103.7571105957031 C 457.09765625 103.7820358276367 457.0344848632812 103.7946548461914 456.9734497070312 103.7946624755859 C 456.8233642578125 103.7946624755859 456.6971435546875 103.7182312011719 456.627197265625 103.5849533081055 C 456.5729370117188 103.4817352294922 456.5623779296875 103.3701553344727 456.5975036621094 103.2708206176758 C 456.6328735351562 103.170768737793 456.7134399414062 103.0893249511719 456.8244018554688 103.0414733886719 C 456.89208984375 103.0122833251953 456.9596862792969 102.9826126098633 457.0273742675781 102.9529113769531 C 457.3436889648438 102.8141021728516 457.6707763671875 102.6705703735352 458.0095520019531 102.5757598876953 C 458.5951843261719 102.4118499755859 459.1961669921875 102.3287506103516 459.7958068847656 102.3287506103516 C 462.4031677246094 102.3287506103516 464.7120666503906 103.8644714355469 465.7189025878906 106.2539367675781 L 465.7658081054688 105.9980392456055 C 465.86962890625 105.4321441650391 465.9700927734375 104.8844757080078 466.0699157714844 104.3366394042969 C 466.088134765625 104.2366790771484 466.1052856445312 104.1365127563477 466.1224060058594 104.0363311767578 C 466.1465148925781 103.8954849243164 466.1714172363281 103.7498397827148 466.1991882324219 103.6066589355469 C 466.2859497070312 103.1584625244141 466.5812683105469 103.0643692016602 466.8137512207031 103.0643692016602 C 466.8693542480469 103.0643692016602 466.9292602539062 103.0696792602539 466.9918212890625 103.0801391601562 C 467.49658203125 103.1644439697266 468.0084838867188 103.2562789916992 468.5035400390625 103.3450927734375 C 468.6878967285156 103.3781585693359 468.8722534179688 103.4112396240234 469.056640625 103.4440155029297 C 469.1453857421875 103.4597244262695 469.2388000488281 103.4778594970703 469.3504943847656 103.5010986328125 C 469.551025390625 103.5427551269531 469.7042541503906 103.6383438110352 469.7936401367188 103.7775344848633 C 469.8793029785156 103.910888671875 469.9023742675781 104.0786819458008 469.8603820800781 104.2627487182617 C 469.5376281738281 105.6768951416016 469.2130126953125 107.0906143188477 468.8883972167969 108.5043029785156 L 468.7811889648438 108.97119140625 C 468.7298889160156 109.1946640014648 468.6790161132812 109.4182434082031 468.6281433105469 109.6418228149414 C 468.4953918457031 110.2252655029297 468.358154296875 110.8285522460938 468.21484375 111.4203186035156 C 468.0050354003906 112.2865295410156 467.5155639648438 113.0045013427734 466.760009765625 113.5543060302734 C 465.7212524414062 114.3101501464844 464.4870300292969 115.2053756713867 463.2086486816406 116.1141815185547 C 463.0915222167969 116.1974487304688 462.9552612304688 116.2457504272461 462.81103515625 116.2968826293945 C 462.7630310058594 116.3138885498047 462.7138977050781 116.3313140869141 462.6641540527344 116.3504943847656 C 462.6639099121094 116.4060821533203 462.6633911132812 116.4633636474609 462.6629028320312 116.5220260620117 C 462.6607971191406 116.764289855957 462.6584167480469 117.0388946533203 462.6737365722656 117.3069610595703 C 462.6812133789062 117.3282318115234 462.7526245117188 117.3927154541016 462.8085021972656 117.4102630615234 C 463.3018798828125 117.5651397705078 463.8076477050781 117.7115020751953 464.2967834472656 117.8530502319336 L 464.509033203125 117.9145050048828 C 464.7319946289062 117.9791488647461 464.8461303710938 118.1317749023438 464.8304748535156 118.3442611694336 C 464.8154907226562 118.5472412109375 464.6435546875 118.7003326416016 464.4305419921875 118.7003555297852 C 464.3899536132812 118.7003555297852 464.3491821289062 118.6946105957031 464.3093566894531 118.6832885742188 L 464.2824401855469 118.6756210327148 C 463.6869506835938 118.5060958862305 463.0712280273438 118.3307952880859 462.4696044921875 118.1439590454102 C 462.0927124023438 118.02685546875 461.8662414550781 117.7144241333008 461.86376953125 117.3082122802734 C 461.8621520996094 117.0360488891602 461.8623352050781 116.7638626098633 461.8624877929688 116.4916839599609 C 461.8626403808594 116.2560501098633 461.86279296875 116.0204315185547 461.8617553710938 115.7848205566406 C 461.8616027832031 115.7438201904297 461.8571472167969 115.7006530761719 461.8511047363281 115.6487045288086 C 461.1578979492188 116.0131072998047 460.4615173339844 116.1977157592773 459.7789306640625 116.19775390625 C 459.0934143066406 116.1977996826172 458.3989562988281 116.0115737915039 457.7127685546875 115.6440048217773 C 457.7044067382812 115.6888580322266 457.6983642578125 115.7262649536133 457.6981506347656 115.7607955932617 C 457.6961669921875 116.0712585449219 457.6963195800781 116.3817596435547 457.6964721679688 116.6922607421875 C 457.6965637207031 116.876350402832 457.6966247558594 117.060432434082 457.6962890625 117.2445220947266 C 457.6954650878906 117.731689453125 457.4617004394531 118.0388259887695 456.9816284179688 118.183464050293 C 456.7888488769531 118.2415390014648 456.5957641601562 118.2988739013672 456.4026794433594 118.356201171875 C 455.8305053710938 118.526123046875 455.2388610839844 118.7018127441406 454.6649475097656 118.8948287963867 C 454.0365295410156 119.1061553955078 453.5221557617188 119.3945159912109 453.0924072265625 119.7763748168945 C 452.5340881347656 120.2726058959961 452.2837219238281 120.8986892700195 452.3269653320312 121.6904220581055 C 452.3291015625 121.729118347168 452.3365783691406 121.7400207519531 452.3372802734375 121.7409515380859 C 452.3372802734375 121.7409515380859 452.3372802734375 121.7409439086914 452.3373107910156 121.7409439086914 C 452.3377685546875 121.7409439086914 452.3450927734375 121.7441787719727 452.3643798828125 121.7441787719727 C 452.3688659667969 121.7441787719727 452.3735656738281 121.744010925293 452.3784484863281 121.7436828613281 C 452.3975219726562 121.7424087524414 452.4166259765625 121.7419815063477 452.4358215332031 121.7419815063477 C 452.4511108398438 121.7419815063477 452.4664001464844 121.7422485351562 452.4817199707031 121.7425308227539 C 452.4958190917969 121.742790222168 452.5098876953125 121.743049621582 452.5239562988281 121.743049621582 L 457.3644104003906 121.7430725097656 L 462.2047729492188 121.7430801391602 L 467.0451354980469 121.743049621582 C 467.1184387207031 121.743049621582 467.1940307617188 121.743049621582 467.2213134765625 121.7359085083008 C 467.2279052734375 121.7118606567383 467.2299499511719 121.6490707397461 467.23193359375 121.5881652832031 L 467.232666015625 121.5656509399414 C 467.265869140625 120.5677108764648 466.7794189453125 119.8319702148438 465.7018127441406 119.250244140625 C 465.6832580566406 119.240234375 465.6641845703125 119.2307891845703 465.6450805664062 119.2213287353516 C 465.5895690917969 119.1938095092773 465.5321655273438 119.1653594970703 465.4805297851562 119.1226425170898 C 465.3209228515625 118.9909896850586 465.2848510742188 118.8064498901367 465.3840942382812 118.6290817260742 C 465.4589233398438 118.4952239990234 465.5786437988281 118.4214706420898 465.7211303710938 118.4214706420898 C 465.7640075683594 118.4214706420898 465.8087768554688 118.4282531738281 465.8541870117188 118.4416122436523 C 466.8968505859375 118.7489700317383 467.9259033203125 120.0065307617188 468.0132141113281 121.0800323486328 C 468.0186157226562 121.146842956543 468.023193359375 121.2136611938477 468.0277404785156 121.2804946899414 C 468.0333557128906 121.3626556396484 468.0389709472656 121.4448013305664 468.0461730957031 121.5268020629883 C 468.0887145996094 122.0076293945312 467.8970642089844 122.3420715332031 467.4765319824219 122.5207824707031 L 467.4577941894531 122.5287551879883 Z M 450.520263671875 104.2504730224609 C 450.6696166992188 104.9041519165039 450.8198852539062 105.5576324462891 450.9701232910156 106.2110900878906 C 451.3198852539062 107.7324600219727 451.6816101074219 109.3056411743164 452.0258178710938 110.8556060791016 C 452.2317504882812 111.7828140258789 452.6047973632812 112.4179992675781 453.1998596191406 112.8545837402344 C 453.9044189453125 113.3715896606445 454.6251525878906 113.8918304443359 455.3221435546875 114.3949432373047 C 455.8036193847656 114.7424926757812 456.3014831542969 115.1018600463867 456.7898559570312 115.4571685791016 C 456.8417053222656 115.494873046875 456.8626098632812 115.4967803955078 456.8663024902344 115.4967803955078 C 456.866943359375 115.4967346191406 456.8844604492188 115.4906005859375 456.9176330566406 115.4293823242188 C 457.0862121582031 115.1180648803711 457.0288696289062 114.7827758789062 456.7602844238281 114.5094833374023 C 456.49169921875 114.2361526489258 456.2164306640625 113.9600830078125 455.9502563476562 113.6930999755859 C 455.7347412109375 113.4769515991211 455.5191955566406 113.2607955932617 455.3047180175781 113.0436630249023 L 455.2895202636719 113.0283737182617 C 455.2274169921875 112.9661026000977 455.150146484375 112.8885955810547 455.1308288574219 112.7912292480469 C 455.1162414550781 112.7180023193359 455.1014404296875 112.6996459960938 454.9891967773438 112.6874847412109 C 454.5180358886719 112.6365051269531 454.1417236328125 112.3094329833984 454.052734375 111.8736190795898 C 453.9139709472656 111.1937637329102 453.7924499511719 110.505973815918 453.6698913574219 109.8024444580078 C 453.6331481933594 109.592170715332 453.7436218261719 109.4240493774414 453.9581909179688 109.3637390136719 C 453.99853515625 109.3524017333984 454.038818359375 109.3466491699219 454.0779724121094 109.3466491699219 C 454.2424011230469 109.3466491699219 454.3779602050781 109.4465408325195 454.4406127929688 109.6138610839844 C 454.4592895507812 109.6638946533203 454.46826171875 109.7134628295898 454.4769287109375 109.7614059448242 L 454.4806518554688 109.7818603515625 C 454.5163879394531 109.9737701416016 454.5515747070312 110.165885925293 454.5867309570312 110.3579788208008 C 454.6658935546875 110.7904586791992 454.7477416992188 111.2376556396484 454.8354797363281 111.675651550293 C 454.8638000488281 111.8168334960938 454.9758605957031 111.9080810546875 455.1209716796875 111.9080810546875 C 455.1450500488281 111.9080810546875 455.169677734375 111.9054794311523 455.1941223144531 111.9003448486328 C 455.3495788574219 111.867805480957 455.4476013183594 111.7083587646484 455.4173278808594 111.5373687744141 C 455.3939514160156 111.4053344726562 455.36865234375 111.2734985351562 455.3433532714844 111.1416702270508 C 455.2885437011719 110.8559722900391 455.2318725585938 110.5605392456055 455.1958923339844 110.2659759521484 C 455.1461181640625 109.8587799072266 454.98681640625 109.4961700439453 454.6944885253906 109.1248245239258 C 454.3237915039062 108.6538009643555 453.9674987792969 108.160530090332 453.6229248046875 107.6835021972656 C 453.5133056640625 107.5317840576172 453.4037170410156 107.3800659179688 453.2935180664062 107.2288055419922 C 453.2361145019531 107.1499328613281 453.1673889160156 107.0448455810547 453.1454162597656 106.9311141967773 C 453.0632629394531 106.5060501098633 452.9856262207031 106.0730590820312 452.9105529785156 105.6543197631836 C 452.8803100585938 105.4856033325195 452.8500671386719 105.3168716430664 452.8194580078125 105.1482238769531 C 452.7602844238281 104.8225326538086 452.7005310058594 104.496940612793 452.6402893066406 104.1686401367188 L 452.5884399414062 103.8860092163086 L 450.520263671875 104.2504730224609 Z M 465.4845581054688 109.348258972168 C 465.5101013183594 109.348258972168 465.5365295410156 109.3504791259766 465.5631103515625 109.354850769043 C 465.6720581054688 109.3727416992188 465.7599487304688 109.4249496459961 465.8172912597656 109.5058135986328 C 465.8815307617188 109.5964202880859 465.9027709960938 109.7163238525391 465.8787536621094 109.8525390625 L 465.8090209960938 110.2490234375 C 465.7224731445312 110.7418441772461 465.6329956054688 111.2514419555664 465.5384826660156 111.7517700195312 C 465.4356384277344 112.2963027954102 465.1038818359375 112.6064529418945 464.5242614746094 112.6999359130859 C 464.5043334960938 112.7031326293945 464.4641723632812 112.7311553955078 464.4313354492188 112.7725524902344 C 464.4065551757812 112.8037033081055 464.3853759765625 112.8413543701172 464.3629150390625 112.8812026977539 C 464.3302307128906 112.9393005371094 464.29638671875 112.999382019043 464.2455749511719 113.0513610839844 C 463.9622497558594 113.3409805297852 463.6714477539062 113.6324691772461 463.3901977539062 113.9143600463867 C 463.1943969726562 114.1106109619141 462.9985961914062 114.3068695068359 462.8037414550781 114.504020690918 C 462.534912109375 114.7759704589844 462.4747009277344 115.1110687255859 462.6385192871094 115.4234008789062 C 462.6725769042969 115.4884719848633 462.6915588378906 115.4957885742188 462.6917419433594 115.495849609375 C 462.6917724609375 115.495849609375 462.6918029785156 115.495849609375 462.6918029785156 115.495849609375 C 462.6966247558594 115.495849609375 462.7197570800781 115.4935073852539 462.7785949707031 115.4506301879883 C 463.3810119628906 115.0120086669922 463.9950866699219 114.5683746337891 464.5889282226562 114.1393356323242 C 465.1524353027344 113.7322158813477 465.7351379394531 113.3112411499023 466.3067626953125 112.8953552246094 C 466.9040832519531 112.4607543945312 467.2917785644531 111.871940612793 467.4591369628906 111.1452789306641 C 467.853515625 109.432243347168 468.2522277832031 107.6899185180664 468.6378173828125 106.0049743652344 L 468.7991943359375 105.2997894287109 C 468.8587951660156 105.0394744873047 468.9166259765625 104.7787857055664 468.9757690429688 104.5122833251953 L 469.0342712402344 104.2491836547852 L 468.8927917480469 104.2242736816406 L 466.9730529785156 103.8861541748047 C 466.9291687011719 104.1255340576172 466.8845825195312 104.3650283813477 466.8400268554688 104.6045150756836 C 466.7268676757812 105.2128524780273 466.6098327636719 105.841911315918 466.5052185058594 106.4619140625 C 466.4333190917969 106.8886795043945 466.2939758300781 107.2232437133789 466.0667114257812 107.5147705078125 C 465.6763305664062 108.0155944824219 465.2967529296875 108.5389938354492 464.9296569824219 109.0451507568359 C 464.8043518066406 109.2179412841797 464.6790161132812 109.390739440918 464.5530395507812 109.5630187988281 C 464.5117492675781 109.6196594238281 464.4866943359375 109.6696243286133 464.4786682128906 109.7114334106445 C 464.3463134765625 110.4028701782227 464.2339782714844 111.0101318359375 464.1353149414062 111.56787109375 C 464.1209411621094 111.6489410400391 464.1426086425781 111.728889465332 464.1962890625 111.7929916381836 C 464.2547912597656 111.8628540039062 464.3422241210938 111.9029922485352 464.4361267089844 111.9031219482422 C 464.5650024414062 111.9031219482422 464.7037658691406 111.8592910766602 464.7606811523438 111.5342025756836 C 464.8775634765625 110.866455078125 464.9844970703125 110.2704620361328 465.0875854492188 109.7121658325195 C 465.1290283203125 109.4877014160156 465.2811279296875 109.348258972168 465.4845581054688 109.348258972168 Z M 459.3965454101562 106.1578750610352 C 458.9383850097656 106.1578750610352 458.4524536132812 106.2008590698242 458.0027770996094 106.5127334594727 C 457.8527221679688 106.6168060302734 457.6986999511719 106.7197723388672 457.5497436523438 106.8193435668945 C 457.0264587402344 107.1691818237305 456.4853820800781 107.5309295654297 456.0415344238281 107.9920196533203 C 455.8177185058594 108.2244720458984 455.6036071777344 108.4854888916016 455.5526733398438 108.8185806274414 C 455.5453186035156 108.8669815063477 455.5606994628906 108.937744140625 455.5928344726562 109.0031814575195 C 455.6201171875 109.0588150024414 455.6563415527344 109.1132659912109 455.6946716308594 109.1709136962891 C 455.7618103027344 109.2719116210938 455.8312377929688 109.3763427734375 455.8583984375 109.4983901977539 C 455.9342651367188 109.839729309082 455.9963073730469 110.1888198852539 456.0563354492188 110.5264129638672 C 456.0959167480469 110.7490005493164 456.1368713378906 110.9791717529297 456.1812438964844 111.2042541503906 C 456.2503051757812 111.5543060302734 456.2785034179688 111.9606704711914 455.9640502929688 112.3206024169922 C 455.9372253417969 112.3512802124023 455.8660583496094 112.4327697753906 455.8645629882812 112.4557342529297 C 455.8675231933594 112.4781036376953 455.9429931640625 112.5540084838867 455.9714050292969 112.5825958251953 L 456.3086853027344 112.9220809936523 C 456.6539611816406 113.2695999145508 456.9992065429688 113.6171340942383 457.3451232910156 113.9641036987305 C 457.5656127929688 114.1853332519531 457.7109680175781 114.4451751708984 457.7771911621094 114.7364196777344 C 457.7858276367188 114.7742691040039 457.8055114746094 114.8052444458008 457.8136291503906 114.8112258911133 C 458.2901611328125 115.0672149658203 458.9288635253906 115.3675155639648 459.6325988769531 115.4109420776367 C 459.6848449707031 115.4141616821289 459.7380676269531 115.4157943725586 459.7907409667969 115.4157943725586 C 459.790771484375 115.4157943725586 459.7908325195312 115.4157943725586 459.7908630371094 115.4157943725586 C 460.5086975097656 115.4157943725586 461.1482238769531 115.1196441650391 461.7417907714844 114.8162994384766 C 461.7521057128906 114.8098602294922 461.7735900878906 114.7770385742188 461.7798767089844 114.7472305297852 C 461.8432922363281 114.4471588134766 461.9967956542969 114.1793823242188 462.2491455078125 113.9285888671875 C 462.5271911621094 113.6521530151367 462.8080749511719 113.3690338134766 463.0797424316406 113.0952301025391 C 463.2608032226562 112.912712097168 463.44189453125 112.7301940917969 463.62353515625 112.5481948852539 C 463.7118225097656 112.4597015380859 463.7059020996094 112.429931640625 463.635498046875 112.3585205078125 C 463.3747253417969 112.0937652587891 463.2796020507812 111.7608337402344 463.352783203125 111.3689498901367 C 463.38037109375 111.2210922241211 463.4058837890625 111.0727920532227 463.4313659667969 110.9244918823242 C 463.4756469726562 110.666862487793 463.5214538574219 110.4004592895508 463.5781860351562 110.1397857666016 C 463.59716796875 110.0524444580078 463.6097412109375 109.963493347168 463.6230163574219 109.8693237304688 C 463.6650085449219 109.5721817016602 463.7084045410156 109.2649230957031 463.9604187011719 109.017333984375 C 464.02783203125 108.9510498046875 464.0393981933594 108.8825988769531 464.0030212402344 108.7647857666016 C 463.6288452148438 107.5503997802734 462.8659973144531 106.7591934204102 461.6708984375 106.3458786010742 C 461.1795043945312 106.1759185791016 460.6738586425781 106.1618499755859 460.1558837890625 106.1618499755859 L 459.9956970214844 106.1621627807617 L 459.8348999023438 106.1624755859375 L 459.8019714355469 106.1624526977539 L 459.7652893066406 106.1626358032227 L 459.7270202636719 106.1628189086914 C 459.71142578125 106.1628189086914 459.6958618164062 106.1626815795898 459.6802673339844 106.1622543334961 C 459.5967102050781 106.1600799560547 459.4974975585938 106.1578750610352 459.3965454101562 106.1578750610352 Z M 460.2887878417969 105.3708419799805 C 461.330322265625 105.3708419799805 462.2263488769531 105.6076431274414 462.9519653320312 106.0746612548828 C 463.6526489257812 106.5256118774414 464.2178344726562 107.2061233520508 464.6336059570312 108.0988082885742 C 464.656494140625 108.0681076049805 464.6794128417969 108.0374450683594 464.7023010253906 108.0067901611328 C 464.85302734375 107.8050842285156 465.0088806152344 107.5964889526367 465.1514282226562 107.3860015869141 C 465.18603515625 107.3348007202148 465.2032775878906 107.2434844970703 465.1882934570312 107.1906509399414 C 464.8545532226562 106.0179824829102 464.1964416503906 105.0414886474609 463.2322998046875 104.2883758544922 C 463.1745300292969 104.2432556152344 463.1309204101562 104.2239990234375 463.0865478515625 104.2239990234375 C 463.0595092773438 104.2239990234375 463.0293579101562 104.2310409545898 462.994384765625 104.2455215454102 C 462.374267578125 104.5015258789062 461.7536315917969 104.7559585571289 461.1329650878906 105.0104141235352 C 460.8399658203125 105.1305236816406 460.5469360351562 105.2506484985352 460.2539978027344 105.3709335327148 C 460.265625 105.3708724975586 460.2772216796875 105.3708419799805 460.2887878417969 105.3708419799805 Z"/><path class="d" d="M 467.4374084472656 122.4287490844727 C 467.8379516601562 122.258544921875 467.9830322265625 121.9477310180664 467.9465637207031 121.5355606079102 C 467.9334716796875 121.3866424560547 467.9255981445312 121.2372207641602 467.9135437011719 121.0881423950195 C 467.8299255371094 120.060173034668 466.826171875 118.832389831543 465.8259582519531 118.5375442504883 C 465.6742858886719 118.4928894042969 465.5474548339844 118.5417861938477 465.4713745117188 118.6779098510742 C 465.3948364257812 118.8146820068359 465.4233093261719 118.9458160400391 465.5442504882812 119.0455856323242 C 465.603759765625 119.0948028564453 465.6799621582031 119.1248245239258 465.7492980957031 119.162239074707 C 466.7164611816406 119.6843414306641 467.3713684082031 120.4039154052734 467.3326110839844 121.5689849853516 C 467.323486328125 121.8427124023438 467.3317565917969 121.8430557250977 467.0451354980469 121.8430557250977 C 462.2048645019531 121.8431243896484 457.3644714355469 121.8430633544922 452.5239562988281 121.8430557250977 C 452.4776916503906 121.8430557250977 452.4311218261719 121.8404006958008 452.3851013183594 121.8434600830078 C 452.2763061523438 121.8507385253906 452.2330322265625 121.8035430908203 452.2271118164062 121.6958694458008 C 452.1842041015625 120.910285949707 452.424072265625 120.2366104125977 453.0260009765625 119.7016220092773 C 453.4947814941406 119.2850646972656 454.0436096191406 118.9982757568359 454.633056640625 118.800048828125 C 455.3992614746094 118.542366027832 456.17822265625 118.3210296630859 456.9527893066406 118.0877151489258 C 457.3910827636719 117.9556655883789 457.5955200195312 117.6937561035156 457.5962829589844 117.2443313598633 C 457.5972290039062 116.7495956420898 457.5950012207031 116.2548599243164 457.59814453125 115.760124206543 C 457.5986633300781 115.6830444335938 457.6206665039062 115.6061325073242 457.6390991210938 115.4891357421875 C 459.0801086425781 116.3078460693359 460.4970397949219 116.293098449707 461.9338989257812 115.4900512695312 C 461.9468078613281 115.6208419799805 461.96142578125 115.7025833129883 461.9617614746094 115.7843933105469 C 461.9639587402344 116.2920989990234 461.9607543945312 116.7999038696289 461.9637756347656 117.3076095581055 C 461.9659118652344 117.6609039306641 462.1583557128906 117.9425354003906 462.499267578125 118.0484619140625 C 463.108642578125 118.2377014160156 463.7228393554688 118.4123306274414 464.3367004394531 118.5871047973633 C 464.5290222167969 118.6418228149414 464.7171630859375 118.52099609375 464.7307434082031 118.3368988037109 C 464.7434387207031 118.1647033691406 464.6498413085938 118.059455871582 464.481201171875 118.0105514526367 C 463.9126281738281 117.8457412719727 463.3432312011719 117.6829452514648 462.778564453125 117.5056686401367 C 462.6948547363281 117.4793930053711 462.5779113769531 117.3823623657227 462.5739135742188 117.3126754760742 C 462.55322265625 116.9509735107422 462.5643005371094 116.5875396728516 462.5643005371094 116.28271484375 C 462.7866821289062 116.1903305053711 462.9930419921875 116.144775390625 463.1506958007812 116.0326843261719 C 464.33984375 115.1873092651367 465.5215759277344 114.3317794799805 466.701171875 113.4734420776367 C 467.4225463867188 112.9485092163086 467.9085998535156 112.259895324707 468.1176452636719 111.3967895507812 C 468.3147583007812 110.5827713012695 468.4963073730469 109.7650833129883 468.6837158203125 108.9488143920898 C 469.0440368652344 107.3795394897461 469.4046325683594 105.8102722167969 469.7628784179688 104.2405090332031 C 469.8383483886719 103.9096527099609 469.6731872558594 103.6702651977539 469.3301391601562 103.5989990234375 C 469.2334594726562 103.5788955688477 469.1364135742188 103.559684753418 469.0391540527344 103.5424728393555 C 468.3513793945312 103.4202346801758 467.664306640625 103.2938385009766 466.9753112792969 103.1787719726562 C 466.5895385742188 103.1142578125 466.3667297363281 103.2671661376953 466.29736328125 103.6256942749023 C 466.2503967285156 103.8679046630859 466.2125549316406 104.1118698120117 466.1683044433594 104.3545684814453 C 466.0339660644531 105.0917053222656 465.8984985351562 105.8285598754883 465.7552795410156 106.6099090576172 C 465.7193908691406 106.5208587646484 465.7002258300781 106.4742889404297 465.6817321777344 106.4274826049805 C 464.483642578125 103.3960571289062 461.2124938964844 101.7831573486328 458.0364990234375 102.6720657348633 C 457.6336059570312 102.7848129272461 457.2496337890625 102.9669952392578 456.864013671875 103.1332931518555 C 456.6814270019531 103.212028503418 456.6340026855469 103.3829956054688 456.7157287597656 103.5384750366211 C 456.7919006347656 103.68359375 456.9492797851562 103.7327728271484 457.1246948242188 103.6640319824219 C 457.1736145019531 103.6448287963867 457.2197265625 103.6186294555664 457.2673645019531 103.5962753295898 C 458.7631530761719 102.8957138061523 460.2876586914062 102.832878112793 461.8379516601562 103.4032745361328 C 462.0440979003906 103.4791107177734 462.2411193847656 103.5786285400391 462.4755554199219 103.6818237304688 C 462.3876342773438 103.7189102172852 462.3467712402344 103.7385330200195 462.30419921875 103.7539138793945 C 460.9772033691406 104.2342758178711 459.6862182617188 104.7960205078125 458.4535217285156 105.4772491455078 C 457.1240234375 106.2119750976562 455.7897338867188 106.9492416381836 454.9449462890625 108.2925186157227 C 454.7378540039062 108.011474609375 454.5387268066406 107.7281951904297 454.32421875 107.4566192626953 C 454.2448425292969 107.3560943603516 454.2244873046875 107.2622985839844 454.2720336914062 107.1542053222656 C 454.4860229492188 106.667121887207 454.6526489257812 106.1504287719727 454.9341125488281 105.7042541503906 C 455.2196655273438 105.2514343261719 455.6133422851562 104.8630294799805 455.9729919433594 104.4580230712891 C 456.1314086914062 104.2795791625977 456.1741638183594 104.1400604248047 456.05322265625 103.9973754882812 C 455.9284973144531 103.8502731323242 455.7574462890625 103.8481216430664 455.5850524902344 103.998779296875 C 454.9591979980469 104.5452423095703 454.4640808105469 105.1899795532227 454.1013488769531 105.9318313598633 C 453.9992980957031 106.140625 453.9098510742188 106.3554840087891 453.8006591796875 106.5987701416016 C 453.6198425292969 105.6042251586914 453.4425964355469 104.642692565918 453.271240234375 103.6801605224609 C 453.1992797851562 103.27587890625 452.9890747070312 103.1096038818359 452.5806274414062 103.1791915893555 C 451.8010864257812 103.3120651245117 451.0228881835938 103.4528350830078 450.2454528808594 103.5971832275391 C 449.8714294433594 103.6666946411133 449.7206115722656 103.9029159545898 449.8026123046875 104.2621994018555 C 450.3140258789062 106.502815246582 450.8381958007812 108.7406845092773 451.3313903808594 110.9851989746094 C 451.5538024902344 111.9973831176758 452.0002136230469 112.8539047241211 452.8596496582031 113.4756851196289 C 454.0098266601562 114.3076858520508 455.1617126464844 115.1374206542969 456.3104858398438 115.9712448120117 C 456.5112609863281 116.117073059082 456.7144775390625 116.2427673339844 456.9946899414062 116.2106246948242 C 456.9946899414062 116.5898590087891 457.0057983398438 116.9534759521484 456.9850463867188 117.3153457641602 C 456.9809875488281 117.3848495483398 456.8627624511719 117.4800491333008 456.7783813476562 117.5075759887695 C 456.4220886230469 117.623908996582 456.0584716796875 117.7181091308594 455.6980285644531 117.8222122192383 C 454.7913818359375 118.0838851928711 453.8938598632812 118.3690948486328 453.0996398925781 118.8931732177734 C 452.2473754882812 119.4554214477539 451.7078247070312 120.2107543945312 451.6259460449219 121.2434616088867 C 451.5880126953125 121.7220687866211 451.5581359863281 122.1952743530273 452.1220703125 122.4287490844727 L 467.4374084472656 122.4287490844727 M 452.6688842773438 103.7702941894531 C 452.7528381347656 104.2284393310547 452.8359069824219 104.6792831420898 452.9178466796875 105.1303634643555 C 453.0256652832031 105.7244644165039 453.1290283203125 106.3193893432617 453.2436218261719 106.9121551513672 C 453.2611999511719 107.0032119750977 453.3179321289062 107.0924224853516 453.3743591308594 107.169921875 C 453.8363647460938 107.8041000366211 454.287841796875 108.446418762207 454.7730712890625 109.0629730224609 C 455.05615234375 109.4225921630859 455.23974609375 109.8004989624023 455.2951354980469 110.2538452148438 C 455.3470153808594 110.6783905029297 455.4410705566406 111.0980453491211 455.5158081054688 111.5199432373047 C 455.5556640625 111.7451095581055 455.4231567382812 111.9545593261719 455.2146606445312 111.9982147216797 C 454.994140625 112.0445327758789 454.7835693359375 111.9252090454102 454.7374267578125 111.6952896118164 C 454.6111755371094 111.0651092529297 454.5000610351562 110.4320220947266 454.38232421875 109.8000793457031 C 454.3728942871094 109.7491989135742 454.3649291992188 109.6970596313477 454.3469543457031 109.64892578125 C 454.2867736816406 109.4881134033203 454.14794921875 109.4142456054688 453.9852600097656 109.4600143432617 C 453.8210754394531 109.5061492919922 453.7407836914062 109.6272201538086 453.7684020996094 109.785285949707 C 453.8887329101562 110.4759216308594 454.010498046875 111.1666412353516 454.1506958007812 111.8536148071289 C 454.2326965332031 112.2552185058594 454.5789184570312 112.5425033569336 454.9999694824219 112.5880661010742 C 455.1274108886719 112.6018753051758 455.2013854980469 112.6334609985352 455.2289123535156 112.7717514038086 C 455.2436218261719 112.845832824707 455.3171081542969 112.913932800293 455.3758544921875 112.9733810424805 C 455.8598327636719 113.4632949829102 456.3489685058594 113.9482192993164 456.8316040039062 114.4393920898438 C 457.13427734375 114.7473754882812 457.190673828125 115.1351699829102 457.0055541992188 115.4770050048828 C 456.9320983886719 115.6126174926758 456.8619689941406 115.6332473754883 456.7310180664062 115.5380325317383 C 455.5357360839844 114.6684494018555 454.3323364257812 113.8096160888672 453.1406860351562 112.9352111816406 C 452.4427185058594 112.4231033325195 452.1107482910156 111.6992111206055 451.9281921386719 110.8772811889648 C 451.4384765625 108.6721725463867 450.9253540039062 106.4721450805664 450.422119140625 104.2699356079102 C 450.4165344238281 104.2454986572266 450.4183349609375 104.2192916870117 450.4149475097656 104.1674957275391 L 452.6688842773438 103.7702941894531 M 465.4845581054688 109.4482650756836 C 465.3322143554688 109.4482650756836 465.2195739746094 109.5481033325195 465.1859436035156 109.7303237915039 C 465.0739440917969 110.3368148803711 464.9655151367188 110.9439697265625 464.8591918945312 111.5514526367188 C 464.8061218261719 111.8545303344727 464.6714172363281 112.0031204223633 464.436767578125 112.0031204223633 C 464.4365234375 112.0031204223633 464.4362487792969 112.0031204223633 464.4360046386719 112.0031204223633 C 464.1888427734375 112.0027923583984 463.9943542480469 111.7904357910156 464.0368347167969 111.5504531860352 C 464.1465454101562 110.9303359985352 464.2620544433594 110.3111190795898 464.3804626464844 109.6925735473633 C 464.3932189941406 109.6261291503906 464.4314575195312 109.5600357055664 464.4723205566406 109.5040054321289 C 464.9740295410156 108.8178558349609 465.4652709960938 108.1237258911133 465.9878540039062 107.4532928466797 C 466.2268981933594 107.1466293334961 466.3439636230469 106.8171234130859 466.4066162109375 106.4452743530273 C 466.5523986816406 105.5811920166016 466.7184143066406 104.7204437255859 466.8764953613281 103.8583526611328 C 466.8810729980469 103.8337326049805 466.88916015625 103.8097915649414 466.8992919921875 103.7716217041016 C 467.6492004394531 103.9037551879883 468.3924255371094 104.0346221923828 469.1545715332031 104.168830871582 C 469.0661010742188 104.5651092529297 468.9832458496094 104.9440231323242 468.8966674804688 105.3221054077148 C 468.45068359375 107.2707824707031 468.0050659179688 109.2196350097656 467.5565795898438 111.167724609375 C 467.3849487304688 111.9129791259766 466.990478515625 112.5215530395508 466.3656005859375 112.9762115478516 C 465.1914367675781 113.8304824829102 464.0113220214844 114.6767730712891 462.8374938964844 115.5314636230469 C 462.6997985839844 115.6317596435547 462.6273498535156 115.6176681518555 462.5499572753906 115.4698486328125 C 462.3682250976562 115.1233749389648 462.4280090332031 114.7418746948242 462.7326049804688 114.433723449707 C 463.2120971679688 113.9486389160156 463.6972045898438 113.4689559936523 464.174072265625 112.9814453125 C 464.24853515625 112.9052886962891 464.2857055664062 112.7950286865234 464.3529968261719 112.7103958129883 C 464.3910827636719 112.6623992919922 464.4512023925781 112.6103591918945 464.5083312988281 112.6012115478516 C 465.0382385253906 112.515739440918 465.3440246582031 112.2425003051758 465.4402160644531 111.7332153320312 C 465.5595397949219 111.1016235351562 465.6685485839844 110.4681091308594 465.7802734375 109.8351745605469 C 465.8169860839844 109.6269760131836 465.7266540527344 109.4830551147461 465.546875 109.4535217285156 C 465.5254821777344 109.4500045776367 465.5046691894531 109.4482650756836 465.4845581054688 109.4482650756836 M 459.3965454101562 106.0578689575195 C 459.4913940429688 106.0578689575195 459.5868835449219 106.0597991943359 459.6830139160156 106.0622940063477 C 459.7227478027344 106.0634002685547 459.7624206542969 106.0624618530273 459.8020935058594 106.0624542236328 C 459.9196166992188 106.0625762939453 460.0379638671875 106.0618515014648 460.1558837890625 106.0618515014648 C 460.6780395507812 106.0618515014648 461.1985473632812 106.0767059326172 461.7035827636719 106.2513732910156 C 462.9338684082031 106.6768493652344 463.7217407226562 107.5123291015625 464.0985717773438 108.7352828979492 C 464.1404724121094 108.870979309082 464.1365661621094 108.9844055175781 464.0304870605469 109.0886688232422 C 463.7279052734375 109.3859252929688 463.7559509277344 109.792854309082 463.6759033203125 110.1610412597656 C 463.5875549316406 110.5669708251953 463.52734375 110.9788055419922 463.4510803222656 111.3873138427734 C 463.3870849609375 111.7299728393555 463.4593811035156 112.0372085571289 463.7067260742188 112.2883224487305 C 463.8320617675781 112.4154586791992 463.8025817871094 112.5103302001953 463.6943054199219 112.6188354492188 C 463.2355041503906 113.0785751342773 462.7802124023438 113.5416259765625 462.3196411132812 113.9995193481445 C 462.1004333496094 114.2173690795898 461.9419250488281 114.4640808105469 461.8777160644531 114.7679138183594 C 461.8670043945312 114.8186187744141 461.8306884765625 114.8831558227539 461.7872924804688 114.9053497314453 C 461.1091918945312 115.2518997192383 460.412353515625 115.5591888427734 459.6264343261719 115.5107498168945 C 458.9569091796875 115.4694290161133 458.3480529785156 115.2118453979492 457.7650146484375 114.8985290527344 C 457.7226257324219 114.8757553100586 457.6913757324219 114.8099060058594 457.6796875 114.7585906982422 C 457.6157836914062 114.4775543212891 457.4780578613281 114.2391586303711 457.2742919921875 114.0346984863281 C 456.8157043457031 113.5747146606445 456.3582763671875 113.1137390136719 455.9004821777344 112.6530914306641 C 455.7216186523438 112.4731750488281 455.720947265625 112.4468841552734 455.8887329101562 112.2548141479492 C 456.1567077636719 111.9480819702148 456.1566162109375 111.5961151123047 456.0831298828125 111.2236022949219 C 455.9713134765625 110.6565322875977 455.8861083984375 110.0841217041016 455.7608032226562 109.5201187133789 C 455.7234497070312 109.3523254394531 455.5823364257812 109.2087326049805 455.5030517578125 109.047248840332 C 455.4672546386719 108.9743347167969 455.4419860839844 108.8812255859375 455.4538269042969 108.8034591674805 C 455.5084533691406 108.4462585449219 455.7269287109375 108.1745986938477 455.969482421875 107.9226760864258 C 456.5477600097656 107.3219223022461 457.2653198242188 106.9024353027344 457.94580078125 106.4305648803711 C 458.4039306640625 106.1128082275391 458.8907165527344 106.0578689575195 459.3965454101562 106.0578689575195 M 460.2887878417969 105.4708404541016 C 460.1258850097656 105.4708404541016 459.9592590332031 105.4765777587891 459.7889099121094 105.4879837036133 C 459.865478515625 105.4372634887695 459.8946228027344 105.410400390625 459.9291687011719 105.3962707519531 C 460.9380798339844 104.9815216064453 461.9479064941406 104.5693511962891 462.9561462402344 104.1531143188477 C 463.087158203125 104.0989074707031 463.181640625 104.1219253540039 463.2938537597656 104.2095642089844 C 464.2834167480469 104.9825286865234 464.944580078125 105.9690017700195 465.2844848632812 107.1633529663086 C 465.30810546875 107.24658203125 465.2836303710938 107.3689804077148 465.2342224121094 107.4420700073242 C 465.0373840332031 107.7327651977539 464.8218688964844 108.0111389160156 464.6123352050781 108.2952651977539 C 463.7731323242188 106.3638076782227 462.3207702636719 105.4708404541016 460.2887878417969 105.4708404541016 M 467.4781494140625 122.6287536621094 L 452.0823059082031 122.6287536621094 L 452.0455627441406 122.6135406494141 C 451.3398742675781 122.3213729858398 451.3899841308594 121.6892318725586 451.4265747070312 121.2276611328125 C 451.5082092285156 120.1981658935547 452.0340576171875 119.356559753418 452.989501953125 118.7262344360352 C 453.8109130859375 118.184211730957 454.7505493164062 117.8875045776367 455.642578125 117.6300506591797 C 455.7542724609375 117.5978012084961 455.8663024902344 117.5664749145508 455.9783020019531 117.5351486206055 C 456.2219848632812 117.4670257568359 456.4739990234375 117.3965759277344 456.71630859375 117.3174514770508 C 456.7366333007812 117.3108215332031 456.769287109375 117.2877426147461 456.7872314453125 117.2702178955078 C 456.8001708984375 117.0205307006836 456.7982482910156 116.7701873779297 456.7962036132812 116.5058441162109 C 456.7959594726562 116.4735946655273 456.7957153320312 116.4412536621094 456.7954711914062 116.408821105957 C 456.5498657226562 116.3784027099609 456.3570861816406 116.2522583007812 456.1929626464844 116.1330642700195 C 455.4529113769531 115.5959243774414 454.7115478515625 115.0604400634766 453.9701843261719 114.5249557495117 C 453.5608520507812 114.2293090820312 453.1515197753906 113.9336624145508 452.742431640625 113.6377334594727 C 451.9159851074219 113.0398101806641 451.3905334472656 112.1862030029297 451.1360473632812 111.0281219482422 C 450.786865234375 109.4390029907227 450.4159545898438 107.8261795043945 450.0572204589844 106.266471862793 C 449.906982421875 105.6132888793945 449.7567749023438 104.9601135253906 449.6076049804688 104.3067092895508 C 449.5540771484375 104.0720748901367 449.580322265625 103.8718490600586 449.6856079101562 103.7115859985352 C 449.7918090820312 103.5499954223633 449.9678649902344 103.4453506469727 450.2089233398438 103.4005508422852 C 451.1045227050781 103.2342529296875 451.8474731445312 103.1012725830078 452.5470275878906 102.9820327758789 C 452.6180419921875 102.9699325561523 452.6858215332031 102.9637985229492 452.7485656738281 102.9637985229492 C 453.0215148925781 102.9637985229492 453.3679504394531 103.0820007324219 453.4681396484375 103.6451187133789 C 453.5901489257812 104.3304443359375 453.7126770019531 105.0016860961914 453.8423767089844 105.7123260498047 C 453.8554382324219 105.7839050292969 453.8685302734375 105.855598449707 453.8816223144531 105.9274368286133 C 453.894775390625 105.8995361328125 453.9081115722656 105.8717498779297 453.9216613769531 105.8440093994141 C 454.2944030761719 105.0817031860352 454.8097839355469 104.4102020263672 455.4535217285156 103.8481292724609 C 455.5745544433594 103.7423553466797 455.7070922851562 103.6864242553711 455.8367309570312 103.6864242553711 C 455.9774169921875 103.6864242553711 456.1050415039062 103.7492218017578 456.2057800292969 103.868034362793 C 456.3867797851562 104.0815811157227 456.3587646484375 104.3247451782227 456.12255859375 104.5908050537109 C 456.0400085449219 104.6837387084961 455.9557189941406 104.7758102416992 455.871337890625 104.8679656982422 C 455.5974731445312 105.1670532226562 455.3143005371094 105.4763259887695 455.103271484375 105.8109359741211 C 454.9137878417969 106.1113357543945 454.7794799804688 106.4439926147461 454.6373291015625 106.7961959838867 C 454.5791625976562 106.9402847290039 454.5190124511719 107.0892791748047 454.4551391601562 107.2346496582031 C 454.4440612792969 107.2598342895508 454.436767578125 107.2764205932617 454.481201171875 107.3326797485352 C 454.6366882324219 107.5295333862305 454.7858276367188 107.7346801757812 454.9300842285156 107.9330749511719 C 454.9326171875 107.9365463256836 454.9351501464844 107.9400177001953 454.9376525878906 107.943489074707 C 455.8125610351562 106.7081832885742 457.1044616699219 105.994270324707 458.3563537597656 105.3024520874023 C 459.4528503417969 104.6964721679688 460.6336364746094 104.1604995727539 461.95849609375 103.667724609375 C 461.8946228027344 103.6399612426758 461.8316650390625 103.6140670776367 461.7688903808594 103.5909729003906 C 461.0968627929688 103.3437118530273 460.4218444824219 103.2183456420898 459.7625427246094 103.2183456420898 C 458.9552307128906 103.2183456420898 458.144287109375 103.4064331054688 457.3521728515625 103.7773895263672 C 457.337158203125 103.7844390869141 457.3221740722656 103.7920227050781 457.3071594238281 103.7995910644531 C 457.2747497558594 103.8159103393555 457.2380065917969 103.8344116210938 457.1977844238281 103.8502044677734 C 457.1224670410156 103.8796997070312 457.0470581054688 103.894645690918 456.9735107421875 103.894660949707 C 456.7849426269531 103.894660949707 456.62646484375 103.798713684082 456.5386352539062 103.6314239501953 C 456.4713134765625 103.5033187866211 456.4587097167969 103.3633804321289 456.5032043457031 103.2374954223633 C 456.5479736328125 103.1108703613281 456.6479797363281 103.0086517333984 456.7848205566406 102.9496459960938 C 456.852294921875 102.920539855957 456.9197082519531 102.8909530639648 456.9871826171875 102.8613433837891 C 457.3066711425781 102.7211456298828 457.6370544433594 102.576171875 457.9826049804688 102.4794616699219 C 458.5769958496094 102.313102722168 459.1870727539062 102.2287521362305 459.7958068847656 102.2287521362305 C 462.3350219726562 102.2287521362305 464.5953979492188 103.6627426147461 465.6783752441406 105.9204254150391 C 465.7783203125 105.3756713867188 465.875244140625 104.8472442626953 465.9715270996094 104.3187103271484 C 465.9897155761719 104.2190933227539 466.0067749023438 104.1192855834961 466.0238647460938 104.0194702148438 C 466.0480346679688 103.8780899047852 466.0730590820312 103.7318954467773 466.1010131835938 103.5876235961914 C 466.1912536621094 103.1214294433594 466.5155029296875 102.8990859985352 467.00830078125 102.9815139770508 C 467.5136413574219 103.0659103393555 468.0258483886719 103.1577987670898 468.5211791992188 103.2466659545898 C 468.7054748535156 103.2797317504883 468.8898010253906 103.3127899169922 469.0741577148438 103.3455657958984 C 469.163818359375 103.3614196777344 469.2581481933594 103.379753112793 469.3708801269531 103.403190612793 C 469.5982360839844 103.4504241943359 469.7735595703125 103.5611953735352 469.8777770996094 103.7234954833984 C 469.978271484375 103.8799743652344 470.0059814453125 104.0741348266602 469.9578552246094 104.2849960327148 C 469.6351318359375 105.6991806030273 469.3104858398438 107.1129531860352 468.98583984375 108.5266799926758 L 468.878662109375 108.9935760498047 C 468.8273620605469 109.2169723510742 468.7764892578125 109.4404907226562 468.7256469726562 109.6640090942383 C 468.5928344726562 110.2477722167969 468.4554748535156 110.8514099121094 468.3120422363281 111.4438629150391 C 468.0964965820312 112.3337631225586 467.5941162109375 113.0710220336914 466.81884765625 113.6351623535156 C 465.7798767089844 114.3911743164062 464.5453491210938 115.2865905761719 463.2665710449219 116.1956939697266 C 463.1380920410156 116.2870407104492 462.9954528808594 116.3376007080078 462.8444213867188 116.3911437988281 C 462.8178405761719 116.4005661010742 462.7908935546875 116.4101257324219 462.7637329101562 116.4200210571289 C 462.7634887695312 116.4537811279297 462.76318359375 116.4880981445312 462.7628784179688 116.5228958129883 C 462.7608947753906 116.7538986206055 462.7586364746094 117.0144577026367 462.7718200683594 117.2691040039062 C 462.7893676757812 117.2869491577148 462.8212585449219 117.309455871582 462.8384704589844 117.3148498535156 C 463.3307495117188 117.4693984985352 463.8359680175781 117.6156005859375 464.3245849609375 117.7569885253906 L 464.536865234375 117.8184585571289 C 464.8060913085938 117.8965225219727 464.9494323730469 118.0908432006836 464.9302062988281 118.3516159057617 C 464.9113159179688 118.6073989868164 464.696533203125 118.8003234863281 464.4305725097656 118.8003540039062 C 464.3807067871094 118.8003540039062 464.3307189941406 118.7933349609375 464.2820129394531 118.7794799804688 L 464.2550354003906 118.7718048095703 C 463.6590270996094 118.6021118164062 463.0426940917969 118.426643371582 462.43994140625 118.2394638061523 C 462.0255432128906 118.1106948852539 461.7664794921875 117.7541046142578 461.7637939453125 117.3088226318359 C 461.7621459960938 117.0364227294922 461.7623291015625 116.7640228271484 461.7624816894531 116.4916152954102 C 461.7626342773438 116.2631683349609 461.7627563476562 116.0347442626953 461.7618408203125 115.8063125610352 C 461.0989685058594 116.1325759887695 460.4332275390625 116.2977142333984 459.7789306640625 116.2977523803711 C 459.1208801269531 116.2977981567383 458.4557495117188 116.1307983398438 457.7979125976562 115.8007965087891 C 457.7961730957031 116.097900390625 457.7963256835938 116.3950500488281 457.7964477539062 116.6922149658203 C 457.7965393066406 116.8763809204102 457.796630859375 117.0605545043945 457.7962951660156 117.2447128295898 C 457.7953796386719 117.7817687988281 457.538330078125 118.1201705932617 457.010498046875 118.2792129516602 C 456.8175354003906 118.3373260498047 456.6243591308594 118.3946914672852 456.43115234375 118.4520721435547 C 455.8598327636719 118.6217346191406 455.26904296875 118.7971725463867 454.6968078613281 118.9896240234375 C 454.0814208984375 119.1965713500977 453.5783386230469 119.4783706665039 453.1588439941406 119.8511199951172 C 452.6348876953125 120.3168106079102 452.3945007324219 120.9029846191406 452.4247436523438 121.6420288085938 C 452.4442749023438 121.6418609619141 452.4638977050781 121.6421966552734 452.4835510253906 121.6425552368164 C 452.4970092773438 121.6427917480469 452.510498046875 121.6430511474609 452.5239562988281 121.6430511474609 L 462.2047729492188 121.6430816650391 L 467.0451354980469 121.6430511474609 C 467.0735473632812 121.6430511474609 467.1036682128906 121.6430511474609 467.1299133300781 121.6426239013672 C 467.1307067871094 121.6240997314453 467.13134765625 121.6040267944336 467.1319885253906 121.5849151611328 L 467.1327209472656 121.5623245239258 C 467.1645202636719 120.6066207885742 466.6947326660156 119.8998947143555 465.654296875 119.3382339477539 C 465.6367797851562 119.3287811279297 465.6187133789062 119.3198699951172 465.6006469726562 119.310920715332 C 465.5428771972656 119.2822799682617 465.4773559570312 119.2498016357422 465.4167785644531 119.1996994018555 C 465.219970703125 119.0373306274414 465.1739196777344 118.7999114990234 465.2968444824219 118.5802536010742 C 465.4158935546875 118.3673477172852 465.642578125 118.2751312255859 465.8823852539062 118.3456726074219 C 466.9595947265625 118.663215637207 468.0226745605469 119.9626312255859 468.1128845214844 121.0719299316406 C 468.1183166503906 121.1391906738281 468.1229248046875 121.206428527832 468.1275329589844 121.2736740112305 C 468.1330871582031 121.3551940917969 468.1386413574219 121.4366912841797 468.1457824707031 121.5180511474609 C 468.1919250488281 122.039421081543 467.9740295410156 122.4180297851562 467.515625 122.6128234863281 L 467.4781494140625 122.6287536621094 Z M 464.5493774414062 112.7971572875977 C 464.5414123535156 112.8021545410156 464.5252685546875 112.8150634765625 464.5096740722656 112.8347091674805 C 464.4898071289062 112.8597030639648 464.4704895019531 112.8939743041992 464.4500732421875 112.9302597045898 C 464.4158630371094 112.9910202026367 464.3770751953125 113.0598907470703 464.3170471191406 113.1212844848633 C 464.0333862304688 113.411262512207 463.7424011230469 113.7029190063477 463.4609985351562 113.984992980957 C 463.2653198242188 114.1811294555664 463.0696105957031 114.3772811889648 462.8748474121094 114.5743255615234 C 462.6378479003906 114.8140716552734 462.5839233398438 115.0955200195312 462.7223815917969 115.3678741455078 C 463.3240966796875 114.9297637939453 463.9373168945312 114.4867324829102 464.5303649902344 114.0582733154297 C 465.0938110351562 113.6511993408203 465.6764526367188 113.2302856445312 466.2479248046875 112.8144836425781 C 466.8251647949219 112.3944854736328 467.1998901367188 111.8253326416016 467.3616943359375 111.1228408813477 C 467.7560424804688 109.4098739624023 468.1547546386719 107.6675796508789 468.5403442382812 105.982666015625 L 468.7017211914062 105.2774810791016 C 468.7612915039062 105.0173721313477 468.8190612792969 104.7568893432617 468.8781433105469 104.4906234741211 L 468.9139709472656 104.3295364379883 L 467.053466796875 104.0018615722656 C 467.015380859375 104.2087097167969 466.9768676757812 104.4157485961914 466.9383544921875 104.622802734375 C 466.8252563476562 105.2307434082031 466.7082824707031 105.859375 466.6038208007812 106.4785385131836 C 466.529052734375 106.9223098754883 466.3834533691406 107.271125793457 466.1455993652344 107.5762557983398 C 465.7562866210938 108.0756988525391 465.377197265625 108.598388671875 465.0106201171875 109.1038589477539 C 464.8852233886719 109.2767639160156 464.7598266601562 109.4496612548828 464.6337585449219 109.6220550537109 C 464.5895385742188 109.6826934814453 464.5792541503906 109.7179489135742 464.5768737792969 109.7302932739258 C 464.4446105957031 110.4212112426758 464.3323669433594 111.0280227661133 464.2337646484375 111.5853042602539 C 464.2214660644531 111.6547546386719 464.2530517578125 111.7050094604492 464.27294921875 111.7287902832031 C 464.3124389648438 111.7759399414062 464.3719787597656 111.8030319213867 464.436279296875 111.8031234741211 C 464.506591796875 111.8031234741211 464.6120910644531 111.8031234741211 464.6622009277344 111.5169525146484 C 464.7791137695312 110.8488998413086 464.8861083984375 110.2526016235352 464.9892578125 109.6940002441406 C 465.0399780273438 109.419075012207 465.2297668457031 109.2482604980469 465.4845581054688 109.2482604980469 C 465.5155334472656 109.2482604980469 465.5473937988281 109.2509231567383 465.5793151855469 109.2561721801758 C 465.7152099609375 109.2784957885742 465.8257446289062 109.3448257446289 465.8988647460938 109.4479827880859 C 465.9789123535156 109.5608825683594 466.0060119628906 109.7067794799805 465.9772338867188 109.8699111938477 L 465.9075012207031 110.2663116455078 C 465.8209228515625 110.7594451904297 465.7313842773438 111.2693710327148 465.6367492675781 111.7703399658203 C 465.5272216796875 112.3501892089844 465.1614074707031 112.6956176757812 464.5493774414062 112.7971572875977 Z M 450.6411743164062 104.3307037353516 C 450.7828063964844 104.9501800537109 450.9252014160156 105.5694198608398 451.0675659179688 106.1886825561523 C 451.4173889160156 107.7102355957031 451.7791442871094 109.2835922241211 452.1234436035156 110.8339233398438 C 452.3238220214844 111.7360916137695 452.6846618652344 112.3525543212891 453.2590026855469 112.7739639282227 C 453.9632873535156 113.2907409667969 454.683837890625 113.8108596801758 455.3806762695312 114.3138656616211 C 455.8583984375 114.6587066650391 456.3522338867188 115.0151824951172 456.8370361328125 115.3678359985352 C 456.9740905761719 115.1017303466797 456.9205932617188 114.8152465820312 456.68896484375 114.5795822143555 C 456.4206237792969 114.3065032958984 456.1455078125 114.0305633544922 455.8794250488281 113.7637100219727 C 455.663818359375 113.5474395751953 455.4481811523438 113.331184387207 455.2335815429688 113.1139450073242 L 455.2186889648438 113.0989837646484 C 455.15087890625 113.0309448242188 455.0579833984375 112.9377593994141 455.0327453613281 112.8106994628906 C 455.0314025878906 112.8040237426758 455.0300903320312 112.7988510131836 455.0289306640625 112.7949600219727 C 455.0200805664062 112.7927322387695 455.0046081542969 112.7897338867188 454.9784240722656 112.7869033813477 C 454.4638671875 112.7312240600586 454.0524597167969 112.3722457885742 453.9547424316406 111.8936233520508 C 453.8157348632812 111.2124557495117 453.6940612792969 110.5238800048828 453.5713806152344 109.8196105957031 C 453.5257263183594 109.558479309082 453.6669616699219 109.3417205810547 453.93115234375 109.2674713134766 C 453.980224609375 109.253662109375 454.0296325683594 109.2466506958008 454.0779724121094 109.2466506958008 C 454.28271484375 109.2466506958008 454.4575500488281 109.3739242553711 454.5342407226562 109.5787887573242 C 454.5560913085938 109.6372909545898 454.5663146972656 109.6937789916992 454.5753173828125 109.7436141967773 L 454.5789794921875 109.7636337280273 C 454.6147155761719 109.9555587768555 454.64990234375 110.1477737426758 454.6850891113281 110.3399810791016 C 454.76416015625 110.7720489501953 454.845947265625 111.2188339233398 454.9335327148438 111.656005859375 C 454.95263671875 111.7512054443359 455.022705078125 111.8080825805664 455.1209716796875 111.8080825805664 C 455.1381530761719 111.8080825805664 455.1558532714844 111.8061904907227 455.173583984375 111.8024749755859 C 455.27587890625 111.7810592651367 455.3396606445312 111.6722717285156 455.3188781738281 111.5547943115234 C 455.2955627441406 111.4232406616211 455.2703552246094 111.2918853759766 455.2451477050781 111.160514831543 C 455.1900329589844 110.8731689453125 455.1330261230469 110.5760498046875 455.0966186523438 110.2780990600586 C 455.0491943359375 109.8898544311523 454.8964233398438 109.5430450439453 454.6159057617188 109.1866836547852 C 454.2439270019531 108.7140350341797 453.8870239257812 108.2199096679688 453.5418395996094 107.7420654296875 C 453.4323425292969 107.5904388427734 453.3228149414062 107.438835144043 453.2127075195312 107.2876892089844 C 453.149169921875 107.2004089355469 453.0729370117188 107.0831985473633 453.0472412109375 106.950065612793 C 452.9649353027344 106.5243759155273 452.8872680664062 106.0910339355469 452.8121337890625 105.6719741821289 C 452.7818908691406 105.5033187866211 452.7516479492188 105.3346633911133 452.7210693359375 105.1660690307617 C 452.6619262695312 104.840461730957 452.6021728515625 104.5149459838867 452.5419311523438 104.1866989135742 L 452.5079956054688 104.0017242431641 L 450.6411743164062 104.3307037353516 Z M 457.8815307617188 114.7340774536133 C 458.3478698730469 114.9833374023438 458.9649963378906 115.2695541381836 459.6387634277344 115.3111343383789 C 459.6889038085938 115.3142242431641 459.7400512695312 115.3157958984375 459.7907104492188 115.3157958984375 C 460.4790954589844 115.3157958984375 461.100341796875 115.0311508178711 461.6778259277344 114.736686706543 C 461.6797180175781 114.7330017089844 461.6814575195312 114.7289123535156 461.6820983886719 114.7262420654297 C 461.7496032714844 114.4068298339844 461.9120483398438 114.1226119995117 462.1786499023438 113.857666015625 C 462.4564514160156 113.5814819335938 462.7372131347656 113.2984848022461 463.0087280273438 113.0248031616211 C 463.1898803710938 112.8422088623047 463.3710327148438 112.6596221923828 463.5527648925781 112.4775543212891 C 463.56591796875 112.46435546875 463.5747375488281 112.4541702270508 463.58056640625 112.4467163085938 C 463.5766296386719 112.4418487548828 463.5713195800781 112.4358444213867 463.5643005371094 112.4287185668945 C 463.2791748046875 112.1392517089844 463.1749267578125 111.7765350341797 463.2544860839844 111.3506011962891 C 463.281982421875 111.2032089233398 463.3074035644531 111.0553741455078 463.3328247070312 110.9075393676758 C 463.3772888183594 110.6488494873047 463.4232788085938 110.3813400268555 463.48046875 110.1185150146484 C 463.4986572265625 110.0348052978516 463.510986328125 109.9476318359375 463.5240173339844 109.855339050293 C 463.5662536621094 109.5562896728516 463.6141052246094 109.2173538208008 463.8903198242188 108.9459991455078 C 463.9177551269531 108.919059753418 463.9394226074219 108.8977508544922 463.907470703125 108.7942886352539 C 463.5433349609375 107.6124725341797 462.8010559082031 106.8425445556641 461.6382141113281 106.4403915405273 C 461.1614685058594 106.275505065918 460.6650085449219 106.2618560791016 460.1558837890625 106.2618560791016 L 459.8348999023438 106.2624740600586 L 459.8019714355469 106.262451171875 L 459.7270202636719 106.262825012207 C 459.7105407714844 106.262825012207 459.6940612792969 106.2626724243164 459.6775512695312 106.2622222900391 C 459.5947265625 106.2600708007812 459.496337890625 106.2578735351562 459.3965454101562 106.2578735351562 C 458.9546508789062 106.2578735351562 458.4868469238281 106.2987060546875 458.0597839355469 106.5949020385742 C 457.9089965820312 106.699462890625 457.7546081542969 106.8026733398438 457.6053161621094 106.902473449707 C 457.0625915527344 107.2653350830078 456.5499267578125 107.6080627441406 456.1135559082031 108.0613708496094 C 455.8681335449219 108.316291809082 455.6956481933594 108.5451812744141 455.6515197753906 108.8336944580078 C 455.64794921875 108.8572158813477 455.6574401855469 108.9079360961914 455.6825866699219 108.959114074707 C 455.70703125 109.0088806152344 455.741455078125 109.0606918334961 455.7779235839844 109.1155395507812 C 455.8467712402344 109.2190933227539 455.9248046875 109.3364639282227 455.9560241699219 109.4766693115234 C 456.0323181152344 109.8201293945312 456.0946044921875 110.170280456543 456.1548156738281 110.508903503418 C 456.1943054199219 110.7310409545898 456.2351379394531 110.9607391357422 456.2793579101562 111.1849136352539 C 456.3487854003906 111.5369033813477 456.38427734375 111.9915924072266 456.0393371582031 112.3864059448242 C 456.0284729003906 112.3988494873047 456.0037536621094 112.4271469116211 455.9842529296875 112.4516754150391 C 456.0049743652344 112.4745178222656 456.0308837890625 112.5005798339844 456.0423278808594 112.512092590332 L 456.379638671875 112.8516006469727 C 456.724853515625 113.1990814208984 457.070068359375 113.5465698242188 457.4159240722656 113.8934936523438 C 457.64990234375 114.1282653808594 457.8042602539062 114.4043960571289 457.8746948242188 114.714241027832 C 457.8762512207031 114.7209701538086 457.8789367675781 114.7282943725586 457.8815307617188 114.7340774536133 Z M 460.7265625 105.2851181030273 C 461.6029357910156 105.3434066772461 462.3681335449219 105.5799789428711 463.006103515625 105.9905700683594 C 463.6831359863281 106.4263076782227 464.2357788085938 107.0699768066406 464.6521606445312 107.9068374633789 C 464.7927856445312 107.7185516357422 464.936767578125 107.5246505737305 465.0686340332031 107.3299331665039 C 465.0884704589844 107.3005523681641 465.0977783203125 107.2385940551758 465.0920715332031 107.2179412841797 C 464.7642822265625 106.066162109375 464.1178283691406 105.1069793701172 463.1707153320312 104.3671798706055 C 463.1154479980469 104.3240051269531 463.0936889648438 104.3240051269531 463.0865478515625 104.3240051269531 C 463.0732727050781 104.3240051269531 463.0546264648438 104.3288192749023 463.0325622558594 104.3379287719727 C 462.412353515625 104.593994140625 461.7916259765625 104.8484649658203 461.1708984375 105.1029357910156 C 461.0227661132812 105.1636581420898 460.8746643066406 105.2243728637695 460.7265625 105.2851181030273 Z"/></g><g class="a" transform="translate(-543.362 -216.87)"><path class="c" d="M 553.3532104492188 228.2080993652344 L 553.3302612304688 228.2026214599609 C 553.217041015625 228.1756134033203 553.1046752929688 228.1499633789062 552.9931640625 228.1244812011719 C 552.722900390625 228.0627746582031 552.4675903320312 228.0044860839844 552.2101440429688 227.9302062988281 C 552.0802612304688 227.8927307128906 551.9808959960938 227.8146514892578 551.9303588867188 227.7103424072266 C 551.882568359375 227.6118011474609 551.8809814453125 227.4969787597656 551.92578125 227.3870239257812 C 551.986572265625 227.2379150390625 552.1205444335938 227.1488952636719 552.2841796875 227.1488952636719 C 552.3494873046875 227.1488952636719 552.418212890625 227.1626586914062 552.4884643554688 227.1897888183594 C 552.7783203125 227.3017120361328 553.071533203125 227.3584594726562 553.3599853515625 227.3584594726562 C 553.646484375 227.3584594726562 553.9380493164062 227.302490234375 554.2266845703125 227.1920928955078 C 554.2996215820312 227.1641845703125 554.3704833984375 227.1500396728516 554.4373168945312 227.1500396728516 C 554.608642578125 227.1500396728516 554.7443237304688 227.2451629638672 554.8001708984375 227.4044799804688 C 554.8392333984375 227.5159454345703 554.8338623046875 227.6288299560547 554.7850952148438 227.7223968505859 C 554.73193359375 227.8244476318359 554.6325073242188 227.8983917236328 554.4974975585938 227.9362335205078 C 554.2394409179688 228.0085296630859 553.9839477539062 228.0656890869141 553.7134399414062 228.1261901855469 C 553.6018676757812 228.1511535644531 553.4894409179688 228.1763000488281 553.3761596679688 228.2027282714844 L 553.3532104492188 228.2080993652344 Z"/><path class="d" d="M 553.3534545898438 228.1053466796875 C 553.7350463867188 228.0162963867188 554.106689453125 227.9418640136719 554.4705200195312 227.8399353027344 C 554.6893920898438 227.7785797119141 554.7675170898438 227.6137847900391 554.705810546875 227.4375762939453 C 554.64599609375 227.2669219970703 554.4758911132812 227.2038269042969 554.2623901367188 227.2854919433594 C 553.657958984375 227.5167236328125 553.056396484375 227.5163116455078 552.4524536132812 227.2830810546875 C 552.2495727539062 227.2047729492188 552.0836181640625 227.2647857666016 552.0183715820312 227.4247741699219 C 551.9487915039062 227.5954742431641 552.02490234375 227.7726745605469 552.2378540039062 227.8341217041016 C 552.6006469726562 227.9387969970703 552.9722290039062 228.0143737792969 553.3534545898438 228.1053466796875 M 553.3529663085938 228.3108367919922 L 553.3070068359375 228.2998809814453 C 553.1941528320312 228.27294921875 553.0820922851562 228.2473754882812 552.9708862304688 228.2219848632812 C 552.711181640625 228.1626739501953 552.4425659179688 228.1013488769531 552.1824340820312 228.0262908935547 C 552.0249633789062 227.9808502197266 551.9035034179688 227.8841400146484 551.8403930664062 227.7539672851562 C 551.7800903320312 227.6295623779297 551.7775268554688 227.48583984375 551.8331909179688 227.3492889404297 C 551.9098510742188 227.1611938476562 552.0784912109375 227.0488891601562 552.2841796875 227.0488891601562 C 552.3618774414062 227.0488891601562 552.4427490234375 227.0649108886719 552.5245361328125 227.0965118408203 C 552.8027954101562 227.2039794921875 553.0839233398438 227.2584686279297 553.3599853515625 227.2584686279297 C 553.6342163085938 227.2584686279297 553.913818359375 227.2047119140625 554.19091796875 227.0986938476562 C 554.2753295898438 227.06640625 554.3582153320312 227.0500335693359 554.4373168945312 227.0500335693359 C 554.653076171875 227.0500335693359 554.823974609375 227.1701812744141 554.89453125 227.3713989257812 C 554.9428100585938 227.5092468261719 554.9354248046875 227.6502838134766 554.873779296875 227.7686004638672 C 554.8275756835938 227.8572845458984 554.7294921875 227.9750518798828 554.5245361328125 228.0325164794922 C 554.2638549804688 228.1055450439453 553.9951171875 228.1656494140625 553.7352905273438 228.2237701416016 C 553.6240234375 228.2486724853516 553.5119018554688 228.2737426757812 553.39892578125 228.3001098632812 L 553.3529663085938 228.3108367919922 Z"/></g><g class="a" transform="translate(-572.973 -181.076)"><path class="c" d="M 585.8025512695312 189.1227722167969 C 585.7312622070312 189.1227722167969 585.6604614257812 189.1038513183594 585.5921630859375 189.0665283203125 C 585.4603271484375 188.9944915771484 585.336669921875 188.95947265625 585.2141723632812 188.95947265625 C 585.0933227539062 188.95947265625 584.9732666015625 188.9935455322266 584.8471069335938 189.0636291503906 C 584.7765502929688 189.1027679443359 584.703369140625 189.1226043701172 584.6294555664062 189.1226043701172 C 584.4834594726562 189.1226043701172 584.3544921875 189.0438842773438 584.2843627929688 188.9120330810547 C 584.2313842773438 188.8123779296875 584.2210083007812 188.7025146484375 584.255126953125 188.6026611328125 C 584.2900390625 188.5005187988281 584.369873046875 188.4169006347656 584.47998046875 188.3672027587891 C 584.6396484375 188.2952270507812 584.802001953125 188.2424621582031 584.973876953125 188.1865997314453 C 585.0465087890625 188.1629943847656 585.119873046875 188.1391448974609 585.1937255859375 188.1135101318359 L 585.2271728515625 188.1018829345703 L 585.260498046875 188.1139373779297 C 585.3363037109375 188.1413269042969 585.4105834960938 188.1665344238281 585.4832763671875 188.1912078857422 C 585.651611328125 188.2483215332031 585.810546875 188.3022613525391 585.9646606445312 188.3745422363281 C 586.0719604492188 188.4248504638672 586.1464233398438 188.5036315917969 586.1798706054688 188.6023712158203 C 586.2124633789062 188.6983489990234 586.2022094726562 188.8055419921875 586.1510009765625 188.9041900634766 C 586.0801391601562 189.0410308837891 585.9498291015625 189.1227569580078 585.8025512695312 189.1227722167969 Z"/><path class="d" d="M 585.2265014648438 188.2079772949219 C 584.982666015625 188.2926483154297 584.7437744140625 188.3579864501953 584.5211181640625 188.4583587646484 C 584.3403930664062 188.5399169921875 584.293212890625 188.7156066894531 584.3726806640625 188.8650970458984 C 584.4515380859375 189.0133972167969 584.6271362304688 189.0713500976562 584.7985229492188 188.9762115478516 C 585.0846557617188 188.8172760009766 585.35498046875 188.8230590820312 585.64013671875 188.9787750244141 C 585.8107299804688 189.0719909667969 585.9833984375 189.0102386474609 586.062255859375 188.8581390380859 C 586.1383056640625 188.7115478515625 586.0965576171875 188.5468139648438 585.9221801757812 188.4650726318359 C 585.7068481445312 188.3640594482422 585.4746704101562 188.2977142333984 585.2265014648438 188.2079772949219 M 585.2278442382812 187.9957885742188 L 585.2944946289062 188.0198974609375 C 585.36962890625 188.0470581054688 585.4432983398438 188.0720367431641 585.5154418945312 188.0965118408203 C 585.6864624023438 188.154541015625 585.8479614257812 188.2093505859375 586.0071411132812 188.2839965820312 C 586.1377563476562 188.3452453613281 586.2327880859375 188.4469146728516 586.2745971679688 188.5702514648438 C 586.3159790039062 188.6922607421875 586.3035888671875 188.8272094726562 586.2398071289062 188.9502410888672 C 586.1513671875 189.120849609375 585.9879150390625 189.2227783203125 585.8025512695312 189.2227783203125 C 585.7142944335938 189.2227783203125 585.6273803710938 189.1997222900391 585.544189453125 189.1542663574219 C 585.312744140625 189.0278778076172 585.1195678710938 189.0266571044922 584.8956298828125 189.1510467529297 C 584.811279296875 189.1978759765625 584.7192993164062 189.2226104736328 584.6294555664062 189.2226104736328 C 584.4458618164062 189.2226104736328 584.2838134765625 189.1240539550781 584.1961059570312 188.9589691162109 C 584.1300048828125 188.8346557617188 584.1173706054688 188.6966400146484 584.1604614257812 188.5703277587891 C 584.2044067382812 188.4417572021484 584.3032836914062 188.3372497558594 584.4388427734375 188.2760467529297 C 584.6035766601562 188.2018127441406 584.7760620117188 188.1457366943359 584.9429321289062 188.0914916992188 C 585.0149536132812 188.0680999755859 585.0877075195312 188.0444641113281 585.160888671875 188.01904296875 L 585.2278442382812 187.9957885742188 Z"/></g><g class="a" transform="translate(-524.275 -181.081)"><path class="c" d="M 531.4440307617188 189.1292724609375 C 531.2966918945312 189.1292724609375 531.1658325195312 189.0475158691406 531.0940551757812 188.9105834960938 C 531.042236328125 188.8117370605469 531.0317993164062 188.7041778564453 531.0645141601562 188.607666015625 C 531.0980224609375 188.5088043212891 531.1724243164062 188.4302520751953 531.2796630859375 188.3804626464844 C 531.4387817382812 188.3067016601562 531.600830078125 188.2523193359375 531.7724609375 188.1947326660156 C 531.8446044921875 188.1705322265625 531.91748046875 188.1460876464844 531.9908447265625 188.1198425292969 L 532.0241088867188 188.1079254150391 L 532.0574951171875 188.1195831298828 C 532.13330078125 188.1460723876953 532.2076416015625 188.17041015625 532.2804565429688 188.1942749023438 C 532.4494018554688 188.2496337890625 532.6089477539062 188.3019104003906 532.7640380859375 188.3722839355469 C 532.8741455078125 188.4222412109375 532.9541015625 188.5061798095703 532.9890747070312 188.608642578125 C 533.0231323242188 188.7083740234375 533.0130004882812 188.81787109375 532.9605712890625 188.9169616699219 C 532.8910522460938 189.0487365722656 532.7622680664062 189.1274566650391 532.6160888671875 189.1274719238281 C 532.5422973632812 189.1274719238281 532.468994140625 189.1077880859375 532.398193359375 189.0689697265625 C 532.2704467773438 188.9989624023438 532.149658203125 188.9649353027344 532.029052734375 188.9649353027344 C 531.906494140625 188.9649353027344 531.7836303710938 189.0001373291016 531.653564453125 189.0725708007812 C 531.5859985351562 189.1101837158203 531.5155029296875 189.1292724609375 531.4440307617188 189.1292724609375 Z"/><path class="d" d="M 532.0245361328125 188.2139892578125 C 531.781494140625 188.3009643554688 531.543212890625 188.3684844970703 531.32177734375 188.4711761474609 C 531.1472778320312 188.5521545410156 531.1060791015625 188.7180480957031 531.1826171875 188.8641357421875 C 531.2622680664062 189.0160980224609 531.4366455078125 189.0788116455078 531.6049194335938 188.9851989746094 C 531.8900756835938 188.826416015625 532.1602172851562 188.8246154785156 532.4462890625 188.9812774658203 C 532.618896484375 189.0759124755859 532.7940063476562 189.0183715820312 532.8721923828125 188.8702087402344 C 532.9511108398438 188.7210388183594 532.9028930664062 188.5450897216797 532.7227172851562 188.4633483886719 C 532.5059814453125 188.3650054931641 532.2732543945312 188.3008728027344 532.0245361328125 188.2139892578125 M 532.0237426757812 188.0018615722656 L 532.0904541015625 188.0251770019531 C 532.1656494140625 188.0514373779297 532.2393798828125 188.0755767822266 532.3115844726562 188.0992431640625 C 532.4832153320312 188.1554718017578 532.645263671875 188.2085723876953 532.8053588867188 188.2812194824219 C 532.9408569335938 188.3426818847656 533.0396728515625 188.4474945068359 533.0836791992188 188.5763244628906 C 533.1267700195312 188.7024230957031 533.1144409179688 188.8400115966797 533.0489501953125 188.9637451171875 C 532.9618530273438 189.1288146972656 532.7999877929688 189.2274627685547 532.6160888671875 189.2274627685547 C 532.5253295898438 189.2274627685547 532.4358520507812 189.2036437988281 532.3501586914062 189.1566467285156 C 532.1229858398438 189.0322418212891 531.929931640625 189.0331115722656 531.7022094726562 189.1599426269531 C 531.6195678710938 189.2059478759766 531.53271484375 189.2292633056641 531.4440307617188 189.2292633056641 C 531.2587890625 189.2292633056641 531.0948486328125 189.1274871826172 531.0054931640625 188.9570159912109 C 530.9408569335938 188.8336791992188 530.92822265625 188.6982269287109 530.9697875976562 188.5755462646484 C 531.01171875 188.4519500732422 531.1068115234375 188.3504638671875 531.2376098632812 188.2897644042969 C 531.4017333984375 188.2136535644531 531.573974609375 188.1558532714844 531.7406616210938 188.0999450683594 C 531.8121337890625 188.0759429931641 531.8844604492188 188.0517120361328 531.9571533203125 188.0256958007812 L 532.0237426757812 188.0018615722656 Z"/></g></g><rect class="b" width="24" height="24"/></svg>