<svg xmlns="http://www.w3.org/2000/svg" width="66.811" height="50" viewBox="0 0 66.811 50">
  <g id="Grupo_4544" data-name="Grupo 4544" transform="translate(-349 -163)">
    <g id="Grupo_4543" data-name="Grupo 4543" transform="translate(236.566 66.742)">
      <path id="Caminho_2184" data-name="Caminho 2184" d="M198.394,178.287h-4.221v-6.241h4.221Zm-21.164-6.241h4.091v6.241H177.23Zm9.891,6.241h-4.547v-6.241h4.547Zm1.253-6.241h4.547v6.241h-4.547Zm-12.4,7.494h23.67v-8.746h-23.67Z" transform="translate(-41.973 -49.235)" fill="#03f5ff"/>
      <path id="Caminho_2185" data-name="Caminho 2185" d="M177.575,134.08H165.206a4.922,4.922,0,0,0-4.175,2.221,18.068,18.068,0,0,1-30.383,0,4.922,4.922,0,0,0-4.175-2.221H114.1V118.941h12.37a4.915,4.915,0,0,0,4.172-2.216,17.978,17.978,0,0,1,11.18-7.84,18.232,18.232,0,0,1,6.049-.336c.336.037.67.085,1,.14s.656.121.977.2h0a17.98,17.98,0,0,1,11.176,7.84,4.915,4.915,0,0,0,4.172,2.216h12.369Zm-42.243-32.57a1.266,1.266,0,0,1-1.265-1.265V99.194a1.267,1.267,0,0,1,1.265-1.266h7.632a11.409,11.409,0,0,0-.061,1.266v1.051a11.4,11.4,0,0,0,.061,1.265h-7.632Zm12.258,1.67h1.617v3.87l-.034,0c-.464-.079-.935-.136-1.41-.182-.156-.016-.313-.028-.47-.039-.424-.031-.847-.051-1.272-.054-.061,0-.121-.008-.181-.008s-.119.007-.179.007c-.427,0-.854.023-1.278.055-.156.011-.309.023-.464.038-.475.045-.948.1-1.413.183l-.033,0v-3.87h5.118Zm-3.017-3.986a9.138,9.138,0,0,1,.078-1.266h2.375a9.192,9.192,0,0,1,.078,1.266v1.051a9.175,9.175,0,0,1-.078,1.265h-2.375a9.121,9.121,0,0,1-.078-1.265Zm4.142-1.266h7.632a1.267,1.267,0,0,1,1.265,1.266v1.051a1.266,1.266,0,0,1-1.265,1.265h-7.632a11.493,11.493,0,0,0,.061-1.265V99.194a11.5,11.5,0,0,0-.061-1.266M178.41,117.27h-13.2a3.3,3.3,0,0,1-2.768-1.449,19.607,19.607,0,0,0-11.561-8.382V103.18h5.47a2.939,2.939,0,0,0,2.935-2.936V99.194a2.939,2.939,0,0,0-2.935-2.936H135.332a2.938,2.938,0,0,0-2.935,2.936v1.051a2.938,2.938,0,0,0,2.935,2.936h5.47v4.258a19.607,19.607,0,0,0-11.561,8.382,3.3,3.3,0,0,1-2.767,1.449h-13.2a.834.834,0,0,0-.835.835v16.81a.834.834,0,0,0,.835.835h13.2a3.3,3.3,0,0,1,2.77,1.456,19.739,19.739,0,0,0,33.191,0,3.3,3.3,0,0,1,2.771-1.455h13.2a.835.835,0,0,0,.835-.835v-16.81a.835.835,0,0,0-.835-.835" transform="translate(0)" fill="#03f5ff"/>
      <path id="Caminho_2186" data-name="Caminho 2186" d="M179.806,168.909c-7.873,0-14.28-6.126-14.28-13.658s6.407-13.657,14.28-13.657,14.28,6.126,14.28,13.657-6.407,13.658-14.28,13.658m0-28.986c-8.795,0-15.95,6.876-15.95,15.328s7.155,15.328,15.95,15.328,15.95-6.876,15.95-15.328-7.155-15.328-15.95-15.328" transform="translate(-33.967 -28.843)" fill="#03f5ff"/>
    </g>
  </g>
</svg>
