<svg xmlns="http://www.w3.org/2000/svg" width="24" height="24" viewBox="0 0 24 24"><defs><style>.a{fill:#f04f28;}</style></defs><g transform="translate(0)"><path class="a" d="M23.436,39.746,12.379,34.272a.827.827,0,0,0-.743,0L.579,39.746a1.16,1.16,0,0,0,0,2l11.057,5.438a.827.827,0,0,0,.739,0l11.057-5.438a1.16,1.16,0,0,0,0-2ZM12.008,45l-8.66-4.259,8.66-4.288,8.66,4.288Z" transform="translate(-0.008 -34.184)"/></g><g transform="translate(0 16.35)"><path class="a" d="M23.923,337.063a.9.9,0,0,0-1.237-.571L12,341.783l-10.686-5.29a.9.9,0,0,0-1.237.571,1.155,1.155,0,0,0,.494,1.428l11.057,5.475a.828.828,0,0,0,.743,0l11.057-5.475A1.156,1.156,0,0,0,23.923,337.063Z" transform="translate(0 -336.404)"/></g><g transform="translate(0 10.912)"><path class="a" d="M23.931,236.55a.9.9,0,0,0-1.236-.574l-10.688,5.256L1.319,235.976a.9.9,0,0,0-1.236.574,1.155,1.155,0,0,0,.5,1.427l11.057,5.438a.828.828,0,0,0,.739,0l11.057-5.438A1.156,1.156,0,0,0,23.931,236.55Z" transform="translate(-0.007 -235.889)"/></g></svg>