<svg xmlns="http://www.w3.org/2000/svg" width="24" height="24" viewBox="0 0 24 24"><defs><style>.a{fill:#f04f28;}.b{fill:none;}</style></defs><g transform="translate(-1.5 -2.8)"><g transform="translate(2.5 4.8)"><path class="a" d="M24.222,7.992l-3.91-3.054a.729.729,0,0,0-.856,0L15.594,7.992a.692.692,0,0,0-.254.532V14.84H14.252A2.794,2.794,0,0,0,11.985,16L6.78,23.261a1.447,1.447,0,0,1-1.157.6H3.194a.694.694,0,1,0,0,1.388H5.623A2.794,2.794,0,0,0,7.89,24.093L13.1,16.853a1.447,1.447,0,0,1,1.157-.6h1.087v8.814a.694.694,0,1,0,1.388,0V23.908h6.385v1.157a.7.7,0,0,0,.694.694.682.682,0,0,0,.694-.694V8.524A.8.8,0,0,0,24.222,7.992ZM19.9,6.35l3.216,2.522V14.84H16.7V8.872ZM16.7,16.228h6.385V18.68H16.7Zm0,6.269V20.045h6.385V22.5H16.7Z" transform="translate(-2.5 -4.8)"/><path class="a" d="M70,28.833h2.637a.612.612,0,0,0,.6-.6V25.5a.612.612,0,0,0-.6-.6H70a.612.612,0,0,0-.6.6v2.753A.593.593,0,0,0,70,28.833Zm.6-2.73H72.06v1.55H70.6Z" transform="translate(-53.924 -20.25)"/></g></g><rect class="b" width="24" height="24"/></svg>