<svg xmlns="http://www.w3.org/2000/svg" width="24" height="24" viewBox="0 0 24 24"><defs><style>.a{fill:#f04f28;stroke:#f04f28;stroke-width:0.3px;}.b{fill:none;}</style></defs><g transform="translate(2 3)"><path class="a" d="M58.588,136.07a.413.413,0,0,1,.415-.207c.19.011.381,0,.547,0,0-2.592,0-5.16,0-7.729,0-.262.111-.4.307-.408s.318.145.318.417q0,3.635,0,7.271c0,.377.072.448.454.449H62.8a11.518,11.518,0,0,1-.866-.9,3.563,3.563,0,0,1-.76-2.468,3.7,3.7,0,0,1,1.588-2.892,2.979,2.979,0,0,1,.39-.236.239.239,0,0,0,.145-.248c-.007-.644,0-1.288,0-1.932,0-.365.089-.453.461-.454h.89c0-.484.011-.948-.005-1.41-.007-.191-.16-.256-.342-.256-.478,0-.956,0-1.434,0H60.57c-.308,0-.393.084-.394.385,0,.425,0,.85,0,1.275a.341.341,0,0,1-.211.369.3.3,0,0,1-.407-.281c-.013-.517-.027-1.037.011-1.552a.84.84,0,0,1,.858-.8c.164-.012.329,0,.511,0,0-.471,0-.914,0-1.358a.893.893,0,0,1,.972-.979c.345,0,.691,0,1.036,0a.9.9,0,0,1,.937.941c0,.392,0,.784,0,1.175,0,.065,0,.129,0,.229.2,0,.39-.013.573,0a.828.828,0,0,1,.784.783c.027.4.015.809.02,1.214,0,.079,0,.157,0,.266h.849c.391,0,.478.088.478.48,0,.369,0,.738,0,1.171a3.078,3.078,0,0,1,2.826-.985c-.234-.182-.421-.313-.592-.464a4.3,4.3,0,0,1-1.5-3.572c.012-.282.113-.377.416-.394a4.319,4.319,0,0,1,2.406.556c.068.038.135.078.218.127a4.064,4.064,0,0,1,.672-1.533,8.4,8.4,0,0,1,.739-.83c.184-.187.319-.172.52,0a4.282,4.282,0,0,1,1.354,2.179c.013.051.031.1.051.168.168-.088.327-.176.49-.255a4.272,4.272,0,0,1,2.1-.417c.339.017.424.093.438.429a4.263,4.263,0,0,1-1.845,3.816.639.639,0,0,0-.179.171c.262,0,.523,0,.785,0a2.712,2.712,0,0,1,2.633,2.082,2.656,2.656,0,0,1,.076.629c0,1.275.006,2.55-.012,3.824a2.524,2.524,0,0,1-.795,1.769,1.406,1.406,0,0,1-.155.119l.025.043c.056,0,.111.011.167.011.412,0,.823,0,1.235,0a.3.3,0,0,1,.3.421,2.96,2.96,0,0,1-2.655,2.089c-.649.026-1.3.024-1.95.027-.242,0-.387-.128-.386-.313s.151-.306.391-.307c.6,0,1.2.016,1.793-.006a2.331,2.331,0,0,0,2-1.179,1.281,1.281,0,0,0,.056-.119H59.359a2.256,2.256,0,0,0,.917.975,2.482,2.482,0,0,0,1.293.33q5.667,0,11.334,0c.092,0,.208-.013.269.035a.439.439,0,0,1,.183.287c0,.094-.118.2-.208.268a.419.419,0,0,1-.232.03q-5.657,0-11.314,0a2.985,2.985,0,0,1-2.785-1.624c-.084-.153-.152-.315-.227-.473Zm10.091-2.733h5.294c.086,0,.173,0,.258-.011a.881.881,0,0,0,.815-.766,3.073,3.073,0,0,0,0-.692.878.878,0,0,0-.707-.741,2.071,2.071,0,0,0-.376-.033q-2.49,0-4.98,0c-.233,0-.369-.111-.374-.295a.3.3,0,0,1,.339-.309q2.649,0,5.3.006a1.352,1.352,0,0,1,.808.3,1.814,1.814,0,0,1,.565,2.019,1.5,1.5,0,0,1-1.553,1.146q-2.689,0-5.379,0a.222.222,0,0,0-.251.158,3.689,3.689,0,0,1-1.28,1.641c-.034.025-.063.055-.108.1a.491.491,0,0,0,.077.017c2.789,0,5.578.013,8.367-.006a2.089,2.089,0,0,0,2.1-2.067q.015-1.862,0-3.725a2.075,2.075,0,0,0-2.027-2.047q-3.446-.024-6.893,0a2.282,2.282,0,0,0-.826.176,1.942,1.942,0,0,0-1.1,1.158A3.847,3.847,0,0,1,68.679,133.338Zm-4.765-4.55a2.632,2.632,0,0,0,0,.361.662.662,0,0,1-.463.763,3.16,3.16,0,1,0,4.263,1.269,3.029,3.029,0,0,0-1.4-1.329.518.518,0,0,1-.353-.589,4.476,4.476,0,0,0,0-.475ZM72.03,121.9a3.688,3.688,0,0,0,.012,5.347A3.706,3.706,0,0,0,72.03,121.9Zm.774,5.438c1.669.068,3.6-2.135,3.293-3.747a3.489,3.489,0,0,0-2.175.67.379.379,0,0,0-.119.239c-.043.315-.049.635-.1.947A4.2,4.2,0,0,1,72.8,127.339Zm-4.847-3.747a3.627,3.627,0,0,0,3.273,3.734.1.1,0,0,0-.01-.036,4.407,4.407,0,0,1-.956-2.843.205.205,0,0,0-.067-.148A3.539,3.539,0,0,0,67.957,123.592Zm-4.695.853c0-.462,0-.912,0-1.361,0-.253-.082-.335-.334-.339-.338-.006-.676,0-1.014,0-.277,0-.363.092-.366.375,0,.4,0,.8,0,1.193a.924.924,0,0,0,.02.133Zm2.694,2.909H63.928v.8h2.028Z" transform="translate(-58.588 -121.159)"/></g><rect class="b" width="24" height="24"/></svg>