<svg xmlns="http://www.w3.org/2000/svg" width="24" height="24" viewBox="0 0 24 24"><defs><style>.a{fill:none;}.b{fill:#f04f28;}</style></defs><rect class="a" width="24" height="24"/><g transform="translate(2 1)"><path class="b" d="M150.988,317.645v3.438a.641.641,0,0,0,.638.645h8.511a.641.641,0,0,0,.638-.645v-3.437a.642.642,0,0,0-.638-.645h-8.511A.641.641,0,0,0,150.988,317.645Zm1.277.645H159.5v2.148h-7.234Z" transform="translate(-145.457 -303.379)"/><path class="b" d="M40.33,8.722a.636.636,0,0,0-.18-.095q.011-.123.011-.248a2.8,2.8,0,0,0-.44-1.507,2.8,2.8,0,0,0-1.475-5.153,2.677,2.677,0,0,0-.421.033,2.746,2.746,0,0,0-5.107-.033h0a2.781,2.781,0,0,0-2.761,2.629,4.028,4.028,0,0,0-1.74.731L26.967,2.9a3.179,3.179,0,0,0-4.36-1.18,3.243,3.243,0,0,0-1.168,4.4L22.854,8.6a.635.635,0,0,0-.31.124.647.647,0,0,0-.253.585c.213,2,.429,4.064.638,6.055.172,1.64.344,3.281.517,4.91A1.918,1.918,0,0,0,25.35,22H37.524a1.918,1.918,0,0,0,1.9-1.729L40.583,9.306A.647.647,0,0,0,40.33,8.722ZM32.714,3.008a1.469,1.469,0,0,1,.324.039.634.634,0,0,0,.493-.093.645.645,0,0,0,.274-.424,1.479,1.479,0,0,1,2.932.1.645.645,0,0,0,.319.489.633.633,0,0,0,.579.027,1.463,1.463,0,0,1,.611-.137,1.5,1.5,0,0,1,.258,2.98.646.646,0,0,0-.257,1.162,1.5,1.5,0,0,1,.49,1.872,21.163,21.163,0,0,1-4.5,1.107,4.117,4.117,0,0,0,.225-.592,11.476,11.476,0,0,0,1.869-4.971.638.638,0,1,0-1.272-.109,9.619,9.619,0,0,1-.675,2.516,4.066,4.066,0,0,0-3.149-2.624A1.5,1.5,0,0,1,32.714,3.008ZM30.586,5.586a2.795,2.795,0,0,1,2.021,4.694q-.583.032-1.17.032H31.2L28.856,6.2a2.746,2.746,0,0,1,1.73-.619ZM22.354,4.012a1.91,1.91,0,0,1,3.508-.466l.547.957-1.819.11A.645.645,0,0,0,24.628,5.9h.039l2.456-.149.563.985-1.819.11A.645.645,0,0,0,25.9,8.134h.039L28.4,7.984l1.291,2.258A21.131,21.131,0,0,1,24.68,9.213L22.545,5.479a1.937,1.937,0,0,1-.191-1.467Zm15.8,16.123a.639.639,0,0,1-.635.576H25.35a.639.639,0,0,1-.635-.576c-.172-1.629-.344-3.269-.517-4.909s-.35-3.335-.526-5A22.443,22.443,0,0,0,31.437,11.6,22.44,22.44,0,0,0,39.2,10.224Z" transform="translate(-21.012)"/></g></svg>