<svg width="13" height="12" viewBox="0 0 13 12" fill="none" xmlns="http://www.w3.org/2000/svg">
<path d="M12.224 5.28501L7.22398 0.285014C7.12888 0.193973 7.01673 0.122608 6.89398 0.0750135C6.65052 -0.0250045 6.37744 -0.0250045 6.13398 0.0750135C6.01123 0.122608 5.89908 0.193973 5.80398 0.285014L0.803979 5.28501C0.710741 5.37825 0.63678 5.48894 0.58632 5.61076C0.53586 5.73259 0.509888 5.86315 0.509888 5.99501C0.509888 6.26132 0.615676 6.51671 0.803979 6.70501C0.992283 6.89332 1.24768 6.9991 1.51398 6.9991C1.78028 6.9991 2.03568 6.89332 2.22398 6.70501L5.51398 3.40501V10.995C5.51398 11.2602 5.61934 11.5146 5.80687 11.7021C5.99441 11.8897 6.24876 11.995 6.51398 11.995C6.7792 11.995 7.03355 11.8897 7.22109 11.7021C7.40862 11.5146 7.51398 11.2602 7.51398 10.995V3.40501L10.804 6.70501C10.8969 6.79874 11.0075 6.87314 11.1294 6.9239C11.2513 6.97467 11.382 7.00081 11.514 7.00081C11.646 7.00081 11.7767 6.97467 11.8986 6.9239C12.0204 6.87314 12.131 6.79874 12.224 6.70501C12.3177 6.61205 12.3921 6.50145 12.4429 6.37959C12.4936 6.25773 12.5198 6.12703 12.5198 5.99501C12.5198 5.863 12.4936 5.7323 12.4429 5.61044C12.3921 5.48858 12.3177 5.37798 12.224 5.28501Z" fill="#185355"/>
</svg>
