<svg width="12" height="12" viewBox="0 0 12 12" fill="none" xmlns="http://www.w3.org/2000/svg">
<path d="M11.92 5.36188C11.8724 5.24485 11.801 5.13793 11.71 5.04726L6.71 0.28038C6.61676 0.191489 6.50607 0.120976 6.38425 0.0728687C6.26243 0.024761 6.13186 0 6 0C5.7337 0 5.4783 0.100856 5.29 0.28038C5.19676 0.369271 5.1228 0.474801 5.07234 0.590943C5.02188 0.707085 4.99591 0.831566 4.99591 0.957277C4.99591 1.21116 5.1017 1.45465 5.29 1.63417L8.59 4.77078H1C0.734784 4.77078 0.48043 4.87123 0.292893 5.05002C0.105357 5.22881 0 5.47131 0 5.72416C0 5.97701 0.105357 6.2195 0.292893 6.3983C0.48043 6.57709 0.734784 6.67753 1 6.67753H8.59L5.29 9.81414C5.19627 9.90277 5.12188 10.0082 5.07111 10.1244C5.02034 10.2406 4.9942 10.3652 4.9942 10.491C4.9942 10.6169 5.02034 10.7415 5.07111 10.8577C5.12188 10.9739 5.19627 11.0793 5.29 11.1679C5.38296 11.2573 5.49356 11.3282 5.61542 11.3766C5.73728 11.425 5.86799 11.4499 6 11.4499C6.13201 11.4499 6.26272 11.425 6.38458 11.3766C6.50644 11.3282 6.61704 11.2573 6.71 11.1679L11.71 6.40106C11.801 6.31039 11.8724 6.20347 11.92 6.08644C12.02 5.85433 12.02 5.59399 11.92 5.36188Z" fill="white"/>
</svg>
