<svg width="48" height="48" viewBox="0 0 48 48" fill="none" xmlns="http://www.w3.org/2000/svg">
<path fill-rule="evenodd" clip-rule="evenodd" d="M0.166992 24C0.166992 10.8372 10.8375 0.166626 24.0003 0.166626C37.1631 0.166626 47.8337 10.8372 47.8337 24C47.8337 26.3722 46.4684 27.9141 44.8597 28.8462C43.3738 29.7071 41.4849 30.1794 39.8122 30.5416C39.2787 30.6571 38.7623 30.7624 38.2613 30.8647C37.0623 31.1094 35.9512 31.3362 34.9041 31.6407C33.4021 32.0775 32.5411 32.547 32.1221 33.02C31.5028 33.7192 31.1056 34.7171 30.8466 36.0788C30.6619 37.0504 30.5755 38.0058 30.4819 39.0417C30.4387 39.5205 30.3939 40.0165 30.3371 40.5393C30.1777 42.0056 29.9125 43.8043 29.0228 45.2384C28.5454 46.008 27.8809 46.6909 26.9754 47.1648C26.0821 47.6324 25.076 47.8333 24.0003 47.8333C10.8375 47.8333 0.166992 37.1628 0.166992 24ZM24.0003 4.49996C13.2308 4.49996 4.50033 13.2304 4.50033 24C4.50033 34.7695 13.2308 43.5 24.0003 43.5C24.5389 43.5 24.8224 43.4007 24.9658 43.3257C25.097 43.257 25.2161 43.1546 25.3405 42.954C25.6547 42.4476 25.8667 41.5656 26.0291 40.0712C26.0681 39.7121 26.1045 39.3116 26.1431 38.8856C26.2452 37.7612 26.3634 36.4588 26.5896 35.2693C26.9126 33.5704 27.5132 31.6877 28.8785 30.1465C30.153 28.7079 32.0346 27.9624 33.6939 27.4798C34.9228 27.1224 36.3076 26.8397 37.573 26.5814C38.034 26.4873 38.4792 26.3964 38.8953 26.3063C40.5909 25.9392 41.8586 25.5769 42.6873 25.0968C43.3931 24.6878 43.5003 24.3825 43.5003 24C43.5003 13.2304 34.7699 4.49996 24.0003 4.49996Z" fill="#7AA62C"/>
<path fill-rule="evenodd" clip-rule="evenodd" d="M22.917 13.1666C22.917 10.175 25.3421 7.74996 28.3337 7.74996C31.3253 7.74996 33.7503 10.175 33.7503 13.1666C33.7503 16.1582 31.3253 18.5833 28.3337 18.5833C25.3421 18.5833 22.917 16.1582 22.917 13.1666ZM28.3337 12.0833C27.7353 12.0833 27.2503 12.5683 27.2503 13.1666C27.2503 13.765 27.7353 14.25 28.3337 14.25C28.932 14.25 29.417 13.765 29.417 13.1666C29.417 12.5683 28.932 12.0833 28.3337 12.0833Z" fill="#7AA62C"/>
<path fill-rule="evenodd" clip-rule="evenodd" d="M9.91699 17.5C9.91699 14.5084 12.3421 12.0833 15.3337 12.0833C18.3253 12.0833 20.7503 14.5084 20.7503 17.5C20.7503 20.4916 18.3253 22.9166 15.3337 22.9166C12.3421 22.9166 9.91699 20.4916 9.91699 17.5ZM15.3337 16.4166C14.7353 16.4166 14.2503 16.9016 14.2503 17.5C14.2503 18.0983 14.7353 18.5833 15.3337 18.5833C15.932 18.5833 16.417 18.0983 16.417 17.5C16.417 16.9016 15.932 16.4166 15.3337 16.4166Z" fill="#7AA62C"/>
<path fill-rule="evenodd" clip-rule="evenodd" d="M11.0003 31.5833C11.0003 28.5917 13.4254 26.1666 16.417 26.1666C19.4086 26.1666 21.8337 28.5917 21.8337 31.5833C21.8337 34.5749 19.4086 37 16.417 37C13.4254 37 11.0003 34.5749 11.0003 31.5833ZM16.417 30.5C15.8186 30.5 15.3337 30.9849 15.3337 31.5833C15.3337 32.1817 15.8186 32.6666 16.417 32.6666C17.0154 32.6666 17.5003 32.1817 17.5003 31.5833C17.5003 30.9849 17.0154 30.5 16.417 30.5Z" fill="#7AA62C"/>
</svg>
