<svg width="50" height="56" viewBox="0 0 50 56" fill="none" xmlns="http://www.w3.org/2000/svg">
<path d="M48 37.7725V17.3281C47.9991 16.4318 47.7625 15.5515 47.3139 14.7755C46.8654 13.9995 46.2207 13.3551 45.4444 12.907L27.5556 2.68476C26.7786 2.23616 25.8972 2 25 2C24.1028 2 23.2214 2.23616 22.4444 2.68476L4.55556 12.907C3.77934 13.3551 3.13462 13.9995 2.68607 14.7755C2.23752 15.5515 2.00092 16.4318 2 17.3281V37.7725C2.00092 38.6688 2.23752 39.5491 2.68607 40.3251C3.13462 41.1011 3.77934 41.7454 4.55556 42.1936L22.4444 52.4158C23.2214 52.8644 24.1028 53.1006 25 53.1006C25.8972 53.1006 26.7786 52.8644 27.5556 52.4158L45.4444 42.1936C46.2207 41.7454 46.8654 41.1011 47.3139 40.3251C47.7625 39.5491 47.9991 38.6688 48 37.7725Z" stroke="#7AA62C" stroke-width="3.68" stroke-linecap="round" stroke-linejoin="round"/>
<path d="M48 27.5507L36.5 34.1951V47.4584" stroke="#7AA62C" stroke-width="3.68" stroke-linecap="round" stroke-linejoin="round"/>
<path d="M13.5 47.4584V34.1951L2 27.5507" stroke="#7AA62C" stroke-width="3.68" stroke-linecap="round" stroke-linejoin="round"/>
<path d="M2.68848 14.6707L24.9985 27.5762L47.3085 14.6707" stroke="#7AA62C" stroke-width="3.68" stroke-linecap="round" stroke-linejoin="round"/>
<path d="M25 53.3106V27.5507" stroke="#7AA62C" stroke-width="3.68" stroke-linecap="round" stroke-linejoin="round"/>
<path d="M13.5 7.64282L25 14.2873L36.5 7.64282" stroke="#7AA62C" stroke-width="3.68" stroke-linecap="round" stroke-linejoin="round"/>
</svg>
