<svg width="80" height="80" viewBox="0 0 80 80" fill="none" xmlns="http://www.w3.org/2000/svg">
<path d="M60.0648 17.9893H20.3795C20.3795 21.3706 17.6382 24.112 14.2568 24.112V36.848C17.6382 36.848 20.3795 39.5893 20.3795 42.9706H60.0648C60.0648 39.5893 62.8062 36.848 66.1875 36.848V24.112C62.8062 24.112 60.0648 21.3706 60.0648 17.9893ZM40.2248 40.2826C34.8115 40.2826 30.4275 35.8933 30.4275 30.4853C30.4275 25.0773 34.8168 20.688 40.2248 20.688C45.6328 20.688 50.0222 25.0773 50.0222 30.4853C50.0222 35.8933 45.6328 40.2826 40.2248 40.2826Z" fill="#7AA62C"/>
<path d="M70.8433 49.872H9.60059V52.32H70.8433V49.872Z" fill="white"/>
<path d="M70.8433 54.5706H9.60059V57.0187H70.8433V54.5706Z" fill="white"/>
<path d="M70.8433 59.264H9.60059V61.712H70.8433V59.264Z" fill="white"/>
<path d="M70.8433 63.9573H9.60059V66.4053H70.8433V63.9573Z" fill="white"/>
<path d="M9.60059 13.3333V47.6266H70.8433V13.3333H9.60059ZM68.3899 45.1786H12.0486V15.7813H68.3899V45.1786Z" fill="white"/>
<path d="M40.9233 33.4666H39.5206C39.2859 33.4666 39.0619 33.376 38.8966 33.2106C38.7313 33.0453 38.6406 32.8213 38.6406 32.5866H36.1926C36.1926 33.4773 36.5393 34.3146 37.1686 34.944C37.6753 35.4453 38.3099 35.7653 38.9979 35.872V36.848H41.4459V35.872C42.1339 35.7653 42.7739 35.4453 43.2806 34.9386C43.9046 34.3093 44.2513 33.472 44.2513 32.5813C44.2513 31.6906 43.9046 30.8533 43.2806 30.2293C42.6513 29.6 41.8139 29.2533 40.9233 29.2533H39.5206C39.2859 29.2533 39.0619 29.1626 38.8966 28.992C38.7313 28.8266 38.6406 28.608 38.6406 28.3733C38.6406 28.1386 38.7313 27.9146 38.8966 27.7493C39.0619 27.584 39.2859 27.488 39.5206 27.488H40.9233C41.1579 27.488 41.3819 27.5786 41.5473 27.744C41.7126 27.9093 41.8033 28.1333 41.8033 28.368H44.2513C44.2513 27.4773 43.9046 26.64 43.2753 26.0106C42.7686 25.5093 42.1339 25.1893 41.4459 25.0826V24.1066H38.9979V25.0826C38.3099 25.1893 37.6699 25.5093 37.1633 26.016C36.5339 26.6453 36.1926 27.4826 36.1926 28.368C36.1926 29.2533 36.5393 30.096 37.1686 30.72C37.7979 31.3493 38.6353 31.696 39.5259 31.696H40.9286C41.1633 31.696 41.3873 31.7866 41.5526 31.9573C41.7179 32.1226 41.8033 32.3413 41.8033 32.576C41.8033 32.8106 41.7126 33.0346 41.5526 33.2C41.3819 33.3653 41.1633 33.4613 40.9286 33.4613L40.9233 33.4666Z" fill="white"/>
<path d="M61.5259 29.2586H54.6673V31.7066H61.5259V29.2586Z" fill="white"/>
<path d="M25.7766 29.2586H18.9179V31.7066H25.7766V29.2586Z" fill="white"/>
</svg>
