<svg width="38" height="48" viewBox="0 0 38 48" fill="none" xmlns="http://www.w3.org/2000/svg">
<path fill-rule="evenodd" clip-rule="evenodd" d="M27.3463 8.65156C28.7799 6.55425 27.8935 5.00781 27.4676 4.26471C27.388 4.12581 27.2677 3.91599 27.255 3.85274C27.255 3.85145 27.2603 3.71766 27.4347 3.40441C27.9194 2.53354 27.6348 1.41811 26.799 0.912994C25.9633 0.407874 24.8929 0.70437 24.4081 1.57533C23.1483 3.8389 24.0368 5.38917 24.4638 6.13418C24.5065 6.20854 24.5591 6.30024 24.5973 6.37316C23.9538 7.20513 24.0447 8.44852 24.9064 9.07877C25.2143 9.30728 25.5687 9.41711 25.9199 9.41711C26.4665 9.41711 27.005 9.15087 27.3463 8.65159L27.3463 8.65156ZM13.4367 8.65156C14.8704 6.55425 13.984 5.00781 13.558 4.26471C13.4784 4.12581 13.3581 3.91599 13.3455 3.85274C13.3455 3.85145 13.3508 3.71766 13.5251 3.40441C14.0099 2.53354 13.7253 1.41811 12.8895 0.912994C12.0537 0.407874 10.9833 0.70437 10.4986 1.57533C9.23877 3.8389 10.1273 5.38917 10.5543 6.13418C10.597 6.20854 10.6495 6.30024 10.6878 6.37316C10.0443 7.20513 10.1351 8.44852 10.9969 9.07877C11.3048 9.30728 11.6591 9.41711 12.0104 9.41711C12.557 9.41711 13.0955 9.15087 13.4367 8.65159L13.4367 8.65156ZM19.0079 9.41708C18.6566 9.41708 18.3023 9.30725 17.9944 9.07875C17.1326 8.4484 17.0418 7.2052 17.6853 6.37313C17.6469 6.30022 17.5944 6.20852 17.5518 6.13415C17.1247 5.38914 16.2363 3.83888 17.496 1.57531C17.9808 0.704347 19.0512 0.40785 19.887 0.91297C20.7227 1.41809 21.0073 2.53352 20.5226 3.40439C20.3483 3.71766 20.3429 3.85145 20.3429 3.85271C20.3556 3.91588 20.4759 4.12569 20.5555 4.26469C20.9815 5.00778 21.8678 6.55422 20.4342 8.65154C20.0929 9.15083 19.5543 9.41706 19.0078 9.41706L19.0079 9.41708ZM7.05871 41.8644C7.05871 40.8577 6.27553 40.0416 5.30934 40.0416C2.98882 40.1375 2.98952 43.5917 5.30934 43.6873C6.27553 43.6873 7.05871 42.8711 7.05871 41.8644ZM37.2028 20.3508C36.7021 22.2101 35.8143 24.121 34.564 26.0303C34.0192 26.8618 32.931 27.0758 32.1329 26.5085C31.3349 25.941 31.1294 24.8069 31.674 23.9753C32.7097 22.3938 33.4365 20.843 33.8343 19.3659C33.9939 18.7725 33.8813 18.1514 33.5251 17.6618C33.1688 17.172 32.624 16.891 32.0307 16.891H6.04269C5.44932 16.891 4.90458 17.172 4.54821 17.6618C4.19203 18.1514 4.07938 18.7726 4.23909 19.3659C5.0416 22.3457 6.69798 25.0487 8.95273 27.089L9.98556 24.4881C10.355 23.5579 11.3776 23.1156 12.2709 23.5008C13.1636 23.8858 13.5879 24.9519 13.2184 25.8822L8.57051 37.5869C12.4139 40.776 10.28 47.3071 5.30428 47.3331C-1.62973 47.0372 -1.66916 36.7547 5.25687 36.3961L7.55658 30.6048C4.33093 28.0316 1.96111 24.4003 0.870646 20.351C0.41238 18.6494 0.736643 16.8665 1.76011 15.4595C2.78375 14.0524 4.3447 13.2453 6.04278 13.2453H32.0307C35.5189 13.1747 38.2095 16.8711 37.2028 20.3508ZM36.3095 44.7954C36.688 45.7216 36.2746 46.7924 35.3856 47.1869C34.5186 47.5783 33.4695 47.1601 33.0906 46.2243L27.5091 32.5718C23.8588 34.6195 18.468 35.1841 15.0764 34.1415C12.867 33.4024 13.7512 30.0781 16.0091 30.6276C18.8018 31.4655 23.2198 30.9038 26.1345 29.2094L24.7811 25.8991C24.4026 24.973 24.816 23.9022 25.705 23.5076C26.5939 23.1133 27.6214 23.544 28 24.4703L36.3095 44.7954Z" fill="#7AA62C"/>
</svg>
