<svg width="80" height="80" viewBox="0 0 80 80" fill="none" xmlns="http://www.w3.org/2000/svg">
<path d="M23.6959 10.832C11.8185 10.832 2.18652 20.4587 2.18652 32.3414H45.2052C45.2052 20.464 35.5732 10.832 23.6959 10.832Z" fill="#7AA62C"/>
<path fill-rule="evenodd" clip-rule="evenodd" d="M38.5865 60.5227H67.377L77.7763 70.9164L75.5141 73.1797L66.052 63.7227H38.5865V60.5227Z" fill="white"/>
<path fill-rule="evenodd" clip-rule="evenodd" d="M37.4549 63.2538L27.5295 53.3231L29.7929 51.061L39.7182 60.9916L37.4549 63.2538Z" fill="white"/>
<path fill-rule="evenodd" clip-rule="evenodd" d="M27.5298 70.9167L37.4552 60.9913L39.7179 63.2541L29.7926 73.1794L27.5298 70.9167Z" fill="white"/>
<path fill-rule="evenodd" clip-rule="evenodd" d="M47.8545 57.104H31.9679V53.904H49.18L56.2672 60.9913L54.0045 63.2541L47.8545 57.104Z" fill="white"/>
<path fill-rule="evenodd" clip-rule="evenodd" d="M79.9519 73.648H0.533203V70.448H79.9519V73.648Z" fill="white"/>
<path fill-rule="evenodd" clip-rule="evenodd" d="M23.6959 12.432C12.7019 12.432 3.78654 21.3426 3.78654 32.3414H0.586536C0.586536 19.5748 10.9351 9.23203 23.6959 9.23203C36.4569 9.23203 46.8052 19.5804 46.8052 32.3414H43.6052C43.6052 21.3477 34.6896 12.432 23.6959 12.432Z" fill="white"/>
<path fill-rule="evenodd" clip-rule="evenodd" d="M22.0959 72.048V5.8667H25.2959V72.048H22.0959Z" fill="white"/>
<path fill-rule="evenodd" clip-rule="evenodd" d="M16.9199 17.8914C14.9717 21.5085 13.7172 26.6147 13.7172 32.3414H10.5172C10.5172 26.1907 11.8574 20.5423 14.1025 16.374C16.3124 12.2711 19.6331 9.23203 23.7012 9.23203C27.7693 9.23203 31.09 12.2711 33.2999 16.374C35.545 20.5423 36.8852 26.1907 36.8852 32.3414H33.6852C33.6852 26.6147 32.4307 21.5085 30.4825 17.8914C28.4991 14.209 26.0278 12.432 23.7012 12.432C21.3746 12.432 18.9033 14.209 16.9199 17.8914Z" fill="white"/>
</svg>
