<svg width="57" height="56" viewBox="0 0 57 56" fill="none" xmlns="http://www.w3.org/2000/svg">
<path d="M19.8751 37.9517C19.4966 37.7004 19.0368 37.6021 18.5886 37.6766C18.1403 37.7511 17.7371 37.9928 17.4601 38.3531C16.7742 39.2815 15.8805 40.0366 14.8506 40.558C13.8207 41.0794 12.6832 41.3527 11.5288 41.3561C10.6086 41.3561 9.69748 41.1748 8.84735 40.8227C7.99722 40.4706 7.22477 39.9544 6.57411 39.3038C5.92345 38.6531 5.40732 37.8807 5.05519 37.0305C4.70305 36.1804 4.52181 35.2692 4.52181 34.3491C4.52181 33.4289 4.70305 32.5177 5.05519 31.6676C5.40732 30.8175 5.92345 30.045 6.57411 29.3944C7.22477 28.7437 7.99722 28.2276 8.84735 27.8754C9.69748 27.5233 10.6086 27.3421 11.5288 27.3421C12.8872 27.3558 14.2184 27.7241 15.3905 28.4107C15.7733 28.6471 16.2337 28.7235 16.6723 28.6235C17.111 28.5236 17.4928 28.2553 17.7355 27.8764C17.8554 27.6934 17.9365 27.4878 17.9738 27.2722C18.011 27.0566 18.0036 26.8356 17.952 26.623C17.9004 26.4104 17.8056 26.2106 17.6737 26.0361C17.5417 25.8616 17.3753 25.716 17.1848 25.6084C15.4653 24.5455 13.4802 23.9906 11.4588 24.0077C10.0684 23.9566 8.68203 24.1862 7.38244 24.683C6.08284 25.1798 4.89673 25.9335 3.895 26.899C2.89328 27.8646 2.09649 29.0222 1.55226 30.3026C1.00804 31.5831 0.727539 32.9601 0.727539 34.3514C0.727539 35.7427 1.00804 37.1197 1.55226 38.4002C2.09649 39.6806 2.89328 40.8382 3.895 41.8038C4.89673 42.7693 6.08284 43.523 7.38244 44.0198C8.68203 44.5166 10.0684 44.7462 11.4588 44.6951C13.161 44.6933 14.8393 44.2941 16.3599 43.5293C17.8806 42.7645 19.2018 41.6552 20.2181 40.2897C20.3598 40.118 20.4638 39.9184 20.5236 39.704C20.5834 39.4895 20.5976 39.2649 20.5653 39.0447C20.533 38.8244 20.4549 38.6133 20.336 38.4251C20.2171 38.2368 20.0601 38.0756 19.8751 37.9517Z" fill="#7AA62C"/>
<path d="M47.6732 33.8145L45.2582 26.4062C45.1323 26.0667 44.9181 25.7671 44.6376 25.5382L43.1886 21.2005C43.0719 20.859 42.826 20.5768 42.5036 20.4145C42.1812 20.2522 41.8081 20.2228 41.4642 20.3325C41.3614 20.3488 41.2656 20.3951 41.1889 20.4655L39.9476 15.1945L42.9809 14.2612C43.1522 14.2108 43.3117 14.1265 43.4499 14.0134C43.588 13.9002 43.7021 13.7605 43.7853 13.6024C43.8684 13.4444 43.9191 13.2713 43.9341 13.0933C43.9492 12.9154 43.9284 12.7362 43.8729 12.5664C43.8175 12.3967 43.7285 12.2398 43.6114 12.105C43.4942 11.9702 43.3511 11.8604 43.1907 11.7819C43.0303 11.7034 42.8557 11.6579 42.6774 11.6481C42.4991 11.6383 42.3206 11.6644 42.1526 11.7249L37.9526 13.0595C37.7912 13.0985 37.6393 13.1696 37.5061 13.2687C37.3728 13.3678 37.261 13.4928 37.1773 13.6362C37.0936 13.7796 37.0398 13.9385 37.019 14.1032C36.9983 14.2679 37.0111 14.4352 37.0566 14.5949L37.6772 17.3319L22.2959 21.4689L20.2262 15.1969L22.2959 14.9962C22.4704 14.9889 22.6416 14.9465 22.7994 14.8715C22.9571 14.7966 23.0981 14.6906 23.214 14.5599C23.3299 14.4292 23.4182 14.2765 23.4737 14.111C23.5293 13.9454 23.5509 13.7703 23.5372 13.5962C23.5156 13.2477 23.36 12.9212 23.1029 12.685C22.8458 12.4488 22.5073 12.3213 22.1582 12.3292H14.2949C14.033 12.3295 13.7767 12.4051 13.5566 12.547C13.3365 12.6889 13.1619 12.8911 13.0536 13.1295C12.9614 13.376 12.9383 13.643 12.9868 13.9017C13.0354 14.1604 13.1536 14.4009 13.3289 14.5972L14.0289 15.2645C14.286 15.5196 14.6328 15.6636 14.9949 15.6659H15.1326L17.4099 15.4652L21.4699 28.0069L10.7786 33.2125C10.5152 33.3479 10.3006 33.562 10.1647 33.8251C10.0288 34.0882 9.97826 34.3871 10.0202 34.6802C10.0854 34.9678 10.2412 35.2268 10.4647 35.4192C10.6881 35.6116 10.9675 35.7272 11.2616 35.7489L25.2616 37.0835H25.7446C25.8146 37.0835 25.8822 37.0159 25.9522 37.0159C25.9613 37.0162 25.9704 37.0147 25.9788 37.0114C25.9873 37.0081 25.9951 37.0032 26.0016 36.9969C26.0081 36.9906 26.0133 36.983 26.0169 36.9746C26.0204 36.9663 26.0222 36.9573 26.0222 36.9482C26.0744 36.9418 26.1229 36.9179 26.1599 36.8805L26.2299 36.8129C26.2999 36.8129 26.2999 36.7452 26.3676 36.7452L40.8366 22.8035L42.0779 26.5369C41.9393 26.8796 41.9393 27.2628 42.0779 27.6055L44.4999 35.0139C44.6103 35.3599 44.8329 35.6593 45.1325 35.8647C45.4321 36.0701 45.7916 36.1697 46.1542 36.1479C46.3402 36.1544 46.526 36.1316 46.7049 36.0802C47.1008 35.8699 47.4128 35.5305 47.589 35.1183C47.7651 34.7061 47.7949 34.246 47.6732 33.8145ZM16.2199 33.4809L22.2866 30.5455L22.7696 32.0809L23.3902 34.1505L16.2199 33.4809ZM25.1869 26.1402L23.9456 26.8075L23.0496 24.0705L24.4286 23.7369V23.8699L25.1869 26.1379M27.3242 23.6692C26.3853 23.6589 25.4592 23.8886 24.6339 24.3365C25.4564 23.8814 26.3844 23.6512 27.3242 23.6692L27.1166 23.0019V22.9342L38.2209 19.9312L38.5662 21.1329L26.0129 33.1449L25.4622 31.2782L24.8416 29.3439L27.5319 28.0092C27.7275 27.9129 27.8979 27.7723 28.0296 27.5985C28.1613 27.4247 28.2505 27.2226 28.2902 27.0082V26.5415" fill="#7AA62C"/>
<path d="M49.0524 24.4037C48.6186 24.2817 48.1546 24.3315 47.7565 24.5426C47.3585 24.7538 47.0572 25.1102 46.915 25.5377C46.8554 25.7502 46.8383 25.9724 46.8647 26.1915C46.8911 26.4106 46.9605 26.6224 47.0689 26.8146C47.1773 27.0069 47.3225 27.1759 47.4963 27.3119C47.6701 27.448 47.869 27.5484 48.0817 27.6074C49.7049 28.0353 51.1203 29.0322 52.0699 30.4165C53.0195 31.8009 53.44 33.4803 53.2547 35.1487C52.9944 37.0312 51.9991 38.7339 50.4865 39.8844C48.974 41.0349 47.0673 41.5395 45.1837 41.2877C44.2463 41.1975 43.3363 40.9208 42.5073 40.474C41.6783 40.0273 40.9469 39.4194 40.356 38.6861C39.7755 37.9737 39.3424 37.153 39.0821 36.2717C38.8217 35.3905 38.7392 34.4662 38.8394 33.5527C38.9891 32.2183 39.5426 30.9614 40.426 29.9501C40.5706 29.7829 40.6788 29.5874 40.7436 29.3761C40.8085 29.1647 40.8286 28.9422 40.8027 28.7227C40.7768 28.5032 40.7054 28.2915 40.5932 28.101C40.4809 27.9106 40.3302 27.7457 40.1507 27.6167C39.9747 27.4755 39.7726 27.3704 39.5559 27.3074C39.3393 27.2443 39.1123 27.2246 38.8881 27.2493C38.6638 27.274 38.4466 27.3426 38.2488 27.4513C38.0511 27.56 37.8767 27.7066 37.7357 27.8827C36.232 29.7015 35.4035 31.9843 35.3908 34.3441C35.378 36.7039 36.1817 38.9955 37.6657 40.8304C39.4655 43.0004 42.0366 44.388 44.8384 44.7014C45.2497 44.7571 45.6648 44.7798 46.0797 44.7691C48.6238 44.854 51.11 43.9983 53.0628 42.3655C55.0157 40.7327 56.2982 38.4375 56.6653 35.9186C57.0323 33.3996 56.458 30.8338 55.0523 28.7117C53.6465 26.5895 51.5079 25.0599 49.0454 24.4154L49.0524 24.4037Z" fill="#7AA62C"/>
</svg>
