<svg width="427" height="466" viewBox="0 0 427 466" fill="none" xmlns="http://www.w3.org/2000/svg">
<path d="M497.86 30.924C497.494 30.6766 497.117 30.4188 496.751 30.1713C491.389 26.6966 485.909 24.1188 480.451 22.4691C481.689 17.1177 482.098 11.292 481.635 5.1054C481.603 4.67234 481.549 4.23928 481.516 3.80622C481.926 3.62062 482.346 3.44533 482.755 3.25974C484.822 2.30082 486.781 1.26972 488.655 0.176758H485.737C484.563 0.805727 483.368 1.41407 482.119 1.99149C481.883 2.10491 481.624 2.20802 481.387 2.31113C481.312 1.59967 481.204 0.888214 481.107 0.176758H479.622C479.751 1.10474 479.869 2.02242 479.966 2.9401C465.851 9.00294 447.721 12.0962 426.005 12.1375C423.443 7.89967 420.816 3.91964 418.146 0.176758H416.369C419.211 4.11555 422.011 8.34304 424.735 12.8489C413.936 30.8519 407.616 47.4628 405.926 62.2694C405.678 62.156 405.431 62.0528 405.194 61.9497C399.531 59.3204 394.621 56.1653 390.508 52.5874C395.084 48.3496 398.583 43.5447 400.876 38.2964C406.184 26.1398 404.86 12.4262 397.711 0.176758H396.01C403.299 12.22 404.742 25.7789 399.52 37.7499C397.302 42.8332 393.889 47.4938 389.432 51.6181C384.974 47.4938 381.561 42.8332 379.344 37.7499C374.122 25.7789 375.565 12.22 382.853 0.176758H381.152C374.003 12.4262 372.679 26.1398 377.987 38.2964C380.28 43.5447 383.779 48.3496 388.355 52.5874C384.253 56.1653 379.333 59.3204 373.67 61.9497C373.433 62.0632 373.174 62.1663 372.938 62.2694C371.258 47.4525 364.938 30.8519 354.129 12.8489C356.863 8.34304 359.652 4.11555 362.494 0.176758H360.718C358.048 3.91964 355.421 7.89967 352.858 12.1375C331.142 12.0962 313.012 9.00294 298.897 2.9401C298.994 2.02242 299.113 1.10474 299.242 0.176758H297.756C297.659 0.888214 297.551 1.60998 297.476 2.31113C297.239 2.19771 296.981 2.0946 296.744 1.99149C295.495 1.41407 294.3 0.805727 293.126 0.176758H290.209C292.082 1.26972 294.042 2.30082 296.109 3.25974C296.507 3.44533 296.938 3.62062 297.347 3.80622C297.304 4.23928 297.25 4.67234 297.218 5.1054C296.755 11.292 297.164 17.1177 298.402 22.4691C292.943 24.1188 287.463 26.6966 282.102 30.1713C281.736 30.4085 281.359 30.6766 280.993 30.924C280.627 30.6766 280.25 30.4188 279.884 30.1713C274.522 26.6966 269.053 24.1188 263.583 22.4691C264.822 17.1177 265.231 11.292 264.768 5.1054C264.736 4.67234 264.682 4.23928 264.639 3.80622C265.048 3.62062 265.468 3.44533 265.877 3.25974C267.944 2.30082 269.903 1.26972 271.777 0.176758H268.859C267.685 0.805727 266.49 1.41407 265.242 1.99149C265.005 2.10491 264.746 2.20802 264.509 2.31113C264.434 1.59967 264.326 0.888214 264.229 0.176758H262.744C262.873 1.10474 262.991 2.02242 263.088 2.9401C248.974 9.00294 230.843 12.0962 209.127 12.1375C206.565 7.89967 203.938 3.91964 201.268 0.176758H199.491C202.334 4.11555 205.133 8.34304 207.857 12.8489C197.058 30.8519 190.738 47.4628 189.048 62.2694C188.811 62.156 188.553 62.0528 188.316 61.9497C182.653 59.3204 177.743 56.1653 173.63 52.5874C178.206 48.3496 181.705 43.5447 183.998 38.2964C189.296 26.1398 187.982 12.4262 180.833 0.176758H179.132C186.421 12.22 187.864 25.7789 182.642 37.7499C180.424 42.8332 177.011 47.4938 172.554 51.6181C168.097 47.4938 164.684 42.8332 162.466 37.7499C157.244 25.7789 158.687 12.22 165.976 0.176758H164.274C157.126 12.4262 155.801 26.1398 161.109 38.2964C163.402 43.5447 166.901 48.3496 171.477 52.5874C167.375 56.1653 162.455 59.3204 156.792 61.9497C156.555 62.0632 156.297 62.1663 156.06 62.2694C154.38 47.4525 148.06 30.8519 137.251 12.8489C139.986 8.34304 142.774 4.11555 145.616 0.176758H143.84C141.17 3.91964 138.543 7.89967 135.98 12.1375C114.265 12.0962 96.1341 9.00294 82.0193 2.9401C82.1162 2.02242 82.2346 1.10474 82.3638 0.176758H80.8781C80.7812 0.888214 80.6735 1.60998 80.5982 2.31113C80.3613 2.19771 80.1029 2.0946 79.8661 1.99149C78.6172 1.41407 77.4221 0.805727 76.2486 0.176758H73.3309C75.2042 1.26972 77.1637 2.30082 79.2309 3.25974C79.6292 3.44533 80.0491 3.62062 80.469 3.80622C80.4259 4.23928 80.3721 4.67234 80.3398 5.1054C79.8768 11.292 80.2859 17.1177 81.5241 22.4691C76.0655 24.1188 70.5854 26.6966 65.2238 30.1713C64.8577 30.4085 64.4809 30.6766 64.1149 30.924C63.7488 30.6766 63.372 30.4188 63.0059 30.1713C57.6443 26.6966 52.1749 24.1188 46.7056 22.4691C47.9438 17.1177 48.3529 11.292 47.8899 5.1054C47.8576 4.67234 47.8038 4.23928 47.7607 3.80622C48.1698 3.62062 48.5897 3.44533 48.9989 3.25974C51.066 2.30082 53.0255 1.26972 54.8988 0.176758H51.9811C50.8076 0.805727 49.6125 1.41407 48.3636 1.99149C48.1268 2.10491 47.8684 2.20802 47.6315 2.31113C47.5562 1.59967 47.4485 0.888214 47.3516 0.176758H45.8658C45.995 1.10474 46.1135 2.02242 46.2104 2.9401C32.0956 9.00294 13.9651 12.0962 -7.75072 12.1375C-10.3131 7.89967 -12.9401 3.91964 -15.6102 0.176758H-17.3866C-14.5443 4.11555 -11.745 8.34304 -9.02113 12.8489C-19.8198 30.8519 -26.1397 47.4628 -27.83 62.2694C-28.0669 62.156 -28.3253 62.0528 -28.5621 61.9497C-34.2252 59.3204 -39.1347 56.1653 -43.2475 52.5874C-38.6718 48.3496 -35.1727 43.5447 -32.8794 38.2964C-27.5824 26.1398 -28.8959 12.4262 -36.0448 0.176758H-37.7458C-30.457 12.22 -29.0143 25.7789 -34.236 37.7499C-36.4539 42.8332 -39.8668 47.4938 -44.3241 51.6181C-48.7814 47.4938 -52.1943 42.8332 -54.4122 37.7499C-59.6339 25.7789 -58.1912 12.22 -50.9024 0.176758H-52.6034C-59.7523 12.4262 -61.0766 26.1398 -55.7688 38.2964C-53.4755 43.5447 -49.9764 48.3496 -45.4007 52.5874C-49.5027 56.1653 -54.423 59.3204 -60.0861 61.9497C-60.3229 62.0632 -60.5813 62.1663 -60.8182 62.2694C-62.4977 47.4525 -68.8176 30.8519 -79.627 12.8489C-76.8924 8.34304 -74.1039 4.11555 -71.2616 0.176758H-73.038C-75.7081 3.91964 -78.3351 7.89967 -80.8975 12.1375C-102.613 12.0962 -120.744 9.00294 -134.859 2.9401C-134.762 2.02242 -134.643 1.10474 -134.514 0.176758H-136C-136.097 0.888214 -136.204 1.60998 -136.28 2.31113C-136.517 2.19771 -136.775 2.0946 -137.012 1.99149C-138.261 1.41407 -139.456 0.805727 -140.629 0.176758H-143.547C-141.674 1.26972 -139.714 2.30082 -137.647 3.25974C-137.249 3.44533 -136.829 3.62062 -136.409 3.80622C-136.452 4.23928 -136.506 4.67234 -136.538 5.1054C-137.001 11.292 -136.592 17.1177 -135.354 22.4691C-140.812 24.1188 -146.292 26.6966 -151.654 30.1713C-152.02 30.4085 -152.397 30.6766 -152.763 30.924C-153.129 30.6766 -153.506 30.4188 -153.872 30.1713C-159.158 26.7378 -164.563 24.191 -169.946 22.5412V24.026C-164.843 25.6448 -159.729 28.0782 -154.701 31.3365C-154.475 31.4808 -154.26 31.6355 -154.044 31.7799C-159.481 35.5949 -164.789 40.307 -169.946 45.8853V48.0196C-164.391 41.8537 -158.652 36.7188 -152.763 32.646C-140.22 41.3278 -128.356 54.8145 -117.471 72.8072C-128.27 90.8101 -134.589 107.421 -136.28 122.228C-136.517 122.114 -136.775 122.011 -137.012 121.908C-142.675 119.279 -147.584 116.124 -151.697 112.546C-147.121 108.308 -143.622 103.503 -141.329 98.2546C-134.557 82.7263 -138.584 64.6512 -151.783 50.3499C-152.106 49.9993 -152.44 49.6384 -152.774 49.2982C-153.108 49.6488 -153.441 49.9993 -153.764 50.3499C-166.975 64.6409 -171.001 82.7263 -164.229 98.2546C-161.936 103.503 -158.437 108.308 -153.861 112.546C-157.963 116.124 -162.883 119.279 -168.547 121.908C-168.783 122.021 -169.042 122.125 -169.279 122.228C-169.451 120.681 -169.688 119.114 -169.968 117.526V141.313C-168.913 136.251 -168.579 130.796 -169.009 125.022C-169.042 124.589 -169.096 124.156 -169.139 123.723C-168.73 123.537 -168.31 123.362 -167.901 123.176C-162.076 120.464 -157.005 117.216 -152.785 113.515C-148.564 117.216 -143.493 120.475 -137.669 123.176C-137.27 123.362 -136.85 123.537 -136.43 123.723C-136.474 124.156 -136.527 124.589 -136.56 125.022C-137.023 131.208 -136.613 137.034 -135.375 142.386C-140.834 144.035 -146.314 146.613 -151.676 150.088C-152.042 150.325 -152.419 150.593 -152.785 150.841C-153.151 150.593 -153.527 150.335 -153.894 150.088C-159.18 146.654 -164.585 144.107 -169.968 142.458V143.942C-164.864 145.561 -159.75 147.995 -154.723 151.253C-154.496 151.397 -154.281 151.552 -154.066 151.696C-159.503 155.511 -164.811 160.224 -169.968 165.802V167.936C-164.412 161.77 -158.674 156.635 -152.785 152.562C-140.242 161.244 -128.377 174.731 -117.492 192.724C-128.291 210.727 -134.611 227.338 -136.301 242.144C-136.538 242.031 -136.796 241.928 -137.033 241.824C-142.696 239.195 -147.606 236.04 -151.719 232.462C-147.143 228.224 -143.644 223.419 -141.351 218.171C-134.579 202.643 -138.605 184.568 -151.805 170.266C-152.128 169.916 -152.462 169.555 -152.795 169.215C-153.129 169.565 -153.463 169.916 -153.786 170.266C-166.985 184.568 -171.012 202.643 -164.24 218.171C-161.947 223.419 -158.448 228.224 -153.872 232.462C-157.974 236.04 -162.894 239.195 -168.557 241.824C-168.794 241.938 -169.053 242.041 -169.289 242.144C-169.462 240.597 -169.699 239.03 -169.978 237.442V261.23C-168.923 256.167 -168.59 250.713 -169.02 244.938C-169.053 244.505 -169.106 244.072 -169.149 243.639C-168.74 243.454 -168.32 243.278 -167.911 243.093C-162.087 240.381 -157.016 237.133 -152.795 233.431C-148.575 237.133 -143.504 240.391 -137.679 243.093C-137.281 243.278 -136.861 243.454 -136.441 243.639C-136.484 244.072 -136.538 244.505 -136.57 244.938C-137.033 251.125 -136.624 256.951 -135.386 262.302C-140.845 263.952 -146.325 266.53 -151.686 270.004C-152.052 270.241 -152.429 270.51 -152.795 270.757C-153.161 270.51 -153.538 270.252 -153.904 270.004C-159.191 266.571 -164.595 264.024 -169.978 262.374V263.859C-164.875 265.478 -159.761 267.911 -154.733 271.169C-154.507 271.314 -154.292 271.468 -154.077 271.613C-159.514 275.428 -164.821 280.14 -169.978 285.718V287.853C-164.423 281.687 -158.685 276.552 -152.795 272.479C-140.253 281.161 -128.388 294.648 -117.503 312.64C-128.302 330.643 -134.622 347.254 -136.312 362.061C-136.549 361.947 -136.807 361.844 -137.044 361.741C-142.707 359.112 -147.617 355.956 -151.729 352.379C-147.154 348.141 -143.655 343.336 -141.361 338.088C-134.589 322.559 -138.616 304.484 -151.816 290.183C-152.139 289.832 -152.472 289.471 -152.806 289.131C-153.14 289.482 -153.474 289.832 -153.797 290.183C-166.996 304.484 -171.023 322.559 -164.251 338.088C-161.958 343.336 -158.458 348.141 -153.883 352.379C-157.985 355.956 -162.905 359.112 -168.568 361.741C-168.805 361.854 -169.063 361.957 -169.3 362.061C-169.472 360.514 -169.709 358.947 -169.989 357.359V381.146C-168.934 376.084 -168.6 370.629 -169.031 364.855C-169.063 364.422 -169.117 363.989 -169.16 363.556C-168.751 363.37 -168.331 363.195 -167.922 363.009C-162.097 360.297 -157.027 357.049 -152.806 353.348C-148.586 357.049 -143.515 360.308 -137.69 363.009C-137.292 363.195 -136.872 363.37 -136.452 363.556C-136.495 363.989 -136.549 364.422 -136.581 364.855C-137.044 371.041 -136.635 376.867 -135.397 382.219C-140.855 383.868 -146.336 386.446 -151.697 389.921C-152.063 390.158 -152.44 390.426 -152.806 390.674C-153.172 390.426 -153.549 390.168 -153.915 389.921C-159.201 386.487 -164.606 383.94 -169.989 382.291V383.775C-164.886 385.394 -159.772 387.828 -154.744 391.086C-154.518 391.23 -154.303 391.385 -154.087 391.529C-159.524 395.344 -164.832 400.057 -169.989 405.635V407.769C-164.434 401.603 -158.695 396.468 -152.806 392.395C-140.263 401.077 -128.399 414.564 -117.514 432.557C-128.313 450.56 -134.632 467.171 -136.323 481.977C-136.56 481.864 -136.818 481.761 -137.055 481.657C-142.718 479.028 -147.627 475.873 -151.74 472.295C-147.165 468.057 -143.665 463.252 -141.372 458.004C-134.6 442.476 -138.627 424.401 -151.826 410.099C-152.149 409.749 -152.483 409.388 -152.817 409.048C-153.151 409.398 -153.484 409.749 -153.807 410.099C-167.007 424.401 -171.034 442.476 -164.262 458.004C-161.968 463.252 -158.469 468.057 -153.894 472.295C-157.995 475.873 -162.916 479.028 -168.579 481.657C-168.816 481.771 -169.074 481.874 -169.311 481.977C-169.483 480.43 -169.72 478.863 -170 477.275V501.063C-168.945 496 -168.611 490.546 -169.042 484.771C-169.074 484.338 -169.128 483.905 -169.171 483.472C-168.762 483.287 -168.342 483.111 -167.933 482.926C-162.108 480.214 -157.037 476.966 -152.817 473.264C-148.596 476.966 -143.525 480.224 -137.701 482.926C-137.303 483.111 -136.883 483.287 -136.463 483.472C-136.506 483.905 -136.56 484.338 -136.592 484.771C-137.055 490.958 -136.646 496.784 -135.408 502.135C-138.045 502.929 -140.683 503.95 -143.321 505.177H-139.746C-138.185 504.548 -136.624 503.991 -135.074 503.517C-134.923 504.084 -134.762 504.63 -134.6 505.177H-133.071C-133.287 504.496 -133.48 503.805 -133.663 503.104C-127.71 501.465 -121.788 500.97 -116.082 501.671C-111.743 502.207 -107.609 503.403 -103.744 505.177H-100.546C-105.251 502.63 -110.419 500.949 -115.888 500.269C-121.777 499.547 -127.871 500.052 -133.997 501.723C-135.182 496.526 -135.58 490.875 -135.128 484.864C-135.106 484.606 -135.074 484.349 -135.052 484.091C-120.819 490.102 -102.646 493.164 -80.9621 493.206C-78.5181 497.268 -76.3218 501.259 -74.3515 505.177H-72.715C-74.7822 501.042 -77.0969 496.825 -79.6809 492.515C-68.7853 474.522 -56.9208 461.036 -44.3887 452.354C-31.8459 461.036 -19.9813 474.522 -9.09651 492.515C-11.6804 496.815 -13.9952 501.042 -16.0624 505.177H-14.4259C-12.4449 501.259 -10.2485 497.279 -7.81531 493.206C13.8682 493.164 32.0418 490.102 46.275 484.091C46.2965 484.349 46.3288 484.606 46.3503 484.864C46.8025 490.875 46.4149 496.526 45.2198 501.723C39.0938 500.052 33 499.547 27.1108 500.269C21.6415 500.939 16.4844 502.62 11.7687 505.177H14.9664C18.8315 503.403 22.9658 502.207 27.3046 501.671C33.0108 500.97 38.9323 501.465 44.8861 503.104C44.7031 503.805 44.5093 504.496 44.2939 505.177H45.8228C45.9843 504.63 46.1565 504.073 46.2965 503.517C47.8576 503.991 49.4187 504.548 50.9691 505.177H54.5435C51.9165 503.95 49.268 502.929 46.6302 502.135C47.8684 496.784 48.2775 490.958 47.8146 484.771C47.7823 484.338 47.7284 483.905 47.6854 483.472C48.0945 483.287 48.5144 483.111 48.9235 482.926C54.7481 480.214 59.8191 476.966 64.0395 473.264C68.2599 476.966 73.3309 480.224 79.1555 482.926C79.5538 483.111 79.9737 483.287 80.3936 483.472C80.3505 483.905 80.2967 484.338 80.2644 484.771C79.8015 490.958 80.2106 496.784 81.4487 502.135C78.811 502.929 76.1732 503.95 73.5354 505.177H77.1099C78.671 504.548 80.2321 503.991 81.7825 503.517C81.9332 504.084 82.0947 504.63 82.2562 505.177H83.785C83.5697 504.496 83.3759 503.805 83.1929 503.104C89.1467 501.465 95.0682 500.97 100.774 501.671C105.113 502.207 109.247 503.403 113.113 505.177H116.31C111.605 502.63 106.437 500.949 100.968 500.269C95.0789 499.547 88.9852 500.052 82.8591 501.723C81.6748 496.526 81.2765 490.875 81.7286 484.864C81.7502 484.606 81.7825 484.349 81.804 484.091C96.0372 490.102 114.222 493.164 135.894 493.206C138.338 497.268 140.535 501.259 142.505 505.177H144.141C142.074 501.042 139.759 496.825 137.175 492.515C148.071 474.522 159.936 461.036 172.468 452.354C185.01 461.036 196.875 474.522 207.76 492.515C205.176 496.815 202.861 501.042 200.794 505.177H202.431C204.412 501.259 206.608 497.279 209.041 493.206C230.725 493.164 248.898 490.102 263.131 484.091C263.153 484.349 263.185 484.606 263.207 484.864C263.659 490.875 263.271 496.526 262.076 501.723C255.95 500.052 249.856 499.547 243.967 500.269C238.498 500.939 233.341 502.62 228.625 505.177H231.823C235.688 503.403 239.822 502.207 244.161 501.671C249.867 500.97 255.789 501.465 261.742 503.104C261.559 503.805 261.366 504.496 261.15 505.177H262.679C262.841 504.63 263.013 504.073 263.153 503.517C264.714 503.991 266.275 504.548 267.825 505.177H271.4C268.773 503.95 266.124 502.929 263.487 502.135C264.725 496.784 265.134 490.958 264.671 484.771C264.639 484.338 264.585 483.905 264.542 483.472C264.951 483.287 265.371 483.111 265.78 482.926C271.604 480.214 276.675 476.966 280.896 473.264C285.116 476.966 290.187 480.224 296.012 482.926C296.41 483.111 296.841 483.287 297.25 483.472C297.207 483.905 297.153 484.338 297.121 484.771C296.658 490.958 297.067 496.784 298.305 502.135C295.667 502.929 293.03 503.95 290.392 505.177H293.966C295.527 504.548 297.088 503.991 298.639 503.517C298.79 504.084 298.951 504.63 299.113 505.177H300.641C300.426 504.496 300.232 503.805 300.049 503.104C306.003 501.465 311.925 500.97 317.631 501.671C321.97 502.207 326.104 503.403 329.969 505.177H333.167C328.462 502.63 323.294 500.949 317.825 500.269C311.935 499.547 305.842 500.052 299.715 501.723C298.531 496.526 298.133 490.875 298.585 484.864C298.607 484.606 298.639 484.349 298.66 484.091C312.893 490.102 331.078 493.164 352.751 493.206C355.195 497.268 357.391 501.259 359.361 505.177H360.998C358.931 501.042 356.616 496.825 354.032 492.515C364.927 474.522 376.792 461.036 389.324 452.354C401.867 461.036 413.731 474.522 424.616 492.515C422.032 496.815 419.718 501.042 417.65 505.177H419.287C421.268 501.259 423.464 497.279 425.897 493.206C447.581 493.164 465.755 490.102 479.988 484.091C480.009 484.349 480.042 484.606 480.063 484.864C480.515 490.875 480.128 496.526 478.933 501.723C472.807 500.052 466.713 499.547 460.824 500.269C455.354 500.939 450.186 502.62 445.482 505.177H448.679C452.544 503.403 456.679 502.207 461.017 501.671C466.724 500.97 472.645 501.465 478.61 503.104C478.427 503.805 478.233 504.496 478.017 505.177H479.546C479.708 504.63 479.88 504.073 480.02 503.517C481.581 503.991 483.131 504.548 484.693 505.177H488.267C485.64 503.95 482.992 502.929 480.354 502.135C481.592 496.784 482.001 490.958 481.538 484.771C481.506 484.338 481.452 483.905 481.42 483.472C481.829 483.287 482.249 483.111 482.658 482.926C488.482 480.214 493.553 476.966 497.774 473.264C501.994 476.966 507.065 480.224 512.89 482.926C513.288 483.111 513.708 483.287 514.128 483.472C514.085 483.905 514.042 484.338 514.009 484.771C513.579 490.546 513.913 496 514.968 501.063V477.286C514.688 478.874 514.451 480.441 514.279 481.987C514.031 481.874 513.783 481.771 513.546 481.668C507.883 479.038 502.963 475.883 498.861 472.305C503.437 468.068 506.936 463.263 509.229 458.014C516.001 442.486 511.975 424.411 498.775 410.11C498.452 409.759 498.118 409.398 497.784 409.058C497.451 409.409 497.117 409.759 496.794 410.11C483.594 424.411 479.568 442.486 486.34 458.014C488.633 463.263 492.132 468.068 496.708 472.305C492.606 475.883 487.686 479.038 482.023 481.668C481.786 481.781 481.527 481.884 481.29 481.987C479.611 467.171 473.291 450.57 462.482 432.567C473.377 414.574 485.242 401.088 497.774 392.406C503.663 396.479 509.401 401.613 514.957 407.769V405.635C509.8 400.067 504.492 395.344 499.055 391.529C499.27 391.385 499.496 391.23 499.712 391.086C504.74 387.828 509.854 385.394 514.957 383.775V382.291C509.574 383.94 504.169 386.487 498.883 389.921C498.517 390.158 498.14 390.426 497.774 390.674C497.408 390.426 497.031 390.168 496.665 389.921C491.303 386.446 485.823 383.868 480.365 382.219C481.603 376.867 482.012 371.041 481.549 364.855C481.517 364.422 481.463 363.989 481.43 363.556C481.84 363.37 482.259 363.195 482.669 363.009C488.493 360.297 493.564 357.049 497.784 353.348C502.005 357.049 507.076 360.308 512.901 363.009C513.299 363.195 513.719 363.37 514.139 363.556C514.096 363.989 514.052 364.422 514.02 364.855C513.59 370.629 513.923 376.084 514.978 381.146V357.369C514.698 358.957 514.462 360.524 514.289 362.071C514.042 361.957 513.794 361.854 513.557 361.751C507.894 359.122 502.974 355.967 498.872 352.389C503.448 348.151 506.947 343.346 509.24 338.098C516.012 322.57 511.985 304.494 498.786 290.193C498.463 289.843 498.129 289.482 497.795 289.141C497.461 289.492 497.128 289.843 496.805 290.193C483.605 304.494 479.579 322.57 486.351 338.098C488.644 343.346 492.143 348.151 496.719 352.389C492.617 355.967 487.696 359.122 482.033 361.751C481.797 361.865 481.538 361.968 481.301 362.071C479.622 347.254 473.302 330.653 462.492 312.65C473.388 294.658 485.252 281.171 497.784 272.489C503.674 276.562 509.412 281.697 514.968 287.853V285.718C509.811 280.15 504.503 275.428 499.066 271.613C499.281 271.468 499.507 271.314 499.722 271.169C504.75 267.911 509.864 265.478 514.968 263.859V262.374C509.584 264.024 504.18 266.571 498.893 270.004C498.527 270.241 498.151 270.51 497.784 270.757C497.418 270.51 497.042 270.252 496.676 270.004C491.314 266.53 485.834 263.952 480.375 262.302C481.613 256.951 482.023 251.125 481.56 244.938C481.527 244.505 481.473 244.072 481.441 243.639C481.85 243.454 482.27 243.278 482.679 243.093C488.504 240.381 493.575 237.133 497.795 233.431C502.016 237.133 507.087 240.391 512.911 243.093C513.31 243.278 513.729 243.454 514.149 243.639C514.106 244.072 514.063 244.505 514.031 244.938C513.6 250.713 513.934 256.167 514.989 261.23V237.453C514.709 239.04 514.472 240.608 514.3 242.154C514.052 242.041 513.805 241.938 513.568 241.835C507.905 239.205 502.985 236.05 498.883 232.472C503.458 228.235 506.957 223.43 509.251 218.181C516.023 202.653 511.996 184.578 498.797 170.277C498.474 169.926 498.14 169.565 497.806 169.225C497.472 169.576 497.139 169.926 496.816 170.277C483.616 184.578 479.589 202.653 486.361 218.181C488.655 223.43 492.154 228.235 496.729 232.472C492.627 236.05 487.707 239.205 482.044 241.835C481.807 241.948 481.549 242.051 481.312 242.154C479.632 227.338 473.313 210.737 462.503 192.734C473.399 174.741 485.263 161.255 497.795 152.573C503.684 156.646 509.423 161.78 514.978 167.936V165.802C509.821 160.234 504.513 155.511 499.076 151.696C499.292 151.552 499.518 151.397 499.733 151.253C504.761 147.995 509.875 145.561 514.978 143.942V142.458C509.595 144.107 504.191 146.654 498.904 150.088C498.538 150.325 498.161 150.593 497.795 150.841C497.429 150.593 497.052 150.335 496.686 150.088C491.325 146.613 485.845 144.035 480.386 142.386C481.624 137.034 482.033 131.208 481.57 125.022C481.538 124.589 481.484 124.156 481.452 123.723C481.861 123.537 482.281 123.362 482.69 123.176C488.515 120.464 493.586 117.216 497.806 113.515C502.026 117.216 507.097 120.475 512.922 123.176C513.32 123.362 513.74 123.537 514.16 123.723C514.117 124.156 514.074 124.589 514.042 125.022C513.611 130.796 513.945 136.251 515 141.313V117.536C514.72 119.124 514.483 120.691 514.311 122.238C514.063 122.125 513.816 122.021 513.579 121.918C507.916 119.289 502.995 116.134 498.893 112.556C503.469 108.318 506.968 103.513 509.261 98.2649C516.034 82.7366 512.007 64.6615 498.807 50.3602C498.484 50.0096 498.151 49.6488 497.817 49.3085C497.483 49.6591 497.149 50.0096 496.826 50.3602C483.627 64.6615 479.6 82.7366 486.372 98.2649C488.665 103.513 492.164 108.318 496.74 112.556C492.638 116.134 487.718 119.289 482.055 121.918C481.818 122.032 481.56 122.135 481.323 122.238C479.643 107.421 473.323 90.8204 462.514 72.8175C473.409 54.8249 485.274 41.3381 497.806 32.6563C503.695 36.7291 509.434 41.864 514.989 48.0196V45.8853C509.832 40.3173 504.524 35.5949 499.087 31.7799C499.303 31.6355 499.529 31.4808 499.744 31.3365C504.772 28.0782 509.886 25.6448 514.989 24.026V22.5412C509.606 24.191 504.201 26.7378 498.915 30.1713C498.549 30.4085 498.172 30.6766 497.806 30.924H497.86ZM-162.873 97.7081C-169.408 82.7366 -165.521 65.2699 -152.785 51.4016C-140.059 65.2699 -136.172 82.7366 -142.696 97.7081C-144.914 102.791 -148.327 107.452 -152.785 111.576C-157.242 107.452 -160.655 102.791 -162.873 97.7081ZM-162.873 217.625C-169.408 202.653 -165.521 185.186 -152.785 171.318C-140.059 185.186 -136.172 202.653 -142.696 217.625C-144.914 222.708 -148.327 227.368 -152.785 231.493C-157.242 227.368 -160.655 222.708 -162.873 217.625ZM-162.873 337.541C-169.408 322.57 -165.521 305.103 -152.785 291.235C-140.059 305.103 -136.172 322.57 -142.696 337.541C-144.914 342.624 -148.327 347.285 -152.785 351.409C-157.242 347.285 -160.655 342.624 -162.873 337.541ZM-162.873 457.458C-169.408 442.486 -165.521 425.019 -152.785 411.151C-140.059 425.019 -136.172 442.486 -142.696 457.458C-144.914 462.541 -148.327 467.201 -152.785 471.326C-157.242 467.201 -160.655 462.541 -162.873 457.458ZM487.772 457.458C481.237 442.486 485.123 425.019 497.86 411.151C510.586 425.019 514.472 442.486 507.948 457.458C505.73 462.541 502.317 467.201 497.86 471.326C493.403 467.201 490 462.541 487.772 457.458ZM487.772 337.541C481.237 322.57 485.123 305.103 497.86 291.235C510.586 305.103 514.472 322.57 507.948 337.541C505.73 342.624 502.317 347.285 497.86 351.409C493.403 347.285 490 342.624 487.772 337.541ZM487.772 217.625C481.237 202.653 485.123 185.186 497.86 171.318C510.586 185.186 514.472 202.653 507.948 217.625C505.73 222.708 502.317 227.368 497.86 231.493C493.403 227.368 490 222.708 487.772 217.625ZM487.772 97.7081C481.237 82.7366 485.123 65.2699 497.86 51.4016C510.586 65.2699 514.472 82.7366 507.948 97.7081C505.73 102.791 502.317 107.452 497.86 111.576C493.403 107.452 490 102.791 487.772 97.7081ZM373.196 65.0533C373.164 64.6203 373.11 64.1872 373.078 63.7542C373.487 63.5686 373.907 63.3933 374.316 63.2077C380.14 60.4959 385.211 57.2479 389.432 53.5463C393.652 57.2479 398.723 60.5062 404.548 63.2077C404.946 63.3933 405.366 63.5686 405.786 63.7542C405.743 64.1872 405.7 64.6203 405.667 65.0533C405.204 71.2399 405.614 77.0656 406.852 82.417C401.393 84.0667 395.913 86.6445 390.551 90.1193C390.185 90.3564 389.809 90.6245 389.443 90.872C389.076 90.6245 388.7 90.3667 388.334 90.1193C382.972 86.6445 377.503 84.0667 372.033 82.417C373.271 77.0656 373.68 71.2399 373.218 65.0533H373.196ZM389.421 210.799C389.055 210.551 388.678 210.294 388.312 210.046C382.95 206.571 377.481 203.994 372.012 202.344C373.25 196.992 373.659 191.167 373.196 184.98C373.164 184.547 373.11 184.114 373.078 183.681C373.487 183.495 373.907 183.32 374.316 183.134C380.14 180.423 385.211 177.175 389.432 173.473C393.652 177.175 398.723 180.433 404.548 183.134C404.946 183.32 405.366 183.495 405.786 183.681C405.743 184.114 405.7 184.547 405.667 184.98C405.204 191.167 405.614 196.992 406.852 202.344C401.393 203.994 395.913 206.571 390.551 210.046C390.185 210.283 389.809 210.551 389.443 210.799H389.421ZM389.421 330.715C389.055 330.468 388.678 330.21 388.312 329.963C382.95 326.488 377.481 323.91 372.012 322.26C373.25 316.909 373.659 311.083 373.196 304.897C373.164 304.464 373.11 304.03 373.078 303.597C373.487 303.412 373.907 303.237 374.316 303.051C380.14 300.339 385.211 297.091 389.432 293.39C393.652 297.091 398.723 300.349 404.548 303.051C404.946 303.237 405.366 303.412 405.786 303.597C405.743 304.03 405.7 304.464 405.667 304.897C405.204 311.083 405.614 316.909 406.852 322.26C401.393 323.91 395.913 326.488 390.551 329.963C390.185 330.2 389.809 330.468 389.443 330.715H389.421ZM389.421 411.378C384.964 407.254 381.551 402.593 379.333 397.51C372.798 382.538 376.684 365.071 389.421 351.203C402.147 365.071 406.033 382.538 399.509 397.51C397.291 402.593 393.878 407.254 389.421 411.378ZM400.866 398.046C407.638 382.518 403.611 364.442 390.411 350.141C390.088 349.791 389.755 349.43 389.421 349.089C389.087 349.44 388.753 349.791 388.43 350.141C375.231 364.442 371.204 382.518 377.976 398.046C380.269 403.294 383.769 408.099 388.344 412.337C384.242 415.915 379.322 419.07 373.659 421.699C373.422 421.813 373.164 421.916 372.927 422.019C371.247 407.202 364.927 390.601 354.118 372.598C365.014 354.606 376.878 341.119 389.41 332.437C401.953 341.119 413.818 354.606 424.702 372.598C413.904 390.601 407.584 407.212 405.893 422.019C405.646 421.905 405.398 421.802 405.161 421.699C399.498 419.07 394.589 415.915 390.476 412.337C395.052 408.099 398.551 403.294 400.844 398.046H400.866ZM317.545 431.845C306.671 413.883 294.806 400.335 282.252 391.54C282.468 391.395 282.694 391.241 282.909 391.096C288.12 387.714 293.428 385.219 298.714 383.6C300.265 389.519 302.859 394.819 306.455 399.345C317.103 412.729 335.471 418.42 355.001 414.626C355.485 414.533 355.97 414.44 356.454 414.327C356.304 413.873 356.153 413.43 355.991 412.976C349.661 394.88 335.32 382.497 317.9 380.352C312.011 379.63 305.917 380.136 299.791 381.806C298.607 376.609 298.208 370.959 298.66 364.948C298.682 364.69 298.714 364.432 298.736 364.174C312.969 370.186 331.153 373.248 352.826 373.289C363.646 391.323 369.912 407.903 371.495 422.648C357.38 428.711 339.25 431.804 317.534 431.845H317.545ZM244.419 431.845C222.704 431.804 204.573 428.711 190.458 422.648C192.03 407.913 198.307 391.323 209.127 373.289C230.811 373.248 248.984 370.186 263.217 364.174C263.239 364.432 263.271 364.69 263.293 364.948C263.745 370.959 263.357 376.609 262.162 381.806C256.036 380.136 249.943 379.63 244.053 380.352C226.633 382.497 212.293 394.88 205.962 412.976C205.8 413.419 205.65 413.873 205.499 414.327C205.983 414.43 206.468 414.523 206.952 414.626C226.483 418.42 244.85 412.729 255.498 399.345C259.094 394.819 261.689 389.519 263.239 383.6C268.525 385.209 273.833 387.714 279.044 391.096C279.27 391.241 279.485 391.395 279.701 391.54C267.147 400.345 255.293 413.883 244.409 431.845H244.419ZM172.543 411.368C168.086 407.243 164.673 402.583 162.455 397.499C155.92 382.528 159.806 365.061 172.543 351.193C185.269 365.061 189.156 382.528 182.631 397.499C180.413 402.583 177 407.243 172.543 411.368ZM183.988 398.036C190.76 382.507 186.733 364.432 173.534 350.131C173.211 349.78 172.877 349.419 172.543 349.079C172.209 349.43 171.875 349.78 171.553 350.131C158.353 364.432 154.326 382.507 161.098 398.036C163.392 403.284 166.891 408.089 171.466 412.327C167.364 415.904 162.444 419.06 156.781 421.689C156.544 421.802 156.286 421.905 156.049 422.009C154.369 407.192 148.05 390.591 137.24 372.588C148.136 354.595 160 341.109 172.532 332.427C185.075 341.109 196.94 354.595 207.824 372.588C197.026 390.591 190.706 407.202 189.016 422.009C188.779 421.895 188.52 421.792 188.283 421.689C182.62 419.06 177.711 415.904 173.598 412.327C178.174 408.089 181.673 403.284 183.966 398.036H183.988ZM100.667 431.835C89.7927 413.873 77.9281 400.325 65.3745 391.529C65.5898 391.385 65.8159 391.23 66.0313 391.086C71.2422 387.704 76.55 385.209 81.8363 383.59C83.3867 389.508 85.9814 394.808 89.5773 399.335C100.225 412.718 118.593 418.41 138.123 414.616C138.607 414.523 139.092 414.43 139.576 414.317C139.426 413.863 139.275 413.419 139.113 412.966C132.783 394.87 118.442 382.487 101.022 380.342C95.1328 379.62 89.039 380.125 82.9129 381.796C81.7287 376.599 81.3303 370.949 81.7825 364.937C81.804 364.68 81.8363 364.422 81.8578 364.164C96.091 370.175 114.275 373.238 135.948 373.279C146.768 391.313 153.045 407.893 154.617 422.638C140.502 428.7 122.372 431.794 100.656 431.835H100.667ZM27.5415 431.835C5.82568 431.794 -12.3049 428.7 -26.4196 422.638C-24.8477 407.903 -18.5709 391.313 -7.75072 373.279C13.9328 373.238 32.1064 370.175 46.3396 364.164C46.3611 364.422 46.3934 364.68 46.4149 364.937C46.8671 370.949 46.4795 376.599 45.2845 381.796C39.1584 380.125 33.0646 379.62 27.1754 380.342C9.75542 382.487 -4.5854 394.87 -10.916 412.966C-11.0775 413.409 -11.2282 413.863 -11.379 414.317C-10.8945 414.42 -10.41 414.512 -9.92552 414.616C9.60468 418.41 27.9721 412.718 38.6201 399.335C42.216 394.808 44.8107 389.508 46.3611 383.59C51.6474 385.198 56.9552 387.704 62.1661 391.086C62.3922 391.23 62.6076 391.385 62.8229 391.529C50.2693 400.335 38.4155 413.873 27.5307 431.835H27.5415ZM-44.3349 411.357C-48.7921 407.233 -52.2051 402.572 -54.423 397.489C-60.9581 382.518 -57.0715 365.051 -44.3349 351.183C-31.609 365.051 -27.7223 382.518 -34.2468 397.489C-36.4646 402.572 -39.8776 407.233 -44.3349 411.357ZM-32.8902 398.025C-26.1181 382.497 -30.1448 364.422 -43.3444 350.121C-43.6673 349.77 -44.0011 349.409 -44.3349 349.069C-44.6686 349.419 -45.0024 349.77 -45.3254 350.121C-58.5249 364.422 -62.5516 382.497 -55.7795 398.025C-53.4863 403.274 -49.9872 408.078 -45.4115 412.316C-49.5135 415.894 -54.4337 419.049 -60.0968 421.679C-60.3337 421.792 -60.5921 421.895 -60.8289 421.998C-62.5085 407.181 -68.8284 390.581 -79.6378 372.578C-68.7422 354.585 -56.8777 341.098 -44.3456 332.417C-31.8028 341.098 -19.9382 354.585 -9.05344 372.578C-19.8521 390.581 -26.172 407.192 -27.8623 421.998C-28.0992 421.885 -28.3576 421.782 -28.5944 421.679C-34.2575 419.049 -39.167 415.894 -43.2798 412.316C-38.704 408.078 -35.205 403.274 -32.9117 398.025H-32.8902ZM47.8684 125.022C47.8361 124.589 47.7823 124.156 47.7392 123.723C48.1483 123.537 48.5682 123.362 48.9773 123.176C54.8019 120.464 59.8729 117.216 64.0933 113.515C68.3137 117.216 73.3847 120.475 79.2093 123.176C79.6077 123.362 80.0276 123.537 80.4474 123.723C80.4044 124.156 80.3505 124.589 80.3183 125.022C79.8553 131.208 80.2644 137.034 81.5026 142.386C76.044 144.035 70.5639 146.613 65.2022 150.088C64.8362 150.325 64.4594 150.593 64.0933 150.841C63.7272 150.593 63.3504 150.335 62.9844 150.088C57.6227 146.613 52.1534 144.035 46.6841 142.386C47.9222 137.034 48.3313 131.208 47.8684 125.022ZM54.0052 97.7081C47.47 82.7366 51.3567 65.2699 64.0933 51.4016C76.8192 65.2699 80.7058 82.7366 74.1814 97.7081C71.9635 102.791 68.5506 107.452 64.0933 111.576C59.636 107.452 56.2231 102.791 54.0052 97.7081ZM81.7825 125.115C81.804 124.857 81.8363 124.599 81.8578 124.341C96.091 130.353 114.275 133.415 135.948 133.456C146.768 151.49 153.045 168.07 154.617 182.815C140.502 188.878 122.372 191.971 100.656 192.012C89.7819 174.051 77.9173 160.502 65.3638 151.707C65.5791 151.562 65.8052 151.408 66.0205 151.263C71.2314 147.881 76.5392 145.386 81.8255 143.767C83.3759 149.686 85.9706 154.986 89.5666 159.512C100.215 172.896 118.582 178.587 138.112 174.793C138.597 174.7 139.081 174.607 139.566 174.494C139.415 174.04 139.264 173.597 139.103 173.143C132.772 155.047 118.431 142.664 101.011 140.519C95.122 139.798 89.0282 140.303 82.9022 141.973C81.7179 136.776 81.3195 131.126 81.7717 125.115H81.7825ZM264.746 125.012C264.714 124.579 264.66 124.145 264.617 123.712C265.026 123.527 265.446 123.352 265.855 123.166C271.68 120.454 276.751 117.206 280.971 113.505C285.192 117.206 290.263 120.464 296.087 123.166C296.486 123.352 296.916 123.527 297.325 123.712C297.282 124.145 297.228 124.579 297.196 125.012C296.733 131.198 297.142 137.024 298.38 142.375C292.922 144.025 287.442 146.603 282.08 150.078C281.714 150.315 281.337 150.583 280.971 150.83C280.605 150.583 280.228 150.325 279.862 150.078C274.501 146.603 269.031 144.025 263.562 142.375C264.8 137.024 265.209 131.198 264.746 125.012ZM270.883 97.6978C264.348 82.7263 268.235 65.2596 280.971 51.3913C293.697 65.2596 297.584 82.7263 291.059 97.6978C288.841 102.781 285.428 107.442 280.971 111.566C276.514 107.442 273.101 102.781 270.883 97.6978ZM298.66 125.104C298.682 124.847 298.714 124.589 298.736 124.331C312.969 130.342 331.153 133.405 352.826 133.446C363.646 151.48 369.912 168.06 371.495 182.805C357.38 188.867 339.25 191.961 317.534 192.002C306.66 174.04 294.795 160.492 282.242 151.696C282.457 151.552 282.683 151.397 282.898 151.253C288.109 147.871 293.417 145.376 298.703 143.757C300.254 149.675 302.848 154.975 306.444 159.502C317.092 172.885 335.46 178.577 354.99 174.783C355.475 174.69 355.959 174.597 356.443 174.484C356.293 174.03 356.142 173.587 355.981 173.133C349.65 155.037 335.309 142.654 317.889 140.509C312 139.787 305.906 140.292 299.78 141.963C298.596 136.766 298.197 131.116 298.65 125.104H298.66ZM352.482 200.467C335.061 202.612 320.721 214.995 314.39 233.091C314.229 233.534 314.078 233.988 313.927 234.442C314.412 234.545 314.896 234.638 315.381 234.741C334.911 238.535 353.278 232.844 363.926 219.46C367.522 214.933 370.117 209.634 371.667 203.715C376.953 205.324 382.261 207.829 387.472 211.211C387.698 211.356 387.914 211.51 388.129 211.655C375.575 220.46 363.722 233.998 352.837 251.96C331.121 251.919 312.99 248.826 298.876 242.763C300.448 228.028 306.724 211.438 317.545 193.404C339.228 193.363 357.402 190.301 371.635 184.289C371.656 184.547 371.689 184.805 371.71 185.063C372.162 191.074 371.775 196.724 370.58 201.921C364.454 200.251 358.36 199.745 352.471 200.467H352.482ZM370.257 203.292C368.76 209.046 366.241 214.212 362.753 218.594C352.481 231.493 334.738 237.009 315.833 233.38C322.013 215.882 335.858 203.932 352.664 201.859C358.371 201.158 364.292 201.653 370.246 203.292H370.257ZM352.482 320.384C335.061 322.528 320.721 334.912 314.39 353.008C314.229 353.451 314.078 353.905 313.927 354.358C314.412 354.461 314.896 354.554 315.381 354.657C334.911 358.452 353.278 352.76 363.926 339.376C367.522 334.85 370.117 329.55 371.667 323.632C376.953 325.24 382.261 327.746 387.472 331.128C387.698 331.272 387.914 331.427 388.129 331.571C375.575 340.377 363.722 353.915 352.837 371.877C331.121 371.835 312.99 368.742 298.876 362.679C300.448 347.945 306.724 331.355 317.545 313.321C339.228 313.279 357.402 310.217 371.635 304.206C371.656 304.464 371.689 304.721 371.71 304.979C372.162 310.99 371.775 316.641 370.58 321.838C364.454 320.167 358.36 319.662 352.471 320.384H352.482ZM370.257 323.209C368.76 328.962 366.241 334.128 362.753 338.51C352.481 351.409 334.738 356.926 315.833 353.296C322.013 335.799 335.858 323.848 352.664 321.776C358.371 321.075 364.292 321.569 370.246 323.209H370.257ZM280.971 351.399C276.514 347.275 273.101 342.614 270.883 337.531C264.348 322.559 268.235 305.093 280.971 291.224C293.697 305.093 297.584 322.559 291.059 337.531C288.841 342.614 285.428 347.275 280.971 351.399ZM292.416 338.067C299.188 322.539 295.161 304.464 281.962 290.162C281.639 289.812 281.305 289.451 280.971 289.111C280.637 289.461 280.304 289.812 279.981 290.162C266.781 304.464 262.754 322.539 269.527 338.067C271.82 343.315 275.319 348.12 279.895 352.358C275.793 355.936 270.872 359.091 265.209 361.72C264.972 361.834 264.714 361.937 264.477 362.04C262.798 347.223 256.478 330.622 245.668 312.62C256.564 294.627 268.428 281.14 280.96 272.458C293.503 281.14 305.368 294.627 316.253 312.62C305.454 330.622 299.134 347.233 297.444 362.04C297.207 361.927 296.948 361.823 296.712 361.72C291.049 359.091 286.139 355.936 282.026 352.358C286.602 348.12 290.101 343.315 292.394 338.067H292.416ZM173.803 331.561C174.018 331.416 174.244 331.262 174.459 331.117C179.67 327.735 184.978 325.24 190.264 323.621C191.815 329.54 194.41 334.84 198.005 339.366C208.653 352.75 227.021 358.441 246.551 354.647C247.036 354.554 247.52 354.461 248.005 354.348C247.854 353.894 247.703 353.451 247.542 352.997C241.211 334.902 226.87 322.518 209.45 320.373C203.561 319.652 197.467 320.157 191.341 321.827C190.157 316.631 189.758 310.98 190.211 304.969C190.232 304.711 190.264 304.453 190.286 304.195C204.519 310.207 222.693 313.269 244.376 313.31C255.197 331.344 261.473 347.924 263.045 362.669C248.93 368.732 230.8 371.825 209.084 371.866C198.21 353.905 186.346 340.356 173.792 331.561H173.803ZM135.959 371.866C114.243 371.825 96.1125 368.732 81.9978 362.669C83.5697 347.935 89.8465 331.344 100.667 313.31C122.35 313.269 140.524 310.207 154.757 304.195C154.779 304.453 154.811 304.711 154.832 304.969C155.285 310.98 154.897 316.631 153.702 321.827C147.576 320.157 141.482 319.652 135.593 320.373C118.173 322.518 103.832 334.902 97.5014 352.997C97.3399 353.441 97.1891 353.894 97.0384 354.348C97.5229 354.451 98.0074 354.544 98.4919 354.647C118.022 358.441 136.39 352.75 147.037 339.366C150.633 334.84 153.228 329.54 154.779 323.621C160.065 325.23 165.373 327.735 170.584 331.117C170.81 331.262 171.025 331.416 171.24 331.561C158.687 340.366 146.833 353.905 135.948 371.866H135.959ZM64.0826 351.389C59.6253 347.264 56.2123 342.604 53.9945 337.521C47.4593 322.549 51.3459 305.082 64.0826 291.214C76.8084 305.082 80.6951 322.549 74.1706 337.521C71.9528 342.604 68.5398 347.264 64.0826 351.389ZM75.5272 338.057C82.2993 322.528 78.2726 304.453 65.0731 290.152C64.7501 289.801 64.4163 289.44 64.0826 289.1C63.7488 289.451 63.415 289.801 63.092 290.152C49.8925 304.453 45.8658 322.528 52.6379 338.057C54.9311 343.305 58.4302 348.11 63.0059 352.348C58.9039 355.926 53.9837 359.081 48.3206 361.71C48.0837 361.823 47.8253 361.927 47.5885 362.03C45.9089 347.213 39.5891 330.612 28.7796 312.609C39.6752 294.617 51.5397 281.13 64.0718 272.448C76.6146 281.13 88.4792 294.617 99.364 312.609C88.5653 330.612 82.2454 347.223 80.5551 362.03C80.3183 361.916 80.0598 361.813 79.823 361.71C74.1599 359.081 69.2504 355.926 65.1376 352.348C69.7134 348.11 73.2124 343.305 75.5057 338.057H75.5272ZM-43.0752 331.55C-42.8599 331.406 -42.6338 331.251 -42.4184 331.107C-37.2075 327.725 -31.8997 325.23 -26.6134 323.611C-25.063 329.53 -22.4684 334.829 -18.8724 339.356C-8.22444 352.74 10.143 358.431 29.6732 354.637C30.1577 354.544 30.6422 354.451 31.1267 354.338C30.9759 353.884 30.8252 353.441 30.6637 352.987C24.3331 334.891 9.99228 322.508 -7.42772 320.363C-13.3169 319.641 -19.4107 320.147 -25.5368 321.817C-26.7211 316.62 -27.1194 310.97 -26.6672 304.958C-26.6457 304.701 -26.6134 304.443 -26.5919 304.185C-12.3587 310.196 5.8257 313.259 27.4984 313.3C38.3186 331.334 44.5954 347.914 46.1673 362.659C32.0526 368.721 13.922 371.815 -7.79378 371.856C-18.6678 353.894 -30.5324 340.346 -43.086 331.55H-43.0752ZM-25.203 323.199C-19.2492 321.559 -13.3277 321.064 -7.62152 321.765C9.18478 323.828 23.0304 335.788 29.2103 353.286C10.3045 356.915 -7.43849 351.399 -17.7096 338.5C-21.1979 334.118 -23.7065 328.962 -25.2138 323.199H-25.203ZM-18.8724 219.439C-8.22444 232.823 10.143 238.515 29.6732 234.72C30.1577 234.627 30.6422 234.535 31.1267 234.421C30.9759 233.968 30.8252 233.524 30.6637 233.07C24.3331 214.975 9.99228 202.591 -7.42772 200.447C-13.3169 199.725 -19.4107 200.23 -25.5368 201.9C-26.7211 196.704 -27.1194 191.053 -26.6672 185.042C-26.6457 184.784 -26.6134 184.526 -26.5919 184.269C-12.3587 190.28 5.8257 193.342 27.4984 193.384C38.3186 211.417 44.5954 227.997 46.1673 242.742C32.0526 248.805 13.922 251.898 -7.79378 251.94C-18.6678 233.978 -30.5324 220.429 -43.086 211.634C-42.8706 211.49 -42.6445 211.335 -42.4292 211.191C-37.2183 207.809 -31.9105 205.313 -26.6242 203.695C-25.0738 209.613 -22.4791 214.913 -18.8831 219.439H-18.8724ZM-25.203 203.282C-19.2492 201.643 -13.3277 201.148 -7.62152 201.849C9.18478 203.911 23.0304 215.872 29.2103 233.369C10.3045 236.999 -7.43849 231.483 -17.7096 218.584C-21.1979 214.201 -23.7065 209.046 -25.2138 203.282H-25.203ZM156.297 184.949C156.264 184.516 156.21 184.083 156.167 183.65C156.577 183.464 156.996 183.289 157.406 183.104C163.23 180.392 168.301 177.144 172.521 173.442C176.742 177.144 181.813 180.402 187.637 183.104C188.036 183.289 188.456 183.464 188.876 183.65C188.833 184.083 188.779 184.516 188.746 184.949C188.283 191.136 188.693 196.961 189.931 202.313C184.472 203.963 178.992 206.54 173.63 210.015C173.264 210.252 172.888 210.52 172.521 210.768C172.155 210.52 171.779 210.263 171.413 210.015C166.051 206.54 160.582 203.963 155.112 202.313C156.35 196.961 156.76 191.136 156.297 184.949ZM162.433 157.635C155.898 142.664 159.785 125.197 172.521 111.329C185.247 125.197 189.134 142.664 182.61 157.635C180.392 162.719 176.979 167.379 172.521 171.504C168.064 167.379 164.651 162.719 162.433 157.635ZM190.211 185.042C190.232 184.784 190.264 184.526 190.286 184.269C204.519 190.28 222.693 193.342 244.376 193.384C255.197 211.417 261.473 227.997 263.045 242.742C248.93 248.805 230.8 251.898 209.084 251.94C198.21 233.978 186.346 220.429 173.792 211.634C174.007 211.49 174.233 211.335 174.449 211.191C179.66 207.809 184.967 205.313 190.254 203.695C191.804 209.613 194.399 214.913 197.995 219.439C208.643 232.823 227.01 238.515 246.54 234.72C247.025 234.627 247.509 234.535 247.994 234.421C247.843 233.968 247.692 233.524 247.531 233.07C241.2 214.975 226.859 202.591 209.439 200.447C203.55 199.725 197.456 200.23 191.33 201.9C190.146 196.704 189.748 191.053 190.2 185.042H190.211ZM280.96 270.726C280.594 270.479 280.218 270.221 279.851 269.973C274.49 266.499 269.021 263.921 263.551 262.271C264.789 256.92 265.198 251.094 264.736 244.907C264.703 244.474 264.649 244.041 264.606 243.608C265.015 243.423 265.435 243.247 265.844 243.062C271.669 240.35 276.74 237.102 280.96 233.4C285.181 237.102 290.252 240.36 296.076 243.062C296.475 243.247 296.905 243.423 297.315 243.608C297.271 244.041 297.218 244.474 297.185 244.907C296.722 251.094 297.132 256.92 298.37 262.271C292.911 263.921 287.431 266.499 282.069 269.973C281.703 270.211 281.326 270.479 280.96 270.726ZM244.398 311.898C222.682 311.857 204.551 308.763 190.437 302.7C192.009 287.966 198.285 271.376 209.106 253.342C230.789 253.301 248.963 250.238 263.196 244.227C263.217 244.485 263.25 244.742 263.271 245C263.723 251.012 263.336 256.662 262.141 261.859C256.015 260.188 249.921 259.683 244.032 260.405C226.612 262.549 212.271 274.933 205.94 293.029C205.779 293.472 205.628 293.926 205.477 294.379C205.962 294.483 206.446 294.575 206.931 294.678C226.461 298.473 244.828 292.781 255.476 279.398C259.072 274.871 261.667 269.571 263.217 263.653C268.504 265.261 273.812 267.767 279.022 271.149C279.249 271.293 279.464 271.448 279.679 271.592C267.126 280.398 255.272 293.936 244.387 311.898H244.398ZM172.521 291.42C168.064 287.296 164.651 282.635 162.433 277.552C155.898 262.58 159.785 245.114 172.521 231.245C185.247 245.114 189.134 262.58 182.61 277.552C180.392 282.635 176.979 287.296 172.521 291.42ZM183.966 278.088C190.738 262.56 186.712 244.485 173.512 230.183C173.189 229.833 172.855 229.472 172.521 229.132C172.188 229.482 171.854 229.833 171.531 230.183C158.331 244.485 154.305 262.56 161.077 278.088C163.37 283.336 166.869 288.141 171.445 292.379C167.343 295.957 162.423 299.112 156.76 301.741C156.523 301.855 156.264 301.958 156.027 302.061C154.348 287.244 148.028 270.644 137.219 252.641C148.114 234.648 159.979 221.161 172.511 212.479C185.054 221.161 196.918 234.648 207.803 252.641C197.004 270.644 190.684 287.255 188.994 302.061C188.757 301.948 188.499 301.845 188.262 301.741C182.599 299.112 177.689 295.957 173.577 292.379C178.152 288.141 181.651 283.336 183.945 278.088H183.966ZM100.645 311.887C89.7711 293.926 77.9066 280.377 65.353 271.582C65.5683 271.438 65.7944 271.283 66.0097 271.139C71.2207 267.757 76.5285 265.261 81.8148 263.642C83.3651 269.561 85.9598 274.861 89.5558 279.387C100.204 292.771 118.571 298.463 138.101 294.668C138.586 294.575 139.07 294.483 139.555 294.369C139.404 293.915 139.253 293.472 139.092 293.018C132.761 274.923 118.42 262.539 101 260.395C95.1112 259.673 89.0175 260.178 82.8914 261.848C81.7071 256.652 81.3087 251.001 81.7609 244.99C81.7825 244.732 81.8148 244.474 81.8363 244.217C96.0695 250.228 114.254 253.29 135.927 253.332C146.747 271.365 153.024 287.945 154.595 302.69C140.481 308.753 122.35 311.846 100.634 311.887H100.645ZM47.8576 244.897C47.8253 244.464 47.7715 244.031 47.7284 243.598C48.1375 243.412 48.5574 243.237 48.9666 243.051C54.7912 240.34 59.8621 237.092 64.0826 233.39C68.303 237.092 73.3739 240.35 79.1985 243.051C79.5969 243.237 80.0168 243.412 80.4367 243.598C80.3936 244.031 80.3398 244.464 80.3075 244.897C79.8445 251.084 80.2536 256.909 81.4918 262.261C76.0332 263.911 70.5531 266.488 65.1915 269.963C64.8254 270.2 64.4486 270.468 64.0826 270.716C63.7165 270.468 63.3397 270.211 62.9736 269.963C57.612 266.488 52.1426 263.911 46.6733 262.261C47.9115 256.909 48.3206 251.084 47.8576 244.897ZM53.9945 217.583C47.4593 202.612 51.3459 185.145 64.0826 171.277C76.8084 185.145 80.6951 202.612 74.1706 217.583C71.9528 222.667 68.5398 227.327 64.0826 231.452C59.6253 227.327 56.2123 222.667 53.9945 217.583ZM83.2359 263.23C89.1897 261.591 95.1112 261.096 100.817 261.797C117.624 263.859 131.469 275.82 137.649 293.317C118.743 296.947 101 291.431 90.7293 278.531C87.241 274.149 84.7325 268.994 83.2252 263.23H83.2359ZM261.807 263.23C260.311 268.984 257.791 274.149 254.303 278.531C244.032 291.431 226.289 296.947 207.383 293.317C213.563 275.82 227.408 263.869 244.215 261.797C249.921 261.096 255.842 261.591 261.796 263.23H261.807ZM270.872 217.583C264.337 202.612 268.224 185.145 280.96 171.277C293.686 185.145 297.573 202.612 291.049 217.583C288.831 222.667 285.418 227.327 280.96 231.452C276.503 227.327 273.09 222.667 270.872 217.583ZM297.444 242.103C297.207 241.989 296.948 241.886 296.712 241.783C291.049 239.154 286.139 235.999 282.026 232.421C286.602 228.183 290.101 223.378 292.394 218.13C299.166 202.602 295.14 184.526 281.94 170.225C281.617 169.875 281.283 169.514 280.95 169.173C280.616 169.524 280.282 169.875 279.959 170.225C266.76 184.526 262.733 202.602 269.505 218.13C271.798 223.378 275.297 228.183 279.873 232.421C275.771 235.999 270.851 239.154 265.188 241.783C264.951 241.897 264.692 242 264.456 242.103C262.776 227.286 256.456 210.685 245.647 192.682C256.542 174.69 268.407 161.203 280.939 152.521C293.482 161.203 305.346 174.69 316.231 192.682C305.432 210.685 299.113 227.296 297.422 242.103H297.444ZM191.664 203.261C197.618 201.622 203.539 201.127 209.246 201.828C226.052 203.89 239.897 215.851 246.077 233.349C227.172 236.978 209.429 231.462 199.158 218.563C195.669 214.181 193.161 209.025 191.653 203.261H191.664ZM135.582 200.436C118.162 202.581 103.821 214.964 97.4906 233.06C97.3291 233.504 97.1784 233.957 97.0277 234.411C97.5121 234.514 97.9966 234.607 98.4811 234.71C118.011 238.504 136.379 232.813 147.027 219.429C150.623 214.903 153.217 209.603 154.768 203.684C160.054 205.293 165.362 207.798 170.573 211.18C170.799 211.325 171.014 211.479 171.23 211.624C158.676 220.429 146.822 233.968 135.937 251.929C114.222 251.888 96.091 248.795 81.9763 242.732C83.5482 227.997 89.825 211.407 100.645 193.373C122.329 193.332 140.502 190.27 154.735 184.258C154.757 184.516 154.789 184.774 154.811 185.032C155.263 191.043 154.875 196.693 153.68 201.89C147.554 200.22 141.461 199.714 135.571 200.436H135.582ZM153.357 203.261C151.861 209.015 149.352 214.181 145.853 218.563C135.582 231.462 117.839 236.978 98.9333 233.349C105.113 215.851 118.959 203.901 135.765 201.828C141.471 201.127 147.393 201.622 153.347 203.261H153.357ZM80.5659 242.103C80.329 241.989 80.0706 241.886 79.8338 241.783C74.1707 239.154 69.2612 235.999 65.1484 232.421C69.7241 228.183 73.2232 223.378 75.5164 218.13C82.2885 202.602 78.2619 184.526 65.0623 170.225C64.7393 169.875 64.4055 169.514 64.0718 169.173C63.738 169.524 63.4043 169.875 63.0813 170.225C49.8817 184.526 45.8551 202.602 52.6271 218.13C54.9204 223.378 58.4194 228.183 62.9951 232.421C58.8932 235.999 53.9729 239.154 48.3098 241.783C48.073 241.897 47.8146 242 47.5777 242.103C45.8981 227.286 39.5783 210.685 28.7688 192.682C39.6644 174.69 51.5289 161.203 64.061 152.521C76.6038 161.203 88.4684 174.69 99.3532 192.682C88.5545 210.685 82.2346 227.296 80.5443 242.103H80.5659ZM-7.783 253.332C13.9005 253.29 32.0741 250.228 46.3073 244.217C46.3288 244.474 46.3611 244.732 46.3826 244.99C46.8348 251.001 46.4472 256.652 45.2522 261.848C39.1261 260.178 33.0323 259.673 27.1431 260.395C9.72311 262.539 -4.61771 274.923 -10.9483 293.018C-11.1098 293.462 -11.2605 293.915 -11.4113 294.369C-10.9268 294.472 -10.4423 294.565 -9.95782 294.668C9.57239 298.463 27.9398 292.771 38.5878 279.387C42.1837 274.861 44.7784 269.561 46.3288 263.642C51.6151 265.251 56.9229 267.757 62.1338 271.139C62.3599 271.283 62.5753 271.438 62.7906 271.582C50.237 280.387 38.3832 293.926 27.4984 311.887C5.78262 311.846 -12.348 308.753 -26.4627 302.69C-24.8908 287.956 -18.614 271.365 -7.79378 253.332H-7.783ZM44.9184 263.22C43.4219 268.973 40.9133 274.139 37.4142 278.521C27.1431 291.42 9.40012 296.937 -9.50563 293.307C-3.32574 275.809 10.5198 263.859 27.3261 261.786C33.0323 261.085 38.9538 261.58 44.9076 263.22H44.9184ZM153.357 323.178C151.861 328.931 149.352 334.097 145.853 338.479C135.582 351.378 117.839 356.895 98.9333 353.265C105.113 335.768 118.959 323.817 135.765 321.745C141.471 321.044 147.393 321.539 153.347 323.178H153.357ZM155.102 322.209C156.34 316.857 156.749 311.032 156.286 304.845C156.254 304.412 156.2 303.979 156.157 303.546C156.566 303.36 156.986 303.185 157.395 302.999C163.219 300.288 168.29 297.04 172.511 293.338C176.731 297.04 181.802 300.298 187.627 302.999C188.025 303.185 188.445 303.36 188.865 303.546C188.822 303.979 188.768 304.412 188.736 304.845C188.273 311.032 188.682 316.857 189.92 322.209C184.461 323.858 178.981 326.436 173.62 329.911C173.254 330.148 172.877 330.416 172.511 330.664C172.145 330.416 171.768 330.158 171.402 329.911C166.04 326.436 160.571 323.858 155.102 322.209ZM191.664 323.178C197.618 321.539 203.539 321.044 209.246 321.745C226.052 323.807 239.897 335.768 246.077 353.265C227.172 356.895 209.429 351.378 199.158 338.479C195.669 334.097 193.161 328.942 191.653 323.178H191.664ZM317.512 311.877C306.638 293.915 294.774 280.367 282.22 271.572C282.435 271.427 282.661 271.273 282.877 271.128C288.088 267.746 293.396 265.251 298.682 263.632C300.232 269.551 302.827 274.85 306.423 279.377C317.071 292.761 335.438 298.452 354.969 294.658C355.453 294.565 355.938 294.472 356.422 294.359C356.271 293.905 356.12 293.462 355.959 293.008C349.628 274.912 335.288 262.529 317.868 260.384C311.978 259.662 305.885 260.168 299.759 261.838C298.574 256.641 298.176 250.991 298.628 244.98C298.65 244.722 298.682 244.464 298.703 244.206C312.937 250.218 331.121 253.28 352.794 253.321C363.614 271.355 369.88 287.935 371.463 302.68C357.348 308.743 339.217 311.836 317.501 311.877H317.512ZM300.103 263.22C306.057 261.58 311.978 261.085 317.685 261.786C334.491 263.849 348.336 275.809 354.516 293.307C335.611 296.937 317.868 291.42 307.596 278.521C304.108 274.139 301.6 268.984 300.092 263.22H300.103ZM300.103 143.303C306.057 141.664 311.978 141.169 317.685 141.87C334.491 143.932 348.336 155.893 354.516 173.391C335.611 177.02 317.868 171.504 307.596 158.605C304.108 154.223 301.6 149.067 300.092 143.303H300.103ZM244.021 140.478C226.601 142.623 212.26 155.006 205.93 173.102C205.768 173.545 205.617 173.999 205.467 174.453C205.951 174.556 206.436 174.649 206.92 174.752C226.45 178.546 244.818 172.854 255.466 159.471C259.062 154.944 261.656 149.644 263.207 143.726C268.493 145.334 273.801 147.84 279.012 151.222C279.238 151.366 279.453 151.521 279.668 151.665C267.115 160.471 255.261 174.009 244.376 191.971C222.661 191.93 204.53 188.836 190.415 182.774C191.987 168.039 198.264 151.449 209.084 133.415C230.768 133.374 248.941 130.311 263.174 124.3C263.196 124.558 263.228 124.816 263.25 125.073C263.702 131.085 263.314 136.735 262.119 141.932C255.993 140.261 249.899 139.756 244.01 140.478H244.021ZM261.796 143.303C260.3 149.057 257.78 154.223 254.292 158.605C244.021 171.504 226.278 177.02 207.372 173.391C213.552 155.893 227.398 143.943 244.204 141.87C249.91 141.169 255.832 141.664 261.785 143.303H261.796ZM189.005 182.145C188.768 182.031 188.51 181.928 188.273 181.825C182.61 179.196 177.7 176.041 173.587 172.463C178.163 168.225 181.662 163.42 183.955 158.172C190.727 142.643 186.701 124.568 173.501 110.267C173.178 109.916 172.844 109.555 172.511 109.215C172.177 109.566 171.843 109.916 171.52 110.267C158.321 124.568 154.294 142.643 161.066 158.172C163.359 163.42 166.858 168.225 171.434 172.463C167.332 176.041 162.412 179.196 156.749 181.825C156.512 181.938 156.254 182.042 156.017 182.145C154.337 167.328 148.017 150.727 137.208 132.724C148.103 114.732 159.968 101.245 172.5 92.563C185.043 101.245 196.907 114.732 207.792 132.724C196.993 150.727 190.674 167.338 188.983 182.145H189.005ZM83.2252 143.303C89.179 141.664 95.1005 141.169 100.807 141.87C117.613 143.932 131.459 155.893 137.638 173.391C118.733 177.02 100.99 171.504 90.7186 158.605C87.2303 154.223 84.7217 149.067 83.2144 143.303H83.2252ZM27.1431 140.478C9.72311 142.623 -4.61771 155.006 -10.9483 173.102C-11.1098 173.545 -11.2605 173.999 -11.4113 174.453C-10.9268 174.556 -10.4423 174.649 -9.95782 174.752C9.57239 178.546 27.9398 172.854 38.5878 159.471C42.1837 154.944 44.7784 149.644 46.3288 143.726C51.6151 145.334 56.9229 147.84 62.1338 151.222C62.3599 151.366 62.5753 151.521 62.7906 151.665C50.237 160.471 38.3832 174.009 27.4984 191.971C5.78262 191.93 -12.348 188.836 -26.4627 182.774C-24.8908 168.039 -18.614 151.449 -7.79378 133.415C13.8897 133.374 32.0633 130.311 46.2965 124.3C46.318 124.558 46.3503 124.816 46.3719 125.073C46.8241 131.085 46.4365 136.735 45.2414 141.932C39.1153 140.261 33.0216 139.756 27.1324 140.478H27.1431ZM44.9184 143.303C43.4219 149.057 40.9133 154.223 37.4142 158.605C27.1431 171.504 9.40012 177.02 -9.50563 173.391C-3.32574 155.893 10.5198 143.943 27.3261 141.87C33.0323 141.169 38.9538 141.664 44.9076 143.303H44.9184ZM-27.8731 182.145C-28.1099 182.031 -28.3683 181.928 -28.6052 181.825C-34.2683 179.196 -39.1778 176.041 -43.2905 172.463C-38.7148 168.225 -35.2157 163.42 -32.9225 158.172C-26.1505 142.643 -30.1771 124.568 -43.3766 110.267C-43.6996 109.916 -44.0334 109.555 -44.3671 109.215C-44.7009 109.566 -45.0347 109.916 -45.3577 110.267C-58.5572 124.568 -62.5839 142.643 -55.8118 158.172C-53.5186 163.42 -50.0195 168.225 -45.4438 172.463C-49.5458 176.041 -54.466 179.196 -60.1291 181.825C-60.366 181.938 -60.6244 182.042 -60.8613 182.145C-62.5408 167.328 -68.8607 150.727 -79.6701 132.724C-68.7745 114.732 -56.91 101.245 -44.3779 92.563C-31.8351 101.245 -19.9706 114.732 -9.08575 132.724C-19.8844 150.727 -26.2043 167.338 -27.8946 182.145H-27.8731ZM-44.3671 171.493C-48.8244 167.369 -52.2374 162.708 -54.4553 157.625C-60.9904 142.654 -57.1038 125.187 -44.3671 111.319C-31.6413 125.187 -27.7546 142.654 -34.2791 157.625C-36.4969 162.708 -39.9099 167.369 -44.3671 171.493ZM-60.5921 184.929C-60.6244 184.496 -60.6782 184.062 -60.7213 183.629C-60.3122 183.444 -59.8923 183.269 -59.4831 183.083C-53.6585 180.371 -48.5876 177.123 -44.3671 173.422C-40.1467 177.123 -35.0758 180.381 -29.2512 183.083C-28.8528 183.269 -28.4329 183.444 -28.013 183.629C-28.0561 184.062 -28.1099 184.496 -28.1422 184.929C-28.6052 191.115 -28.1961 196.941 -26.9579 202.292C-32.4165 203.942 -37.8966 206.52 -43.2582 209.995C-43.6243 210.232 -44.0011 210.5 -44.3671 210.747C-44.7332 210.5 -45.11 210.242 -45.4761 209.995C-50.8378 206.52 -56.3071 203.942 -61.7764 202.292C-60.5383 196.941 -60.1291 191.115 -60.5921 184.929ZM-9.07497 252.641C-19.8736 270.644 -26.1935 287.255 -27.8838 302.061C-28.1207 301.948 -28.3791 301.845 -28.616 301.741C-34.2791 299.112 -39.1885 295.957 -43.3013 292.379C-38.7256 288.141 -35.2265 283.336 -32.9333 278.088C-26.1612 262.56 -30.1878 244.485 -43.3874 230.183C-43.7104 229.833 -44.0442 229.472 -44.3779 229.132C-44.7117 229.482 -45.0454 229.833 -45.3684 230.183C-58.568 244.485 -62.5946 262.56 -55.8226 278.088C-53.5293 283.336 -50.0303 288.141 -45.4546 292.379C-49.5565 295.957 -54.4768 299.112 -60.1399 301.741C-60.3768 301.855 -60.6351 301.958 -60.872 302.061C-62.5516 287.244 -68.8714 270.644 -79.6809 252.641C-68.7853 234.648 -56.9208 221.161 -44.3887 212.479C-31.8459 221.161 -19.9813 234.648 -9.09651 252.641H-9.07497ZM-44.3671 291.41C-48.8244 287.286 -52.2374 282.625 -54.4553 277.542C-60.9904 262.57 -57.1038 245.103 -44.3671 231.235C-31.6413 245.103 -27.7546 262.57 -34.2791 277.542C-36.4969 282.625 -39.9099 287.286 -44.3671 291.41ZM-60.5921 304.845C-60.6244 304.412 -60.6782 303.979 -60.7213 303.546C-60.3122 303.36 -59.8923 303.185 -59.4831 302.999C-53.6585 300.288 -48.5876 297.04 -44.3671 293.338C-40.1467 297.04 -35.0758 300.298 -29.2512 302.999C-28.8528 303.185 -28.4329 303.36 -28.013 303.546C-28.0561 303.979 -28.1099 304.412 -28.1422 304.845C-28.6052 311.032 -28.1961 316.857 -26.9579 322.209C-32.4165 323.858 -37.8966 326.436 -43.2582 329.911C-43.6243 330.148 -44.0011 330.416 -44.3671 330.664C-44.7332 330.416 -45.11 330.158 -45.4761 329.911C-50.8378 326.436 -56.3071 323.858 -61.7764 322.209C-60.5383 316.857 -60.1291 311.032 -60.5921 304.845ZM44.9184 383.136C43.4219 388.89 40.9133 394.056 37.4142 398.438C27.1431 411.337 9.40012 416.853 -9.50563 413.224C-3.32574 395.726 10.5198 383.775 27.3261 381.703C33.0323 381.002 38.9538 381.497 44.9076 383.136H44.9184ZM46.6626 382.167C47.9007 376.816 48.3098 370.99 47.8468 364.803C47.8146 364.37 47.7607 363.937 47.7177 363.504C48.1268 363.319 48.5467 363.143 48.9558 362.958C54.7804 360.246 59.8514 356.998 64.0718 353.296C68.2922 356.998 73.3632 360.256 79.1878 362.958C79.5861 363.143 80.006 363.319 80.4259 363.504C80.3829 363.937 80.329 364.37 80.2967 364.803C79.8338 370.99 80.2429 376.816 81.481 382.167C76.0225 383.817 70.5424 386.394 65.1807 389.869C64.8147 390.106 64.4379 390.375 64.0718 390.622C63.7057 390.375 63.3289 390.117 62.9629 389.869C57.6012 386.394 52.1319 383.817 46.6626 382.167ZM83.2252 383.136C89.179 381.497 95.1005 381.002 100.807 381.703C117.613 383.765 131.459 395.726 137.638 413.224C118.733 416.853 100.99 411.337 90.7186 398.438C87.2303 394.056 84.7217 388.9 83.2144 383.136H83.2252ZM261.796 383.136C260.3 388.89 257.78 394.056 254.292 398.438C244.021 411.337 226.278 416.853 207.372 413.224C213.552 395.726 227.398 383.775 244.204 381.703C249.91 381.002 255.832 381.497 261.785 383.136H261.796ZM263.54 382.167C264.779 376.816 265.188 370.99 264.725 364.803C264.692 364.37 264.639 363.937 264.596 363.504C265.005 363.319 265.425 363.143 265.834 362.958C271.658 360.246 276.729 356.998 280.95 353.296C285.17 356.998 290.241 360.256 296.066 362.958C296.464 363.143 296.895 363.319 297.304 363.504C297.261 363.937 297.207 364.37 297.175 364.803C296.712 370.99 297.121 376.816 298.359 382.167C292.9 383.817 287.42 386.394 282.059 389.869C281.693 390.106 281.316 390.375 280.95 390.622C280.584 390.375 280.207 390.117 279.841 389.869C274.479 386.394 269.01 383.817 263.54 382.167ZM300.103 383.136C306.057 381.497 311.978 381.002 317.685 381.703C334.491 383.765 348.336 395.726 354.516 413.224C335.611 416.853 317.868 411.337 307.596 398.438C304.108 394.056 301.6 388.9 300.092 383.136H300.103ZM379.301 277.531C372.765 262.56 376.652 245.093 389.389 231.225C402.115 245.093 406.001 262.56 399.477 277.531C397.259 282.615 393.846 287.275 389.389 291.4C384.931 287.275 381.518 282.615 379.301 277.531ZM405.872 302.051C405.624 301.937 405.377 301.834 405.14 301.731C399.477 299.102 394.567 295.947 390.455 292.369C395.03 288.131 398.529 283.326 400.823 278.078C407.595 262.549 403.568 244.474 390.368 230.173C390.045 229.823 389.712 229.462 389.378 229.121C389.044 229.472 388.71 229.823 388.387 230.173C375.188 244.474 371.161 262.549 377.933 278.078C380.226 283.326 383.726 288.131 388.301 292.369C384.199 295.947 379.279 299.102 373.616 301.731C373.379 301.845 373.121 301.948 372.884 302.051C371.204 287.234 364.884 270.633 354.075 252.63C364.97 234.638 376.835 221.151 389.367 212.469C401.91 221.151 413.774 234.638 424.659 252.63C413.861 270.633 407.541 287.244 405.85 302.051H405.872ZM379.301 157.605C372.765 142.633 376.652 125.166 389.389 111.298C402.115 125.166 406.001 142.633 399.477 157.605C397.259 162.688 393.846 167.348 389.389 171.473C384.931 167.348 381.518 162.688 379.301 157.605ZM405.872 182.124C405.624 182.011 405.377 181.907 405.14 181.804C399.477 179.175 394.567 176.02 390.455 172.442C395.03 168.204 398.529 163.399 400.823 158.151C407.595 142.623 403.568 124.548 390.368 110.246C390.045 109.896 389.712 109.535 389.378 109.195C389.044 109.545 388.71 109.896 388.387 110.246C375.188 124.548 371.161 142.623 377.933 158.151C380.226 163.399 383.726 168.204 388.301 172.442C384.199 176.02 379.279 179.175 373.616 181.804C373.379 181.918 373.121 182.021 372.884 182.124C371.204 167.307 364.884 150.706 354.075 132.704C364.97 114.711 376.835 101.224 389.367 92.5424C401.91 101.224 413.774 114.711 424.659 132.704C413.861 150.706 407.541 167.317 405.85 182.124H405.872ZM371.689 65.0946C372.141 71.1059 371.753 76.7563 370.558 81.953C364.432 80.2826 358.338 79.7774 352.449 80.4992C335.029 82.6438 320.688 95.0273 314.358 113.123C314.196 113.566 314.046 114.02 313.895 114.474C314.379 114.577 314.864 114.67 315.348 114.773C334.878 118.567 353.246 112.876 363.894 99.4919C367.49 94.9654 370.084 89.6656 371.635 83.7471C376.921 85.3556 382.229 87.8612 387.44 91.2432C387.666 91.3875 387.881 91.5422 388.097 91.6865C375.543 100.492 363.689 114.03 352.804 131.992C331.089 131.951 312.958 128.858 298.843 122.795C300.415 108.06 306.692 91.47 317.512 73.4361C339.196 73.3949 357.369 70.3325 371.603 64.3213C371.624 64.579 371.656 64.8368 371.678 65.0946H371.689ZM370.224 83.3244C368.728 89.0779 366.209 94.2437 362.72 98.6258C352.449 111.525 334.706 117.041 315.8 113.412C321.98 95.914 335.826 83.9636 352.632 81.8911C358.338 81.19 364.26 81.6849 370.214 83.3244H370.224ZM282.877 31.2746C288.088 27.8926 293.396 25.3974 298.682 23.7785C300.232 29.697 302.827 34.9969 306.423 39.5234C317.071 52.907 335.438 58.5987 354.969 54.8042C355.453 54.7114 355.938 54.6186 356.422 54.5052C356.271 54.0515 356.12 53.6082 355.959 53.1545C349.628 35.0587 335.288 22.6753 317.868 20.5306C311.978 19.8088 305.885 20.3141 299.759 21.9844C298.574 16.7877 298.176 11.1373 298.628 5.12602C298.65 4.86825 298.682 4.61047 298.703 4.3527C312.937 10.364 331.121 13.4263 352.794 13.4676C363.614 31.5015 369.88 48.0815 371.463 62.8262C357.348 68.889 339.217 71.9823 317.501 72.0235C306.627 54.0618 294.763 40.5132 282.209 31.718C282.425 31.5736 282.651 31.419 282.866 31.2746H282.877ZM300.092 23.3661C306.046 21.7267 311.968 21.2317 317.674 21.9329C334.48 23.9951 348.326 35.9558 354.506 53.4535C335.6 57.083 317.857 51.5666 307.586 38.6676C304.097 34.2854 301.589 29.1299 300.082 23.3661H300.092ZM316.231 72.7453C305.432 90.7482 299.113 107.359 297.422 122.166C297.185 122.052 296.927 121.949 296.69 121.846C291.027 119.217 286.118 116.062 282.005 112.484C286.58 108.246 290.08 103.441 292.373 98.1928C299.145 82.6645 295.118 64.5893 281.919 50.288C281.596 49.9375 281.262 49.5766 280.928 49.2363C280.594 49.5869 280.261 49.9375 279.938 50.288C266.738 64.5893 262.711 82.6645 269.483 98.1928C271.777 103.441 275.276 108.246 279.851 112.484C275.749 116.062 270.829 119.217 265.166 121.846C264.929 121.96 264.671 122.063 264.434 122.166C262.755 107.349 256.435 90.7482 245.625 72.7453C256.521 54.7527 268.385 41.2659 280.917 32.5841C293.46 41.2659 305.325 54.7527 316.21 72.7453H316.231ZM209.073 13.4779C230.757 13.4367 248.93 10.3743 263.164 4.36301C263.185 4.62078 263.217 4.87856 263.239 5.13633C263.691 11.1476 263.304 16.798 262.109 21.9948C255.982 20.3244 249.889 19.8191 243.999 20.5409C226.579 22.6856 212.239 35.0691 205.908 53.1648C205.747 53.6082 205.596 54.0618 205.445 54.5155C205.93 54.6186 206.414 54.7114 206.899 54.8145C226.429 58.609 244.796 52.9173 255.444 39.5337C259.04 35.0072 261.635 29.7074 263.185 23.7889C268.471 25.3974 273.779 27.9029 278.99 31.2849C279.216 31.4293 279.432 31.5839 279.647 31.7283C267.093 40.5339 255.24 54.0722 244.355 72.0339C222.639 71.9926 204.508 68.8993 190.394 62.8365C191.966 48.1021 198.242 31.5118 209.063 13.4779H209.073ZM261.775 23.3661C260.278 29.1196 257.759 34.2854 254.271 38.6676C243.999 51.5666 226.256 57.083 207.351 53.4535C213.531 35.9558 227.376 24.0054 244.182 21.9329C249.889 21.2317 255.81 21.7267 261.764 23.3661H261.775ZM190.178 65.0946C190.2 64.8368 190.232 64.579 190.254 64.3213C204.487 70.3325 222.661 73.3949 244.344 73.4361C255.164 91.47 261.441 108.05 263.013 122.795C248.898 128.858 230.768 131.951 209.052 131.992C198.178 114.03 186.313 100.482 173.76 91.6865C173.975 91.5422 174.201 91.3875 174.416 91.2432C179.627 87.8612 184.935 85.3659 190.221 83.7471C191.772 89.6656 194.366 94.9654 197.962 99.4919C208.61 112.876 226.978 118.567 246.508 114.773C246.992 114.68 247.477 114.587 247.961 114.474C247.811 114.02 247.66 113.577 247.499 113.123C241.168 95.0273 226.827 82.6438 209.407 80.4992C203.518 79.7774 197.424 80.2826 191.298 81.953C190.114 76.7563 189.715 71.1059 190.168 65.0946H190.178ZM191.643 83.3244C197.596 81.6849 203.518 81.19 209.224 81.8911C226.03 83.9533 239.876 95.914 246.056 113.412C227.15 117.041 209.407 111.525 199.136 98.6258C195.648 94.2437 193.139 89.0882 191.632 83.3244H191.643ZM156.264 64.9915C156.232 64.5584 156.178 64.1253 156.135 63.6923C156.544 63.5067 156.964 63.3314 157.373 63.1458C163.198 60.434 168.269 57.1861 172.489 53.4844C176.71 57.1861 181.781 60.4443 187.605 63.1458C188.004 63.3314 188.423 63.5067 188.843 63.6923C188.8 64.1253 188.746 64.5584 188.714 64.9915C188.251 71.178 188.66 77.0037 189.898 82.3551C184.44 84.0049 178.96 86.5826 173.598 90.0574C173.232 90.2946 172.855 90.5627 172.489 90.8101C172.123 90.5627 171.746 90.3049 171.38 90.0574C166.019 86.5826 160.549 84.0049 155.08 82.3551C156.318 77.0037 156.727 71.178 156.264 64.9915ZM154.8 65.0946C155.252 71.1059 154.865 76.7563 153.67 81.953C147.544 80.2826 141.45 79.7774 135.561 80.4992C118.141 82.6438 103.8 95.0273 97.4691 113.123C97.3076 113.566 97.1569 114.02 97.0061 114.474C97.4906 114.577 97.9751 114.67 98.4596 114.773C117.99 118.567 136.357 112.876 147.005 99.4919C150.601 94.9654 153.196 89.6656 154.746 83.7471C160.033 85.3556 165.34 87.8612 170.551 91.2432C170.777 91.3875 170.993 91.5422 171.208 91.6865C158.654 100.492 146.801 114.03 135.916 131.992C114.2 131.951 96.0695 128.858 81.9547 122.795C83.5266 108.06 89.8034 91.47 100.624 73.4361C122.307 73.3949 140.481 70.3325 154.714 64.3213C154.735 64.579 154.768 64.8368 154.789 65.0946H154.8ZM153.336 83.3244C151.839 89.0779 149.331 94.2437 145.832 98.6258C135.561 111.525 117.818 117.041 98.9118 113.412C105.092 95.914 118.937 83.9636 135.744 81.8911C141.45 81.19 147.371 81.6849 153.325 83.3244H153.336ZM65.9882 31.2746C71.1991 27.8926 76.5069 25.3974 81.7932 23.7785C83.3436 29.697 85.9383 34.9969 89.5343 39.5234C100.182 52.907 118.55 58.5987 138.08 54.8042C138.564 54.7114 139.049 54.6186 139.533 54.5052C139.383 54.0515 139.232 53.6082 139.07 53.1545C132.74 35.0587 118.399 22.6753 100.979 20.5306C95.0897 19.8088 88.9959 20.3141 82.8699 21.9844C81.6856 16.7877 81.2872 11.1373 81.7394 5.12602C81.7609 4.86825 81.7932 4.61047 81.8148 4.3527C96.0479 10.364 114.232 13.4263 135.905 13.4676C146.725 31.5015 153.002 48.0815 154.574 62.8262C140.459 68.889 122.329 71.9823 100.613 72.0235C89.7388 54.0618 77.8743 40.5132 65.3207 31.718C65.536 31.5736 65.7621 31.419 65.9774 31.2746H65.9882ZM83.2036 23.3661C89.1574 21.7267 95.0789 21.2317 100.785 21.9329C117.591 23.9951 131.437 35.9558 137.617 53.4535C118.711 57.083 100.968 51.5666 90.697 38.6676C87.2087 34.2854 84.7002 29.1299 83.1929 23.3661H83.2036ZM99.3424 72.7453C88.5438 90.7482 82.2239 107.359 80.5336 122.166C80.2967 122.052 80.0383 121.949 79.8015 121.846C74.1384 119.217 69.2289 116.062 65.1161 112.484C69.6918 108.246 73.1909 103.441 75.4841 98.1928C82.2562 82.6645 78.2296 64.5893 65.03 50.288C64.707 49.9375 64.3732 49.5766 64.0395 49.2363C63.7057 49.5869 63.372 49.9375 63.049 50.288C49.8494 64.5893 45.8228 82.6645 52.5948 98.1928C54.8881 103.441 58.3871 108.246 62.9629 112.484C58.8609 116.062 53.9406 119.217 48.2775 121.846C48.0407 121.96 47.7823 122.063 47.5454 122.166C45.8658 107.349 39.546 90.7482 28.7365 72.7453C39.6321 54.7527 51.4967 41.2659 64.0287 32.5841C76.5715 41.2659 88.4361 54.7527 99.3209 72.7453H99.3424ZM-7.76147 13.5501C13.922 13.5088 32.0956 10.4465 46.3288 4.43519C46.3503 4.69296 46.3826 4.95073 46.4042 5.20851C46.8564 11.2198 46.4688 16.8702 45.2737 22.0669C39.1476 20.3966 33.0539 19.8913 27.1647 20.6131C9.74466 22.7578 -4.59616 35.1412 -10.9268 53.237C-11.0883 53.6803 -11.239 54.134 -11.3898 54.5877C-10.9053 54.6908 -10.4208 54.7836 -9.93628 54.8867C9.59392 58.6812 27.9613 52.9895 38.6093 39.6059C42.2053 35.0794 44.8 29.7795 46.3503 23.861C51.6366 25.4695 56.9444 27.9751 62.1554 31.3571C62.3815 31.5015 62.5968 31.6561 62.8121 31.8005C50.2585 40.606 38.4047 54.1443 27.5199 72.106C5.80415 72.0648 -12.3264 68.9715 -26.4411 62.9087C-24.8692 48.1743 -18.5925 31.5839 -7.77225 13.5501H-7.76147ZM44.9399 23.4383C43.4434 29.1918 40.9348 34.3576 37.4358 38.7398C27.1646 51.6388 9.42166 57.1551 -9.4841 53.5257C-3.3042 36.028 10.5414 24.0776 27.3477 22.0051C33.0539 21.3039 38.9754 21.7988 44.9292 23.4383H44.9399ZM-26.6565 65.1667C-26.6349 64.909 -26.6026 64.6512 -26.5811 64.3934C-12.348 70.4047 5.83646 73.4671 27.5092 73.5083C38.3294 91.5422 44.6062 108.122 46.1781 122.867C32.0633 128.93 13.9328 132.023 -7.783 132.064C-18.6571 114.103 -30.5216 100.554 -43.0752 91.7587C-42.8599 91.6144 -42.6338 91.4597 -42.4184 91.3154C-37.2075 87.9334 -31.8997 85.4381 -26.6134 83.8193C-25.063 89.7378 -22.4684 95.0376 -18.8724 99.5641C-8.22444 112.948 10.143 118.639 29.6732 114.845C30.1577 114.752 30.6422 114.659 31.1267 114.546C30.9759 114.092 30.8252 113.649 30.6637 113.195C24.3331 95.0995 9.99228 82.716 -7.42772 80.5713C-13.3169 79.8496 -19.4107 80.3548 -25.5368 82.0252C-26.7211 76.8284 -27.1194 71.178 -26.6672 65.1667H-26.6565ZM-25.1922 83.3965C-19.2384 81.7571 -13.3169 81.2622 -7.61075 81.9633C9.19557 84.0255 23.0411 95.9862 29.221 113.484C10.3153 117.113 -7.42773 111.597 -17.6989 98.698C-21.1871 94.3158 -23.6957 89.1604 -25.203 83.3965H-25.1922ZM-60.5705 65.0636C-60.6029 64.6306 -60.6567 64.1975 -60.6998 63.7645C-60.2906 63.5789 -59.8707 63.4036 -59.4616 63.218C-53.637 60.5062 -48.566 57.2582 -44.3456 53.5566C-40.1252 57.2582 -35.0542 60.5165 -29.2296 63.218C-28.8313 63.4036 -28.4114 63.5789 -27.9915 63.7645C-28.0346 64.1975 -28.0884 64.6306 -28.1207 65.0636C-28.5836 71.2502 -28.1745 77.0759 -26.9364 82.4273C-32.3949 84.0771 -37.875 86.6548 -43.2367 90.1296C-43.6027 90.3667 -43.9796 90.6348 -44.3456 90.8823C-44.7117 90.6348 -45.0885 90.3771 -45.4546 90.1296C-50.8162 86.6548 -56.2855 84.0771 -61.7549 82.4273C-60.5167 77.0759 -60.1076 71.2502 -60.5705 65.0636ZM-151.514 31.7902C-151.299 31.6458 -151.073 31.4911 -150.857 31.3468C-145.646 27.9648 -140.339 25.4695 -135.052 23.8507C-133.502 29.7692 -130.907 35.0691 -127.311 39.5956C-116.663 52.9792 -98.2959 58.6708 -78.7657 54.8764C-78.2812 54.7836 -77.7968 54.6908 -77.3123 54.5774C-77.463 54.1237 -77.6137 53.6803 -77.7752 53.2267C-84.1059 35.1309 -98.4467 22.7475 -115.867 20.6028C-121.756 19.881 -127.85 20.3862 -133.976 22.0566C-135.16 16.8599 -135.558 11.2095 -135.106 5.1982C-135.085 4.94042 -135.052 4.68265 -135.031 4.42487C-120.798 10.4362 -102.624 13.4985 -80.9405 13.5398C-70.1203 31.5736 -63.8435 48.1537 -62.2716 62.8983C-76.3864 68.9612 -94.5169 72.0545 -116.233 72.0957C-127.107 54.134 -138.971 40.5854 -151.525 31.7902H-151.514ZM-133.631 23.4383C-127.677 21.7988 -121.756 21.3039 -116.05 22.0051C-99.2434 24.0673 -85.3978 36.028 -79.2179 53.5257C-98.1237 57.1551 -115.867 51.6388 -126.138 38.7398C-129.626 34.3576 -132.135 29.2021 -133.642 23.4383H-133.631ZM-116.211 73.5083C-94.5277 73.4671 -76.3541 70.4047 -62.1209 64.3934C-62.0994 64.6512 -62.0671 64.909 -62.0455 65.1667C-61.5934 71.178 -61.9809 76.8284 -63.176 82.0252C-69.3021 80.3548 -75.3959 79.8496 -81.2851 80.5713C-98.7051 82.716 -113.046 95.0995 -119.376 113.195C-119.538 113.639 -119.689 114.092 -119.839 114.546C-119.355 114.649 -118.87 114.742 -118.386 114.845C-98.8558 118.639 -80.4883 112.948 -69.8404 99.5641C-66.2444 95.0376 -63.6497 89.7378 -62.0994 83.8193C-56.8131 85.4278 -51.5053 87.9334 -46.2943 91.3154C-46.0682 91.4597 -45.8529 91.6144 -45.6376 91.7587C-58.1912 100.564 -70.045 114.103 -80.9298 132.064C-102.646 132.023 -120.776 128.93 -134.891 122.867C-133.319 108.133 -127.042 91.5422 -116.222 73.5083H-116.211ZM-63.5098 83.3965C-65.0063 89.15 -67.5149 94.3158 -71.0139 98.698C-81.2851 111.597 -99.028 117.113 -117.934 113.484C-111.754 95.9862 -97.9083 84.0358 -81.102 81.9633C-75.3959 81.2622 -69.4743 81.7571 -63.5205 83.3965H-63.5098ZM-151.514 151.707C-151.299 151.562 -151.073 151.408 -150.857 151.263C-145.646 147.881 -140.339 145.386 -135.052 143.767C-133.502 149.686 -130.907 154.986 -127.311 159.512C-116.663 172.896 -98.2959 178.587 -78.7657 174.793C-78.2812 174.7 -77.7968 174.607 -77.3123 174.494C-77.463 174.04 -77.6137 173.597 -77.7752 173.143C-84.1059 155.047 -98.4467 142.664 -115.867 140.519C-121.756 139.798 -127.85 140.303 -133.976 141.973C-135.16 136.776 -135.558 131.126 -135.106 125.115C-135.085 124.857 -135.052 124.599 -135.031 124.341C-120.798 130.353 -102.624 133.415 -80.9405 133.456C-70.1203 151.49 -63.8435 168.07 -62.2716 182.815C-76.3864 188.878 -94.5169 191.971 -116.233 192.012C-127.107 174.051 -138.971 160.502 -151.525 151.707H-151.514ZM-133.631 143.355C-127.677 141.715 -121.756 141.22 -116.05 141.922C-99.2434 143.984 -85.3978 155.944 -79.2179 173.442C-98.1237 177.072 -115.867 171.555 -126.138 158.656C-129.626 154.274 -132.135 149.119 -133.642 143.355H-133.631ZM-116.211 193.425C-94.5277 193.384 -76.3541 190.321 -62.1209 184.31C-62.0994 184.568 -62.0671 184.825 -62.0455 185.083C-61.5934 191.095 -61.9809 196.745 -63.176 201.942C-69.3021 200.271 -75.3959 199.766 -81.2851 200.488C-98.7051 202.633 -113.046 215.016 -119.376 233.112C-119.538 233.555 -119.689 234.009 -119.839 234.462C-119.355 234.566 -118.87 234.658 -118.386 234.761C-98.8558 238.556 -80.4883 232.864 -69.8404 219.481C-66.2444 214.954 -63.6497 209.654 -62.0994 203.736C-56.8131 205.344 -51.5053 207.85 -46.2943 211.232C-46.0682 211.376 -45.8529 211.531 -45.6376 211.675C-58.1912 220.481 -70.045 234.019 -80.9298 251.981C-102.646 251.94 -120.776 248.846 -134.891 242.783C-133.319 228.049 -127.042 211.459 -116.222 193.425H-116.211ZM-63.5098 203.313C-65.0063 209.067 -67.5149 214.232 -71.0139 218.615C-81.2851 231.514 -99.028 237.03 -117.934 233.4C-111.754 215.903 -97.9083 203.952 -81.102 201.88C-75.3959 201.179 -69.4743 201.674 -63.5205 203.313H-63.5098ZM-151.514 271.623C-151.299 271.479 -151.073 271.324 -150.857 271.18C-145.646 267.798 -140.339 265.303 -135.052 263.684C-133.502 269.602 -130.907 274.902 -127.311 279.429C-116.663 292.812 -98.2959 298.504 -78.7657 294.709C-78.2812 294.617 -77.7968 294.524 -77.3123 294.41C-77.463 293.957 -77.6137 293.513 -77.7752 293.06C-84.1059 274.964 -98.4467 262.58 -115.867 260.436C-121.756 259.714 -127.85 260.219 -133.976 261.89C-135.16 256.693 -135.558 251.042 -135.106 245.031C-135.085 244.773 -135.052 244.516 -135.031 244.258C-120.798 250.269 -102.624 253.331 -80.9405 253.373C-70.1203 271.407 -63.8435 287.987 -62.2716 302.731C-76.3864 308.794 -94.5169 311.887 -116.233 311.929C-127.107 293.967 -138.971 280.418 -151.525 271.623H-151.514ZM-133.631 263.271C-127.677 261.632 -121.756 261.137 -116.05 261.838C-99.2434 263.9 -85.3978 275.861 -79.2179 293.359C-98.1237 296.988 -115.867 291.472 -126.138 278.573C-129.626 274.191 -132.135 269.035 -133.642 263.271H-133.631ZM-116.211 313.341C-94.5277 313.3 -76.3541 310.238 -62.1209 304.226C-62.0994 304.484 -62.0671 304.742 -62.0455 305C-61.5934 311.011 -61.9809 316.661 -63.176 321.858C-69.3021 320.188 -75.3959 319.683 -81.2851 320.404C-98.7051 322.549 -113.046 334.932 -119.376 353.028C-119.538 353.472 -119.689 353.925 -119.839 354.379C-119.355 354.482 -118.87 354.575 -118.386 354.678C-98.8558 358.472 -80.4883 352.781 -69.8404 339.397C-66.2444 334.871 -63.6497 329.571 -62.0994 323.652C-56.8131 325.261 -51.5053 327.766 -46.2943 331.148C-46.0682 331.293 -45.8529 331.447 -45.6376 331.592C-58.1912 340.397 -70.045 353.936 -80.9298 371.897C-102.646 371.856 -120.776 368.763 -134.891 362.7C-133.319 347.966 -127.042 331.375 -116.222 313.341H-116.211ZM-63.5098 323.23C-65.0063 328.983 -67.5149 334.149 -71.0139 338.531C-81.2851 351.43 -99.028 356.946 -117.934 353.317C-111.754 335.819 -97.9083 323.869 -81.102 321.796C-75.3959 321.095 -69.4743 321.59 -63.5205 323.23H-63.5098ZM-151.514 391.54C-151.299 391.395 -151.073 391.241 -150.857 391.096C-145.646 387.714 -140.339 385.219 -135.052 383.6C-133.502 389.519 -130.907 394.819 -127.311 399.345C-116.663 412.729 -98.2959 418.42 -78.7657 414.626C-78.2812 414.533 -77.7968 414.44 -77.3123 414.327C-77.463 413.873 -77.6137 413.43 -77.7752 412.976C-84.1059 394.88 -98.4467 382.497 -115.867 380.352C-121.756 379.63 -127.85 380.136 -133.976 381.806C-135.16 376.609 -135.558 370.959 -135.106 364.948C-135.085 364.69 -135.052 364.432 -135.031 364.174C-120.798 370.186 -102.624 373.248 -80.9405 373.289C-70.1203 391.323 -63.8435 407.903 -62.2716 422.648C-76.3864 428.711 -94.5169 431.804 -116.233 431.845C-127.107 413.883 -138.971 400.335 -151.525 391.54H-151.514ZM-133.631 383.188C-127.677 381.548 -121.756 381.053 -116.05 381.755C-99.2434 383.817 -85.3978 395.777 -79.2179 413.275C-98.1237 416.905 -115.867 411.388 -126.138 398.489C-129.626 394.107 -132.135 388.952 -133.642 383.188H-133.631ZM-80.9082 491.803C-102.624 491.762 -120.755 488.669 -134.869 482.606C-133.297 467.872 -127.021 451.281 -116.2 433.247C-94.5169 433.206 -76.3433 430.144 -62.1101 424.133C-62.0886 424.39 -62.0563 424.648 -62.0348 424.906C-61.5826 430.917 -61.9702 436.568 -63.1653 441.764C-69.2913 440.094 -75.3851 439.589 -81.2743 440.31C-98.6943 442.455 -113.035 454.839 -119.366 472.934C-119.527 473.378 -119.678 473.831 -119.829 474.285C-119.344 474.388 -118.86 474.481 -118.375 474.584C-98.845 478.379 -80.4776 472.687 -69.8296 459.303C-66.2337 454.777 -63.639 449.477 -62.0886 443.558C-56.8023 445.167 -51.4945 447.673 -46.2836 451.055C-46.0575 451.199 -45.8422 451.354 -45.6268 451.498C-58.1804 460.303 -70.0342 473.842 -80.919 491.803H-80.9082ZM-63.499 443.146C-64.9955 448.9 -67.5041 454.065 -71.0032 458.447C-81.2743 471.346 -99.0173 476.863 -117.923 473.233C-111.743 455.736 -97.8976 443.785 -81.0913 441.713C-75.3851 441.012 -69.4636 441.507 -63.5098 443.146H-63.499ZM-45.4546 449.879C-50.8162 446.404 -56.2855 443.827 -61.7549 442.177C-60.5167 436.825 -60.1076 431 -60.5705 424.813C-60.6029 424.38 -60.6567 423.947 -60.6998 423.514C-60.2906 423.328 -59.8707 423.153 -59.4616 422.967C-53.637 420.256 -48.566 417.008 -44.3456 413.306C-40.1252 417.008 -35.0542 420.266 -29.2296 422.967C-28.8313 423.153 -28.4114 423.328 -27.9915 423.514C-28.0346 423.947 -28.0884 424.38 -28.1207 424.813C-28.5836 431 -28.1745 436.825 -26.9364 442.177C-32.3949 443.827 -37.875 446.404 -43.2367 449.879C-43.6027 450.116 -43.9796 450.384 -44.3456 450.632C-44.7117 450.384 -45.0885 450.127 -45.4546 449.879ZM-7.783 491.803C-18.6571 473.842 -30.5216 460.293 -43.0752 451.498C-42.8599 451.354 -42.6338 451.199 -42.4184 451.055C-37.2075 447.673 -31.8997 445.177 -26.6134 443.558C-25.063 449.477 -22.4684 454.777 -18.8724 459.303C-8.22444 472.687 10.143 478.379 29.6732 474.584C30.1577 474.491 30.6422 474.399 31.1267 474.285C30.9759 473.831 30.8252 473.388 30.6637 472.934C24.3331 454.839 9.99228 442.455 -7.42772 440.31C-13.3169 439.589 -19.4107 440.094 -25.5368 441.764C-26.7211 436.568 -27.1194 430.917 -26.6672 424.906C-26.6457 424.648 -26.6134 424.39 -26.5919 424.133C-12.3587 430.144 5.8257 433.206 27.4984 433.247C38.3186 451.281 44.5954 467.861 46.1673 482.606C32.0526 488.669 13.922 491.762 -7.79378 491.803H-7.783ZM-25.1922 443.146C-19.2384 441.507 -13.3169 441.012 -7.61075 441.713C9.19557 443.775 23.0411 455.736 29.221 473.233C10.3153 476.863 -7.42773 471.346 -17.6989 458.447C-21.1871 454.065 -23.6957 448.91 -25.203 443.146H-25.1922ZM54.0052 457.458C47.47 442.486 51.3567 425.019 64.0933 411.151C76.8192 425.019 80.7058 442.486 74.1814 457.458C71.9635 462.541 68.5506 467.201 64.0933 471.326C59.636 467.201 56.2231 462.541 54.0052 457.458ZM80.5766 481.977C80.3398 481.864 80.0814 481.761 79.8445 481.657C74.1814 479.028 69.2719 475.873 65.1592 472.295C69.7349 468.057 73.234 463.252 75.5272 458.004C82.2993 442.476 78.2726 424.401 65.0731 410.099C64.7501 409.749 64.4163 409.388 64.0826 409.048C63.7488 409.398 63.415 409.749 63.092 410.099C49.8925 424.401 45.8658 442.476 52.6379 458.004C54.9311 463.252 58.4302 468.057 63.0059 472.295C58.9039 475.873 53.9837 479.028 48.3206 481.657C48.0837 481.771 47.8253 481.874 47.5885 481.977C45.9089 467.16 39.5891 450.56 28.7796 432.557C39.6752 414.564 51.5397 401.077 64.0718 392.395C76.6146 401.077 88.4792 414.564 99.364 432.557C88.5653 450.56 82.2454 467.171 80.5551 481.977H80.5766ZM135.959 491.793C114.243 491.752 96.1125 488.659 81.9978 482.596C83.5697 467.861 89.8465 451.271 100.667 433.237C122.35 433.196 140.524 430.134 154.757 424.122C154.779 424.38 154.811 424.638 154.832 424.896C155.285 430.907 154.897 436.557 153.702 441.754C147.576 440.084 141.482 439.578 135.593 440.3C118.173 442.445 103.832 454.828 97.5014 472.924C97.3399 473.367 97.1891 473.821 97.0384 474.275C97.5229 474.378 98.0074 474.471 98.4919 474.574C118.022 478.368 136.39 472.677 147.037 459.293C150.633 454.766 153.228 449.467 154.779 443.548C160.065 445.157 165.373 447.662 170.584 451.044C170.81 451.189 171.025 451.343 171.24 451.488C158.687 460.293 146.833 473.831 135.948 491.793H135.959ZM153.368 443.136C151.872 448.889 149.363 454.055 145.864 458.437C135.593 471.336 117.85 476.853 98.9441 473.223C105.124 455.725 118.97 443.775 135.776 441.702C141.482 441.001 147.404 441.496 153.357 443.136H153.368ZM171.413 449.869C166.051 446.394 160.582 443.816 155.112 442.166C156.35 436.815 156.76 430.989 156.297 424.803C156.264 424.37 156.21 423.937 156.167 423.504C156.577 423.318 156.996 423.143 157.406 422.957C163.23 420.245 168.301 416.997 172.521 413.296C176.742 416.997 181.813 420.256 187.637 422.957C188.036 423.143 188.456 423.318 188.876 423.504C188.833 423.937 188.779 424.37 188.746 424.803C188.283 430.989 188.693 436.815 189.931 442.166C184.472 443.816 178.992 446.394 173.63 449.869C173.264 450.106 172.888 450.374 172.521 450.621C172.155 450.374 171.779 450.116 171.413 449.869ZM209.084 491.793C198.21 473.831 186.346 460.283 173.792 451.488C174.007 451.343 174.233 451.189 174.449 451.044C179.66 447.662 184.967 445.167 190.254 443.548C191.804 449.467 194.399 454.766 197.995 459.293C208.643 472.677 227.01 478.368 246.54 474.574C247.025 474.481 247.509 474.388 247.994 474.275C247.843 473.821 247.692 473.378 247.531 472.924C241.2 454.828 226.859 442.445 209.439 440.3C203.55 439.578 197.456 440.084 191.33 441.754C190.146 436.557 189.748 430.907 190.2 424.896C190.221 424.638 190.254 424.38 190.275 424.122C204.508 430.134 222.682 433.196 244.366 433.237C255.186 451.271 261.463 467.851 263.034 482.596C248.92 488.659 230.789 491.752 209.073 491.793H209.084ZM191.675 443.136C197.629 441.496 203.55 441.001 209.256 441.702C226.063 443.765 239.908 455.725 246.088 473.223C227.182 476.853 209.439 471.336 199.168 458.437C195.68 454.055 193.171 448.9 191.664 443.136H191.675ZM270.872 457.447C264.337 442.476 268.224 425.009 280.96 411.141C293.686 425.009 297.573 442.476 291.049 457.447C288.831 462.531 285.418 467.191 280.96 471.316C276.503 467.191 273.09 462.531 270.872 457.447ZM297.444 481.967C297.207 481.853 296.948 481.75 296.712 481.647C291.049 479.018 286.139 475.863 282.026 472.285C286.602 468.047 290.101 463.242 292.394 457.994C299.166 442.465 295.14 424.39 281.94 410.089C281.617 409.738 281.283 409.378 280.95 409.037C280.616 409.388 280.282 409.738 279.959 410.089C266.76 424.39 262.733 442.465 269.505 457.994C271.798 463.242 275.297 468.047 279.873 472.285C275.771 475.863 270.851 479.018 265.188 481.647C264.951 481.761 264.692 481.864 264.456 481.967C262.776 467.15 256.456 450.549 245.647 432.546C256.542 414.554 268.407 401.067 280.939 392.385C293.482 401.067 305.346 414.554 316.231 432.546C305.432 450.549 299.113 467.16 297.422 481.967H297.444ZM352.826 491.783C331.11 491.742 312.98 488.648 298.865 482.585C300.437 467.851 306.714 451.261 317.534 433.227C339.217 433.186 357.391 430.123 371.624 424.112C371.646 424.37 371.678 424.628 371.699 424.885C372.152 430.897 371.764 436.547 370.569 441.744C364.443 440.073 358.349 439.568 352.46 440.29C335.04 442.435 320.699 454.818 314.368 472.914C314.207 473.357 314.056 473.811 313.906 474.264C314.39 474.368 314.875 474.46 315.359 474.564C334.889 478.358 353.257 472.666 363.905 459.283C367.501 454.756 370.095 449.456 371.646 443.538C376.932 445.146 382.24 447.652 387.451 451.034C387.677 451.178 387.892 451.333 388.107 451.477C375.554 460.283 363.7 473.821 352.815 491.783H352.826ZM370.235 443.125C368.739 448.879 366.219 454.045 362.731 458.427C352.46 471.326 334.717 476.842 315.811 473.213C321.991 455.715 335.837 443.765 352.643 441.692C358.349 440.991 364.271 441.486 370.224 443.125H370.235ZM388.28 449.858C382.918 446.384 377.449 443.806 371.979 442.156C373.218 436.805 373.627 430.979 373.164 424.792C373.131 424.359 373.078 423.926 373.045 423.493C373.454 423.308 373.874 423.132 374.283 422.947C380.108 420.235 385.179 416.987 389.399 413.285C393.62 416.987 398.691 420.245 404.515 422.947C404.914 423.132 405.334 423.308 405.754 423.493C405.71 423.926 405.667 424.359 405.635 424.792C405.172 430.979 405.581 436.805 406.819 442.156C401.361 443.806 395.881 446.384 390.519 449.858C390.153 450.096 389.776 450.364 389.41 450.611C389.044 450.364 388.667 450.106 388.301 449.858H388.28ZM479.923 482.585C465.808 488.648 447.678 491.742 425.962 491.783C415.088 473.821 403.223 460.273 390.67 451.477C390.885 451.333 391.111 451.178 391.327 451.034C396.538 447.652 401.845 445.157 407.132 443.538C408.682 449.456 411.277 454.756 414.873 459.283C425.521 472.666 443.888 478.358 463.418 474.564C463.903 474.471 464.387 474.378 464.872 474.264C464.721 473.811 464.57 473.367 464.409 472.914C458.078 454.818 443.737 442.435 426.317 440.29C420.428 439.568 414.334 440.073 408.208 441.744C407.024 436.547 406.626 430.897 407.078 424.885C407.099 424.628 407.132 424.37 407.153 424.112C421.386 430.123 439.571 433.186 461.243 433.227C472.064 451.261 478.33 467.841 479.912 482.585H479.923ZM408.553 443.115C414.507 441.476 420.428 440.981 426.134 441.682C442.941 443.744 456.786 455.705 462.966 473.202C444.06 476.832 426.317 471.316 416.046 458.417C412.558 454.034 410.049 448.879 408.542 443.115H408.553ZM480.149 364.927C480.601 370.938 480.214 376.589 479.019 381.785C472.893 380.115 466.799 379.61 460.91 380.332C443.49 382.476 429.149 394.86 422.818 412.956C422.668 413.399 422.506 413.853 422.355 414.306C422.84 414.409 423.324 414.502 423.809 414.605C443.339 418.4 461.706 412.708 472.354 399.324C475.95 394.798 478.545 389.498 480.095 383.58C485.382 385.188 490.689 387.694 495.9 391.076C496.126 391.22 496.342 391.375 496.557 391.519C484.004 400.325 472.15 413.863 461.265 431.825C439.549 431.783 421.419 428.69 407.304 422.627C408.876 407.893 415.153 391.302 425.973 373.269C447.656 373.227 465.83 370.165 480.063 364.154C480.085 364.411 480.117 364.669 480.138 364.927H480.149ZM478.685 383.157C477.188 388.91 474.669 394.076 471.181 398.458C460.91 411.357 443.167 416.874 424.261 413.244C430.441 395.746 444.286 383.796 461.093 381.724C466.799 381.022 472.72 381.517 478.685 383.157ZM479.923 362.659C465.808 368.721 447.678 371.815 425.962 371.856C415.088 353.894 403.223 340.346 390.67 331.55C390.885 331.406 391.111 331.251 391.327 331.107C396.538 327.725 401.845 325.23 407.132 323.611C408.682 329.53 411.277 334.829 414.873 339.356C425.521 352.74 443.888 358.431 463.418 354.637C463.903 354.544 464.387 354.451 464.872 354.338C464.721 353.884 464.57 353.441 464.409 352.987C458.078 334.891 443.737 322.508 426.317 320.363C420.428 319.641 414.334 320.147 408.208 321.817C407.024 316.62 406.626 310.97 407.078 304.958C407.099 304.701 407.132 304.443 407.153 304.185C421.386 310.196 439.571 313.259 461.243 313.3C472.064 331.334 478.33 347.914 479.912 362.659H479.923ZM408.553 323.188C414.507 321.549 420.428 321.054 426.134 321.755C442.941 323.817 456.786 335.778 462.966 353.276C444.06 356.905 426.317 351.389 416.046 338.49C412.558 334.108 410.049 328.952 408.542 323.188H408.553ZM480.149 245C480.601 251.012 480.214 256.662 479.019 261.859C472.893 260.188 466.799 259.683 460.91 260.405C443.49 262.549 429.149 274.933 422.818 293.029C422.668 293.472 422.506 293.926 422.355 294.379C422.84 294.483 423.324 294.575 423.809 294.678C443.339 298.473 461.706 292.781 472.354 279.398C475.95 274.871 478.545 269.571 480.095 263.653C485.382 265.261 490.689 267.767 495.9 271.149C496.126 271.293 496.342 271.448 496.557 271.592C484.004 280.398 472.15 293.936 461.265 311.898C439.549 311.857 421.419 308.763 407.304 302.7C408.876 287.966 415.153 271.376 425.973 253.342C447.656 253.301 465.83 250.238 480.063 244.227C480.085 244.485 480.117 244.742 480.138 245H480.149ZM478.685 263.23C477.188 268.984 474.669 274.149 471.181 278.531C460.91 291.431 443.167 296.947 424.261 293.317C430.441 275.82 444.286 263.869 461.093 261.797C466.799 261.096 472.72 261.591 478.685 263.23ZM479.923 242.732C465.808 248.795 447.678 251.888 425.962 251.929C415.088 233.968 403.223 220.419 390.67 211.624C390.885 211.479 391.111 211.325 391.327 211.18C396.538 207.798 401.845 205.303 407.132 203.684C408.682 209.603 411.277 214.903 414.873 219.429C425.521 232.813 443.888 238.504 463.418 234.71C463.903 234.617 464.387 234.524 464.872 234.411C464.721 233.957 464.57 233.514 464.409 233.06C458.078 214.964 443.737 202.581 426.317 200.436C420.428 199.714 414.334 200.22 408.208 201.89C407.024 196.693 406.626 191.043 407.078 185.032C407.099 184.774 407.132 184.516 407.153 184.258C421.386 190.27 439.571 193.332 461.243 193.373C472.064 211.407 478.33 227.987 479.912 242.732H479.923ZM408.553 203.261C414.507 201.622 420.428 201.127 426.134 201.828C442.941 203.89 456.786 215.851 462.966 233.349C444.06 236.978 426.317 231.462 416.046 218.563C412.558 214.181 410.049 209.025 408.542 203.261H408.553ZM480.149 125.073C480.601 131.085 480.214 136.735 479.019 141.932C472.893 140.261 466.799 139.756 460.91 140.478C443.49 142.623 429.149 155.006 422.818 173.102C422.668 173.545 422.506 173.999 422.355 174.453C422.84 174.556 423.324 174.649 423.809 174.752C443.339 178.546 461.706 172.854 472.354 159.471C475.95 154.944 478.545 149.644 480.095 143.726C485.382 145.334 490.689 147.84 495.9 151.222C496.126 151.366 496.342 151.521 496.557 151.665C484.004 160.471 472.15 174.009 461.265 191.971C439.549 191.93 421.419 188.836 407.304 182.774C408.876 168.039 415.153 151.449 425.973 133.415C447.656 133.374 465.83 130.311 480.063 124.3C480.085 124.558 480.117 124.816 480.138 125.073H480.149ZM478.685 143.303C477.188 149.057 474.669 154.223 471.181 158.605C460.91 171.504 443.167 177.02 424.261 173.391C430.441 155.893 444.286 143.943 461.093 141.87C466.799 141.169 472.72 141.664 478.685 143.303ZM479.923 122.805C465.808 128.868 447.678 131.961 425.962 132.002C415.088 114.041 403.223 100.492 390.67 91.6969C390.885 91.5525 391.111 91.3978 391.327 91.2535C396.538 87.8715 401.845 85.3762 407.132 83.7574C408.682 89.6759 411.277 94.9757 414.873 99.5023C425.521 112.886 443.888 118.578 463.418 114.783C463.903 114.69 464.387 114.598 464.872 114.484C464.721 114.03 464.57 113.587 464.409 113.133C458.078 95.0376 443.737 82.6542 426.317 80.5095C420.428 79.7877 414.334 80.2929 408.208 81.9633C407.024 76.7666 406.626 71.1162 407.078 65.1049C407.099 64.8471 407.132 64.5893 407.153 64.3316C421.386 70.3429 439.571 73.4052 461.243 73.4464C472.064 91.4803 478.33 108.06 479.912 122.805H479.923ZM408.553 83.3347C414.507 81.6952 420.428 81.2003 426.134 81.9014C442.941 83.9636 456.786 95.9244 462.966 113.422C444.06 117.052 426.317 111.535 416.046 98.6361C412.558 94.254 410.049 89.0985 408.542 83.3347H408.553ZM461.276 72.0339C439.56 71.9926 421.429 68.8993 407.315 62.8365C408.887 48.1021 415.163 31.5118 425.984 13.4779C447.667 13.4367 465.841 10.3743 480.074 4.36301C480.095 4.62078 480.128 4.87856 480.149 5.13633C480.601 11.1476 480.214 16.798 479.019 21.9948C472.893 20.3244 466.799 19.8191 460.91 20.5409C443.49 22.6856 429.149 35.0691 422.818 53.1648C422.668 53.6082 422.506 54.0618 422.355 54.5155C422.84 54.6186 423.324 54.7114 423.809 54.8145C443.339 58.609 461.706 52.9173 472.354 39.5337C475.95 35.0072 478.545 29.7074 480.095 23.7889C485.382 25.3974 490.689 27.9029 495.9 31.2849C496.126 31.4293 496.342 31.5839 496.557 31.7283C484.004 40.5339 472.15 54.0722 461.265 72.0339H461.276ZM478.685 23.3764C477.188 29.1299 474.669 34.2957 471.181 38.6779C460.91 51.5769 443.167 57.0933 424.261 53.4638C430.441 35.9661 444.286 24.0157 461.093 21.9432C466.799 21.2421 472.72 21.737 478.685 23.3764Z" fill="#247174"/>
</svg>
