<svg width="32" height="32" viewBox="0 0 32 32" fill="none" xmlns="http://www.w3.org/2000/svg">
<path fill-rule="evenodd" clip-rule="evenodd" d="M17.9745 0.17823C18.525 0.458141 18.8718 1.02344 18.8718 1.64103V6.56587L28.0638 13.4846C28.4757 13.7946 28.7179 14.2802 28.7179 14.7957V28.7179H30.359C31.2653 28.7179 32 29.4527 32 30.359C32 31.2653 31.2653 32 30.359 32H1.64103C0.734712 32 0 31.2653 0 30.359C0 29.4527 0.734712 28.7179 1.64103 28.7179H5.74359V8.82052C5.74359 8.29621 5.99412 7.80347 6.41777 7.49456L16.2639 0.315072C16.7629 -0.0487985 17.424 -0.101681 17.9745 0.17823ZM9.02564 28.7179H15.5897V7.40103C15.5896 7.38926 15.5896 7.37749 15.5897 7.36571V4.86857L9.02564 9.65489V28.7179ZM18.8718 10.6737V28.7179H25.4359V15.6145L18.8718 10.6737Z" fill="white"/>
</svg>
