<svg width="32" height="32" viewBox="0 0 32 32" fill="none" xmlns="http://www.w3.org/2000/svg">
<path d="M19.2 9.6H20.8C21.2243 9.6 21.6313 9.43143 21.9314 9.13137C22.2314 8.83131 22.4 8.42435 22.4 8C22.4 7.57565 22.2314 7.16869 21.9314 6.86863C21.6313 6.56857 21.2243 6.4 20.8 6.4H19.2C18.7757 6.4 18.3687 6.56857 18.0686 6.86863C17.7686 7.16869 17.6 7.57565 17.6 8C17.6 8.42435 17.7686 8.83131 18.0686 9.13137C18.3687 9.43143 18.7757 9.6 19.2 9.6ZM19.2 16H20.8C21.2243 16 21.6313 15.8314 21.9314 15.5314C22.2314 15.2313 22.4 14.8243 22.4 14.4C22.4 13.9757 22.2314 13.5687 21.9314 13.2686C21.6313 12.9686 21.2243 12.8 20.8 12.8H19.2C18.7757 12.8 18.3687 12.9686 18.0686 13.2686C17.7686 13.5687 17.6 13.9757 17.6 14.4C17.6 14.8243 17.7686 15.2313 18.0686 15.5314C18.3687 15.8314 18.7757 16 19.2 16ZM11.2 9.6H12.8C13.2243 9.6 13.6313 9.43143 13.9314 9.13137C14.2314 8.83131 14.4 8.42435 14.4 8C14.4 7.57565 14.2314 7.16869 13.9314 6.86863C13.6313 6.56857 13.2243 6.4 12.8 6.4H11.2C10.7757 6.4 10.3687 6.56857 10.0686 6.86863C9.76857 7.16869 9.6 7.57565 9.6 8C9.6 8.42435 9.76857 8.83131 10.0686 9.13137C10.3687 9.43143 10.7757 9.6 11.2 9.6ZM11.2 16H12.8C13.2243 16 13.6313 15.8314 13.9314 15.5314C14.2314 15.2313 14.4 14.8243 14.4 14.4C14.4 13.9757 14.2314 13.5687 13.9314 13.2686C13.6313 12.9686 13.2243 12.8 12.8 12.8H11.2C10.7757 12.8 10.3687 12.9686 10.0686 13.2686C9.76857 13.5687 9.6 13.9757 9.6 14.4C9.6 14.8243 9.76857 15.2313 10.0686 15.5314C10.3687 15.8314 10.7757 16 11.2 16ZM30.4 28.8H28.8V1.6C28.8 1.17565 28.6314 0.768687 28.3314 0.468629C28.0313 0.168571 27.6243 0 27.2 0H4.8C4.37565 0 3.96869 0.168571 3.66863 0.468629C3.36857 0.768687 3.2 1.17565 3.2 1.6V28.8H1.6C1.17565 28.8 0.768687 28.9686 0.468629 29.2686C0.168571 29.5687 0 29.9757 0 30.4C0 30.8243 0.168571 31.2313 0.468629 31.5314C0.768687 31.8314 1.17565 32 1.6 32H30.4C30.8243 32 31.2313 31.8314 31.5314 31.5314C31.8314 31.2313 32 30.8243 32 30.4C32 29.9757 31.8314 29.5687 31.5314 29.2686C31.2313 28.9686 30.8243 28.8 30.4 28.8ZM17.6 28.8H14.4V22.4H17.6V28.8ZM25.6 28.8H20.8V20.8C20.8 20.3757 20.6314 19.9687 20.3314 19.6686C20.0313 19.3686 19.6243 19.2 19.2 19.2H12.8C12.3757 19.2 11.9687 19.3686 11.6686 19.6686C11.3686 19.9687 11.2 20.3757 11.2 20.8V28.8H6.4V3.2H25.6V28.8Z" fill="white"/>
</svg>
