<svg width="23" height="25" viewBox="0 0 23 25" fill="none" xmlns="http://www.w3.org/2000/svg">
<path d="M11.3536 12.8536L11.7071 12.5L11.3536 12.1464L1.35355 2.14645L0.5 1.29289L0.5 2.5L0.5 4.9V5.10711L0.646447 5.25356L7.89289 12.5L0.646447 19.7464L0.5 19.8929V20.1L0.5 22.5L0.5 23.7071L1.35355 22.8536L11.3536 12.8536Z" fill="#7AA62C" stroke="#7AA62C"/>
<path d="M21.3536 12.8536L21.7071 12.5L21.3536 12.1464L11.3536 2.14645L10.5 1.29289V2.5V4.9V5.10711L10.6464 5.25356L17.8929 12.5L10.6464 19.7464L10.5 19.8929V20.1V22.5V23.7071L11.3536 22.8536L21.3536 12.8536Z" fill="#FEC43D" stroke="#FEC43D"/>
</svg>
