<svg width="52" height="52" viewBox="0 0 52 52" fill="none" xmlns="http://www.w3.org/2000/svg">
<path d="M41.6332 5.89632C39.3068 5.85946 37.0416 6.64156 35.2335 8.10585C33.4254 9.57014 32.1896 11.6234 31.7422 13.9066H17.8635L15.2362 1.84098C15.1549 1.49642 14.9584 1.18994 14.6792 0.972266C14.4 0.754593 14.0548 0.638776 13.7009 0.643983H5.43386C5.02642 0.635854 4.63241 0.789797 4.3384 1.07199C4.0444 1.35419 3.87443 1.74155 3.86586 2.14898C3.87443 2.55642 4.0444 2.94378 4.3384 3.22597C4.63241 3.50817 5.02642 3.66211 5.43386 3.65398H12.4339L14.6669 13.9206H1.90352C1.62508 13.911 1.34943 13.9789 1.10736 14.1168C0.865287 14.2548 0.666331 14.4573 0.532714 14.7018C0.399096 14.9462 0.336081 15.2231 0.350704 15.5013C0.365328 15.7795 0.457014 16.0482 0.615524 16.2773L13.3649 33.95C14.1966 35.0869 15.248 36.0455 16.4568 36.7689C17.6655 37.4923 19.0071 37.9659 20.4022 38.1617V48.979H14.7859C14.5834 48.971 14.3814 49.004 14.192 49.076C14.0026 49.148 13.8296 49.2574 13.6836 49.3979C13.5375 49.5383 13.4213 49.7068 13.3419 49.8932C13.2625 50.0796 13.2216 50.2802 13.2216 50.4828C13.2216 50.6854 13.2625 50.886 13.3419 51.0724C13.4213 51.2588 13.5375 51.4273 13.6836 51.5678C13.8296 51.7082 14.0026 51.8177 14.192 51.8897C14.3814 51.9616 14.5834 51.9946 14.7859 51.9866H29.1615C29.364 51.9946 29.566 51.9616 29.7554 51.8897C29.9448 51.8177 30.1177 51.7082 30.2638 51.5678C30.4099 51.4273 30.5261 51.2588 30.6055 51.0724C30.6849 50.886 30.7258 50.6854 30.7258 50.4828C30.7258 50.2802 30.6849 50.0796 30.6055 49.8932C30.5261 49.7068 30.4099 49.5383 30.2638 49.3979C30.1177 49.2574 29.9448 49.148 29.7554 49.076C29.566 49.004 29.364 48.971 29.1615 48.979H23.5359V38.1523C24.9309 37.9566 26.2725 37.483 27.4813 36.7596C28.6901 36.0362 29.7414 35.0776 30.5732 33.9407L37.5195 24.311C38.8188 24.8702 40.2187 25.1577 41.6332 25.1556C44.2391 25.2051 46.7584 24.2196 48.639 22.415C50.5196 20.6105 51.6083 18.134 51.6665 15.5283C51.6096 12.9218 50.5214 10.4442 48.6406 8.6386C46.7598 6.83305 44.2399 5.8469 41.6332 5.89632ZM39.0432 16.9143L33.8119 24.1663H10.1262L4.89486 16.9143H39.0432ZM27.9949 32.2256C27.2969 33.1672 26.3881 33.9321 25.3412 34.4591C24.2944 34.9862 23.1387 35.2607 21.9667 35.2607C20.7947 35.2607 19.639 34.9862 18.5921 34.4591C17.5453 33.9321 16.6365 33.1672 15.9385 32.2256L12.2962 27.174H31.6419L27.9949 32.2256ZM41.6309 22.1457C40.8543 22.1466 40.0828 22.0213 39.3465 21.7746L43.3132 16.268C43.4724 16.0388 43.5646 15.7699 43.5796 15.4913C43.5945 15.2127 43.5317 14.9355 43.398 14.6906C43.2643 14.4457 43.065 14.2429 42.8226 14.1048C42.5801 13.9668 42.304 13.899 42.0252 13.909H34.9459C35.3584 12.4576 36.2363 11.1819 37.4445 10.2781C38.6527 9.37424 40.1244 8.89228 41.6332 8.90632C43.4247 8.87192 45.1568 9.54953 46.4494 10.7905C47.742 12.0315 48.4896 13.7345 48.5282 15.526C48.4896 17.3175 47.742 19.0205 46.4494 20.2615C45.1568 21.5024 43.4247 22.18 41.6332 22.1457H41.6309Z" fill="#7AA62C"/>
</svg>
