<svg width="56" height="56" viewBox="0 0 56 56" fill="none" xmlns="http://www.w3.org/2000/svg">
<path d="M19.8125 39.9429V38.3929L19.8089 38.3929L19.8125 39.9429ZM32.625 37.4286H31.075L31.075 37.4323L32.625 37.4286ZM32.625 34.9143L33.3395 33.5388C32.859 33.2892 32.2831 33.3084 31.8203 33.5895C31.3575 33.8706 31.075 34.3728 31.075 34.9143H32.625ZM35.8922 36.6114L35.1777 37.9869L35.1935 37.9951L35.2095 38.003L35.8922 36.6114ZM37.75 35.48H36.2L36.2 35.4857L37.75 35.48ZM35.8922 28.1886L35.2073 26.7981L35.1924 26.8054L35.1777 26.8131L35.8922 28.1886ZM32.625 29.8857H31.075C31.075 30.4272 31.3575 30.9294 31.8203 31.2105C32.2831 31.4916 32.859 31.5108 33.3395 31.2612L32.625 29.8857ZM30.0625 24.8571V26.4071L30.0661 26.4071L30.0625 24.8571ZM17.25 27.3714H18.8L18.8 27.3677L17.25 27.3714ZM7 44.9714L8.55 44.9733V44.9714H7ZM9.05 18.32L9.95688 19.577L9.96281 19.5727L9.96869 19.5684L9.05 18.32ZM24.425 7.00571L25.3437 8.25415L25.3531 8.24716L24.425 7.00571ZM30.575 7.00571L29.6469 8.2472L29.6563 8.25412L30.575 7.00571ZM45.95 18.32L45.0313 19.5684L45.038 19.5733L45.0447 19.5782L45.95 18.32ZM48 22.3429L46.45 22.3395V22.3429H48ZM42.875 50L42.8768 48.45H42.875V50ZM19.8125 41.4929H30.0625V38.3929H19.8125V41.4929ZM30.0625 41.4929C31.1705 41.4929 32.1766 41.1086 32.9751 40.3251L30.804 38.1124C30.6185 38.2944 30.4066 38.3929 30.0625 38.3929V41.4929ZM32.9751 40.3251C33.7754 39.5399 34.1777 38.5385 34.175 37.4248L31.075 37.4323C31.0757 37.7401 30.9878 37.9321 30.804 38.1124L32.9751 40.3251ZM34.175 37.4286V34.9143H31.075V37.4286H34.175ZM31.9105 36.2898L35.1777 37.9869L36.6067 35.2359L33.3395 33.5388L31.9105 36.2898ZM35.2095 38.003C36.1181 38.4487 37.1006 38.397 37.9579 37.8669L36.3275 35.2303C36.3139 35.2386 36.3586 35.2093 36.4473 35.2048C36.5364 35.2003 36.5857 35.2252 36.5749 35.2199L35.2095 38.003ZM37.9579 37.8669C38.8023 37.3447 39.3038 36.4982 39.3 35.4743L36.2 35.4857C36.2 35.4864 36.1999 35.4681 36.2077 35.4363C36.2158 35.4035 36.23 35.3654 36.2519 35.327C36.2989 35.2442 36.3469 35.2183 36.3275 35.2303L37.9579 37.8669ZM39.3 35.48V29.32H36.2V35.48H39.3ZM39.3 29.32C39.3 28.2982 38.7981 27.4543 37.9553 26.9331L36.3249 29.5697C36.3447 29.582 36.2978 29.5568 36.2514 29.4755C36.2298 29.4377 36.2157 29.4003 36.2077 29.3681C36.2 29.3369 36.2 29.3191 36.2 29.32H39.3ZM37.9553 26.9331C37.0991 26.4036 36.1165 26.3502 35.2073 26.7981L36.5771 29.579C36.5863 29.5745 36.5355 29.5997 36.4452 29.5952C36.3556 29.5907 36.3108 29.561 36.3249 29.5697L37.9553 26.9331ZM35.1777 26.8131L31.9105 28.5102L33.3395 31.2612L36.6067 29.5641L35.1777 26.8131ZM34.175 29.8857V27.3714H31.075V29.8857H34.175ZM34.175 27.3714C34.175 26.2585 33.7726 25.2574 32.9726 24.4724L30.8014 26.6851C30.9854 26.8656 31.075 27.0596 31.075 27.3714H34.175ZM32.9726 24.4724C32.1739 23.6887 31.1675 23.3046 30.0589 23.3071L30.0661 26.4071C30.4062 26.4064 30.6161 26.5033 30.8014 26.6851L32.9726 24.4724ZM30.0625 23.3071H19.8125V26.4071H30.0625V23.3071ZM19.8125 23.3071C18.7045 23.3071 17.6984 23.6914 16.8999 24.4749L19.071 26.6876C19.2565 26.5056 19.4684 26.4071 19.8125 26.4071V23.3071ZM16.8999 24.4749C16.0996 25.2601 15.6973 26.2615 15.7 27.3752L18.8 27.3677C18.7993 27.0599 18.8872 26.8679 19.071 26.6876L16.8999 24.4749ZM15.7 27.3714V37.4286H18.8V27.3714H15.7ZM15.7 37.4286C15.7 38.5415 16.1024 39.5426 16.9024 40.3276L19.0736 38.1149C18.8896 37.9344 18.8 37.7404 18.8 37.4286H15.7ZM16.9024 40.3276C17.7011 41.1113 18.7075 41.4954 19.8161 41.4929L19.8089 38.3929C19.4688 38.3936 19.2589 38.2967 19.0736 38.1149L16.9024 40.3276ZM8.55 44.9714V22.3429H5.45V44.9714H8.55ZM8.55 22.3429C8.55 21.793 8.67326 21.2802 8.92617 20.7851L6.16546 19.3749C5.69063 20.3045 5.45 21.3003 5.45 22.3429H8.55ZM8.92617 20.7851C9.18001 20.2881 9.52049 19.8919 9.95688 19.577L8.14312 17.063C7.30169 17.6701 6.63938 18.4471 6.16546 19.3749L8.92617 20.7851ZM9.96869 19.5684L25.3437 8.25412L23.5063 5.75731L8.13132 17.0716L9.96869 19.5684ZM25.3531 8.24716C25.9735 7.78331 26.6707 7.55 27.5 7.55V4.45C26.023 4.45 24.6702 4.88717 23.4969 5.76427L25.3531 8.24716ZM27.5 7.55C28.3293 7.55 29.0264 7.78331 29.6469 8.24716L31.5031 5.76427C30.3298 4.88717 28.977 4.45 27.5 4.45V7.55ZM29.6563 8.25412L45.0313 19.5684L46.8687 17.0716L31.4937 5.75731L29.6563 8.25412ZM45.0447 19.5782C45.4824 19.8931 45.823 20.2891 46.0764 20.7851L48.8371 19.3749C48.3627 18.4461 47.6988 17.6688 46.8553 17.0618L45.0447 19.5782ZM46.0764 20.7851C46.3288 21.2792 46.4512 21.7908 46.45 22.3395L49.55 22.3462C49.5522 21.3025 49.3124 20.3055 48.8371 19.3749L46.0764 20.7851ZM46.45 22.3429V44.9714H49.55V22.3429H46.45ZM46.45 44.9714C46.45 45.9299 46.121 46.7178 45.4077 47.4177L47.5788 49.6305C48.8745 48.3592 49.55 46.7787 49.55 44.9714H46.45ZM45.4077 47.4177C44.6935 48.1185 43.878 48.4512 42.8768 48.45L42.8731 51.55C44.6873 51.5522 46.284 50.901 47.5788 49.6305L45.4077 47.4177ZM42.875 48.45H12.125V51.55H42.875V48.45ZM12.125 48.45C11.1209 48.45 10.304 48.116 9.58975 47.4152L7.41863 49.628C8.71341 50.8984 10.3103 51.55 12.125 51.55V48.45ZM9.58975 47.4152C8.87647 46.7154 8.54882 45.9289 8.55 44.9733L5.45001 44.9695C5.44777 46.7763 6.12291 48.3566 7.41863 49.628L9.58975 47.4152Z" fill="#7AA62C"/>
</svg>
