<svg width="80" height="80" viewBox="0 0 80 80" fill="none" xmlns="http://www.w3.org/2000/svg">
<path d="M23 57.2H42.2L23 38V57.2Z" fill="#7AA62C"/>
<path d="M60.5878 59.0322L59.81 58.2544L59.0322 59.0322L56.1 61.9644L55.1706 61.035L58.1028 58.1028L58.8806 57.325L58.1028 56.5472L51.3128 49.7572L50.535 48.9794L49.7572 49.7572L46.825 52.6894L45.8956 51.76L48.8278 48.8278L49.6056 48.05L48.8278 47.2722L42.0378 40.4822L41.26 39.7044L40.4822 40.4822L37.55 43.4144L36.6206 42.485L39.5528 39.5528L40.3306 38.775L39.5528 37.9972L32.7278 31.1722L31.95 30.3944L31.1722 31.1722L28.24 34.1044L27.3106 33.175L30.2428 30.2428L31.0206 29.465L30.2428 28.6872L23.4528 21.8972L22.675 21.1194L21.8972 21.8972L18.965 24.8294L18.0356 23.9L20.9678 20.9678L21.7456 20.19L20.9678 19.4122L12.7778 11.2222L10.9 9.34437V12V61C10.9 65.4575 14.5425 69.1 19 69.1H68H70.6556L68.7778 67.2222L60.5878 59.0322Z" stroke="white" stroke-width="2.2"/>
</svg>
