<svg width="56" height="56" viewBox="0 0 56 56" fill="none" xmlns="http://www.w3.org/2000/svg">
<g clip-path="url(#clip0_402_944)">
<path d="M51.4801 23.807C50.5458 21.8666 49.2167 20.1427 47.5778 18.7457C45.9388 17.3486 44.0262 16.3092 41.9624 15.694C40.727 15.36 39.4373 15.2763 38.1691 15.4478C36.9009 15.6193 35.6797 16.0426 34.5774 16.6927C30.2622 18.241 25.5545 18.3099 21.1957 16.8887C20.1178 16.254 18.9235 15.8419 17.6835 15.6767C16.4435 15.5116 15.1829 15.5968 13.9764 15.9273C11.9413 16.535 10.0542 17.5579 8.43418 18.9314C6.81413 20.3048 5.49628 21.9991 4.56375 23.9073C0.737083 31.0613 1.95042 39.3073 7.32408 42.7023C8.41039 43.373 9.62185 43.8154 10.8847 44.0027C12.1475 44.1901 13.4352 44.1184 14.6694 43.792C16.6031 43.2357 18.4059 42.2979 19.9716 41.034C21.5373 39.7701 22.8341 38.2056 23.7857 36.4327C26.4034 35.4853 29.2735 35.5052 31.8777 36.4887C32.8417 38.302 34.16 39.9032 35.7544 41.1975C37.3489 42.4917 39.187 43.4525 41.1597 44.023C41.984 44.2287 42.8302 44.3337 43.6797 44.3357C45.4348 44.349 47.1576 43.8635 48.6474 42.9357C54.0024 39.5943 55.2741 31.0193 51.4801 23.807ZM46.7528 40.194C46.0522 40.6224 45.271 40.902 44.4577 41.0156C43.6445 41.1292 42.8165 41.0743 42.0254 40.8543C40.4511 40.3593 38.993 39.5513 37.7388 38.4787C36.4846 37.4061 35.46 36.0911 34.7267 34.6127C34.4888 34.1854 34.1152 33.8496 33.6651 33.6583L33.5881 33.6233C31.7343 32.8588 29.7483 32.4664 27.7431 32.4683C25.9555 32.4669 24.1818 32.7829 22.5048 33.4017L22.3857 33.4297C22.2618 33.4588 22.1414 33.501 22.0264 33.5557C21.5856 33.7427 21.2195 34.0711 20.9857 34.489C20.2672 35.9445 19.2612 37.2392 18.0284 38.2952C16.7956 39.3511 15.3617 40.1462 13.8131 40.6327C13.0462 40.8459 12.2436 40.8985 11.4555 40.7873C10.6674 40.6761 9.91067 40.4034 9.23275 39.9863C5.42008 37.5853 4.68975 30.905 7.63442 25.4007C8.34914 23.9165 9.35772 22.5929 10.5991 21.5099C11.8404 20.427 13.2886 19.6074 14.8561 19.1007C15.6324 18.8831 16.4455 18.8288 17.2439 18.9412C18.0423 19.0537 18.8087 19.3304 19.4947 19.754C19.6215 19.8339 19.758 19.8975 19.9007 19.943L20.0547 19.992C25.2485 21.6912 30.8638 21.5876 35.9914 19.698C36.1064 19.6551 36.2167 19.6003 36.3204 19.5347C37.0241 19.1001 37.8104 18.8168 38.6295 18.7027C39.4486 18.5887 40.2825 18.6463 41.0781 18.872C42.6717 19.3848 44.1435 20.2185 45.4027 21.3216C46.662 22.4248 47.682 23.774 48.4001 25.2863C51.3868 30.947 50.6331 37.779 46.7528 40.194Z" fill="#7AA62C"/>
<path d="M28.0208 11.6667C27.576 11.6554 27.1449 11.821 26.8221 12.1272C26.4992 12.4334 26.311 12.8552 26.2988 13.3V19.299C26.3218 19.7402 26.5133 20.1558 26.8337 20.4599C27.1541 20.7641 27.579 20.9337 28.0208 20.9337C28.4626 20.9337 28.8876 20.7641 29.208 20.4599C29.5284 20.1558 29.7198 19.7402 29.7428 19.299V13.3023C29.7312 12.8571 29.5433 12.4348 29.2204 12.1281C28.8975 11.8213 28.466 11.6554 28.0208 11.6667V11.6667Z" fill="#7AA62C"/>
<path d="M15.6809 23.1116C14.667 23.1627 13.6903 23.5101 12.8718 24.1108C12.0534 24.7115 11.4291 25.5391 11.0763 26.4911C10.7235 27.443 10.6577 28.4776 10.8871 29.4666C11.1164 30.4556 11.6308 31.3556 12.3666 32.0551C13.1024 32.7547 14.0272 33.223 15.0265 33.4022C16.0258 33.5814 17.0557 33.4635 17.9887 33.0631C18.9216 32.6628 19.7167 31.9976 20.2753 31.1498C20.834 30.3021 21.1317 29.3091 21.1316 28.2939C21.0937 26.8847 20.4987 25.5479 19.4771 24.5765C18.4554 23.6051 17.0903 23.0784 15.6809 23.1116V23.1116ZM15.6809 30.2026C15.3076 30.1834 14.9482 30.0552 14.647 29.8338C14.3459 29.6124 14.1162 29.3076 13.9866 28.957C13.8569 28.6064 13.8329 28.2255 13.9175 27.8615C14.0022 27.4974 14.1917 27.1661 14.4627 26.9087C14.7337 26.6512 15.0742 26.4789 15.4421 26.413C15.8101 26.3472 16.1892 26.3906 16.5327 26.538C16.8762 26.6855 17.1689 26.9304 17.3746 27.2425C17.5802 27.5546 17.6899 27.9201 17.6899 28.2939C17.6842 28.5518 17.6276 28.8061 17.5235 29.0421C17.4194 29.2782 17.2697 29.4914 17.0831 29.6695C16.8965 29.8476 16.6766 29.9873 16.436 30.0803C16.1954 30.1734 15.9388 30.2181 15.6809 30.2119V30.2026Z" fill="#7AA62C"/>
<path d="M41.2201 23.1117C40.7752 23.1005 40.3441 23.2661 40.0213 23.5723C39.6984 23.8785 39.5103 24.3003 39.498 24.7451V32.3821C39.521 32.8233 39.7125 33.2388 40.0329 33.543C40.3533 33.8472 40.7783 34.0167 41.2201 34.0167C41.6619 34.0167 42.0868 33.8472 42.4072 33.543C42.7277 33.2388 42.9191 32.8233 42.9421 32.3821V24.7451C42.9299 24.3003 42.7417 23.8785 42.4188 23.5723C42.096 23.2661 41.6649 23.1005 41.2201 23.1117V23.1117Z" fill="#7AA62C"/>
<path d="M45.2344 26.9385H37.2007C36.7676 26.9385 36.3521 27.1106 36.0458 27.4169C35.7395 27.7232 35.5674 28.1387 35.5674 28.5718C35.5674 29.005 35.7395 29.4204 36.0458 29.7268C36.3521 30.0331 36.7676 30.2052 37.2007 30.2052H45.2344C45.6676 30.2052 46.0831 30.0331 46.3894 29.7268C46.6957 29.4204 46.8678 29.005 46.8678 28.5718C46.8678 28.1387 46.6957 27.7232 46.3894 27.4169C46.0831 27.1106 45.6676 26.9385 45.2344 26.9385V26.9385Z" fill="#7AA62C"/>
</g>
<defs>
<clipPath id="clip0_402_944">
<rect width="56" height="56" fill="white"/>
</clipPath>
</defs>
</svg>
