<svg width="57" height="56" viewBox="0 0 57 56" fill="none" xmlns="http://www.w3.org/2000/svg">
<path fill-rule="evenodd" clip-rule="evenodd" d="M23.7467 23.4897V13.8677H50.9103V23.4896H23.7467V23.4897ZM48.7866 38.8455C48.7876 38.8455 48.7885 38.8454 48.7895 38.8454H50.9103V48.4673H23.7467V38.8453C24.4941 38.8453 48.2484 38.8455 48.7866 38.8455ZM41.9023 32.5106H47.2811V35.9792H41.9023V32.5106ZM5.59189 35.979V26.3571H32.7556V35.979C31.6921 35.979 6.76215 35.979 5.59189 35.979ZM9.2195 20.0221H14.5983V23.4908H9.2195V20.0221ZM27.3736 7.53292H32.7523V11.0017H27.3736V7.53292ZM41.9023 7.53288H47.2811V11.0016H41.9023V7.53288ZM51.3907 26.356C52.7839 26.356 53.9174 25.276 53.9174 23.9483V13.4093C53.9174 12.0817 52.7839 11.0017 51.3907 11.0017H50.2898V7.07442C50.2898 5.7468 49.1563 4.66675 47.7631 4.66675H41.4219C40.0287 4.66675 38.8952 5.74682 38.8952 7.07442V11.0017H35.7602V7.07442C35.7602 5.7468 34.6268 4.66675 33.2335 4.66675H26.8924C25.4992 4.66675 24.3657 5.74682 24.3657 7.07442V11.0017H23.2647C21.8715 11.0017 20.7381 12.0817 20.7381 13.4093V23.4908H17.6061V19.5636C17.6061 18.236 16.4727 17.1559 15.0795 17.1559H8.73829C7.34508 17.1559 6.21162 18.236 6.21162 19.5636V23.4908H5.11066C3.71745 23.4908 2.58398 24.571 2.58398 25.8985V36.4375C2.58398 37.7651 3.71742 38.8452 5.11066 38.8452H20.738V48.9257C20.738 50.2533 21.8715 51.3334 23.2647 51.3334H51.3907C52.7839 51.3334 53.9173 50.2533 53.9173 48.9257V38.3867C53.9173 37.0591 52.7839 35.979 51.3907 35.979H50.2897V32.052C50.2897 30.7243 49.1563 29.6443 47.763 29.6443H41.4219C40.0287 29.6443 38.8952 30.7243 38.8952 32.052V35.979H35.7633V26.356L51.3907 26.356Z" fill="#7AA62C"/>
</svg>
