<svg width="32" height="32" viewBox="0 0 32 32" fill="none" xmlns="http://www.w3.org/2000/svg">
<path d="M30.3996 19.1997H28.7996V1.59998C28.7996 1.17564 28.631 0.768677 28.331 0.468623C28.0309 0.168569 27.624 0 27.1996 0H4.79993C4.37559 0 3.96863 0.168569 3.66858 0.468623C3.36852 0.768677 3.19996 1.17564 3.19996 1.59998V19.1997H1.59998C1.17564 19.1997 0.768677 19.3683 0.468623 19.6684C0.168569 19.9684 0 20.3754 0 20.7997C0 21.224 0.168569 21.631 0.468623 21.9311C0.768677 22.2311 1.17564 22.3997 1.59998 22.3997H14.3998V24.2397L7.1199 29.0396C6.82124 29.2245 6.59171 29.5025 6.46674 29.8307C6.34176 30.159 6.32828 30.5193 6.42838 30.856C6.52848 31.1927 6.73658 31.487 7.0206 31.6937C7.30461 31.9004 7.64874 32.0079 7.99989 31.9996C8.31444 32.0031 8.62221 31.908 8.87988 31.7276L14.3998 28.0796V30.3996C14.3998 30.8239 14.5684 31.2309 14.8684 31.5309C15.1685 31.831 15.5754 31.9996 15.9998 31.9996C16.4241 31.9996 16.8311 31.831 17.1311 31.5309C17.4312 31.2309 17.5998 30.8239 17.5998 30.3996V28.0796L23.1197 31.7276C23.3773 31.908 23.6851 32.0031 23.9997 31.9996C24.3415 31.9969 24.6735 31.8849 24.947 31.6798C25.2205 31.4748 25.4212 31.1875 25.5196 30.8601C25.618 30.5328 25.6089 30.1825 25.4938 29.8606C25.3786 29.5388 25.1634 29.2622 24.8797 29.0716L17.5998 24.2717V22.3997H30.3996C30.8239 22.3997 31.2309 22.2311 31.5309 21.9311C31.831 21.631 31.9996 21.224 31.9996 20.7997C31.9996 20.3754 31.831 19.9684 31.5309 19.6684C31.2309 19.3683 30.8239 19.1997 30.3996 19.1997ZM25.5996 19.1997H6.39991V3.19996H25.5996V19.1997ZM11.1998 15.9998C11.4634 15.9984 11.7225 15.932 11.9542 15.8064C12.1858 15.6808 12.3829 15.4999 12.5278 15.2798L14.6558 12.0798L16.4638 13.9038C16.6316 14.0727 16.8351 14.202 17.0593 14.2823C17.2835 14.3626 17.5228 14.3918 17.7598 14.3678C17.9956 14.3419 18.2228 14.2639 18.4248 14.1394C18.6269 14.0148 18.7986 13.8469 18.9277 13.6478L22.1277 8.84788C22.3161 8.49657 22.3666 8.08757 22.2693 7.70098C22.172 7.31439 21.9339 6.97805 21.6015 6.75784C21.2692 6.53764 20.8667 6.44942 20.4727 6.51047C20.0788 6.57152 19.7218 6.77744 19.4717 7.0879L17.3438 10.2879L15.5358 8.46388C15.3679 8.29497 15.1644 8.16566 14.9402 8.08539C14.716 8.00511 14.4767 7.9759 14.2398 7.99989C14.0039 8.02577 13.7767 8.1038 13.5747 8.22833C13.3727 8.35286 13.2009 8.52076 13.0718 8.71988L9.87186 13.5198C9.6403 13.8725 9.55745 14.3025 9.64135 14.716C9.72526 15.1295 9.96912 15.4932 10.3199 15.7278C10.5775 15.9082 10.8853 16.0034 11.1998 15.9998Z" fill="white"/>
</svg>
