<svg width="21" height="21" viewBox="0 0 21 21" fill="none" xmlns="http://www.w3.org/2000/svg">
<path d="M10.5282 0.5C9.21497 0.5 7.91461 0.758658 6.70135 1.2612C5.4881 1.76375 4.3857 2.50035 3.45712 3.42893C1.58175 5.3043 0.528186 7.84784 0.528186 10.5C0.519444 12.8091 1.31898 15.0485 2.78819 16.83L0.788186 18.83C0.649429 18.9706 0.555432 19.1492 0.518058 19.3432C0.480684 19.5372 0.501607 19.7379 0.578186 19.92C0.661244 20.0999 0.79589 20.2511 0.965033 20.3544C1.13418 20.4577 1.33019 20.5083 1.52819 20.5H10.5282C13.1804 20.5 15.7239 19.4464 17.5993 17.5711C19.4746 15.6957 20.5282 13.1522 20.5282 10.5C20.5282 7.84784 19.4746 5.3043 17.5993 3.42893C15.7239 1.55357 13.1804 0.5 10.5282 0.5ZM10.5282 18.5H3.93819L4.86819 17.57C5.05444 17.3826 5.15898 17.1292 5.15898 16.865C5.15898 16.6008 5.05444 16.3474 4.86819 16.16C3.55877 14.852 2.74336 13.1305 2.56088 11.2888C2.37839 9.44705 2.84013 7.59901 3.86741 6.05952C4.8947 4.52004 6.42398 3.38436 8.1947 2.84597C9.96543 2.30759 11.868 2.3998 13.5784 3.10691C15.2888 3.81402 16.701 5.09227 17.5746 6.72389C18.4482 8.35551 18.7291 10.2395 18.3693 12.055C18.0096 13.8705 17.0315 15.505 15.6017 16.6802C14.172 17.8554 12.3789 18.4985 10.5282 18.5ZM15.5282 9.5H5.52819C5.26297 9.5 5.00862 9.60536 4.82108 9.79289C4.63354 9.98043 4.52819 10.2348 4.52819 10.5C4.52819 10.7652 4.63354 11.0196 4.82108 11.2071C5.00862 11.3946 5.26297 11.5 5.52819 11.5H15.5282C15.7934 11.5 16.0478 11.3946 16.2353 11.2071C16.4228 11.0196 16.5282 10.7652 16.5282 10.5C16.5282 10.2348 16.4228 9.98043 16.2353 9.79289C16.0478 9.60536 15.7934 9.5 15.5282 9.5ZM13.5282 13.5H7.52819C7.26297 13.5 7.00862 13.6054 6.82108 13.7929C6.63354 13.9804 6.52819 14.2348 6.52819 14.5C6.52819 14.7652 6.63354 15.0196 6.82108 15.2071C7.00862 15.3946 7.26297 15.5 7.52819 15.5H13.5282C13.7934 15.5 14.0478 15.3946 14.2353 15.2071C14.4228 15.0196 14.5282 14.7652 14.5282 14.5C14.5282 14.2348 14.4228 13.9804 14.2353 13.7929C14.0478 13.6054 13.7934 13.5 13.5282 13.5ZM7.52819 7.5H13.5282C13.7934 7.5 14.0478 7.39464 14.2353 7.20711C14.4228 7.01957 14.5282 6.76522 14.5282 6.5C14.5282 6.23478 14.4228 5.98043 14.2353 5.79289C14.0478 5.60536 13.7934 5.5 13.5282 5.5H7.52819C7.26297 5.5 7.00862 5.60536 6.82108 5.79289C6.63354 5.98043 6.52819 6.23478 6.52819 6.5C6.52819 6.76522 6.63354 7.01957 6.82108 7.20711C7.00862 7.39464 7.26297 7.5 7.52819 7.5Z" fill="#E3DFD3"/>
</svg>
