<svg width="51" height="50" viewBox="0 0 51 50" fill="none" xmlns="http://www.w3.org/2000/svg">
<path d="M43.9553 32.9008L43.6102 33.4396H44.25H47.4722C48.1161 33.4396 48.7336 33.6954 49.1889 34.1507C49.6442 34.606 49.9 35.2235 49.9 35.8674C49.9 36.5112 49.6442 37.1288 49.1889 37.584C48.7336 38.0393 48.1161 38.2951 47.4722 38.2951H3.02778C2.38389 38.2951 1.76638 38.0393 1.31108 37.5841C0.855783 37.1288 0.6 36.5112 0.6 35.8674C0.6 35.2235 0.855783 34.606 1.31108 34.1507L1.06359 33.9032L1.31108 34.1507C1.76638 33.6954 2.38389 33.4396 3.02778 33.4396H6.55556H7.19654L6.84999 32.9004C4.586 29.3776 3.38088 25.279 3.37778 21.0914C3.42837 16.5482 4.88192 12.1316 7.53945 8.44635C10.1974 4.76051 13.9297 1.98639 18.2253 0.503871L18.2253 0.503954L18.2327 0.50122C18.6395 0.350504 19.0793 0.311547 19.5062 0.3884C19.9332 0.465253 20.3318 0.65511 20.6605 0.938218L20.6604 0.938263L20.6654 0.942353C20.9876 1.20976 21.2352 1.55597 21.3841 1.94734C21.5325 2.33757 21.5778 2.75948 21.5156 3.1723C21.3534 4.10576 21.2591 5.04975 21.2335 5.99685L21.2332 5.99685L21.2334 6.0098C21.2782 10.5375 23.1083 14.8646 26.326 18.0504C29.5436 21.2362 33.8887 23.0232 38.4167 23.023L38.4174 23.023C40.2699 23.0188 42.1092 22.7123 43.8628 22.1154L43.8628 22.1155L43.8688 22.1133C44.2777 21.9658 44.7187 21.9308 45.1457 22.0119C45.5728 22.0931 45.9702 22.2874 46.2965 22.5746L46.2965 22.5746L46.3017 22.579C46.6234 22.8513 46.8687 23.2027 47.0135 23.5986C47.158 23.9938 47.1972 24.4198 47.1275 24.8347C46.606 27.7045 45.5284 30.4446 43.9553 32.9008ZM37.1389 33.4396H37.2795L37.3811 33.3423C38.8682 31.9167 40.0878 30.2362 40.982 28.3804L41.2397 27.8455L40.6469 27.879C39.9292 27.9196 39.2097 27.9196 38.492 27.879L38.482 27.8785L38.4721 27.8785C32.8388 27.8803 27.4187 25.7249 23.3251 21.855C19.2314 17.9851 16.7751 12.6946 16.4606 7.07012L16.4268 6.46666L15.9202 6.79631C13.7713 8.19464 11.9661 10.0605 10.6395 12.2544C9.31292 14.4484 8.49924 16.9137 8.25925 19.4663C8.01927 22.0189 8.35918 24.5927 9.25359 26.9955C10.148 29.3983 11.5738 31.5679 13.4244 33.3422L13.526 33.4396H13.6667H37.1389ZM14.1389 44.5507H22.4722C23.1161 44.5507 23.7336 44.8064 24.1889 45.2617C24.6442 45.717 24.9 46.3345 24.9 46.9784C24.9 47.6223 24.6442 48.2398 24.1889 48.6951C23.7336 49.1504 23.1161 49.4062 22.4722 49.4062H14.1389C13.495 49.4062 12.8775 49.1504 12.4222 48.6951C11.9669 48.2398 11.7111 47.6223 11.7111 46.9784C11.7111 46.3345 11.9669 45.717 12.4222 45.2617C12.8775 44.8064 13.495 44.5507 14.1389 44.5507ZM33.5833 44.5507H36.3611C37.005 44.5507 37.6225 44.8064 38.0778 45.2617C38.5331 45.717 38.7889 46.3345 38.7889 46.9784C38.7889 47.6223 38.5331 48.2398 38.0778 48.6951C37.6225 49.1504 37.005 49.4062 36.3611 49.4062H33.5833C32.9394 49.4062 32.3219 49.1504 31.8666 48.6951C31.4113 48.2398 31.1556 47.6223 31.1556 46.9784C31.1556 46.3345 31.4113 45.717 31.8666 45.2617C32.3219 44.8064 32.9394 44.5507 33.5833 44.5507Z" fill="#7AA62C" stroke="#F2F2F2" stroke-width="0.7"/>
</svg>
