<svg width="69" height="35" viewBox="0 0 69 35" fill="none" xmlns="http://www.w3.org/2000/svg">
<path d="M9.92375 18.0195L7.19958 11.8243V24.7065H0V0.171387H8.29411L13.0371 10.9639L17.78 0.171387H25.9282V24.7065H18.7286V11.7997L16.0045 18.0441H9.92375V18.0195Z" fill="#A9C486"/>
<path d="M37.0438 21.9039C35.3169 21.9039 33.8575 21.7563 32.6657 21.4613C31.4739 21.1663 30.5009 20.6746 29.7469 19.9863C28.9929 19.2979 28.4578 18.3883 28.1173 17.282C27.7768 16.1757 27.6308 14.799 27.6308 13.1764V11.308C27.6308 9.68549 27.8011 8.30877 28.1173 7.20248C28.4578 6.09618 28.9929 5.18657 29.7469 4.49821C30.5009 3.80985 31.4739 3.31817 32.6657 3.02315C33.8575 2.72814 35.3169 2.58064 37.0438 2.58064C38.7707 2.58064 40.2301 2.72814 41.4219 3.02315C42.6137 3.31817 43.5867 3.80985 44.3407 4.49821C45.0947 5.18657 45.6298 6.09618 45.9703 7.20248C46.3108 8.30877 46.4568 9.68549 46.4568 11.308V13.1764C46.4568 14.799 46.2865 16.1757 45.9703 17.282C45.6298 18.3883 45.0947 19.2979 44.3407 19.9863C43.5867 20.6746 42.6137 21.1663 41.4219 21.4613C40.2301 21.7563 38.7707 21.9039 37.0438 21.9039ZM37.0438 16.0774C37.3843 16.0774 37.6762 16.0528 37.8951 15.9791C38.114 15.9053 38.3086 15.7824 38.4545 15.6103C38.6005 15.4382 38.7221 15.1678 38.7707 14.8236C38.8194 14.4794 38.868 14.0369 38.868 13.5206V10.9639C38.868 9.90674 38.7221 9.21838 38.4302 8.8742C38.1383 8.53002 37.6762 8.38252 37.0195 8.38252C36.3628 8.38252 35.9006 8.55461 35.6087 8.8742C35.3169 9.21838 35.1709 9.90674 35.1709 10.9639V13.5206C35.1709 14.0369 35.1953 14.4794 35.2682 14.8236C35.3412 15.1678 35.4385 15.4382 35.5844 15.6103C35.7304 15.7824 35.9249 15.9299 36.1438 15.9791C36.4114 16.0528 36.7033 16.0774 37.0438 16.0774Z" fill="#A9C486"/>
<path d="M55.8697 17.9212V24.7065H48.1594V0.171387H58.5209C60.3938 0.171387 61.9748 0.318893 63.2639 0.613904C64.5773 0.908915 65.6232 1.37601 66.4502 2.0152C67.2772 2.67898 67.8609 3.51484 68.2501 4.57196C68.6149 5.62909 68.8095 6.90747 68.8095 8.40711V9.68549C68.8095 11.013 68.6149 12.1931 68.2501 13.2256C67.8853 14.2582 67.2772 15.1186 66.4502 15.807C65.6232 16.5199 64.553 17.0362 63.2396 17.3803C61.9261 17.7491 60.2965 17.9212 58.3993 17.9212H55.8697ZM55.8697 6.34203V11.7751H58.0102C59.202 11.7751 60.0046 11.6031 60.4181 11.2343C60.8559 10.8901 61.0748 10.2263 61.0748 9.29214V8.80045C61.0748 7.89084 60.8559 7.22706 60.4181 6.88288C59.9803 6.51412 59.1777 6.34203 58.0102 6.34203H55.8697Z" fill="#A9C486"/>
<path d="M46.1649 22.8381H28.0686V24.7065H46.1649V22.8381Z" fill="#A9C486"/>
<path d="M7.4428 33.1144C7.17525 33.1144 6.98067 33.0899 6.78608 33.0407C6.61582 32.9915 6.46989 32.8932 6.37259 32.7949C6.2753 32.6719 6.20233 32.5244 6.15369 32.3278C6.10504 32.1311 6.08072 31.9098 6.08072 31.6394V31.4181C6.08072 31.1723 6.10504 30.9756 6.12937 30.7789C6.17801 30.6069 6.22666 30.4593 6.34827 30.3364C6.44556 30.2135 6.5915 30.1152 6.76176 30.066C6.93202 30.0168 7.15093 29.9677 7.41848 29.9677C7.61306 29.9677 7.78332 29.9922 7.92926 30.0414C8.0752 30.0906 8.19681 30.1398 8.26978 30.2135V28.7385H8.85353V32.6228C8.85353 32.7948 8.80489 32.9424 8.73192 33.0161C8.65895 33.0899 8.48869 33.139 8.26978 33.139H7.4428V33.1144ZM8.24546 31.2215C8.24546 31.074 8.24546 30.951 8.22114 30.8527C8.19681 30.7544 8.14817 30.6806 8.09952 30.6314C8.05088 30.5823 7.95358 30.5331 7.85629 30.5085C7.759 30.4839 7.63739 30.4839 7.46713 30.4839C7.29686 30.4839 7.17525 30.5085 7.07796 30.5331C6.98067 30.5577 6.9077 30.6069 6.85905 30.6806C6.81041 30.7544 6.76176 30.8527 6.76176 30.9756C6.73744 31.0985 6.73744 31.246 6.73744 31.4427V31.664C6.73744 31.8606 6.73744 32.0327 6.76176 32.1557C6.78608 32.2786 6.81041 32.3769 6.85905 32.4507C6.9077 32.5244 6.98067 32.5736 7.10228 32.5982C7.19957 32.6228 7.34551 32.6228 7.51577 32.6228H8.24546V31.2215Z" fill="#A9C486"/>
<path d="M10.0697 31.8115C10.0697 31.9836 10.0697 32.1065 10.094 32.2048C10.1183 32.3032 10.1426 32.3769 10.1913 32.4507C10.2399 32.5244 10.3129 32.549 10.4102 32.5736C10.5075 32.5982 10.6291 32.5982 10.775 32.5982C10.8967 32.5982 11.0426 32.5982 11.2129 32.5982C11.3831 32.5982 11.602 32.5982 11.8939 32.5982L11.7966 33.1144C11.675 33.1144 11.5777 33.1144 11.4804 33.1144C11.3831 33.1144 11.3101 33.1144 11.2372 33.1144C11.1642 33.1144 11.0912 33.1144 11.0183 33.1144C10.9453 33.1144 10.8723 33.1144 10.775 33.1144C10.5075 33.1144 10.2643 33.0899 10.094 33.0161C9.92374 32.9424 9.7778 32.8686 9.68051 32.7457C9.58322 32.6228 9.51025 32.4753 9.48593 32.3032C9.4616 32.1311 9.43728 31.9344 9.43728 31.7377V31.4181C9.43728 31.1969 9.4616 31.0002 9.48593 30.8035C9.53457 30.6314 9.58322 30.4839 9.68051 30.361C9.7778 30.2381 9.92374 30.1398 10.094 30.066C10.2643 29.9922 10.5075 29.9677 10.775 29.9677C11.0426 29.9677 11.2372 29.9922 11.4074 30.066C11.5777 30.1152 11.6993 30.2135 11.7966 30.3118C11.8939 30.4102 11.9669 30.5331 11.9912 30.6806C12.0155 30.8281 12.0398 30.951 12.0398 31.0985V31.1969C12.0398 31.3444 12.0398 31.4427 12.0155 31.5411C11.9912 31.6394 11.9669 31.6886 11.9425 31.7377C11.9182 31.7869 11.8696 31.8115 11.8209 31.8361C11.7723 31.8607 11.6993 31.8607 11.6263 31.8607H10.0697V31.8115ZM10.7994 30.4593C10.6534 30.4593 10.5075 30.4594 10.4345 30.4839C10.3372 30.5085 10.2643 30.5577 10.2156 30.6069C10.167 30.656 10.1183 30.7544 10.1183 30.8773C10.094 31.0002 10.094 31.1477 10.094 31.3198H11.5534V31.1231C11.5534 31.0002 11.5534 30.8773 11.5291 30.8035C11.5047 30.7052 11.4804 30.656 11.4074 30.5823C11.3588 30.5331 11.2858 30.4839 11.1885 30.4839C11.0669 30.4594 10.9453 30.4593 10.7994 30.4593Z" fill="#A9C486"/>
<path d="M13.0128 30.066L13.8397 32.4507L14.691 30.066H15.3234L14.1559 33.1144H13.4992L12.3317 30.066H13.0128Z" fill="#A9C486"/>
<path d="M16.2234 31.8115C16.2234 31.9836 16.2234 32.1065 16.2477 32.2048C16.272 32.3032 16.2963 32.3769 16.345 32.4507C16.3936 32.5244 16.4666 32.549 16.5639 32.5736C16.6612 32.5982 16.7828 32.5982 16.9287 32.5982C17.0504 32.5982 17.1963 32.5982 17.3666 32.5982C17.5368 32.5982 17.7557 32.5982 18.0476 32.5982L17.9503 33.1144C17.8287 33.1144 17.7314 33.1144 17.6341 33.1144C17.5368 33.1144 17.4638 33.1144 17.3909 33.1144C17.3179 33.1144 17.2449 33.1144 17.172 33.1144C17.099 33.1144 17.026 33.1144 16.9287 33.1144C16.6612 33.1144 16.418 33.0899 16.2477 33.0161C16.0774 32.9424 15.9315 32.8686 15.8342 32.7457C15.7369 32.6228 15.6639 32.4753 15.6396 32.3032C15.6153 32.1311 15.591 31.9344 15.591 31.7377V31.4181C15.591 31.1969 15.6153 31.0002 15.6396 30.8035C15.6883 30.6314 15.7369 30.4839 15.8342 30.361C15.9315 30.2381 16.0774 30.1398 16.2477 30.066C16.418 29.9922 16.6612 29.9677 16.9287 29.9677C17.1963 29.9677 17.3909 29.9922 17.5611 30.066C17.7314 30.1152 17.853 30.2135 17.9503 30.3118C18.0476 30.4102 18.1206 30.5331 18.1449 30.6806C18.1692 30.8281 18.1935 30.951 18.1935 31.0985V31.1969C18.1935 31.3444 18.1935 31.4427 18.1692 31.5411C18.1449 31.6394 18.1206 31.6886 18.0962 31.7377C18.0719 31.7869 18.0233 31.8115 17.9746 31.8361C17.926 31.8607 17.853 31.8607 17.78 31.8607H16.2234V31.8115ZM16.9531 30.4593C16.8071 30.4593 16.6612 30.4594 16.5882 30.4839C16.4909 30.5085 16.418 30.5577 16.3693 30.6069C16.3207 30.656 16.272 30.7544 16.272 30.8773C16.2477 31.0002 16.2477 31.1477 16.2477 31.3198H17.7071V31.1231C17.7071 31.0002 17.7071 30.8773 17.6827 30.8035C17.6584 30.7052 17.6341 30.656 17.5611 30.5823C17.5125 30.5331 17.4395 30.4839 17.3422 30.4839C17.2206 30.4594 17.099 30.4593 16.9531 30.4593Z" fill="#A9C486"/>
<path d="M18.8502 28.7139H19.4583V33.0899H18.8502V28.7139Z" fill="#A9C486"/>
<path d="M21.4771 29.9677C21.7204 29.9677 21.9393 29.9922 22.1338 30.0414C22.3041 30.0906 22.45 30.1643 22.5717 30.2873C22.6933 30.4102 22.7662 30.5577 22.8149 30.7298C22.8635 30.9265 22.8879 31.1477 22.8879 31.4427V31.7623C22.8879 32.0573 22.8635 32.2786 22.8149 32.4753C22.7662 32.6719 22.6689 32.8194 22.5717 32.9178C22.45 33.0407 22.3041 33.1144 22.1338 33.1636C21.9636 33.2128 21.7447 33.2374 21.4771 33.2374C21.2339 33.2374 21.015 33.2128 20.8204 33.1636C20.6501 33.1144 20.5042 33.0407 20.3826 32.9178C20.261 32.7949 20.188 32.6473 20.1394 32.4753C20.0907 32.2786 20.0664 32.0573 20.0664 31.7623V31.4427C20.0664 31.1477 20.0907 30.9265 20.1394 30.7298C20.188 30.5331 20.2853 30.3856 20.3826 30.2873C20.5042 30.1643 20.6501 30.0906 20.8204 30.0414C21.015 29.9922 21.2339 29.9677 21.4771 29.9677ZM22.2555 31.4181C22.2555 31.2215 22.2555 31.0494 22.2311 30.9264C22.2068 30.8035 22.1825 30.7052 22.1095 30.6314C22.0609 30.5577 21.9636 30.5085 21.8663 30.5085C21.769 30.4839 21.6231 30.4839 21.4771 30.4839C21.3069 30.4839 21.1853 30.4839 21.088 30.5085C20.9907 30.5331 20.9177 30.5823 20.8447 30.6314C20.7961 30.7052 20.7474 30.8035 20.7231 30.9264C20.6988 31.0494 20.6988 31.2215 20.6988 31.4181V31.7377C20.6988 31.9344 20.6988 32.1065 20.7231 32.2294C20.7474 32.3523 20.7718 32.4507 20.8447 32.5244C20.8934 32.5982 20.9907 32.6473 21.088 32.6473C21.1853 32.6719 21.3312 32.6719 21.4771 32.6719C21.6474 32.6719 21.769 32.6719 21.8663 32.6473C21.9636 32.6228 22.0366 32.5736 22.1095 32.5244C22.1582 32.4507 22.2068 32.3523 22.2311 32.2294C22.2555 32.1065 22.2555 31.9344 22.2555 31.7377V31.4181Z" fill="#A9C486"/>
<path d="M24.8823 29.9677C25.1256 29.9677 25.3445 29.9922 25.5147 30.0414C25.685 30.0906 25.8309 30.1643 25.9525 30.2873C26.0742 30.4102 26.1471 30.5577 26.1958 30.7544C26.2444 30.951 26.2687 31.1969 26.2687 31.4673V31.7377C26.2687 32.0082 26.2444 32.2294 26.1958 32.4015C26.1471 32.5982 26.0742 32.7457 25.9769 32.8686C25.8796 32.9915 25.7336 33.0899 25.5634 33.139C25.3931 33.1882 25.1499 33.2374 24.8823 33.2374C24.6877 33.2374 24.5418 33.2128 24.4202 33.1636C24.2986 33.1144 24.2013 33.0653 24.104 32.9915V34.1716H23.4959V31.4427C23.4959 31.1723 23.5202 30.9265 23.5689 30.7544C23.6175 30.5577 23.7148 30.4102 23.8121 30.3118C23.9094 30.2135 24.0797 30.1152 24.2499 30.066C24.4202 29.9922 24.6391 29.9677 24.8823 29.9677ZM24.8823 32.6965C25.0526 32.6965 25.1742 32.6965 25.2715 32.6719C25.3688 32.6473 25.4418 32.5982 25.5147 32.5244C25.5634 32.4507 25.612 32.3523 25.6363 32.2294C25.6607 32.1065 25.6607 31.9344 25.6607 31.7131V31.4427C25.6607 31.2215 25.6607 31.0494 25.6363 30.9264C25.612 30.8035 25.5877 30.7052 25.5147 30.6314C25.4661 30.5577 25.3688 30.5085 25.2715 30.4839C25.1742 30.4594 25.0526 30.4593 24.8823 30.4593C24.7364 30.4593 24.5905 30.4594 24.4932 30.4839C24.3959 30.5085 24.3229 30.5577 24.2499 30.6069C24.2013 30.6806 24.1526 30.7789 24.1283 30.9019C24.104 31.0248 24.104 31.1969 24.104 31.3935V31.8115C24.104 31.9836 24.104 32.1311 24.1283 32.2294C24.1526 32.3278 24.2013 32.4261 24.2499 32.4998C24.2986 32.5736 24.3959 32.5982 24.4932 32.6228C24.5905 32.6473 24.7364 32.6965 24.8823 32.6965Z" fill="#A9C486"/>
<path d="M27.5579 29.1564C27.5579 29.3039 27.5335 29.4022 27.4606 29.4514C27.4119 29.5006 27.2903 29.5497 27.1687 29.5497C27.0227 29.5497 26.9255 29.5251 26.8768 29.4514C26.8282 29.4022 26.7795 29.2793 26.7795 29.1564C26.7795 29.0089 26.8038 28.9105 26.8768 28.8614C26.9255 28.8122 27.0471 28.763 27.1687 28.763C27.3146 28.763 27.4119 28.7876 27.4606 28.8614C27.5335 28.9105 27.5579 29.0089 27.5579 29.1564ZM26.8768 30.066H27.4849V33.1144H26.8768V30.066Z" fill="#A9C486"/>
<path d="M28.1659 33.1144V30.951C28.1659 30.6069 28.2632 30.3364 28.4821 30.1889C28.701 30.0414 29.0415 29.9677 29.5037 29.9677C29.9658 29.9677 30.3063 30.0414 30.5253 30.1889C30.7442 30.3364 30.8414 30.6069 30.8414 30.951V33.1144H30.2334V31.074C30.2334 30.9756 30.2334 30.8773 30.2091 30.8035C30.2091 30.7298 30.1604 30.656 30.1118 30.6069C30.0631 30.5577 29.9901 30.5085 29.8929 30.4839C29.7956 30.4594 29.6496 30.4348 29.4794 30.4348C29.3091 30.4348 29.1632 30.4594 29.0659 30.4839C28.9686 30.5085 28.8956 30.5577 28.847 30.6069C28.7983 30.656 28.774 30.7298 28.7497 30.8035C28.7497 30.8773 28.7254 30.9756 28.7254 31.074V33.1144H28.1659Z" fill="#A9C486"/>
<path d="M33.6143 32.7703C33.5413 32.844 33.444 32.8932 33.3224 32.9424C33.2008 32.9915 33.0305 33.0161 32.8116 33.0161C32.5441 33.0161 32.3251 32.9915 32.1549 32.9178C31.9846 32.844 31.8387 32.7703 31.7414 32.6228C31.6441 32.4998 31.5711 32.3523 31.5225 32.1802C31.4738 32.0082 31.4738 31.7869 31.4738 31.5656V31.4181C31.4738 31.1969 31.4982 31.0002 31.5225 30.8035C31.5468 30.6314 31.6198 30.4839 31.7171 30.3364C31.8144 30.2135 31.9603 30.1152 32.1306 30.0414C32.3008 29.9677 32.5441 29.9431 32.8359 29.9431C33.1278 29.9431 33.371 29.9677 33.5413 30.0414C33.7116 30.1152 33.8575 30.2135 33.9548 30.3118C34.0521 30.4102 34.125 30.5823 34.1494 30.7544C34.1737 30.9265 34.198 31.0985 34.198 31.2952V32.7703C34.198 33.0161 34.1737 33.2128 34.125 33.3849C34.0764 33.557 33.9791 33.6799 33.8818 33.8028C33.7602 33.9011 33.6143 33.9749 33.444 34.0241C33.2737 34.0732 33.0548 34.0978 32.8116 34.0978C32.7143 34.0978 32.6413 34.0978 32.5684 34.0978C32.4954 34.0978 32.4224 34.0978 32.3251 34.0978C32.2279 34.0978 32.1549 34.0978 32.0576 34.0978C31.9603 34.0978 31.863 34.0978 31.7414 34.0978L31.863 33.5816C32.0576 33.5816 32.2279 33.5816 32.3738 33.5816C32.5197 33.5816 32.6657 33.5816 32.8116 33.5816C32.9575 33.5816 33.0792 33.557 33.1764 33.5324C33.2737 33.5078 33.371 33.4586 33.4197 33.4095C33.4926 33.3603 33.5413 33.262 33.5656 33.1636C33.5899 33.0653 33.6143 32.9178 33.6143 32.7457V32.7703ZM32.8359 32.4998C33.0062 32.4998 33.1278 32.4998 33.2251 32.4753C33.3224 32.4507 33.3954 32.4015 33.4683 32.3523C33.517 32.3032 33.5656 32.2048 33.5899 32.1311C33.6143 32.0327 33.6143 31.9098 33.6143 31.7623V31.4673C33.6143 31.2706 33.6143 31.0985 33.5899 30.9756C33.5656 30.8527 33.5413 30.7544 33.4926 30.6806C33.444 30.6069 33.371 30.5577 33.2737 30.5331C33.1764 30.5085 33.0305 30.4839 32.8602 30.4839C32.69 30.4839 32.5441 30.5085 32.4468 30.5331C32.3495 30.5577 32.2765 30.6069 32.2279 30.6806C32.1792 30.7544 32.1549 30.8527 32.1306 30.9756C32.1062 31.0985 32.1062 31.2706 32.1062 31.4673V31.5411C32.1062 31.7377 32.1062 31.9098 32.1306 32.0327C32.1549 32.1557 32.1792 32.254 32.2279 32.3278C32.2765 32.4015 32.3495 32.4507 32.4468 32.4753C32.5441 32.4998 32.6657 32.4998 32.8359 32.4998Z" fill="#A9C486"/>
<path d="M36.3628 33.1144V30.951C36.3628 30.6069 36.46 30.3364 36.6789 30.1889C36.8979 30.0414 37.2384 29.9677 37.7005 29.9677C38.1626 29.9677 38.5032 30.0414 38.7221 30.1889C38.941 30.3364 39.0383 30.6069 39.0383 30.951V33.1144H38.4302V31.074C38.4302 30.9756 38.4302 30.8773 38.4059 30.8035C38.4059 30.7298 38.3572 30.656 38.3086 30.6069C38.2599 30.5577 38.187 30.5085 38.0897 30.4839C37.9924 30.4594 37.8464 30.4348 37.6762 30.4348C37.5059 30.4348 37.36 30.4594 37.2627 30.4839C37.1654 30.5085 37.0924 30.5577 37.0438 30.6069C36.9951 30.656 36.9708 30.7298 36.9465 30.8035C36.9465 30.8773 36.9222 30.9756 36.9222 31.074V33.1144H36.3628Z" fill="#A9C486"/>
<path d="M40.2544 31.8115C40.2544 31.9836 40.2544 32.1065 40.2787 32.2048C40.3031 32.3032 40.3274 32.3769 40.376 32.4507C40.4247 32.5244 40.4976 32.549 40.5949 32.5736C40.6922 32.5982 40.8138 32.5982 40.9598 32.5982C41.0814 32.5982 41.2273 32.5982 41.3976 32.5982C41.5679 32.5982 41.7868 32.5982 42.0786 32.5982L41.9813 33.1144C41.8597 33.1144 41.7624 33.1144 41.6651 33.1144C41.5678 33.1144 41.4949 33.1144 41.4219 33.1144C41.3489 33.1144 41.276 33.1144 41.203 33.1144C41.13 33.1144 41.0571 33.1144 40.9598 33.1144C40.6922 33.1144 40.449 33.0899 40.2787 33.0161C40.1085 32.9424 39.9625 32.8686 39.8652 32.7457C39.768 32.6228 39.695 32.4753 39.6707 32.3032C39.6463 32.1311 39.622 31.9344 39.622 31.7377V31.4181C39.622 31.1969 39.6463 31.0002 39.6707 30.8035C39.7193 30.6314 39.768 30.4839 39.8652 30.361C39.9625 30.2381 40.1085 30.1398 40.2787 30.066C40.449 29.9922 40.6922 29.9677 40.9598 29.9677C41.2273 29.9677 41.4219 29.9922 41.5922 30.066C41.7624 30.1152 41.884 30.2135 41.9813 30.3118C42.0786 30.4102 42.1516 30.5331 42.1759 30.6806C42.2002 30.8281 42.2246 30.951 42.2246 31.0985V31.1969C42.2246 31.3444 42.2246 31.4427 42.2002 31.5411C42.1759 31.6394 42.1516 31.6886 42.1273 31.7377C42.103 31.7869 42.0543 31.8115 42.0057 31.8361C41.957 31.8607 41.884 31.8607 41.8111 31.8607H40.2544V31.8115ZM40.9841 30.4593C40.8382 30.4593 40.6922 30.4594 40.6193 30.4839C40.522 30.5085 40.449 30.5577 40.4004 30.6069C40.3517 30.656 40.3031 30.7544 40.3031 30.8773C40.2787 31.0002 40.2787 31.1477 40.2787 31.3198H41.7381V31.1231C41.7381 31.0002 41.7381 30.8773 41.7138 30.8035C41.6895 30.7052 41.6651 30.656 41.5922 30.5823C41.5435 30.5331 41.4706 30.4839 41.3733 30.4839C41.2517 30.4594 41.13 30.4593 40.9841 30.4593Z" fill="#A9C486"/>
<path d="M44.7055 30.8035L44.0974 33.1144H43.465L42.5651 30.066H43.1732L43.7812 32.4753L44.4136 30.066H44.9974L45.6055 32.4753L46.2379 30.066H46.8216L45.9217 33.1144H45.2893L44.7055 30.8035Z" fill="#A9C486"/>
<path d="M50.6646 30.8035L50.0565 33.1144H49.4242L48.5242 30.066H49.1323L49.7403 32.4753L50.3727 30.066H50.9565L51.5646 32.4753L52.197 30.066H52.7807L51.8808 33.1144H51.2484L50.6646 30.8035Z" fill="#A9C486"/>
<path d="M55.5779 32.5982C55.5779 32.7949 55.5292 32.9178 55.4562 32.9915C55.3589 33.0653 55.213 33.1144 54.9941 33.1144H54.0942C53.6807 33.1144 53.3888 33.0407 53.2185 32.8932C53.0483 32.7457 52.951 32.5244 52.951 32.2048V32.0573C52.951 31.7377 53.0483 31.4919 53.2429 31.3444C53.4374 31.1969 53.7293 31.1231 54.1428 31.1231C54.386 31.1231 54.5563 31.1477 54.7022 31.1723C54.8482 31.1969 54.9211 31.246 54.9941 31.2952V31.1231C54.9941 31.0248 54.9941 30.951 54.9698 30.8773C54.9455 30.8035 54.9211 30.7544 54.8725 30.7052C54.8238 30.656 54.7509 30.6069 54.6536 30.5823C54.5563 30.5577 54.4104 30.5331 54.2401 30.5331C54.0698 30.5331 53.8996 30.5331 53.7293 30.5331C53.5347 30.5331 53.3888 30.5331 53.2429 30.5331L53.3645 30.0168C53.4618 30.0168 53.6077 30.0168 53.778 30.0168C53.9482 30.0168 54.0942 30.0168 54.2644 30.0168C54.7266 30.0168 55.0671 30.0906 55.286 30.2627C55.5049 30.4348 55.6022 30.6806 55.6022 31.0002V32.5982H55.5779ZM53.5347 32.2048C53.5347 32.3523 53.5834 32.4507 53.6563 32.5244C53.7293 32.5982 53.8996 32.6228 54.0942 32.6228H54.9698V32.0573C54.9698 31.9836 54.9698 31.9098 54.9455 31.8607C54.9211 31.8115 54.8968 31.7623 54.8482 31.7377C54.7995 31.7131 54.7266 31.6886 54.6536 31.664C54.5563 31.6394 54.4347 31.6394 54.2887 31.6394H54.1428C54.0212 31.6394 53.8996 31.6394 53.8266 31.664C53.7536 31.6886 53.6807 31.7131 53.632 31.7377C53.5834 31.7623 53.559 31.8115 53.5347 31.8607C53.5104 31.9098 53.5104 31.9836 53.5104 32.0573V32.2048H53.5347Z" fill="#A9C486"/>
<path d="M56.5508 33.6307C56.7453 33.6307 56.9156 33.6307 57.0616 33.6307C57.2075 33.6307 57.3534 33.6307 57.4994 33.6307C57.6453 33.6307 57.7669 33.6061 57.8642 33.5816C57.9615 33.557 58.0588 33.5078 58.1074 33.4586C58.1804 33.4095 58.229 33.3111 58.2534 33.2128C58.2777 33.1145 58.302 32.9669 58.302 32.7949V32.7211C58.2777 32.7457 58.229 32.7949 58.1804 32.8194C58.1318 32.844 58.0831 32.8686 58.0101 32.8932C57.9372 32.9178 57.8642 32.9424 57.7669 32.9424C57.6696 32.9669 57.548 32.9669 57.4021 32.9669C57.0372 32.9669 56.7453 32.8932 56.5508 32.7457C56.3562 32.5982 56.2589 32.3523 56.2589 31.9836V30.0168H56.867V31.8361C56.867 31.9344 56.867 32.0327 56.8913 32.1065C56.8913 32.1802 56.9156 32.254 56.9643 32.3032C57.0129 32.3523 57.0616 32.4015 57.1588 32.4261C57.2561 32.4507 57.3777 32.4753 57.5237 32.4753C57.6939 32.4753 57.8156 32.4753 57.9372 32.4507C58.0588 32.4261 58.1074 32.4015 58.1804 32.3278C58.2534 32.254 58.2777 32.2048 58.302 32.1311C58.3263 32.0573 58.3263 31.9344 58.3263 31.8115V30.0414H58.9344V32.7949C58.9344 33.0407 58.9101 33.2374 58.8614 33.4095C58.8128 33.5815 58.7155 33.7045 58.6182 33.8274C58.4966 33.9257 58.3507 33.9995 58.1804 34.0486C58.0101 34.0978 57.7912 34.1224 57.548 34.1224C57.4507 34.1224 57.3777 34.1224 57.3048 34.1224C57.2318 34.1224 57.1588 34.1224 57.0616 34.1224C56.9886 34.1224 56.8913 34.1224 56.794 34.1224C56.6967 34.1224 56.5994 34.1224 56.4778 34.1224L56.5508 33.6307Z" fill="#A9C486"/>
<path d="M61.1721 31.3198C61.3424 31.3444 61.4883 31.369 61.6099 31.4181C61.7072 31.4673 61.8045 31.5411 61.8532 31.6148C61.9018 31.6886 61.9505 31.7869 61.9748 31.8852C61.9991 31.9836 61.9991 32.0573 61.9991 32.1557V32.2294C61.9991 32.4998 61.9018 32.7211 61.7072 32.8932C61.5126 33.0407 61.1964 33.1144 60.783 33.1144C60.6127 33.1144 60.3938 33.1144 60.1749 33.1144C59.9317 33.1144 59.7127 33.1144 59.4695 33.1144L59.5668 32.5982C59.7857 32.5982 59.9803 32.5982 60.1992 32.5982C60.4181 32.5982 60.6127 32.5982 60.783 32.5982C61.0019 32.5982 61.1721 32.5736 61.2451 32.5244C61.3181 32.4753 61.3667 32.3769 61.3667 32.2294C61.3667 32.1802 61.3667 32.1311 61.3424 32.1065C61.3424 32.0573 61.3181 32.0327 61.2937 32.0082C61.2694 31.9836 61.2208 31.959 61.1721 31.9344C61.1235 31.9098 61.0505 31.9098 60.9532 31.8852L60.2479 31.8115C60.1019 31.8115 59.9803 31.7623 59.883 31.7131C59.7857 31.664 59.6884 31.6148 59.6398 31.5411C59.5911 31.4673 59.5425 31.3935 59.4938 31.2952C59.4452 31.1969 59.4452 31.1231 59.4452 31.0248V30.9264C59.4452 30.656 59.5425 30.4593 59.7127 30.2873C59.9073 30.1398 60.1992 30.066 60.6127 30.066C60.8073 30.066 61.0019 30.066 61.1964 30.066C61.391 30.066 61.6343 30.066 61.8775 30.066L61.7802 30.5823C61.6099 30.5823 61.464 30.5823 61.3424 30.5823C61.2208 30.5823 61.0992 30.5823 61.0019 30.5823C60.9046 30.5823 60.8316 30.5823 60.7343 30.5823C60.637 30.5823 60.5884 30.5823 60.5154 30.5823C60.3208 30.5823 60.1749 30.6069 60.1019 30.656C60.0289 30.7052 59.9803 30.8035 59.9803 30.9264C59.9803 30.9756 59.9803 31.0248 60.0046 31.074C60.0289 31.1231 60.0289 31.1477 60.0533 31.1723C60.0776 31.1969 60.1262 31.2215 60.1749 31.246C60.2235 31.2706 60.2965 31.2706 60.3938 31.2952L61.1721 31.3198Z" fill="#A9C486"/>
</svg>
