<svg width="604" height="490" viewBox="0 0 604 490" fill="none" xmlns="http://www.w3.org/2000/svg">
<path d="M620.32 29.82C619.98 29.58 619.63 29.33 619.29 29.09C614.31 25.72 609.22 23.22 604.15 21.62C605.3 16.43 605.68 10.78 605.25 4.78C605.22 4.36 605.17 3.94 605.14 3.52C605.52 3.34 605.91 3.17 606.29 2.99C608.21 2.06 610.03 1.06 611.77 0H609.06C607.97 0.61 606.86 1.2 605.7 1.76C605.48 1.87 605.24 1.97 605.02 2.07C604.95 1.38 604.85 0.69 604.76 0H603.38C603.5 0.9 603.61 1.79 603.7 2.68C590.59 8.56 573.75 11.56 553.58 11.6C551.2 7.49 548.76 3.63 546.28 0H544.63C547.27 3.82 549.87 7.92 552.4 12.29C542.37 29.75 536.5 45.86 534.93 60.22C534.7 60.11 534.47 60.01 534.25 59.91C528.99 57.36 524.43 54.3 520.61 50.83C524.86 46.72 528.11 42.06 530.24 36.97C535.17 25.18 533.94 11.88 527.3 0H525.72C532.49 11.68 533.83 24.83 528.98 36.44C526.92 41.37 523.75 45.89 519.61 49.89C515.47 45.89 512.3 41.37 510.24 36.44C505.39 24.83 506.73 11.68 513.5 0H511.92C505.28 11.88 504.05 25.18 508.98 36.97C511.11 42.06 514.36 46.72 518.61 50.83C514.8 54.3 510.23 57.36 504.97 59.91C504.75 60.02 504.51 60.12 504.29 60.22C502.73 45.85 496.86 29.75 486.82 12.29C489.36 7.92 491.95 3.82 494.59 0H492.94C490.46 3.63 488.02 7.49 485.64 11.6C465.47 11.56 448.63 8.56 435.52 2.68C435.61 1.79 435.72 0.9 435.84 0H434.46C434.37 0.69 434.27 1.39 434.2 2.07C433.98 1.96 433.74 1.86 433.52 1.76C432.36 1.2 431.25 0.61 430.16 0H427.45C429.19 1.06 431.01 2.06 432.93 2.99C433.3 3.17 433.7 3.34 434.08 3.52C434.04 3.94 433.99 4.36 433.96 4.78C433.53 10.78 433.91 16.43 435.06 21.62C429.99 23.22 424.9 25.72 419.92 29.09C419.58 29.32 419.23 29.58 418.89 29.82C418.55 29.58 418.2 29.33 417.86 29.09C412.88 25.72 407.8 23.22 402.72 21.62C403.87 16.43 404.25 10.78 403.82 4.78C403.79 4.36 403.74 3.94 403.7 3.52C404.08 3.34 404.47 3.17 404.85 2.99C406.77 2.06 408.59 1.06 410.33 0H407.62C406.53 0.61 405.42 1.2 404.26 1.76C404.04 1.87 403.8 1.97 403.58 2.07C403.51 1.38 403.41 0.69 403.32 0H401.94C402.06 0.9 402.17 1.79 402.26 2.68C389.15 8.56 372.31 11.56 352.14 11.6C349.76 7.49 347.32 3.63 344.84 0H343.19C345.83 3.82 348.43 7.92 350.96 12.29C340.93 29.75 335.06 45.86 333.49 60.22C333.27 60.11 333.03 60.01 332.81 59.91C327.55 57.36 322.99 54.3 319.17 50.83C323.42 46.72 326.67 42.06 328.8 36.97C333.72 25.18 332.5 11.88 325.86 0H324.28C331.05 11.68 332.39 24.83 327.54 36.44C325.48 41.37 322.31 45.89 318.17 49.89C314.03 45.89 310.86 41.37 308.8 36.44C303.95 24.83 305.29 11.68 312.06 0H310.48C303.84 11.88 302.61 25.18 307.54 36.97C309.67 42.06 312.92 46.72 317.17 50.83C313.36 54.3 308.79 57.36 303.53 59.91C303.31 60.02 303.07 60.12 302.85 60.22C301.29 45.85 295.42 29.75 285.38 12.29C287.92 7.92 290.51 3.82 293.15 0H291.5C289.02 3.63 286.58 7.49 284.2 11.6C264.03 11.56 247.19 8.56 234.08 2.68C234.17 1.79 234.28 0.9 234.4 0H233.02C232.93 0.69 232.83 1.39 232.76 2.07C232.54 1.96 232.3 1.86 232.08 1.76C230.92 1.2 229.81 0.61 228.72 0H226.01C227.75 1.06 229.57 2.06 231.49 2.99C231.86 3.17 232.25 3.34 232.64 3.52C232.6 3.94 232.55 4.36 232.52 4.78C232.09 10.78 232.47 16.43 233.62 21.62C228.55 23.22 223.46 25.72 218.48 29.09C218.14 29.32 217.79 29.58 217.45 29.82C217.11 29.58 216.76 29.33 216.42 29.09C211.44 25.72 206.36 23.22 201.28 21.62C202.43 16.43 202.81 10.78 202.38 4.78C202.35 4.36 202.3 3.94 202.26 3.52C202.64 3.34 203.03 3.17 203.41 2.99C205.33 2.06 207.15 1.06 208.89 0H206.18C205.09 0.61 203.98 1.2 202.82 1.76C202.6 1.87 202.36 1.97 202.14 2.07C202.07 1.38 201.97 0.69 201.88 0H200.5C200.62 0.9 200.73 1.79 200.82 2.68C187.71 8.56 170.87 11.56 150.7 11.6C148.32 7.49 145.88 3.63 143.4 0H141.75C144.39 3.82 146.99 7.92 149.52 12.29C139.49 29.75 133.62 45.86 132.05 60.22C131.83 60.11 131.59 60.01 131.37 59.91C126.11 57.36 121.55 54.3 117.73 50.83C121.98 46.72 125.23 42.06 127.36 36.97C132.28 25.18 131.06 11.88 124.42 0H122.84C129.61 11.68 130.95 24.83 126.1 36.44C124.04 41.37 120.87 45.89 116.73 49.89C112.59 45.89 109.42 41.37 107.36 36.44C102.51 24.83 103.85 11.68 110.62 0H109.04C102.4 11.88 101.17 25.18 106.1 36.97C108.23 42.06 111.48 46.72 115.73 50.83C111.92 54.3 107.35 57.36 102.09 59.91C101.87 60.02 101.63 60.12 101.41 60.22C99.85 45.85 93.98 29.75 83.94 12.29C86.48 7.92 89.07 3.82 91.71 0H90.06C87.58 3.63 85.14 7.49 82.76 11.6C62.59 11.56 45.75 8.56 32.64 2.68C32.73 1.79 32.84 0.9 32.96 0H31.58C31.49 0.69 31.39 1.39 31.32 2.07C31.1 1.96 30.86 1.86 30.64 1.76C29.48 1.2 28.37 0.61 27.28 0H24.57C26.31 1.06 28.13 2.06 30.05 2.99C30.42 3.17 30.81 3.34 31.2 3.52C31.16 3.94 31.11 4.36 31.08 4.78C30.65 10.78 31.03 16.43 32.18 21.62C27.11 23.22 22.02 25.72 17.04 29.09C16.7 29.32 16.35 29.58 16.01 29.82C15.67 29.58 15.32 29.33 14.98 29.09C10.07 25.76 5.05 23.29 0.05 21.69V23.13C4.79 24.7 9.54 27.06 14.21 30.22C14.42 30.36 14.62 30.51 14.82 30.65C9.77 34.35 4.84 38.92 0.05 44.33V46.4C5.21 40.42 10.54 35.44 16.01 31.49C27.66 39.91 38.68 52.99 48.79 70.44C38.76 87.9 32.89 104.01 31.32 118.37C31.1 118.26 30.86 118.16 30.64 118.06C25.38 115.51 20.82 112.45 17 108.98C21.25 104.87 24.5 100.21 26.63 95.12C32.92 80.06 29.18 62.53 16.92 48.66C16.62 48.32 16.31 47.97 16 47.64C15.69 47.98 15.38 48.32 15.08 48.66C2.81 62.52 -0.93 80.06 5.36 95.12C7.49 100.21 10.74 104.87 14.99 108.98C11.18 112.45 6.61 115.51 1.35 118.06C1.13 118.17 0.89 118.27 0.67 118.37C0.51 116.87 0.29 115.35 0.03 113.81V136.88C1.01 131.97 1.32 126.68 0.92 121.08C0.89 120.66 0.84 120.24 0.8 119.82C1.18 119.64 1.57 119.47 1.95 119.29C7.36 116.66 12.07 113.51 15.99 109.92C19.91 113.51 24.62 116.67 30.03 119.29C30.4 119.47 30.79 119.64 31.18 119.82C31.14 120.24 31.09 120.66 31.06 121.08C30.63 127.08 31.01 132.73 32.16 137.92C27.09 139.52 22 142.02 17.02 145.39C16.68 145.62 16.33 145.88 15.99 146.12C15.65 145.88 15.3 145.63 14.96 145.39C10.05 142.06 5.03 139.59 0.03 137.99V139.43C4.77 141 9.52 143.36 14.19 146.52C14.4 146.66 14.6 146.81 14.8 146.95C9.75 150.65 4.82 155.22 0.03 160.63V162.7C5.19 156.72 10.52 151.74 15.99 147.79C27.64 156.21 38.66 169.29 48.77 186.74C38.74 204.2 32.87 220.31 31.3 234.67C31.08 234.56 30.84 234.46 30.62 234.36C25.36 231.81 20.8 228.75 16.98 225.28C21.23 221.17 24.48 216.51 26.61 211.42C32.9 196.36 29.16 178.83 16.9 164.96C16.6 164.62 16.29 164.27 15.98 163.94C15.67 164.28 15.36 164.62 15.06 164.96C2.8 178.83 -0.94 196.36 5.35 211.42C7.48 216.51 10.73 221.17 14.98 225.28C11.17 228.75 6.6 231.81 1.34 234.36C1.12 234.47 0.88 234.57 0.66 234.67C0.5 233.17 0.28 231.65 0.02 230.11V253.18C1 248.27 1.31 242.98 0.91 237.38C0.88 236.96 0.83 236.54 0.79 236.12C1.17 235.94 1.56 235.77 1.94 235.59C7.35 232.96 12.06 229.81 15.98 226.22C19.9 229.81 24.61 232.97 30.02 235.59C30.39 235.77 30.78 235.94 31.17 236.12C31.13 236.54 31.08 236.96 31.05 237.38C30.62 243.38 31 249.03 32.15 254.22C27.08 255.82 21.99 258.32 17.01 261.69C16.67 261.92 16.32 262.18 15.98 262.42C15.64 262.18 15.29 261.93 14.95 261.69C10.04 258.36 5.02 255.89 0.02 254.29V255.73C4.76 257.3 9.51 259.66 14.18 262.82C14.39 262.96 14.59 263.11 14.79 263.25C9.74 266.95 4.81 271.52 0.02 276.93V279C5.18 273.02 10.51 268.04 15.98 264.09C27.63 272.51 38.65 285.59 48.76 303.04C38.73 320.5 32.86 336.61 31.29 350.97C31.07 350.86 30.83 350.76 30.61 350.66C25.35 348.11 20.79 345.05 16.97 341.58C21.22 337.47 24.47 332.81 26.6 327.72C32.89 312.66 29.15 295.13 16.89 281.26C16.59 280.92 16.28 280.57 15.97 280.24C15.66 280.58 15.35 280.92 15.05 281.26C2.79 295.13 -0.95 312.66 5.34 327.72C7.47 332.81 10.72 337.47 14.97 341.58C11.16 345.05 6.59 348.11 1.33 350.66C1.11 350.77 0.87 350.87 0.65 350.97C0.49 349.47 0.27 347.95 0.01 346.41V369.48C0.99 364.57 1.3 359.28 0.9 353.68C0.87 353.26 0.82 352.84 0.78 352.42C1.16 352.24 1.55 352.07 1.93 351.89C7.34 349.26 12.05 346.11 15.97 342.52C19.89 346.11 24.6 349.27 30.01 351.89C30.38 352.07 30.77 352.24 31.16 352.42C31.12 352.84 31.07 353.26 31.04 353.68C30.61 359.68 30.99 365.33 32.14 370.52C27.07 372.12 21.98 374.62 17 377.99C16.66 378.22 16.31 378.48 15.97 378.72C15.63 378.48 15.28 378.23 14.94 377.99C10.03 374.66 5.01 372.19 0.01 370.59V372.03C4.75 373.6 9.5 375.96 14.17 379.12C14.38 379.26 14.58 379.41 14.78 379.55C9.73 383.25 4.8 387.82 0.01 393.23V395.3C5.17 389.32 10.5 384.34 15.97 380.39C27.62 388.81 38.64 401.89 48.75 419.34C38.72 436.8 32.85 452.91 31.28 467.27C31.06 467.16 30.82 467.06 30.6 466.96C25.34 464.41 20.78 461.35 16.96 457.88C21.21 453.77 24.46 449.11 26.59 444.02C32.88 428.96 29.14 411.43 16.88 397.56C16.58 397.22 16.27 396.87 15.96 396.54C15.65 396.88 15.34 397.22 15.04 397.56C2.78 411.43 -0.96 428.96 5.33 444.02C7.46 449.11 10.71 453.77 14.96 457.88C11.15 461.35 6.58 464.41 1.32 466.96C1.1 467.07 0.86 467.17 0.64 467.27C0.48 465.77 0.26 464.25 0 462.71V485.78C0.98 480.87 1.29 475.58 0.89 469.98C0.86 469.56 0.81 469.14 0.77 468.72C1.15 468.54 1.54 468.37 1.92 468.19C7.33 465.56 12.04 462.41 15.96 458.82C19.88 462.41 24.59 465.57 30 468.19C30.37 468.37 30.76 468.54 31.15 468.72C31.11 469.14 31.06 469.56 31.03 469.98C30.6 475.98 30.98 481.63 32.13 486.82C29.68 487.59 27.23 488.58 24.78 489.77H28.1C29.55 489.16 31 488.62 32.44 488.16C32.58 488.71 32.73 489.24 32.88 489.77H34.3C34.1 489.11 33.92 488.44 33.75 487.76C39.28 486.17 44.78 485.69 50.08 486.37C54.11 486.89 57.95 488.05 61.54 489.77H64.51C60.14 487.3 55.34 485.67 50.26 485.01C44.79 484.31 39.13 484.8 33.44 486.42C32.34 481.38 31.97 475.9 32.39 470.07C32.41 469.82 32.44 469.57 32.46 469.32C45.68 475.15 62.56 478.12 82.7 478.16C84.97 482.1 87.01 485.97 88.84 489.77H90.36C88.44 485.76 86.29 481.67 83.89 477.49C94.01 460.04 105.03 446.96 116.67 438.54C128.32 446.96 139.34 460.04 149.45 477.49C147.05 481.66 144.9 485.76 142.98 489.77H144.5C146.34 485.97 148.38 482.11 150.64 478.16C170.78 478.12 187.66 475.15 200.88 469.32C200.9 469.57 200.93 469.82 200.95 470.07C201.37 475.9 201.01 481.38 199.9 486.42C194.21 484.8 188.55 484.31 183.08 485.01C178 485.66 173.21 487.29 168.83 489.77H171.8C175.39 488.05 179.23 486.89 183.26 486.37C188.56 485.69 194.06 486.17 199.59 487.76C199.42 488.44 199.24 489.11 199.04 489.77H200.46C200.61 489.24 200.77 488.7 200.9 488.16C202.35 488.62 203.8 489.16 205.24 489.77H208.56C206.12 488.58 203.66 487.59 201.21 486.82C202.36 481.63 202.74 475.98 202.31 469.98C202.28 469.56 202.23 469.14 202.19 468.72C202.57 468.54 202.96 468.37 203.34 468.19C208.75 465.56 213.46 462.41 217.38 458.82C221.3 462.41 226.01 465.57 231.42 468.19C231.79 468.37 232.18 468.54 232.57 468.72C232.53 469.14 232.48 469.56 232.45 469.98C232.02 475.98 232.4 481.63 233.55 486.82C231.1 487.59 228.65 488.58 226.2 489.77H229.52C230.97 489.16 232.42 488.62 233.86 488.16C234 488.71 234.15 489.24 234.3 489.77H235.72C235.52 489.11 235.34 488.44 235.17 487.76C240.7 486.17 246.2 485.69 251.5 486.37C255.53 486.89 259.37 488.05 262.96 489.77H265.93C261.56 487.3 256.76 485.67 251.68 485.01C246.21 484.31 240.55 484.8 234.86 486.42C233.76 481.38 233.39 475.9 233.81 470.07C233.83 469.82 233.86 469.57 233.88 469.32C247.1 475.15 263.99 478.12 284.12 478.16C286.39 482.1 288.43 485.97 290.26 489.77H291.78C289.86 485.76 287.71 481.67 285.31 477.49C295.43 460.04 306.45 446.96 318.09 438.54C329.74 446.96 340.76 460.04 350.87 477.49C348.47 481.66 346.32 485.76 344.4 489.77H345.92C347.76 485.97 349.8 482.11 352.06 478.16C372.2 478.12 389.08 475.15 402.3 469.32C402.32 469.57 402.35 469.82 402.37 470.07C402.79 475.9 402.43 481.38 401.32 486.42C395.63 484.8 389.97 484.31 384.5 485.01C379.42 485.66 374.63 487.29 370.25 489.77H373.22C376.81 488.05 380.65 486.89 384.68 486.37C389.98 485.69 395.48 486.17 401.01 487.76C400.84 488.44 400.66 489.11 400.46 489.77H401.88C402.03 489.24 402.19 488.7 402.32 488.16C403.77 488.62 405.22 489.16 406.66 489.77H409.98C407.54 488.58 405.08 487.59 402.63 486.82C403.78 481.63 404.16 475.98 403.73 469.98C403.7 469.56 403.65 469.14 403.61 468.72C403.99 468.54 404.38 468.37 404.76 468.19C410.17 465.56 414.88 462.41 418.8 458.82C422.72 462.41 427.43 465.57 432.84 468.19C433.21 468.37 433.61 468.54 433.99 468.72C433.95 469.14 433.9 469.56 433.87 469.98C433.44 475.98 433.82 481.63 434.97 486.82C432.52 487.59 430.07 488.58 427.62 489.77H430.94C432.39 489.16 433.84 488.62 435.28 488.16C435.42 488.71 435.57 489.24 435.72 489.77H437.14C436.94 489.11 436.76 488.44 436.59 487.76C442.12 486.17 447.62 485.69 452.92 486.37C456.95 486.89 460.79 488.05 464.38 489.77H467.35C462.98 487.3 458.18 485.67 453.1 485.01C447.63 484.31 441.97 484.8 436.28 486.42C435.18 481.38 434.81 475.9 435.23 470.07C435.25 469.82 435.28 469.57 435.3 469.32C448.52 475.15 465.41 478.12 485.54 478.16C487.81 482.1 489.85 485.97 491.68 489.77H493.2C491.28 485.76 489.13 481.67 486.73 477.49C496.85 460.04 507.87 446.96 519.51 438.54C531.16 446.96 542.18 460.04 552.29 477.49C549.89 481.66 547.74 485.76 545.82 489.77H547.34C549.18 485.97 551.22 482.11 553.48 478.16C573.62 478.12 590.5 475.15 603.72 469.32C603.74 469.57 603.77 469.82 603.79 470.07C604.21 475.9 603.85 481.38 602.74 486.42C597.05 484.8 591.39 484.31 585.92 485.01C580.84 485.66 576.04 487.29 571.67 489.77H574.64C578.23 488.05 582.07 486.89 586.1 486.37C591.4 485.69 596.9 486.17 602.44 487.76C602.27 488.44 602.09 489.11 601.89 489.77H603.31C603.46 489.24 603.62 488.7 603.75 488.16C605.2 488.62 606.64 489.16 608.09 489.77H611.41C608.97 488.58 606.51 487.59 604.06 486.82C605.21 481.63 605.59 475.98 605.16 469.98C605.13 469.56 605.08 469.14 605.05 468.72C605.43 468.54 605.82 468.37 606.2 468.19C611.61 465.56 616.32 462.41 620.24 458.82C624.16 462.41 628.87 465.57 634.28 468.19C634.65 468.37 635.04 468.54 635.43 468.72C635.39 469.14 635.35 469.56 635.32 469.98C634.92 475.58 635.23 480.87 636.21 485.78V462.72C635.95 464.26 635.73 465.78 635.57 467.28C635.34 467.17 635.11 467.07 634.89 466.97C629.63 464.42 625.06 461.36 621.25 457.89C625.5 453.78 628.75 449.12 630.88 444.03C637.17 428.97 633.43 411.44 621.17 397.57C620.87 397.23 620.56 396.88 620.25 396.55C619.94 396.89 619.63 397.23 619.33 397.57C607.07 411.44 603.33 428.97 609.62 444.03C611.75 449.12 615 453.78 619.25 457.89C615.44 461.36 610.87 464.42 605.61 466.97C605.39 467.08 605.15 467.18 604.93 467.28C603.37 452.91 597.5 436.81 587.46 419.35C597.58 401.9 608.6 388.82 620.24 380.4C625.71 384.35 631.04 389.33 636.2 395.3V393.23C631.41 387.83 626.48 383.25 621.43 379.55C621.63 379.41 621.84 379.26 622.04 379.12C626.71 375.96 631.46 373.6 636.2 372.03V370.59C631.2 372.19 626.18 374.66 621.27 377.99C620.93 378.22 620.58 378.48 620.24 378.72C619.9 378.48 619.55 378.23 619.21 377.99C614.23 374.62 609.14 372.12 604.07 370.52C605.22 365.33 605.6 359.68 605.17 353.68C605.14 353.26 605.09 352.84 605.06 352.42C605.44 352.24 605.83 352.07 606.21 351.89C611.62 349.26 616.33 346.11 620.25 342.52C624.17 346.11 628.88 349.27 634.29 351.89C634.66 352.07 635.05 352.24 635.44 352.42C635.4 352.84 635.36 353.26 635.33 353.68C634.93 359.28 635.24 364.57 636.22 369.48V346.42C635.96 347.96 635.74 349.48 635.58 350.98C635.35 350.87 635.12 350.77 634.9 350.67C629.64 348.12 625.07 345.06 621.26 341.59C625.51 337.48 628.76 332.82 630.89 327.73C637.18 312.67 633.44 295.14 621.18 281.27C620.88 280.93 620.57 280.58 620.26 280.25C619.95 280.59 619.64 280.93 619.34 281.27C607.08 295.14 603.34 312.67 609.63 327.73C611.76 332.82 615.01 337.48 619.26 341.59C615.45 345.06 610.88 348.12 605.62 350.67C605.4 350.78 605.16 350.88 604.94 350.98C603.38 336.61 597.51 320.51 587.47 303.05C597.59 285.6 608.61 272.52 620.25 264.1C625.72 268.05 631.05 273.03 636.21 279V276.93C631.42 271.53 626.49 266.95 621.44 263.25C621.64 263.11 621.85 262.96 622.05 262.82C626.72 259.66 631.47 257.3 636.21 255.73V254.29C631.21 255.89 626.19 258.36 621.28 261.69C620.94 261.92 620.59 262.18 620.25 262.42C619.91 262.18 619.56 261.93 619.22 261.69C614.24 258.32 609.15 255.82 604.08 254.22C605.23 249.03 605.61 243.38 605.18 237.38C605.15 236.96 605.1 236.54 605.07 236.12C605.45 235.94 605.84 235.77 606.22 235.59C611.63 232.96 616.34 229.81 620.26 226.22C624.18 229.81 628.89 232.97 634.3 235.59C634.67 235.77 635.06 235.94 635.45 236.12C635.41 236.54 635.37 236.96 635.34 237.38C634.94 242.98 635.25 248.27 636.23 253.18V230.12C635.97 231.66 635.75 233.18 635.59 234.68C635.36 234.57 635.13 234.47 634.91 234.37C629.65 231.82 625.08 228.76 621.27 225.29C625.52 221.18 628.77 216.52 630.9 211.43C637.19 196.37 633.45 178.84 621.19 164.97C620.89 164.63 620.58 164.28 620.27 163.95C619.96 164.29 619.65 164.63 619.35 164.97C607.09 178.84 603.35 196.37 609.64 211.43C611.77 216.52 615.02 221.18 619.27 225.29C615.46 228.76 610.89 231.82 605.63 234.37C605.41 234.48 605.17 234.58 604.95 234.68C603.39 220.31 597.52 204.21 587.48 186.75C597.6 169.3 608.62 156.22 620.26 147.8C625.73 151.75 631.06 156.73 636.22 162.7V160.63C631.43 155.23 626.5 150.65 621.45 146.95C621.65 146.81 621.86 146.66 622.06 146.52C626.73 143.36 631.48 141 636.22 139.43V137.99C631.22 139.59 626.2 142.06 621.29 145.39C620.95 145.62 620.6 145.88 620.26 146.12C619.92 145.88 619.57 145.63 619.23 145.39C614.25 142.02 609.16 139.52 604.09 137.92C605.24 132.73 605.62 127.08 605.19 121.08C605.16 120.66 605.11 120.24 605.08 119.82C605.46 119.64 605.85 119.47 606.23 119.29C611.64 116.66 616.35 113.51 620.27 109.92C624.19 113.51 628.9 116.67 634.31 119.29C634.68 119.47 635.07 119.64 635.46 119.82C635.42 120.24 635.38 120.66 635.35 121.08C634.95 126.68 635.26 131.97 636.24 136.88V113.82C635.98 115.36 635.76 116.88 635.6 118.38C635.37 118.27 635.14 118.17 634.92 118.07C629.66 115.52 625.09 112.46 621.28 108.99C625.53 104.88 628.78 100.22 630.91 95.13C637.2 80.07 633.46 62.54 621.2 48.67C620.9 48.33 620.59 47.98 620.28 47.65C619.97 47.99 619.66 48.33 619.36 48.67C607.1 62.54 603.36 80.07 609.65 95.13C611.78 100.22 615.03 104.88 619.28 108.99C615.47 112.46 610.9 115.52 605.64 118.07C605.42 118.18 605.18 118.28 604.96 118.38C603.4 104.01 597.53 87.91 587.49 70.45C597.61 53 608.63 39.92 620.27 31.5C625.74 35.45 631.07 40.43 636.23 46.4V44.33C631.44 38.93 626.51 34.35 621.46 30.65C621.66 30.51 621.87 30.36 622.07 30.22C626.74 27.06 631.49 24.7 636.23 23.13V21.69C631.23 23.29 626.21 25.76 621.3 29.09C620.96 29.32 620.61 29.58 620.27 29.82H620.32ZM6.62 94.59C0.55 80.07 4.16 63.13 15.99 49.68C27.81 63.13 31.42 80.07 25.36 94.59C23.3 99.52 20.13 104.04 15.99 108.04C11.85 104.04 8.68 99.52 6.62 94.59ZM6.62 210.89C0.55 196.37 4.16 179.43 15.99 165.98C27.81 179.43 31.42 196.37 25.36 210.89C23.3 215.82 20.13 220.34 15.99 224.34C11.85 220.34 8.68 215.82 6.62 210.89ZM6.62 327.19C0.55 312.67 4.16 295.73 15.99 282.28C27.81 295.73 31.42 312.67 25.36 327.19C23.3 332.12 20.13 336.64 15.99 340.64C11.85 336.64 8.68 332.12 6.62 327.19ZM6.62 443.49C0.55 428.97 4.16 412.03 15.99 398.58C27.81 412.03 31.42 428.97 25.36 443.49C23.3 448.42 20.13 452.94 15.99 456.94C11.85 452.94 8.68 448.42 6.62 443.49ZM610.95 443.49C604.88 428.97 608.49 412.03 620.32 398.58C632.14 412.03 635.75 428.97 629.69 443.49C627.63 448.42 624.46 452.94 620.32 456.94C616.18 452.94 613.02 448.42 610.95 443.49ZM610.95 327.19C604.88 312.67 608.49 295.73 620.32 282.28C632.14 295.73 635.75 312.67 629.69 327.19C627.63 332.12 624.46 336.64 620.32 340.64C616.18 336.64 613.02 332.12 610.95 327.19ZM610.95 210.89C604.88 196.37 608.49 179.43 620.32 165.98C632.14 179.43 635.75 196.37 629.69 210.89C627.63 215.82 624.46 220.34 620.32 224.34C616.18 220.34 613.02 215.82 610.95 210.89ZM610.95 94.59C604.88 80.07 608.49 63.13 620.32 49.68C632.14 63.13 635.75 80.07 629.69 94.59C627.63 99.52 624.46 104.04 620.32 108.04C616.18 104.04 613.02 99.52 610.95 94.59ZM504.53 62.92C504.5 62.5 504.45 62.08 504.42 61.66C504.8 61.48 505.19 61.31 505.57 61.13C510.98 58.5 515.69 55.35 519.61 51.76C523.53 55.35 528.24 58.51 533.65 61.13C534.02 61.31 534.41 61.48 534.8 61.66C534.76 62.08 534.72 62.5 534.69 62.92C534.26 68.92 534.64 74.57 535.79 79.76C530.72 81.36 525.63 83.86 520.65 87.23C520.31 87.46 519.96 87.72 519.62 87.96C519.28 87.72 518.93 87.47 518.59 87.23C513.61 83.86 508.53 81.36 503.45 79.76C504.6 74.57 504.98 68.92 504.55 62.92H504.53ZM519.6 204.27C519.26 204.03 518.91 203.78 518.57 203.54C513.59 200.17 508.51 197.67 503.43 196.07C504.58 190.88 504.96 185.23 504.53 179.23C504.5 178.81 504.45 178.39 504.42 177.97C504.8 177.79 505.19 177.62 505.57 177.44C510.98 174.81 515.69 171.66 519.61 168.07C523.53 171.66 528.24 174.82 533.65 177.44C534.02 177.62 534.41 177.79 534.8 177.97C534.76 178.39 534.72 178.81 534.69 179.23C534.26 185.23 534.64 190.88 535.79 196.07C530.72 197.67 525.63 200.17 520.65 203.54C520.31 203.77 519.96 204.03 519.62 204.27H519.6ZM519.6 320.57C519.26 320.33 518.91 320.08 518.57 319.84C513.59 316.47 508.51 313.97 503.43 312.37C504.58 307.18 504.96 301.53 504.53 295.53C504.5 295.11 504.45 294.69 504.42 294.27C504.8 294.09 505.19 293.92 505.57 293.74C510.98 291.11 515.69 287.96 519.61 284.37C523.53 287.96 528.24 291.12 533.65 293.74C534.02 293.92 534.41 294.09 534.8 294.27C534.76 294.69 534.72 295.11 534.69 295.53C534.26 301.53 534.64 307.18 535.79 312.37C530.72 313.97 525.63 316.47 520.65 319.84C520.31 320.07 519.96 320.33 519.62 320.57H519.6ZM519.6 398.8C515.46 394.8 512.29 390.28 510.23 385.35C504.16 370.83 507.77 353.89 519.6 340.44C531.42 353.89 535.03 370.83 528.97 385.35C526.91 390.28 523.74 394.8 519.6 398.8ZM530.23 385.87C536.52 370.81 532.78 353.28 520.52 339.41C520.22 339.07 519.91 338.72 519.6 338.39C519.29 338.73 518.98 339.07 518.68 339.41C506.42 353.28 502.68 370.81 508.97 385.87C511.1 390.96 514.35 395.62 518.6 399.73C514.79 403.2 510.22 406.26 504.96 408.81C504.74 408.92 504.5 409.02 504.28 409.12C502.72 394.75 496.85 378.65 486.81 361.19C496.93 343.74 507.95 330.66 519.59 322.24C531.24 330.66 542.26 343.74 552.37 361.19C542.34 378.65 536.47 394.76 534.9 409.12C534.67 409.01 534.44 408.91 534.22 408.81C528.96 406.26 524.4 403.2 520.58 399.73C524.83 395.62 528.08 390.96 530.21 385.87H530.23ZM452.84 418.65C442.74 401.23 431.72 388.09 420.06 379.56C420.26 379.42 420.47 379.27 420.67 379.13C425.51 375.85 430.44 373.43 435.35 371.86C436.79 377.6 439.2 382.74 442.54 387.13C452.43 400.11 469.49 405.63 487.63 401.95C488.08 401.86 488.53 401.77 488.98 401.66C488.84 401.22 488.7 400.79 488.55 400.35C482.67 382.8 469.35 370.79 453.17 368.71C447.7 368.01 442.04 368.5 436.35 370.12C435.25 365.08 434.88 359.6 435.3 353.77C435.32 353.52 435.35 353.27 435.37 353.02C448.59 358.85 465.48 361.82 485.61 361.86C495.66 379.35 501.48 395.43 502.95 409.73C489.84 415.61 473 418.61 452.83 418.65H452.84ZM384.92 418.65C364.75 418.61 347.91 415.61 334.8 409.73C336.26 395.44 342.09 379.35 352.14 361.86C372.28 361.82 389.16 358.85 402.38 353.02C402.4 353.27 402.43 353.52 402.45 353.77C402.87 359.6 402.51 365.08 401.4 370.12C395.71 368.5 390.05 368.01 384.58 368.71C368.4 370.79 355.08 382.8 349.2 400.35C349.05 400.78 348.91 401.22 348.77 401.66C349.22 401.76 349.67 401.85 350.12 401.95C368.26 405.63 385.32 400.11 395.21 387.13C398.55 382.74 400.96 377.6 402.4 371.86C407.31 373.42 412.24 375.85 417.08 379.13C417.29 379.27 417.49 379.42 417.69 379.56C406.03 388.1 395.02 401.23 384.91 418.65H384.92ZM318.16 398.79C314.02 394.79 310.85 390.27 308.79 385.34C302.72 370.82 306.33 353.88 318.16 340.43C329.98 353.88 333.59 370.82 327.53 385.34C325.47 390.27 322.3 394.79 318.16 398.79ZM328.79 385.86C335.08 370.8 331.34 353.27 319.08 339.4C318.78 339.06 318.47 338.71 318.16 338.38C317.85 338.72 317.54 339.06 317.24 339.4C304.98 353.27 301.24 370.8 307.53 385.86C309.66 390.95 312.91 395.61 317.16 399.72C313.35 403.19 308.78 406.25 303.52 408.8C303.3 408.91 303.06 409.01 302.84 409.11C301.28 394.74 295.41 378.64 285.37 361.18C295.49 343.73 306.51 330.65 318.15 322.23C329.8 330.65 340.82 343.73 350.93 361.18C340.9 378.64 335.03 394.75 333.46 409.11C333.24 409 333 408.9 332.78 408.8C327.52 406.25 322.96 403.19 319.14 399.72C323.39 395.61 326.64 390.95 328.77 385.86H328.79ZM251.4 418.64C241.3 401.22 230.28 388.08 218.62 379.55C218.82 379.41 219.03 379.26 219.23 379.12C224.07 375.84 229 373.42 233.91 371.85C235.35 377.59 237.76 382.73 241.1 387.12C250.99 400.1 268.05 405.62 286.19 401.94C286.64 401.85 287.09 401.76 287.54 401.65C287.4 401.21 287.26 400.78 287.11 400.34C281.23 382.79 267.91 370.78 251.73 368.7C246.26 368 240.6 368.49 234.91 370.11C233.81 365.07 233.44 359.59 233.86 353.76C233.88 353.51 233.91 353.26 233.93 353.01C247.15 358.84 264.04 361.81 284.17 361.85C294.22 379.34 300.05 395.42 301.51 409.72C288.4 415.6 271.56 418.6 251.39 418.64H251.4ZM183.48 418.64C163.31 418.6 146.47 415.6 133.36 409.72C134.82 395.43 140.65 379.34 150.7 361.85C170.84 361.81 187.72 358.84 200.94 353.01C200.96 353.26 200.99 353.51 201.01 353.76C201.43 359.59 201.07 365.07 199.96 370.11C194.27 368.49 188.61 368 183.14 368.7C166.96 370.78 153.64 382.79 147.76 400.34C147.61 400.77 147.47 401.21 147.33 401.65C147.78 401.75 148.23 401.84 148.68 401.94C166.82 405.62 183.88 400.1 193.77 387.12C197.11 382.73 199.52 377.59 200.96 371.85C205.87 373.41 210.8 375.84 215.64 379.12C215.85 379.26 216.05 379.41 216.25 379.55C204.59 388.09 193.58 401.22 183.47 418.64H183.48ZM116.72 398.78C112.58 394.78 109.41 390.26 107.35 385.33C101.28 370.81 104.89 353.87 116.72 340.42C128.54 353.87 132.15 370.81 126.09 385.33C124.03 390.26 120.86 394.78 116.72 398.78ZM127.35 385.85C133.64 370.79 129.9 353.26 117.64 339.39C117.34 339.05 117.03 338.7 116.72 338.37C116.41 338.71 116.1 339.05 115.8 339.39C103.54 353.26 99.8 370.79 106.09 385.85C108.22 390.94 111.47 395.6 115.72 399.71C111.91 403.18 107.34 406.24 102.08 408.79C101.86 408.9 101.62 409 101.4 409.1C99.84 394.73 93.97 378.63 83.93 361.17C94.05 343.72 105.07 330.64 116.71 322.22C128.36 330.64 139.38 343.72 149.49 361.17C139.46 378.63 133.59 394.74 132.02 409.1C131.8 408.99 131.56 408.89 131.34 408.79C126.08 406.24 121.52 403.18 117.7 399.71C121.95 395.6 125.2 390.94 127.33 385.85H127.35ZM202.36 121.08C202.33 120.66 202.28 120.24 202.24 119.82C202.62 119.64 203.01 119.47 203.39 119.29C208.8 116.66 213.51 113.51 217.43 109.92C221.35 113.51 226.06 116.67 231.47 119.29C231.84 119.47 232.23 119.64 232.62 119.82C232.58 120.24 232.53 120.66 232.5 121.08C232.07 127.08 232.45 132.73 233.6 137.92C228.53 139.52 223.44 142.02 218.46 145.39C218.12 145.62 217.77 145.88 217.43 146.12C217.09 145.88 216.74 145.63 216.4 145.39C211.42 142.02 206.34 139.52 201.26 137.92C202.41 132.73 202.79 127.08 202.36 121.08ZM208.06 94.59C201.99 80.07 205.6 63.13 217.43 49.68C229.25 63.13 232.86 80.07 226.8 94.59C224.74 99.52 221.57 104.04 217.43 108.04C213.29 104.04 210.12 99.52 208.06 94.59ZM233.86 121.17C233.88 120.92 233.91 120.67 233.93 120.42C247.15 126.25 264.04 129.22 284.17 129.26C294.22 146.75 300.05 162.83 301.51 177.13C288.4 183.01 271.56 186.01 251.39 186.05C241.29 168.63 230.27 155.49 218.61 146.96C218.81 146.82 219.02 146.67 219.22 146.53C224.06 143.25 228.99 140.83 233.9 139.26C235.34 145 237.75 150.14 241.09 154.53C250.98 167.51 268.04 173.03 286.18 169.35C286.63 169.26 287.08 169.17 287.53 169.06C287.39 168.62 287.25 168.19 287.1 167.75C281.22 150.2 267.9 138.19 251.72 136.11C246.25 135.41 240.59 135.9 234.9 137.52C233.8 132.48 233.43 127 233.85 121.17H233.86ZM403.8 121.07C403.77 120.65 403.72 120.23 403.68 119.81C404.06 119.63 404.45 119.46 404.83 119.28C410.24 116.65 414.95 113.5 418.87 109.91C422.79 113.5 427.5 116.66 432.91 119.28C433.28 119.46 433.68 119.63 434.06 119.81C434.02 120.23 433.97 120.65 433.94 121.07C433.51 127.07 433.89 132.72 435.04 137.91C429.97 139.51 424.88 142.01 419.9 145.38C419.56 145.61 419.21 145.87 418.87 146.11C418.53 145.87 418.18 145.62 417.84 145.38C412.86 142.01 407.78 139.51 402.7 137.91C403.85 132.72 404.23 127.07 403.8 121.07ZM409.5 94.58C403.43 80.06 407.04 63.12 418.87 49.67C430.69 63.12 434.3 80.06 428.24 94.58C426.18 99.51 423.01 104.03 418.87 108.03C414.73 104.03 411.56 99.51 409.5 94.58ZM435.3 121.16C435.32 120.91 435.35 120.66 435.37 120.41C448.59 126.24 465.48 129.21 485.61 129.25C495.66 146.74 501.48 162.82 502.95 177.12C489.84 183 473 186 452.83 186.04C442.73 168.62 431.71 155.48 420.05 146.95C420.25 146.81 420.46 146.66 420.66 146.52C425.5 143.24 430.43 140.82 435.34 139.25C436.78 144.99 439.19 150.13 442.53 154.52C452.42 167.5 469.48 173.02 487.62 169.34C488.07 169.25 488.52 169.16 488.97 169.05C488.83 168.61 488.69 168.18 488.54 167.74C482.66 150.19 469.34 138.18 453.16 136.1C447.69 135.4 442.03 135.89 436.34 137.51C435.24 132.47 434.87 126.99 435.29 121.16H435.3ZM485.29 194.25C469.11 196.33 455.79 208.34 449.91 225.89C449.76 226.32 449.62 226.76 449.48 227.2C449.93 227.3 450.38 227.39 450.83 227.49C468.97 231.17 486.03 225.65 495.92 212.67C499.26 208.28 501.67 203.14 503.11 197.4C508.02 198.96 512.95 201.39 517.79 204.67C518 204.81 518.2 204.96 518.4 205.1C506.74 213.64 495.73 226.77 485.62 244.19C465.45 244.15 448.61 241.15 435.5 235.27C436.96 220.98 442.79 204.89 452.84 187.4C472.98 187.36 489.86 184.39 503.08 178.56C503.1 178.81 503.13 179.06 503.15 179.31C503.57 185.14 503.21 190.62 502.1 195.66C496.41 194.04 490.75 193.55 485.28 194.25H485.29ZM501.8 196.99C500.41 202.57 498.07 207.58 494.83 211.83C485.29 224.34 468.81 229.69 451.25 226.17C456.99 209.2 469.85 197.61 485.46 195.6C490.76 194.92 496.26 195.4 501.79 196.99H501.8ZM485.29 310.55C469.11 312.63 455.79 324.64 449.91 342.19C449.76 342.62 449.62 343.06 449.48 343.5C449.93 343.6 450.38 343.69 450.83 343.79C468.97 347.47 486.03 341.95 495.92 328.97C499.26 324.58 501.67 319.44 503.11 313.7C508.02 315.26 512.95 317.69 517.79 320.97C518 321.11 518.2 321.26 518.4 321.4C506.74 329.94 495.73 343.07 485.62 360.49C465.45 360.45 448.61 357.45 435.5 351.57C436.96 337.28 442.79 321.19 452.84 303.7C472.98 303.66 489.86 300.69 503.08 294.86C503.1 295.11 503.13 295.36 503.15 295.61C503.57 301.44 503.21 306.92 502.1 311.96C496.41 310.34 490.75 309.85 485.28 310.55H485.29ZM501.8 313.29C500.41 318.87 498.07 323.88 494.83 328.13C485.29 340.64 468.81 345.99 451.25 342.47C456.99 325.5 469.85 313.91 485.46 311.9C490.76 311.22 496.26 311.7 501.79 313.29H501.8ZM418.87 340.63C414.73 336.63 411.56 332.11 409.5 327.18C403.43 312.66 407.04 295.72 418.87 282.27C430.69 295.72 434.3 312.66 428.24 327.18C426.18 332.11 423.01 336.63 418.87 340.63ZM429.5 327.7C435.79 312.64 432.05 295.11 419.79 281.24C419.49 280.9 419.18 280.55 418.87 280.22C418.56 280.56 418.25 280.9 417.95 281.24C405.69 295.11 401.95 312.64 408.24 327.7C410.37 332.79 413.62 337.45 417.87 341.56C414.06 345.03 409.49 348.09 404.23 350.64C404.01 350.75 403.77 350.85 403.55 350.95C401.99 336.58 396.12 320.48 386.08 303.02C396.2 285.57 407.22 272.49 418.86 264.07C430.51 272.49 441.53 285.57 451.64 303.02C441.61 320.48 435.74 336.59 434.17 350.95C433.95 350.84 433.71 350.74 433.49 350.64C428.23 348.09 423.67 345.03 419.85 341.56C424.1 337.45 427.35 332.79 429.48 327.7H429.5ZM319.33 321.39C319.53 321.25 319.74 321.1 319.94 320.96C324.78 317.68 329.71 315.26 334.62 313.69C336.06 319.43 338.47 324.57 341.81 328.96C351.7 341.94 368.76 347.46 386.9 343.78C387.35 343.69 387.8 343.6 388.25 343.49C388.11 343.05 387.97 342.62 387.82 342.18C381.94 324.63 368.62 312.62 352.44 310.54C346.97 309.84 341.31 310.33 335.62 311.95C334.52 306.91 334.15 301.43 334.57 295.6C334.59 295.35 334.62 295.1 334.64 294.85C347.86 300.68 364.74 303.65 384.88 303.69C394.93 321.18 400.76 337.26 402.22 351.56C389.11 357.44 372.27 360.44 352.1 360.48C342 343.06 330.98 329.92 319.32 321.39H319.33ZM284.18 360.48C264.01 360.44 247.17 357.44 234.06 351.56C235.52 337.27 241.35 321.18 251.4 303.69C271.54 303.65 288.42 300.68 301.64 294.85C301.66 295.1 301.69 295.35 301.71 295.6C302.13 301.43 301.77 306.91 300.66 311.95C294.97 310.33 289.31 309.84 283.84 310.54C267.66 312.62 254.34 324.63 248.46 342.18C248.31 342.61 248.17 343.05 248.03 343.49C248.48 343.59 248.93 343.68 249.38 343.78C267.52 347.46 284.58 341.94 294.47 328.96C297.81 324.57 300.22 319.43 301.66 313.69C306.57 315.25 311.5 317.68 316.34 320.96C316.55 321.1 316.75 321.25 316.95 321.39C305.29 329.93 294.28 343.06 284.17 360.48H284.18ZM217.42 340.62C213.28 336.62 210.11 332.1 208.05 327.17C201.98 312.65 205.59 295.71 217.42 282.26C229.24 295.71 232.85 312.65 226.79 327.17C224.73 332.1 221.56 336.62 217.42 340.62ZM228.05 327.69C234.34 312.63 230.6 295.1 218.34 281.23C218.04 280.89 217.73 280.54 217.42 280.21C217.11 280.55 216.8 280.89 216.5 281.23C204.24 295.1 200.5 312.63 206.79 327.69C208.92 332.78 212.17 337.44 216.42 341.55C212.61 345.02 208.04 348.08 202.78 350.63C202.56 350.74 202.32 350.84 202.1 350.94C200.54 336.57 194.67 320.47 184.63 303.01C194.75 285.56 205.77 272.48 217.41 264.06C229.06 272.48 240.08 285.56 250.19 303.01C240.16 320.47 234.29 336.58 232.72 350.94C232.5 350.83 232.26 350.73 232.04 350.63C226.78 348.08 222.22 345.02 218.4 341.55C222.65 337.44 225.9 332.78 228.03 327.69H228.05ZM117.89 321.38C118.09 321.24 118.3 321.09 118.5 320.95C123.34 317.67 128.27 315.25 133.18 313.68C134.62 319.42 137.03 324.56 140.37 328.95C150.26 341.93 167.32 347.45 185.46 343.77C185.91 343.68 186.36 343.59 186.81 343.48C186.67 343.04 186.53 342.61 186.38 342.17C180.5 324.62 167.18 312.61 151 310.53C145.53 309.83 139.87 310.32 134.18 311.94C133.08 306.9 132.71 301.42 133.13 295.59C133.15 295.34 133.18 295.09 133.2 294.84C146.42 300.67 163.31 303.64 183.44 303.68C193.49 321.17 199.32 337.25 200.78 351.55C187.67 357.43 170.83 360.43 150.66 360.47C140.56 343.05 129.54 329.91 117.88 321.38H117.89ZM134.49 313.28C140.02 311.69 145.52 311.21 150.82 311.89C166.43 313.89 179.29 325.49 185.03 342.46C167.47 345.98 150.99 340.63 141.45 328.12C138.21 323.87 135.88 318.87 134.48 313.28H134.49ZM140.37 212.65C150.26 225.63 167.32 231.15 185.46 227.47C185.91 227.38 186.36 227.29 186.81 227.18C186.67 226.74 186.53 226.31 186.38 225.87C180.5 208.32 167.18 196.31 151 194.23C145.53 193.53 139.87 194.02 134.18 195.64C133.08 190.6 132.71 185.12 133.13 179.29C133.15 179.04 133.18 178.79 133.2 178.54C146.42 184.37 163.31 187.34 183.44 187.38C193.49 204.87 199.32 220.95 200.78 235.25C187.67 241.13 170.83 244.13 150.66 244.17C140.56 226.75 129.54 213.61 117.88 205.08C118.08 204.94 118.29 204.79 118.49 204.65C123.33 201.37 128.26 198.95 133.17 197.38C134.61 203.12 137.02 208.26 140.36 212.65H140.37ZM134.49 196.98C140.02 195.39 145.52 194.91 150.82 195.59C166.43 197.59 179.29 209.19 185.03 226.16C167.47 229.68 150.99 224.33 141.45 211.82C138.21 207.57 135.88 202.57 134.48 196.98H134.49ZM303.07 179.2C303.04 178.78 302.99 178.36 302.95 177.94C303.33 177.76 303.72 177.59 304.1 177.41C309.51 174.78 314.22 171.63 318.14 168.04C322.06 171.63 326.77 174.79 332.18 177.41C332.55 177.59 332.94 177.76 333.33 177.94C333.29 178.36 333.24 178.78 333.21 179.2C332.78 185.2 333.16 190.85 334.31 196.04C329.24 197.64 324.15 200.14 319.17 203.51C318.83 203.74 318.48 204 318.14 204.24C317.8 204 317.45 203.75 317.11 203.51C312.13 200.14 307.05 197.64 301.97 196.04C303.12 190.85 303.5 185.2 303.07 179.2ZM308.77 152.71C302.7 138.19 306.31 121.25 318.14 107.8C329.96 121.25 333.57 138.19 327.51 152.71C325.45 157.64 322.28 162.16 318.14 166.16C314 162.16 310.83 157.64 308.77 152.71ZM334.57 179.29C334.59 179.04 334.62 178.79 334.64 178.54C347.86 184.37 364.74 187.34 384.88 187.38C394.93 204.87 400.76 220.95 402.22 235.25C389.11 241.13 372.27 244.13 352.1 244.17C342 226.75 330.98 213.61 319.32 205.08C319.52 204.94 319.73 204.79 319.93 204.65C324.77 201.37 329.7 198.95 334.61 197.38C336.05 203.12 338.46 208.26 341.8 212.65C351.69 225.63 368.75 231.15 386.89 227.47C387.34 227.38 387.79 227.29 388.24 227.18C388.1 226.74 387.96 226.31 387.81 225.87C381.93 208.32 368.61 196.31 352.43 194.23C346.96 193.53 341.3 194.02 335.61 195.64C334.51 190.6 334.14 185.12 334.56 179.29H334.57ZM418.86 262.39C418.52 262.15 418.17 261.9 417.83 261.66C412.85 258.29 407.77 255.79 402.69 254.19C403.84 249 404.22 243.35 403.79 237.35C403.76 236.93 403.71 236.51 403.67 236.09C404.05 235.91 404.44 235.74 404.82 235.56C410.23 232.93 414.94 229.78 418.86 226.19C422.78 229.78 427.49 232.94 432.9 235.56C433.27 235.74 433.67 235.91 434.05 236.09C434.01 236.51 433.96 236.93 433.93 237.35C433.5 243.35 433.88 249 435.03 254.19C429.96 255.79 424.87 258.29 419.89 261.66C419.55 261.89 419.2 262.15 418.86 262.39ZM384.9 302.32C364.73 302.28 347.89 299.28 334.78 293.4C336.24 279.11 342.07 263.02 352.12 245.53C372.26 245.49 389.14 242.52 402.36 236.69C402.38 236.94 402.41 237.19 402.43 237.44C402.85 243.27 402.49 248.75 401.38 253.79C395.69 252.17 390.03 251.68 384.56 252.38C368.38 254.46 355.06 266.47 349.18 284.02C349.03 284.45 348.89 284.89 348.75 285.33C349.2 285.43 349.65 285.52 350.1 285.62C368.24 289.3 385.3 283.78 395.19 270.8C398.53 266.41 400.94 261.27 402.38 255.53C407.29 257.09 412.22 259.52 417.06 262.8C417.27 262.94 417.47 263.09 417.67 263.23C406.01 271.77 395 284.9 384.89 302.32H384.9ZM318.14 282.46C314 278.46 310.83 273.94 308.77 269.01C302.7 254.49 306.31 237.55 318.14 224.1C329.96 237.55 333.57 254.49 327.51 269.01C325.45 273.94 322.28 278.46 318.14 282.46ZM328.77 269.53C335.06 254.47 331.32 236.94 319.06 223.07C318.76 222.73 318.45 222.38 318.14 222.05C317.83 222.39 317.52 222.73 317.22 223.07C304.96 236.94 301.22 254.47 307.51 269.53C309.64 274.62 312.89 279.28 317.14 283.39C313.33 286.86 308.76 289.92 303.5 292.47C303.28 292.58 303.04 292.68 302.82 292.78C301.26 278.41 295.39 262.31 285.35 244.85C295.47 227.4 306.49 214.32 318.13 205.9C329.78 214.32 340.8 227.4 350.91 244.85C340.88 262.31 335.01 278.42 333.44 292.78C333.22 292.67 332.98 292.57 332.76 292.47C327.5 289.92 322.94 286.86 319.12 283.39C323.37 279.28 326.62 274.62 328.75 269.53H328.77ZM251.38 302.31C241.28 284.89 230.26 271.75 218.6 263.22C218.8 263.08 219.01 262.93 219.21 262.79C224.05 259.51 228.98 257.09 233.89 255.52C235.33 261.26 237.74 266.4 241.08 270.79C250.97 283.77 268.03 289.29 286.17 285.61C286.62 285.52 287.07 285.43 287.52 285.32C287.38 284.88 287.24 284.45 287.09 284.01C281.21 266.46 267.89 254.45 251.71 252.37C246.24 251.67 240.58 252.16 234.89 253.78C233.79 248.74 233.42 243.26 233.84 237.43C233.86 237.18 233.89 236.93 233.91 236.68C247.13 242.51 264.02 245.48 284.15 245.52C294.2 263.01 300.03 279.09 301.49 293.39C288.38 299.27 271.54 302.27 251.37 302.31H251.38ZM202.35 237.34C202.32 236.92 202.27 236.5 202.23 236.08C202.61 235.9 203 235.73 203.38 235.55C208.79 232.92 213.5 229.77 217.42 226.18C221.34 229.77 226.05 232.93 231.46 235.55C231.83 235.73 232.22 235.9 232.61 236.08C232.57 236.5 232.52 236.92 232.49 237.34C232.06 243.34 232.44 248.99 233.59 254.18C228.52 255.78 223.43 258.28 218.45 261.65C218.11 261.88 217.76 262.14 217.42 262.38C217.08 262.14 216.73 261.89 216.39 261.65C211.41 258.28 206.33 255.78 201.25 254.18C202.4 248.99 202.78 243.34 202.35 237.34ZM208.05 210.85C201.98 196.33 205.59 179.39 217.42 165.94C229.24 179.39 232.85 196.33 226.79 210.85C224.73 215.78 221.56 220.3 217.42 224.3C213.28 220.3 210.11 215.78 208.05 210.85ZM235.21 255.12C240.74 253.53 246.24 253.05 251.54 253.73C267.15 255.73 280.01 267.33 285.75 284.3C268.19 287.82 251.71 282.47 242.17 269.96C238.93 265.71 236.6 260.71 235.2 255.12H235.21ZM401.07 255.12C399.68 260.7 397.34 265.71 394.1 269.96C384.56 282.47 368.08 287.82 350.52 284.3C356.26 267.33 369.12 255.74 384.73 253.73C390.03 253.05 395.53 253.53 401.06 255.12H401.07ZM409.49 210.85C403.42 196.33 407.03 179.39 418.86 165.94C430.68 179.39 434.29 196.33 428.23 210.85C426.17 215.78 423 220.3 418.86 224.3C414.72 220.3 411.55 215.78 409.49 210.85ZM434.17 234.63C433.95 234.52 433.71 234.42 433.49 234.32C428.23 231.77 423.67 228.71 419.85 225.24C424.1 221.13 427.35 216.47 429.48 211.38C435.77 196.32 432.03 178.79 419.77 164.92C419.47 164.58 419.16 164.23 418.85 163.9C418.54 164.24 418.23 164.58 417.93 164.92C405.67 178.79 401.93 196.32 408.22 211.38C410.35 216.47 413.6 221.13 417.85 225.24C414.04 228.71 409.47 231.77 404.21 234.32C403.99 234.43 403.75 234.53 403.53 234.63C401.97 220.26 396.1 204.16 386.06 186.7C396.18 169.25 407.2 156.17 418.84 147.75C430.49 156.17 441.51 169.25 451.62 186.7C441.59 204.16 435.72 220.27 434.15 234.63H434.17ZM335.92 196.96C341.45 195.37 346.95 194.89 352.25 195.57C367.86 197.57 380.72 209.17 386.46 226.14C368.9 229.66 352.42 224.31 342.88 211.8C339.64 207.55 337.31 202.55 335.91 196.96H335.92ZM283.83 194.22C267.65 196.3 254.33 208.31 248.45 225.86C248.3 226.29 248.16 226.73 248.02 227.17C248.47 227.27 248.92 227.36 249.37 227.46C267.51 231.14 284.57 225.62 294.46 212.64C297.8 208.25 300.21 203.11 301.65 197.37C306.56 198.93 311.49 201.36 316.33 204.64C316.54 204.78 316.74 204.93 316.94 205.07C305.28 213.61 294.27 226.74 284.16 244.16C263.99 244.12 247.15 241.12 234.04 235.24C235.5 220.95 241.33 204.86 251.38 187.37C271.52 187.33 288.4 184.36 301.62 178.53C301.64 178.78 301.67 179.03 301.69 179.28C302.11 185.11 301.75 190.59 300.64 195.63C294.95 194.01 289.29 193.52 283.82 194.22H283.83ZM300.34 196.96C298.95 202.54 296.62 207.55 293.37 211.8C283.83 224.31 267.35 229.66 249.79 226.14C255.53 209.17 268.39 197.58 284 195.57C289.3 194.89 294.8 195.37 300.33 196.96H300.34ZM232.73 234.63C232.51 234.52 232.27 234.42 232.05 234.32C226.79 231.77 222.23 228.71 218.41 225.24C222.66 221.13 225.91 216.47 228.04 211.38C234.33 196.32 230.59 178.79 218.33 164.92C218.03 164.58 217.72 164.23 217.41 163.9C217.1 164.24 216.79 164.58 216.49 164.92C204.23 178.79 200.49 196.32 206.78 211.38C208.91 216.47 212.16 221.13 216.41 225.24C212.6 228.71 208.03 231.77 202.77 234.32C202.55 234.43 202.31 234.53 202.09 234.63C200.53 220.26 194.66 204.16 184.62 186.7C194.74 169.25 205.76 156.17 217.4 147.75C229.05 156.17 240.07 169.25 250.18 186.7C240.15 204.16 234.28 220.27 232.71 234.63H232.73ZM150.67 245.52C170.81 245.48 187.69 242.51 200.91 236.68C200.93 236.93 200.96 237.18 200.98 237.43C201.4 243.26 201.04 248.74 199.93 253.78C194.24 252.16 188.58 251.67 183.11 252.37C166.93 254.45 153.61 266.46 147.73 284.01C147.58 284.44 147.44 284.88 147.3 285.32C147.75 285.42 148.2 285.51 148.65 285.61C166.79 289.29 183.85 283.77 193.74 270.79C197.08 266.4 199.49 261.26 200.93 255.52C205.84 257.08 210.77 259.51 215.61 262.79C215.82 262.93 216.02 263.08 216.22 263.22C204.56 271.76 193.55 284.89 183.44 302.31C163.27 302.27 146.43 299.27 133.32 293.39C134.78 279.1 140.61 263.01 150.66 245.52H150.67ZM199.62 255.11C198.23 260.69 195.9 265.7 192.65 269.95C183.11 282.46 166.63 287.81 149.07 284.29C154.81 267.32 167.67 255.73 183.28 253.72C188.58 253.04 194.08 253.52 199.61 255.11H199.62ZM300.34 313.26C298.95 318.84 296.62 323.85 293.37 328.1C283.83 340.61 267.35 345.96 249.79 342.44C255.53 325.47 268.39 313.88 284 311.87C289.3 311.19 294.8 311.67 300.33 313.26H300.34ZM301.96 312.32C303.11 307.13 303.49 301.48 303.06 295.48C303.03 295.06 302.98 294.64 302.94 294.22C303.32 294.04 303.71 293.87 304.09 293.69C309.5 291.06 314.21 287.91 318.13 284.32C322.05 287.91 326.76 291.07 332.17 293.69C332.54 293.87 332.93 294.04 333.32 294.22C333.28 294.64 333.23 295.06 333.2 295.48C332.77 301.48 333.15 307.13 334.3 312.32C329.23 313.92 324.14 316.42 319.16 319.79C318.82 320.02 318.47 320.28 318.13 320.52C317.79 320.28 317.44 320.03 317.1 319.79C312.12 316.42 307.04 313.92 301.96 312.32ZM335.92 313.26C341.45 311.67 346.95 311.19 352.25 311.87C367.86 313.87 380.72 325.47 386.46 342.44C368.9 345.96 352.42 340.61 342.88 328.1C339.64 323.85 337.31 318.85 335.91 313.26H335.92ZM452.81 302.3C442.71 284.88 431.69 271.74 420.03 263.21C420.23 263.07 420.44 262.92 420.64 262.78C425.48 259.5 430.41 257.08 435.32 255.51C436.76 261.25 439.17 266.39 442.51 270.78C452.4 283.76 469.46 289.28 487.6 285.6C488.05 285.51 488.5 285.42 488.95 285.31C488.81 284.87 488.67 284.44 488.52 284C482.64 266.45 469.32 254.44 453.14 252.36C447.67 251.66 442.01 252.15 436.32 253.77C435.22 248.73 434.85 243.25 435.27 237.42C435.29 237.17 435.32 236.92 435.34 236.67C448.56 242.5 465.45 245.47 485.58 245.51C495.63 263 501.45 279.08 502.92 293.38C489.81 299.26 472.97 302.26 452.8 302.3H452.81ZM436.64 255.11C442.17 253.52 447.67 253.04 452.97 253.72C468.58 255.72 481.44 267.32 487.18 284.29C469.62 287.81 453.14 282.46 443.6 269.95C440.36 265.7 438.03 260.7 436.63 255.11H436.64ZM436.64 138.81C442.17 137.22 447.67 136.74 452.97 137.42C468.58 139.42 481.44 151.02 487.18 167.99C469.62 171.51 453.14 166.16 443.6 153.65C440.36 149.4 438.03 144.4 436.63 138.81H436.64ZM384.55 136.07C368.37 138.15 355.05 150.16 349.17 167.71C349.02 168.14 348.88 168.58 348.74 169.02C349.19 169.12 349.64 169.21 350.09 169.31C368.23 172.99 385.29 167.47 395.18 154.49C398.52 150.1 400.93 144.96 402.37 139.22C407.28 140.78 412.21 143.21 417.05 146.49C417.26 146.63 417.46 146.78 417.66 146.92C406 155.46 394.99 168.59 384.88 186.01C364.71 185.97 347.87 182.97 334.76 177.09C336.22 162.8 342.05 146.71 352.1 129.22C372.24 129.18 389.12 126.21 402.34 120.38C402.36 120.63 402.39 120.88 402.41 121.13C402.83 126.96 402.47 132.44 401.36 137.48C395.67 135.86 390.01 135.37 384.54 136.07H384.55ZM401.06 138.81C399.67 144.39 397.33 149.4 394.09 153.65C384.55 166.16 368.07 171.51 350.51 167.99C356.25 151.02 369.11 139.43 384.72 137.42C390.02 136.74 395.52 137.22 401.05 138.81H401.06ZM333.45 176.48C333.23 176.37 332.99 176.27 332.77 176.17C327.51 173.62 322.95 170.56 319.13 167.09C323.38 162.98 326.63 158.32 328.76 153.23C335.05 138.17 331.31 120.64 319.05 106.77C318.75 106.43 318.44 106.08 318.13 105.75C317.82 106.09 317.51 106.43 317.21 106.77C304.95 120.64 301.21 138.17 307.5 153.23C309.63 158.32 312.88 162.98 317.13 167.09C313.32 170.56 308.75 173.62 303.49 176.17C303.27 176.28 303.03 176.38 302.81 176.48C301.25 162.11 295.38 146.01 285.34 128.55C295.46 111.1 306.48 98.02 318.12 89.6C329.77 98.02 340.79 111.1 350.9 128.55C340.87 146.01 335 162.12 333.43 176.48H333.45ZM235.2 138.81C240.73 137.22 246.23 136.74 251.53 137.42C267.14 139.42 280 151.02 285.74 167.99C268.18 171.51 251.7 166.16 242.16 153.65C238.92 149.4 236.59 144.4 235.19 138.81H235.2ZM183.11 136.07C166.93 138.15 153.61 150.16 147.73 167.71C147.58 168.14 147.44 168.58 147.3 169.02C147.75 169.12 148.2 169.21 148.65 169.31C166.79 172.99 183.85 167.47 193.74 154.49C197.08 150.1 199.49 144.96 200.93 139.22C205.84 140.78 210.77 143.21 215.61 146.49C215.82 146.63 216.02 146.78 216.22 146.92C204.56 155.46 193.55 168.59 183.44 186.01C163.27 185.97 146.43 182.97 133.32 177.09C134.78 162.8 140.61 146.71 150.66 129.22C170.8 129.18 187.68 126.21 200.9 120.38C200.92 120.63 200.95 120.88 200.97 121.13C201.39 126.96 201.03 132.44 199.92 137.48C194.23 135.86 188.57 135.37 183.1 136.07H183.11ZM199.62 138.81C198.23 144.39 195.9 149.4 192.65 153.65C183.11 166.16 166.63 171.51 149.07 167.99C154.81 151.02 167.67 139.43 183.28 137.42C188.58 136.74 194.08 137.22 199.61 138.81H199.62ZM132.01 176.48C131.79 176.37 131.55 176.27 131.33 176.17C126.07 173.62 121.51 170.56 117.69 167.09C121.94 162.98 125.19 158.32 127.32 153.23C133.61 138.17 129.87 120.64 117.61 106.77C117.31 106.43 117 106.08 116.69 105.75C116.38 106.09 116.07 106.43 115.77 106.77C103.51 120.64 99.77 138.17 106.06 153.23C108.19 158.32 111.44 162.98 115.69 167.09C111.88 170.56 107.31 173.62 102.05 176.17C101.83 176.28 101.59 176.38 101.37 176.48C99.81 162.11 93.94 146.01 83.9 128.55C94.02 111.1 105.04 98.02 116.68 89.6C128.33 98.02 139.35 111.1 149.46 128.55C139.43 146.01 133.56 162.12 131.99 176.48H132.01ZM116.69 166.15C112.55 162.15 109.38 157.63 107.32 152.7C101.25 138.18 104.86 121.24 116.69 107.79C128.51 121.24 132.12 138.18 126.06 152.7C124 157.63 120.83 162.15 116.69 166.15ZM101.62 179.18C101.59 178.76 101.54 178.34 101.5 177.92C101.88 177.74 102.27 177.57 102.65 177.39C108.06 174.76 112.77 171.61 116.69 168.02C120.61 171.61 125.32 174.77 130.73 177.39C131.1 177.57 131.49 177.74 131.88 177.92C131.84 178.34 131.79 178.76 131.76 179.18C131.33 185.18 131.71 190.83 132.86 196.02C127.79 197.62 122.7 200.12 117.72 203.49C117.38 203.72 117.03 203.98 116.69 204.22C116.35 203.98 116 203.73 115.66 203.49C110.68 200.12 105.6 197.62 100.52 196.02C101.67 190.83 102.05 185.18 101.62 179.18ZM149.47 244.85C139.44 262.31 133.57 278.42 132 292.78C131.78 292.67 131.54 292.57 131.32 292.47C126.06 289.92 121.5 286.86 117.68 283.39C121.93 279.28 125.18 274.62 127.31 269.53C133.6 254.47 129.86 236.94 117.6 223.07C117.3 222.73 116.99 222.38 116.68 222.05C116.37 222.39 116.06 222.73 115.76 223.07C103.5 236.94 99.76 254.47 106.05 269.53C108.18 274.62 111.43 279.28 115.68 283.39C111.87 286.86 107.3 289.92 102.04 292.47C101.82 292.58 101.58 292.68 101.36 292.78C99.8 278.41 93.93 262.31 83.89 244.85C94.01 227.4 105.03 214.32 116.67 205.9C128.32 214.32 139.34 227.4 149.45 244.85H149.47ZM116.69 282.45C112.55 278.45 109.38 273.93 107.32 269C101.25 254.48 104.86 237.54 116.69 224.09C128.51 237.54 132.12 254.48 126.06 269C124 273.93 120.83 278.45 116.69 282.45ZM101.62 295.48C101.59 295.06 101.54 294.64 101.5 294.22C101.88 294.04 102.27 293.87 102.65 293.69C108.06 291.06 112.77 287.91 116.69 284.32C120.61 287.91 125.32 291.07 130.73 293.69C131.1 293.87 131.49 294.04 131.88 294.22C131.84 294.64 131.79 295.06 131.76 295.48C131.33 301.48 131.71 307.13 132.86 312.32C127.79 313.92 122.7 316.42 117.72 319.79C117.38 320.02 117.03 320.28 116.69 320.52C116.35 320.28 116 320.03 115.66 319.79C110.68 316.42 105.6 313.92 100.52 312.32C101.67 307.13 102.05 301.48 101.62 295.48ZM199.62 371.41C198.23 376.99 195.9 382 192.65 386.25C183.11 398.76 166.63 404.11 149.07 400.59C154.81 383.62 167.67 372.03 183.28 370.02C188.58 369.34 194.08 369.82 199.61 371.41H199.62ZM201.24 370.47C202.39 365.28 202.77 359.63 202.34 353.63C202.31 353.21 202.26 352.79 202.22 352.37C202.6 352.19 202.99 352.02 203.37 351.84C208.78 349.21 213.49 346.06 217.41 342.47C221.33 346.06 226.04 349.22 231.45 351.84C231.82 352.02 232.21 352.19 232.6 352.37C232.56 352.79 232.51 353.21 232.48 353.63C232.05 359.63 232.43 365.28 233.58 370.47C228.51 372.07 223.42 374.57 218.44 377.94C218.1 378.17 217.75 378.43 217.41 378.67C217.07 378.43 216.72 378.18 216.38 377.94C211.4 374.57 206.32 372.07 201.24 370.47ZM235.2 371.41C240.73 369.82 246.23 369.34 251.53 370.02C267.14 372.02 280 383.62 285.74 400.59C268.18 404.11 251.7 398.76 242.16 386.25C238.92 382 236.59 377 235.19 371.41H235.2ZM401.06 371.41C399.67 376.99 397.33 382 394.09 386.25C384.55 398.76 368.07 404.11 350.51 400.59C356.25 383.62 369.11 372.03 384.72 370.02C390.02 369.34 395.52 369.82 401.05 371.41H401.06ZM402.68 370.47C403.83 365.28 404.21 359.63 403.78 353.63C403.75 353.21 403.7 352.79 403.66 352.37C404.04 352.19 404.43 352.02 404.81 351.84C410.22 349.21 414.93 346.06 418.85 342.47C422.77 346.06 427.48 349.22 432.89 351.84C433.26 352.02 433.66 352.19 434.04 352.37C434 352.79 433.95 353.21 433.92 353.63C433.49 359.63 433.87 365.28 435.02 370.47C429.95 372.07 424.86 374.57 419.88 377.94C419.54 378.17 419.19 378.43 418.85 378.67C418.51 378.43 418.16 378.18 417.82 377.94C412.84 374.57 407.76 372.07 402.68 370.47ZM436.64 371.41C442.17 369.82 447.67 369.34 452.97 370.02C468.58 372.02 481.44 383.62 487.18 400.59C469.62 404.11 453.14 398.76 443.6 386.25C440.36 382 438.03 377 436.63 371.41H436.64ZM510.2 268.99C504.13 254.47 507.74 237.53 519.57 224.08C531.39 237.53 535 254.47 528.94 268.99C526.88 273.92 523.71 278.44 519.57 282.44C515.43 278.44 512.26 273.92 510.2 268.99ZM534.88 292.77C534.65 292.66 534.42 292.56 534.2 292.46C528.94 289.91 524.38 286.85 520.56 283.38C524.81 279.27 528.06 274.61 530.19 269.52C536.48 254.46 532.74 236.93 520.48 223.06C520.18 222.72 519.87 222.37 519.56 222.04C519.25 222.38 518.94 222.72 518.64 223.06C506.38 236.93 502.64 254.46 508.93 269.52C511.06 274.61 514.31 279.27 518.56 283.38C514.75 286.85 510.18 289.91 504.92 292.46C504.7 292.57 504.46 292.67 504.24 292.77C502.68 278.4 496.81 262.3 486.77 244.84C496.89 227.39 507.91 214.31 519.55 205.89C531.2 214.31 542.22 227.39 552.33 244.84C542.3 262.3 536.43 278.41 534.86 292.77H534.88ZM510.2 152.68C504.13 138.16 507.74 121.22 519.57 107.77C531.39 121.22 535 138.16 528.94 152.68C526.88 157.61 523.71 162.13 519.57 166.13C515.43 162.13 512.26 157.61 510.2 152.68ZM534.88 176.46C534.65 176.35 534.42 176.25 534.2 176.15C528.94 173.6 524.38 170.54 520.56 167.07C524.81 162.96 528.06 158.3 530.19 153.21C536.48 138.15 532.74 120.62 520.48 106.75C520.18 106.41 519.87 106.06 519.56 105.73C519.25 106.07 518.94 106.41 518.64 106.75C506.38 120.62 502.64 138.15 508.93 153.21C511.06 158.3 514.31 162.96 518.56 167.07C514.75 170.54 510.18 173.6 504.92 176.15C504.7 176.26 504.46 176.36 504.24 176.46C502.68 162.09 496.81 145.99 486.77 128.53C496.89 111.08 507.91 98 519.55 89.58C531.2 98 542.22 111.08 552.33 128.53C542.3 145.99 536.43 162.1 534.86 176.46H534.88ZM503.13 62.96C503.55 68.79 503.19 74.27 502.08 79.31C496.39 77.69 490.73 77.2 485.26 77.9C469.08 79.98 455.76 91.99 449.88 109.54C449.73 109.97 449.59 110.41 449.45 110.85C449.9 110.95 450.35 111.04 450.8 111.14C468.94 114.82 486 109.3 495.89 96.32C499.23 91.93 501.64 86.79 503.08 81.05C507.99 82.61 512.92 85.04 517.76 88.32C517.97 88.46 518.17 88.61 518.37 88.75C506.71 97.29 495.7 110.42 485.59 127.84C465.42 127.8 448.58 124.8 435.47 118.92C436.93 104.63 442.76 88.54 452.81 71.05C472.95 71.01 489.83 68.04 503.05 62.21C503.07 62.46 503.1 62.71 503.12 62.96H503.13ZM501.77 80.64C500.38 86.22 498.04 91.23 494.8 95.48C485.26 107.99 468.78 113.34 451.22 109.82C456.96 92.85 469.82 81.26 485.43 79.25C490.73 78.57 496.23 79.05 501.76 80.64H501.77ZM420.64 30.16C425.48 26.88 430.41 24.46 435.32 22.89C436.76 28.63 439.17 33.77 442.51 38.16C452.4 51.14 469.46 56.66 487.6 52.98C488.05 52.89 488.5 52.8 488.95 52.69C488.81 52.25 488.67 51.82 488.52 51.38C482.64 33.83 469.32 21.82 453.14 19.74C447.67 19.04 442.01 19.53 436.32 21.15C435.22 16.11 434.85 10.63 435.27 4.8C435.29 4.55 435.32 4.3 435.34 4.05C448.56 9.88 465.45 12.85 485.58 12.89C495.63 30.38 501.45 46.46 502.92 60.76C489.81 66.64 472.97 69.64 452.8 69.68C442.7 52.26 431.68 39.12 420.02 30.59C420.22 30.45 420.43 30.3 420.63 30.16H420.64ZM436.63 22.49C442.16 20.9 447.66 20.42 452.96 21.1C468.57 23.1 481.43 34.7 487.17 51.67C469.61 55.19 453.13 49.84 443.59 37.33C440.35 33.08 438.02 28.08 436.62 22.49H436.63ZM451.62 70.38C441.59 87.84 435.72 103.95 434.15 118.31C433.93 118.2 433.69 118.1 433.47 118C428.21 115.45 423.65 112.39 419.83 108.92C424.08 104.81 427.33 100.15 429.46 95.06C435.75 80 432.01 62.47 419.75 48.6C419.45 48.26 419.14 47.91 418.83 47.58C418.52 47.92 418.21 48.26 417.91 48.6C405.65 62.47 401.91 80 408.2 95.06C410.33 100.15 413.58 104.81 417.83 108.92C414.02 112.39 409.45 115.45 404.19 118C403.97 118.11 403.73 118.21 403.51 118.31C401.95 103.94 396.08 87.84 386.04 70.38C396.16 52.93 407.18 39.85 418.82 31.43C430.47 39.85 441.49 52.93 451.6 70.38H451.62ZM352.09 12.9C372.23 12.86 389.11 9.89 402.33 4.06C402.35 4.31 402.38 4.56 402.4 4.81C402.82 10.64 402.46 16.12 401.35 21.16C395.66 19.54 390 19.05 384.53 19.75C368.35 21.83 355.03 33.84 349.15 51.39C349 51.82 348.86 52.26 348.72 52.7C349.17 52.8 349.62 52.89 350.07 52.99C368.21 56.67 385.27 51.15 395.16 38.17C398.5 33.78 400.91 28.64 402.35 22.9C407.26 24.46 412.19 26.89 417.03 30.17C417.24 30.31 417.44 30.46 417.64 30.6C405.98 39.14 394.97 52.27 384.86 69.69C364.69 69.65 347.85 66.65 334.74 60.77C336.2 46.48 342.03 30.39 352.08 12.9H352.09ZM401.04 22.49C399.65 28.07 397.31 33.08 394.07 37.33C384.53 49.84 368.05 55.19 350.49 51.67C356.23 34.7 369.09 23.11 384.7 21.1C390 20.42 395.5 20.9 401.03 22.49H401.04ZM334.54 62.96C334.56 62.71 334.59 62.46 334.61 62.21C347.83 68.04 364.71 71.01 384.85 71.05C394.9 88.54 400.73 104.62 402.19 118.92C389.08 124.8 372.24 127.8 352.07 127.84C341.97 110.42 330.95 97.28 319.29 88.75C319.49 88.61 319.7 88.46 319.9 88.32C324.74 85.04 329.67 82.62 334.58 81.05C336.02 86.79 338.43 91.93 341.77 96.32C351.66 109.3 368.72 114.82 386.86 111.14C387.31 111.05 387.76 110.96 388.21 110.85C388.07 110.41 387.93 109.98 387.78 109.54C381.9 91.99 368.58 79.98 352.4 77.9C346.93 77.2 341.27 77.69 335.58 79.31C334.48 74.27 334.11 68.79 334.53 62.96H334.54ZM335.9 80.64C341.43 79.05 346.93 78.57 352.23 79.25C367.84 81.25 380.7 92.85 386.44 109.82C368.88 113.34 352.4 107.99 342.86 95.48C339.62 91.23 337.29 86.23 335.89 80.64H335.9ZM303.04 62.86C303.01 62.44 302.96 62.02 302.92 61.6C303.3 61.42 303.69 61.25 304.07 61.07C309.48 58.44 314.19 55.29 318.11 51.7C322.03 55.29 326.74 58.45 332.15 61.07C332.52 61.25 332.91 61.42 333.3 61.6C333.26 62.02 333.21 62.44 333.18 62.86C332.75 68.86 333.13 74.51 334.28 79.7C329.21 81.3 324.12 83.8 319.14 87.17C318.8 87.4 318.45 87.66 318.11 87.9C317.77 87.66 317.42 87.41 317.08 87.17C312.1 83.8 307.02 81.3 301.94 79.7C303.09 74.51 303.47 68.86 303.04 62.86ZM301.68 62.96C302.1 68.79 301.74 74.27 300.63 79.31C294.94 77.69 289.28 77.2 283.81 77.9C267.63 79.98 254.31 91.99 248.43 109.54C248.28 109.97 248.14 110.41 248 110.85C248.45 110.95 248.9 111.04 249.35 111.14C267.49 114.82 284.55 109.3 294.44 96.32C297.78 91.93 300.19 86.79 301.63 81.05C306.54 82.61 311.47 85.04 316.31 88.32C316.52 88.46 316.72 88.61 316.92 88.75C305.26 97.29 294.25 110.42 284.14 127.84C263.97 127.8 247.13 124.8 234.02 118.92C235.48 104.63 241.31 88.54 251.36 71.05C271.5 71.01 288.38 68.04 301.6 62.21C301.62 62.46 301.65 62.71 301.67 62.96H301.68ZM300.32 80.64C298.93 86.22 296.6 91.23 293.35 95.48C283.81 107.99 267.33 113.34 249.77 109.82C255.51 92.85 268.37 81.26 283.98 79.25C289.28 78.57 294.78 79.05 300.31 80.64H300.32ZM219.19 30.16C224.03 26.88 228.96 24.46 233.87 22.89C235.31 28.63 237.72 33.77 241.06 38.16C250.95 51.14 268.01 56.66 286.15 52.98C286.6 52.89 287.05 52.8 287.5 52.69C287.36 52.25 287.22 51.82 287.07 51.38C281.19 33.83 267.87 21.82 251.69 19.74C246.22 19.04 240.56 19.53 234.87 21.15C233.77 16.11 233.4 10.63 233.82 4.8C233.84 4.55 233.87 4.3 233.89 4.05C247.11 9.88 264 12.85 284.13 12.89C294.18 30.38 300.01 46.46 301.47 60.76C288.36 66.64 271.52 69.64 251.35 69.68C241.25 52.26 230.23 39.12 218.57 30.59C218.77 30.45 218.98 30.3 219.18 30.16H219.19ZM235.18 22.49C240.71 20.9 246.21 20.42 251.51 21.1C267.12 23.1 279.98 34.7 285.72 51.67C268.16 55.19 251.68 49.84 242.14 37.33C238.9 33.08 236.57 28.08 235.17 22.49H235.18ZM250.17 70.38C240.14 87.84 234.27 103.95 232.7 118.31C232.48 118.2 232.24 118.1 232.02 118C226.76 115.45 222.2 112.39 218.38 108.92C222.63 104.81 225.88 100.15 228.01 95.06C234.3 80 230.56 62.47 218.3 48.6C218 48.26 217.69 47.91 217.38 47.58C217.07 47.92 216.76 48.26 216.46 48.6C204.2 62.47 200.46 80 206.75 95.06C208.88 100.15 212.13 104.81 216.38 108.92C212.57 112.39 208 115.45 202.74 118C202.52 118.11 202.28 118.21 202.06 118.31C200.5 103.94 194.63 87.84 184.59 70.38C194.71 52.93 205.73 39.85 217.37 31.43C229.02 39.85 240.04 52.93 250.15 70.38H250.17ZM150.69 12.97C170.83 12.93 187.71 9.96 200.93 4.13C200.95 4.38 200.98 4.63 201 4.88C201.42 10.71 201.06 16.19 199.95 21.23C194.26 19.61 188.6 19.12 183.13 19.82C166.95 21.9 153.63 33.91 147.75 51.46C147.6 51.89 147.46 52.33 147.32 52.77C147.77 52.87 148.22 52.96 148.67 53.06C166.81 56.74 183.87 51.22 193.76 38.24C197.1 33.85 199.51 28.71 200.95 22.97C205.86 24.53 210.79 26.96 215.63 30.24C215.84 30.38 216.04 30.53 216.24 30.67C204.58 39.21 193.57 52.34 183.46 69.76C163.29 69.72 146.45 66.72 133.34 60.84C134.8 46.55 140.63 30.46 150.68 12.97H150.69ZM199.64 22.56C198.25 28.14 195.92 33.15 192.67 37.4C183.13 49.91 166.65 55.26 149.09 51.74C154.83 34.77 167.69 23.18 183.3 21.17C188.6 20.49 194.1 20.97 199.63 22.56H199.64ZM133.14 63.03C133.16 62.78 133.19 62.53 133.21 62.28C146.43 68.11 163.32 71.08 183.45 71.12C193.5 88.61 199.33 104.69 200.79 118.99C187.68 124.87 170.84 127.87 150.67 127.91C140.57 110.49 129.55 97.35 117.89 88.82C118.09 88.68 118.3 88.53 118.5 88.39C123.34 85.11 128.27 82.69 133.18 81.12C134.62 86.86 137.03 92 140.37 96.39C150.26 109.37 167.32 114.89 185.46 111.21C185.91 111.12 186.36 111.03 186.81 110.92C186.67 110.48 186.53 110.05 186.38 109.61C180.5 92.06 167.18 80.05 151 77.97C145.53 77.27 139.87 77.76 134.18 79.38C133.08 74.34 132.71 68.86 133.13 63.03H133.14ZM134.5 80.71C140.03 79.12 145.53 78.64 150.83 79.32C166.44 81.32 179.3 92.92 185.04 109.89C167.48 113.41 151 108.06 141.46 95.55C138.22 91.3 135.89 86.3 134.49 80.71H134.5ZM101.64 62.93C101.61 62.51 101.56 62.09 101.52 61.67C101.9 61.49 102.29 61.32 102.67 61.14C108.08 58.51 112.79 55.36 116.71 51.77C120.63 55.36 125.34 58.52 130.75 61.14C131.12 61.32 131.51 61.49 131.9 61.67C131.86 62.09 131.81 62.51 131.78 62.93C131.35 68.93 131.73 74.58 132.88 79.77C127.81 81.37 122.72 83.87 117.74 87.24C117.4 87.47 117.05 87.73 116.71 87.97C116.37 87.73 116.02 87.48 115.68 87.24C110.7 83.87 105.62 81.37 100.54 79.77C101.69 74.58 102.07 68.93 101.64 62.93ZM17.17 30.66C17.37 30.52 17.58 30.37 17.78 30.23C22.62 26.95 27.55 24.53 32.46 22.96C33.9 28.7 36.31 33.84 39.65 38.23C49.54 51.21 66.6 56.73 84.74 53.05C85.19 52.96 85.64 52.87 86.09 52.76C85.95 52.32 85.81 51.89 85.66 51.45C79.78 33.9 66.46 21.89 50.28 19.81C44.81 19.11 39.15 19.6 33.46 21.22C32.36 16.18 31.99 10.7 32.41 4.87C32.43 4.62 32.46 4.37 32.48 4.12C45.7 9.95 62.58 12.92 82.72 12.96C92.77 30.45 98.6 46.53 100.06 60.83C86.95 66.71 70.11 69.71 49.94 69.75C39.84 52.33 28.82 39.19 17.16 30.66H17.17ZM33.78 22.56C39.31 20.97 44.81 20.49 50.11 21.17C65.72 23.17 78.58 34.77 84.32 51.74C66.76 55.26 50.28 49.91 40.74 37.4C37.5 33.15 35.17 28.15 33.77 22.56H33.78ZM49.96 71.12C70.1 71.08 86.98 68.11 100.2 62.28C100.22 62.53 100.25 62.78 100.27 63.03C100.69 68.86 100.33 74.34 99.22 79.38C93.53 77.76 87.87 77.27 82.4 77.97C66.22 80.05 52.9 92.06 47.02 109.61C46.87 110.04 46.73 110.48 46.59 110.92C47.04 111.02 47.49 111.11 47.94 111.21C66.08 114.89 83.14 109.37 93.03 96.39C96.37 92 98.78 86.86 100.22 81.12C105.13 82.68 110.06 85.11 114.9 88.39C115.11 88.53 115.31 88.68 115.51 88.82C103.85 97.36 92.84 110.49 82.73 127.91C62.56 127.87 45.72 124.87 32.61 118.99C34.07 104.7 39.9 88.61 49.95 71.12H49.96ZM98.91 80.71C97.52 86.29 95.19 91.3 91.94 95.55C82.4 108.06 65.92 113.41 48.36 109.89C54.1 92.92 66.96 81.33 82.57 79.32C87.87 78.64 93.37 79.12 98.9 80.71H98.91ZM17.17 146.96C17.37 146.82 17.58 146.67 17.78 146.53C22.62 143.25 27.55 140.83 32.46 139.26C33.9 145 36.31 150.14 39.65 154.53C49.54 167.51 66.6 173.03 84.74 169.35C85.19 169.26 85.64 169.17 86.09 169.06C85.95 168.62 85.81 168.19 85.66 167.75C79.78 150.2 66.46 138.19 50.28 136.11C44.81 135.41 39.15 135.9 33.46 137.52C32.36 132.48 31.99 127 32.41 121.17C32.43 120.92 32.46 120.67 32.48 120.42C45.7 126.25 62.58 129.22 82.72 129.26C92.77 146.75 98.6 162.83 100.06 177.13C86.95 183.01 70.11 186.01 49.94 186.05C39.84 168.63 28.82 155.49 17.16 146.96H17.17ZM33.78 138.86C39.31 137.27 44.81 136.79 50.11 137.47C65.72 139.47 78.58 151.07 84.32 168.04C66.76 171.56 50.28 166.21 40.74 153.7C37.5 149.45 35.17 144.45 33.77 138.86H33.78ZM49.96 187.42C70.1 187.38 86.98 184.41 100.2 178.58C100.22 178.83 100.25 179.08 100.27 179.33C100.69 185.16 100.33 190.64 99.22 195.68C93.53 194.06 87.87 193.57 82.4 194.27C66.22 196.35 52.9 208.36 47.02 225.91C46.87 226.34 46.73 226.78 46.59 227.22C47.04 227.32 47.49 227.41 47.94 227.51C66.08 231.19 83.14 225.67 93.03 212.69C96.37 208.3 98.78 203.16 100.22 197.42C105.13 198.98 110.06 201.41 114.9 204.69C115.11 204.83 115.31 204.98 115.51 205.12C103.85 213.66 92.84 226.79 82.73 244.21C62.56 244.17 45.72 241.17 32.61 235.29C34.07 221 39.9 204.91 49.95 187.42H49.96ZM98.91 197.01C97.52 202.59 95.19 207.6 91.94 211.85C82.4 224.36 65.92 229.71 48.36 226.19C54.1 209.22 66.96 197.63 82.57 195.62C87.87 194.94 93.37 195.42 98.9 197.01H98.91ZM17.17 263.26C17.37 263.12 17.58 262.97 17.78 262.83C22.62 259.55 27.55 257.13 32.46 255.56C33.9 261.3 36.31 266.44 39.65 270.83C49.54 283.81 66.6 289.33 84.74 285.65C85.19 285.56 85.64 285.47 86.09 285.36C85.95 284.92 85.81 284.49 85.66 284.05C79.78 266.5 66.46 254.49 50.28 252.41C44.81 251.71 39.15 252.2 33.46 253.82C32.36 248.78 31.99 243.3 32.41 237.47C32.43 237.22 32.46 236.97 32.48 236.72C45.7 242.55 62.58 245.52 82.72 245.56C92.77 263.05 98.6 279.13 100.06 293.43C86.95 299.31 70.11 302.31 49.94 302.35C39.84 284.93 28.82 271.79 17.16 263.26H17.17ZM33.78 255.16C39.31 253.57 44.81 253.09 50.11 253.77C65.72 255.77 78.58 267.37 84.32 284.34C66.76 287.86 50.28 282.51 40.74 270C37.5 265.75 35.17 260.75 33.77 255.16H33.78ZM49.96 303.72C70.1 303.68 86.98 300.71 100.2 294.88C100.22 295.13 100.25 295.38 100.27 295.63C100.69 301.46 100.33 306.94 99.22 311.98C93.53 310.36 87.87 309.87 82.4 310.57C66.22 312.65 52.9 324.66 47.02 342.21C46.87 342.64 46.73 343.08 46.59 343.52C47.04 343.62 47.49 343.71 47.94 343.81C66.08 347.49 83.14 341.97 93.03 328.99C96.37 324.6 98.78 319.46 100.22 313.72C105.13 315.28 110.06 317.71 114.9 320.99C115.11 321.13 115.31 321.28 115.51 321.42C103.85 329.96 92.84 343.09 82.73 360.51C62.56 360.47 45.72 357.47 32.61 351.59C34.07 337.3 39.9 321.21 49.95 303.72H49.96ZM98.91 313.31C97.52 318.89 95.19 323.9 91.94 328.15C82.4 340.66 65.92 346.01 48.36 342.49C54.1 325.52 66.96 313.93 82.57 311.92C87.87 311.24 93.37 311.72 98.9 313.31H98.91ZM17.17 379.56C17.37 379.42 17.58 379.27 17.78 379.13C22.62 375.85 27.55 373.43 32.46 371.86C33.9 377.6 36.31 382.74 39.65 387.13C49.54 400.11 66.6 405.63 84.74 401.95C85.19 401.86 85.64 401.77 86.09 401.66C85.95 401.22 85.81 400.79 85.66 400.35C79.78 382.8 66.46 370.79 50.28 368.71C44.81 368.01 39.15 368.5 33.46 370.12C32.36 365.08 31.99 359.6 32.41 353.77C32.43 353.52 32.46 353.27 32.48 353.02C45.7 358.85 62.58 361.82 82.72 361.86C92.77 379.35 98.6 395.43 100.06 409.73C86.95 415.61 70.11 418.61 49.94 418.65C39.84 401.23 28.82 388.09 17.16 379.56H17.17ZM33.78 371.46C39.31 369.87 44.81 369.39 50.11 370.07C65.72 372.07 78.58 383.67 84.32 400.64C66.76 404.16 50.28 398.81 40.74 386.3C37.5 382.05 35.17 377.05 33.77 371.46H33.78ZM82.75 476.8C62.58 476.76 45.74 473.76 32.63 467.88C34.09 453.59 39.92 437.5 49.97 420.01C70.11 419.97 86.99 417 100.21 411.17C100.23 411.42 100.26 411.67 100.28 411.92C100.7 417.75 100.34 423.23 99.23 428.27C93.54 426.65 87.88 426.16 82.41 426.86C66.23 428.94 52.91 440.95 47.03 458.5C46.88 458.93 46.74 459.37 46.6 459.81C47.05 459.91 47.5 460 47.95 460.1C66.09 463.78 83.15 458.26 93.04 445.28C96.38 440.89 98.79 435.75 100.23 430.01C105.14 431.57 110.07 434 114.91 437.28C115.12 437.42 115.32 437.57 115.52 437.71C103.86 446.25 92.85 459.38 82.74 476.8H82.75ZM98.92 429.61C97.53 435.19 95.2 440.2 91.95 444.45C82.41 456.96 65.93 462.31 48.37 458.79C54.11 441.82 66.97 430.23 82.58 428.22C87.88 427.54 93.38 428.02 98.91 429.61H98.92ZM115.68 436.14C110.7 432.77 105.62 430.27 100.54 428.67C101.69 423.48 102.07 417.83 101.64 411.83C101.61 411.41 101.56 410.99 101.52 410.57C101.9 410.39 102.29 410.22 102.67 410.04C108.08 407.41 112.79 404.26 116.71 400.67C120.63 404.26 125.34 407.42 130.75 410.04C131.12 410.22 131.51 410.39 131.9 410.57C131.86 410.99 131.81 411.41 131.78 411.83C131.35 417.83 131.73 423.48 132.88 428.67C127.81 430.27 122.72 432.77 117.74 436.14C117.4 436.37 117.05 436.63 116.71 436.87C116.37 436.63 116.02 436.38 115.68 436.14ZM150.67 476.8C140.57 459.38 129.55 446.24 117.89 437.71C118.09 437.57 118.3 437.42 118.5 437.28C123.34 434 128.27 431.58 133.18 430.01C134.62 435.75 137.03 440.89 140.37 445.28C150.26 458.26 167.32 463.78 185.46 460.1C185.91 460.01 186.36 459.92 186.81 459.81C186.67 459.37 186.53 458.94 186.38 458.5C180.5 440.95 167.18 428.94 151 426.86C145.53 426.16 139.87 426.65 134.18 428.27C133.08 423.23 132.71 417.75 133.13 411.92C133.15 411.67 133.18 411.42 133.2 411.17C146.42 417 163.31 419.97 183.44 420.01C193.49 437.5 199.32 453.58 200.78 467.88C187.67 473.76 170.83 476.76 150.66 476.8H150.67ZM134.5 429.61C140.03 428.02 145.53 427.54 150.83 428.22C166.44 430.22 179.3 441.82 185.04 458.79C167.48 462.31 151 456.96 141.46 444.45C138.22 440.2 135.89 435.2 134.49 429.61H134.5ZM208.06 443.49C201.99 428.97 205.6 412.03 217.43 398.58C229.25 412.03 232.86 428.97 226.8 443.49C224.74 448.42 221.57 452.94 217.43 456.94C213.29 452.94 210.12 448.42 208.06 443.49ZM232.74 467.27C232.52 467.16 232.28 467.06 232.06 466.96C226.8 464.41 222.24 461.35 218.42 457.88C222.67 453.77 225.92 449.11 228.05 444.02C234.34 428.96 230.6 411.43 218.34 397.56C218.04 397.22 217.73 396.87 217.42 396.54C217.11 396.88 216.8 397.22 216.5 397.56C204.24 411.43 200.5 428.96 206.79 444.02C208.92 449.11 212.17 453.77 216.42 457.88C212.61 461.35 208.04 464.41 202.78 466.96C202.56 467.07 202.32 467.17 202.1 467.27C200.54 452.9 194.67 436.8 184.63 419.34C194.75 401.89 205.77 388.81 217.41 380.39C229.06 388.81 240.08 401.89 250.19 419.34C240.16 436.8 234.29 452.91 232.72 467.27H232.74ZM284.18 476.79C264.01 476.75 247.17 473.75 234.06 467.87C235.52 453.58 241.35 437.49 251.4 420C271.54 419.96 288.42 416.99 301.64 411.16C301.66 411.41 301.69 411.66 301.71 411.91C302.13 417.74 301.77 423.22 300.66 428.26C294.97 426.64 289.31 426.15 283.84 426.85C267.66 428.93 254.34 440.94 248.46 458.49C248.31 458.92 248.17 459.36 248.03 459.8C248.48 459.9 248.93 459.99 249.38 460.09C267.52 463.77 284.58 458.25 294.47 445.27C297.81 440.88 300.22 435.74 301.66 430C306.57 431.56 311.5 433.99 316.34 437.27C316.55 437.41 316.75 437.56 316.95 437.7C305.29 446.24 294.28 459.37 284.17 476.79H284.18ZM300.35 429.6C298.96 435.18 296.63 440.19 293.38 444.44C283.84 456.95 267.36 462.3 249.8 458.78C255.54 441.81 268.4 430.22 284.01 428.21C289.31 427.53 294.81 428.01 300.34 429.6H300.35ZM317.11 436.13C312.13 432.76 307.05 430.26 301.97 428.66C303.12 423.47 303.5 417.82 303.07 411.82C303.04 411.4 302.99 410.98 302.95 410.56C303.33 410.38 303.72 410.21 304.1 410.03C309.51 407.4 314.22 404.25 318.14 400.66C322.06 404.25 326.77 407.41 332.18 410.03C332.55 410.21 332.94 410.38 333.33 410.56C333.29 410.98 333.24 411.4 333.21 411.82C332.78 417.82 333.16 423.47 334.31 428.66C329.24 430.26 324.15 432.76 319.17 436.13C318.83 436.36 318.48 436.62 318.14 436.86C317.8 436.62 317.45 436.37 317.11 436.13ZM352.1 476.79C342 459.37 330.98 446.23 319.32 437.7C319.52 437.56 319.73 437.41 319.93 437.27C324.77 433.99 329.7 431.57 334.61 430C336.05 435.74 338.46 440.88 341.8 445.27C351.69 458.25 368.75 463.77 386.89 460.09C387.34 460 387.79 459.91 388.24 459.8C388.1 459.36 387.96 458.93 387.81 458.49C381.93 440.94 368.61 428.93 352.43 426.85C346.96 426.15 341.3 426.64 335.61 428.26C334.51 423.22 334.14 417.74 334.56 411.91C334.58 411.66 334.61 411.41 334.63 411.16C347.85 416.99 364.73 419.96 384.87 420C394.92 437.49 400.75 453.57 402.21 467.87C389.1 473.75 372.26 476.75 352.09 476.79H352.1ZM335.93 429.6C341.46 428.01 346.96 427.53 352.26 428.21C367.87 430.21 380.73 441.81 386.47 458.78C368.91 462.3 352.43 456.95 342.89 444.44C339.65 440.19 337.32 435.19 335.92 429.6H335.93ZM409.49 443.48C403.42 428.96 407.03 412.02 418.86 398.57C430.68 412.02 434.29 428.96 428.23 443.48C426.17 448.41 423 452.93 418.86 456.93C414.72 452.93 411.55 448.41 409.49 443.48ZM434.17 467.26C433.95 467.15 433.71 467.05 433.49 466.95C428.23 464.4 423.67 461.34 419.85 457.87C424.1 453.76 427.35 449.1 429.48 444.01C435.77 428.95 432.03 411.42 419.77 397.55C419.47 397.21 419.16 396.86 418.85 396.53C418.54 396.87 418.23 397.21 417.93 397.55C405.67 411.42 401.93 428.95 408.22 444.01C410.35 449.1 413.6 453.76 417.85 457.87C414.04 461.34 409.47 464.4 404.21 466.95C403.99 467.06 403.75 467.16 403.53 467.26C401.97 452.89 396.1 436.79 386.06 419.33C396.18 401.88 407.2 388.8 418.84 380.38C430.49 388.8 441.51 401.88 451.62 419.33C441.59 436.79 435.72 452.9 434.15 467.26H434.17ZM485.61 476.78C465.44 476.74 448.6 473.74 435.49 467.86C436.95 453.57 442.78 437.48 452.83 419.99C472.97 419.95 489.85 416.98 503.07 411.15C503.09 411.4 503.12 411.65 503.14 411.9C503.56 417.73 503.2 423.21 502.09 428.25C496.4 426.63 490.74 426.14 485.27 426.84C469.09 428.92 455.77 440.93 449.89 458.48C449.74 458.91 449.6 459.35 449.46 459.79C449.91 459.89 450.36 459.98 450.81 460.08C468.95 463.76 486.01 458.24 495.9 445.26C499.24 440.87 501.65 435.73 503.09 429.99C508 431.55 512.93 433.98 517.77 437.26C517.98 437.4 518.18 437.55 518.38 437.69C506.72 446.23 495.71 459.36 485.6 476.78H485.61ZM501.78 429.59C500.39 435.17 498.05 440.18 494.81 444.43C485.27 456.94 468.79 462.29 451.23 458.77C456.97 441.8 469.83 430.21 485.44 428.2C490.74 427.52 496.24 428 501.77 429.59H501.78ZM518.54 436.12C513.56 432.75 508.48 430.25 503.4 428.65C504.55 423.46 504.93 417.81 504.5 411.81C504.47 411.39 504.42 410.97 504.39 410.55C504.77 410.37 505.16 410.2 505.54 410.02C510.95 407.39 515.66 404.24 519.58 400.65C523.5 404.24 528.21 407.4 533.62 410.02C533.99 410.2 534.38 410.37 534.77 410.55C534.73 410.97 534.69 411.39 534.66 411.81C534.23 417.81 534.61 423.46 535.76 428.65C530.69 430.25 525.6 432.75 520.62 436.12C520.28 436.35 519.93 436.61 519.59 436.85C519.25 436.61 518.9 436.36 518.56 436.12H518.54ZM603.66 467.86C590.55 473.74 573.71 476.74 553.54 476.78C543.44 459.36 532.42 446.22 520.76 437.69C520.96 437.55 521.17 437.4 521.37 437.26C526.21 433.98 531.14 431.56 536.05 429.99C537.49 435.73 539.9 440.87 543.24 445.26C553.13 458.24 570.19 463.76 588.33 460.08C588.78 459.99 589.23 459.9 589.68 459.79C589.54 459.35 589.4 458.92 589.25 458.48C583.37 440.93 570.05 428.92 553.87 426.84C548.4 426.14 542.74 426.63 537.05 428.25C535.95 423.21 535.58 417.73 536 411.9C536.02 411.65 536.05 411.4 536.07 411.15C549.29 416.98 566.18 419.95 586.31 419.99C596.36 437.48 602.18 453.56 603.65 467.86H603.66ZM537.37 429.58C542.9 427.99 548.4 427.51 553.7 428.19C569.31 430.19 582.17 441.79 587.91 458.76C570.35 462.28 553.87 456.93 544.33 444.42C541.09 440.17 538.76 435.17 537.36 429.58H537.37ZM603.87 353.75C604.29 359.58 603.93 365.06 602.82 370.1C597.13 368.48 591.47 367.99 586 368.69C569.82 370.77 556.5 382.78 550.62 400.33C550.48 400.76 550.33 401.2 550.19 401.64C550.64 401.74 551.09 401.83 551.54 401.93C569.68 405.61 586.74 400.09 596.63 387.11C599.97 382.72 602.38 377.58 603.82 371.84C608.73 373.4 613.66 375.83 618.5 379.11C618.71 379.25 618.91 379.4 619.11 379.54C607.45 388.08 596.44 401.21 586.33 418.63C566.16 418.59 549.32 415.59 536.21 409.71C537.67 395.42 543.5 379.33 553.55 361.84C573.69 361.8 590.57 358.83 603.79 353C603.81 353.25 603.84 353.5 603.86 353.75H603.87ZM602.51 371.43C601.12 377.01 598.78 382.02 595.54 386.27C586 398.78 569.52 404.13 551.96 400.61C557.7 383.64 570.56 372.05 586.17 370.04C591.47 369.36 596.97 369.84 602.51 371.43ZM603.66 351.55C590.55 357.43 573.71 360.43 553.54 360.47C543.44 343.05 532.42 329.91 520.76 321.38C520.96 321.24 521.17 321.09 521.37 320.95C526.21 317.67 531.14 315.25 536.05 313.68C537.49 319.42 539.9 324.56 543.24 328.95C553.13 341.93 570.19 347.45 588.33 343.77C588.78 343.68 589.23 343.59 589.68 343.48C589.54 343.04 589.4 342.61 589.25 342.17C583.37 324.62 570.05 312.61 553.87 310.53C548.4 309.83 542.74 310.32 537.05 311.94C535.95 306.9 535.58 301.42 536 295.59C536.02 295.34 536.05 295.09 536.07 294.84C549.29 300.67 566.18 303.64 586.31 303.68C596.36 321.17 602.18 337.25 603.65 351.55H603.66ZM537.37 313.27C542.9 311.68 548.4 311.2 553.7 311.88C569.31 313.88 582.17 325.48 587.91 342.45C570.35 345.97 553.87 340.62 544.33 328.11C541.09 323.86 538.76 318.86 537.36 313.27H537.37ZM603.87 237.44C604.29 243.27 603.93 248.75 602.82 253.79C597.13 252.17 591.47 251.68 586 252.38C569.82 254.46 556.5 266.47 550.62 284.02C550.48 284.45 550.33 284.89 550.19 285.33C550.64 285.43 551.09 285.52 551.54 285.62C569.68 289.3 586.74 283.78 596.63 270.8C599.97 266.41 602.38 261.27 603.82 255.53C608.73 257.09 613.66 259.52 618.5 262.8C618.71 262.94 618.91 263.09 619.11 263.23C607.45 271.77 596.44 284.9 586.33 302.32C566.16 302.28 549.32 299.28 536.21 293.4C537.67 279.11 543.5 263.02 553.55 245.53C573.69 245.49 590.57 242.52 603.79 236.69C603.81 236.94 603.84 237.19 603.86 237.44H603.87ZM602.51 255.12C601.12 260.7 598.78 265.71 595.54 269.96C586 282.47 569.52 287.82 551.96 284.3C557.7 267.33 570.56 255.74 586.17 253.73C591.47 253.05 596.97 253.53 602.51 255.12ZM603.66 235.24C590.55 241.12 573.71 244.12 553.54 244.16C543.44 226.74 532.42 213.6 520.76 205.07C520.96 204.93 521.17 204.78 521.37 204.64C526.21 201.36 531.14 198.94 536.05 197.37C537.49 203.11 539.9 208.25 543.24 212.64C553.13 225.62 570.19 231.14 588.33 227.46C588.78 227.37 589.23 227.28 589.68 227.17C589.54 226.73 589.4 226.3 589.25 225.86C583.37 208.31 570.05 196.3 553.87 194.22C548.4 193.52 542.74 194.01 537.05 195.63C535.95 190.59 535.58 185.11 536 179.28C536.02 179.03 536.05 178.78 536.07 178.53C549.29 184.36 566.18 187.33 586.31 187.37C596.36 204.86 602.18 220.94 603.65 235.24H603.66ZM537.37 196.96C542.9 195.37 548.4 194.89 553.7 195.57C569.31 197.57 582.17 209.17 587.91 226.14C570.35 229.66 553.87 224.31 544.33 211.8C541.09 207.55 538.76 202.55 537.36 196.96H537.37ZM603.87 121.13C604.29 126.96 603.93 132.44 602.82 137.48C597.13 135.86 591.47 135.37 586 136.07C569.82 138.15 556.5 150.16 550.62 167.71C550.48 168.14 550.33 168.58 550.19 169.02C550.64 169.12 551.09 169.21 551.54 169.31C569.68 172.99 586.74 167.47 596.63 154.49C599.97 150.1 602.38 144.96 603.82 139.22C608.73 140.78 613.66 143.21 618.5 146.49C618.71 146.63 618.91 146.78 619.11 146.92C607.45 155.46 596.44 168.59 586.33 186.01C566.16 185.97 549.32 182.97 536.21 177.09C537.67 162.8 543.5 146.71 553.55 129.22C573.69 129.18 590.57 126.21 603.79 120.38C603.81 120.63 603.84 120.88 603.86 121.13H603.87ZM602.51 138.81C601.12 144.39 598.78 149.4 595.54 153.65C586 166.16 569.52 171.51 551.96 167.99C557.7 151.02 570.56 139.43 586.17 137.42C591.47 136.74 596.97 137.22 602.51 138.81ZM603.66 118.93C590.55 124.81 573.71 127.81 553.54 127.85C543.44 110.43 532.42 97.29 520.76 88.76C520.96 88.62 521.17 88.47 521.37 88.33C526.21 85.05 531.14 82.63 536.05 81.06C537.49 86.8 539.9 91.94 543.24 96.33C553.13 109.31 570.19 114.83 588.33 111.15C588.78 111.06 589.23 110.97 589.68 110.86C589.54 110.42 589.4 109.99 589.25 109.55C583.37 92 570.05 79.99 553.87 77.91C548.4 77.21 542.74 77.7 537.05 79.32C535.95 74.28 535.58 68.8 536 62.97C536.02 62.72 536.05 62.47 536.07 62.22C549.29 68.05 566.18 71.02 586.31 71.06C596.36 88.55 602.18 104.63 603.65 118.93H603.66ZM537.37 80.65C542.9 79.06 548.4 78.58 553.7 79.26C569.31 81.26 582.17 92.86 587.91 109.83C570.35 113.35 553.87 108 544.33 95.49C541.09 91.24 538.76 86.24 537.36 80.65H537.37ZM586.34 69.69C566.17 69.65 549.33 66.65 536.22 60.77C537.68 46.48 543.51 30.39 553.56 12.9C573.7 12.86 590.58 9.89 603.8 4.06C603.82 4.31 603.85 4.56 603.87 4.81C604.29 10.64 603.93 16.12 602.82 21.16C597.13 19.54 591.47 19.05 586 19.75C569.82 21.83 556.5 33.84 550.62 51.39C550.48 51.82 550.33 52.26 550.19 52.7C550.64 52.8 551.09 52.89 551.54 52.99C569.68 56.67 586.74 51.15 596.63 38.17C599.97 33.78 602.38 28.64 603.82 22.9C608.73 24.46 613.66 26.89 618.5 30.17C618.71 30.31 618.91 30.46 619.11 30.6C607.45 39.14 596.44 52.27 586.33 69.69H586.34ZM602.51 22.5C601.12 28.08 598.78 33.09 595.54 37.34C586 49.85 569.52 55.2 551.96 51.68C557.7 34.71 570.56 23.12 586.17 21.11C591.47 20.43 596.97 20.91 602.51 22.5Z" fill="#D1D0D8"/>
</svg>
