<svg width="48" height="49" viewBox="0 0 48 49" fill="none" xmlns="http://www.w3.org/2000/svg">
<path d="M14.99 14.3471C14.8244 14.183 14.6204 14.063 14.3966 13.9977C14.1728 13.9325 13.9362 13.9242 13.7084 13.9736C13.4806 14.0229 13.2687 14.1284 13.0919 14.2804C12.9152 14.4325 12.7792 14.6262 12.6963 14.8441L0.852339 46.4304C0.760288 46.6812 0.741911 46.9531 0.799377 47.214C0.856843 47.4749 0.987753 47.7139 1.17665 47.9028C1.36555 48.0917 1.60456 48.2226 1.86545 48.28C2.12634 48.3375 2.39822 48.3191 2.64901 48.2271L34.2377 36.3808C34.4556 36.2979 34.6493 36.1619 34.8013 35.9852C34.9533 35.8084 35.0588 35.5965 35.1082 35.3687C35.1575 35.1409 35.1492 34.9043 35.084 34.6805C35.0188 34.4567 34.8987 34.2527 34.7347 34.0871L14.99 14.3471ZM14.549 17.8471L20.2867 23.5848C20.6883 28.3581 22.4387 32.919 25.3337 36.7354L19.3627 38.9754C17.143 36.6529 15.4466 33.8818 14.3877 30.8487C13.3288 27.8156 12.9319 24.5908 13.2237 21.3914L14.549 17.8471ZM10.79 42.1908C9.41277 40.6269 8.26279 38.8769 7.374 36.9921L10.7457 28.0018C11.5566 32.462 13.5603 36.6193 16.544 40.0324L10.79 42.1908ZM6.07201 40.4641C6.65645 41.4295 7.30584 42.3541 8.01567 43.2314L4.54834 44.5311L6.07201 40.4641ZM28.08 35.7064C25.9878 33.1545 24.4844 30.1724 23.677 26.9727L31.23 34.5257L28.08 35.7064Z" fill="#7AA62C"/>
<path d="M33.1994 26.7394C33.4617 27.0002 33.8166 27.1465 34.1864 27.1465C34.5563 27.1465 34.9111 27.0002 35.1734 26.7394C40.4258 21.4871 45.5404 23.1111 45.5894 23.1274C45.9313 23.2121 46.2926 23.1648 46.6012 22.9949C46.9098 22.825 47.143 22.5451 47.2543 22.2108C47.3656 21.8766 47.3469 21.5127 47.2018 21.1918C47.0566 20.8708 46.7959 20.6163 46.4715 20.4791C46.1961 20.3881 39.6557 18.3068 33.1971 24.7654C32.9366 25.028 32.7907 25.383 32.7912 25.7529C32.7916 26.1228 32.9383 26.4774 33.1994 26.7394Z" fill="#7AA62C"/>
<path d="M22.34 15.8824C22.6023 16.1432 22.9572 16.2895 23.327 16.2895C23.6969 16.2895 24.0517 16.1432 24.314 15.8824C30.7727 9.42377 28.6913 2.88343 28.6003 2.6081C28.5539 2.42065 28.4692 2.24483 28.3515 2.09169C28.2339 1.93856 28.0858 1.81143 27.9166 1.7183C27.7474 1.62516 27.5608 1.56803 27.3685 1.55051C27.1761 1.53298 26.9823 1.55543 26.7991 1.61646C26.6158 1.67748 26.4472 1.77575 26.3038 1.90509C26.1604 2.03443 26.0453 2.19204 25.9657 2.36801C25.8862 2.54399 25.8439 2.73452 25.8415 2.92762C25.8392 3.12073 25.8768 3.31224 25.952 3.4901C25.9683 3.54143 27.5853 8.6561 22.34 13.9061C22.0793 14.1684 21.9329 14.5232 21.9329 14.8931C21.9329 15.263 22.0793 15.6178 22.34 15.8801V15.8824Z" fill="#7AA62C"/>
<path d="M27.2779 18.8434C27.044 19.1099 26.9199 19.4552 26.9307 19.8096C26.9414 20.164 27.0863 20.5012 27.336 20.7529C27.5857 21.0047 27.9216 21.1524 28.2759 21.1661C28.6302 21.1798 28.9766 21.0585 29.245 20.8268C29.966 20.4674 32.2036 21.8161 33.445 20.5724C34.6863 19.3288 33.3679 17.1494 33.6946 16.3724C34.4646 16.0458 36.6556 17.3524 37.8946 16.1228C39.1336 14.8931 37.8176 12.6998 38.1443 11.9228C38.9143 11.5961 41.1053 12.9028 42.3443 11.6731C43.5833 10.4434 42.2673 8.2501 42.594 7.4731C43.3593 7.14643 45.5573 8.4531 46.794 7.22343C48.0306 5.99377 46.6913 3.73743 47.0483 3.02343C47.2801 2.75504 47.4013 2.40872 47.3876 2.0544C47.3739 1.70008 47.2262 1.36415 46.9745 1.11446C46.7227 0.864771 46.3856 0.719914 46.0312 0.709143C45.6768 0.698372 45.3314 0.822489 45.065 1.05643C44.6484 1.57816 44.3684 2.19549 44.2502 2.85261C44.1321 3.50973 44.1795 4.18593 44.3883 4.8201C43.7541 4.61152 43.078 4.56417 42.4209 4.6823C41.7638 4.80044 41.1464 5.08035 40.6246 5.49677C40.2082 6.0186 39.9283 6.63592 39.8101 7.293C39.692 7.95008 39.7394 8.62623 39.948 9.26043C39.3138 9.05186 38.6376 9.0045 37.9805 9.12263C37.3234 9.24077 36.7061 9.52068 36.1843 9.9371C35.7591 10.4607 35.4725 11.0829 35.351 11.7463C35.2295 12.4098 35.2769 13.0931 35.489 13.7334C34.8548 13.5249 34.1786 13.4775 33.5215 13.5956C32.8644 13.7138 32.2471 13.9937 31.7253 14.4101C31.3089 14.9319 31.0289 15.5492 30.9108 16.2063C30.7927 16.8634 30.84 17.5396 31.0486 18.1738C30.4142 17.9655 29.738 17.9185 29.0809 18.0371C28.4238 18.1556 27.8066 18.436 27.285 18.8528L27.2779 18.8434Z" fill="#7AA62C"/>
<path d="M35.1734 6.99944C35.37 6.80398 35.5041 6.55453 35.5588 6.28273C35.6135 6.01093 35.5863 5.72901 35.4806 5.47271C35.3749 5.21641 35.1954 4.99727 34.965 4.84306C34.7346 4.68886 34.4636 4.60654 34.1864 4.60654C33.9091 4.60654 33.6381 4.68886 33.4077 4.84306C33.1773 4.99727 32.9978 5.21641 32.8921 5.47271C32.7864 5.72901 32.7592 6.01093 32.8139 6.28273C32.8685 6.55453 33.0027 6.80398 33.1994 6.99944C33.4617 7.26019 33.8165 7.40654 34.1864 7.40654C34.5562 7.40654 34.9111 7.26019 35.1734 6.99944Z" fill="#7AA62C"/>
<path d="M44.0571 17.2779C44.8277 17.2779 45.4524 16.6531 45.4524 15.8825C45.4524 15.1119 44.8277 14.4872 44.0571 14.4872C43.2865 14.4872 42.6618 15.1119 42.6618 15.8825C42.6618 16.6531 43.2865 17.2779 44.0571 17.2779Z" fill="#7AA62C"/>
<path d="M41.0946 28.7158C40.898 28.9112 40.7639 29.1607 40.7092 29.4325C40.6545 29.7043 40.6817 29.9862 40.7874 30.2425C40.8931 30.4988 41.0725 30.7179 41.303 30.8721C41.5334 31.0263 41.8044 31.1086 42.0816 31.1086C42.3589 31.1086 42.6299 31.0263 42.8603 30.8721C43.0907 30.7179 43.2702 30.4988 43.3759 30.2425C43.4816 29.9862 43.5088 29.7043 43.4541 29.4325C43.3994 29.1607 43.2653 28.9112 43.0686 28.7158C42.8063 28.455 42.4515 28.3086 42.0816 28.3086C41.7118 28.3086 41.3569 28.455 41.0946 28.7158Z" fill="#7AA62C"/>
<path d="M21.353 8.97344C21.5496 8.77798 21.6838 8.52853 21.7385 8.25673C21.7932 7.98493 21.7659 7.70301 21.6602 7.44671C21.5545 7.19041 21.3751 6.97127 21.1447 6.81707C20.9143 6.66286 20.6432 6.58054 20.366 6.58054C20.0887 6.58054 19.8177 6.66286 19.5873 6.81707C19.3569 6.97127 19.1775 7.19041 19.0718 7.44671C18.9661 7.70301 18.9388 7.98493 18.9935 8.25673C19.0482 8.52853 19.1824 8.77798 19.379 8.97344C19.6413 9.23419 19.9961 9.38053 20.366 9.38053C20.7358 9.38053 21.0907 9.23419 21.353 8.97344Z" fill="#7AA62C"/>
</svg>
