<svg width="56" height="56" viewBox="0 0 56 56" fill="none" xmlns="http://www.w3.org/2000/svg">
<path fill-rule="evenodd" clip-rule="evenodd" d="M38.255 36.7106L38.1778 36.6202C37.4381 35.7529 36.747 34.9383 36.0695 34.1399C34.869 32.725 33.7115 31.3606 32.4022 29.843L32.396 29.8359L32.3899 29.8287C31.4404 28.7141 30.4912 27.9408 29.6174 27.6412L29.5911 27.6322L29.5651 27.6227C29.4717 27.5888 29.3876 27.5657 29.312 27.5504C29.0119 27.5063 28.6323 27.5 28.0003 27.5C27.3433 27.5 27.0021 27.5091 26.7235 27.5627L26.7086 27.5656L26.6936 27.5683C26.6109 27.5833 26.5175 27.6078 26.4122 27.6461L26.3862 27.6555L26.36 27.6645C25.4979 27.9601 24.5769 28.7173 23.576 29.8654C22.8618 30.7028 22.1828 31.503 21.5117 32.294C20.2988 33.7235 19.1115 35.1229 17.7885 36.6564L17.7164 36.7399L17.6383 36.818C17.4467 37.0096 17.2578 37.1975 17.072 37.3823C15.6725 38.7743 14.4458 39.9945 13.5348 41.3383C12.6111 42.7009 12.2037 43.9274 12.3471 45.245C12.8385 46.7925 13.8562 47.9735 15.4323 48.3447C15.4323 48.3447 15.4445 48.344 15.4664 48.3441C15.5608 48.3447 15.8595 48.3465 16.481 48.2874C17.1438 48.2244 17.9357 48.1202 18.8965 47.9939C19.0541 47.9731 19.2162 47.9518 19.3831 47.93C21.6824 47.629 24.6595 47.26 27.767 47.26H28.187C31.2913 47.26 34.2653 47.6224 36.5672 47.9207C36.7578 47.9454 36.9424 47.9695 37.1211 47.9928C38.0529 48.1144 38.8257 48.2151 39.4769 48.2779C40.1332 48.3412 40.4389 48.3388 40.5272 48.3381C40.5375 48.338 40.5449 48.338 40.5495 48.338C42.1031 47.9605 43.1181 46.7697 43.6093 45.2349C43.7607 43.9046 43.3556 42.6745 42.4365 41.3134C41.5281 39.9679 40.3015 38.7478 38.8999 37.3536C38.7159 37.1705 38.5288 36.9844 38.339 36.7947L38.255 36.7106ZM46.5503 45.8733C45.8737 48.23 44.1703 50.61 41.1137 51.2867C40.3298 51.437 38.7552 51.2315 36.7196 50.9659C34.3322 50.6543 31.3105 50.26 28.187 50.26H27.767C24.6697 50.26 21.6727 50.6544 19.2948 50.9673C17.2302 51.239 15.6319 51.4493 14.8403 51.2867C11.7837 50.61 10.0803 48.2533 9.40366 45.8733C8.7456 41.4205 12.0261 38.1637 14.9611 35.2499L14.962 35.249C15.1488 35.0636 15.3341 34.8795 15.517 34.6967C16.833 33.1714 18.0052 31.7898 19.2117 30.3677C19.8876 29.5711 20.5748 28.7611 21.3037 27.9067C22.4003 26.6467 23.7537 25.3867 25.387 24.8267C25.6437 24.7333 25.9003 24.6633 26.157 24.6167C26.7637 24.5 27.3937 24.5 28.0003 24.5C28.607 24.5 29.237 24.5 29.8203 24.5933C30.077 24.64 30.3337 24.71 30.5903 24.8033C32.2237 25.3633 33.6003 26.6233 34.6737 27.8833C35.9898 29.4089 37.1621 30.7906 38.3689 32.2129L38.3742 32.2191C39.0484 33.0137 39.7334 33.8211 40.4603 34.6733C40.6421 34.8551 40.8264 35.0381 41.012 35.2224C43.948 38.1373 47.2306 41.3964 46.5503 45.8733ZM10.5003 25C12.0651 25 13.3337 23.7315 13.3337 22.1667C13.3337 20.6019 12.0651 19.3333 10.5003 19.3333C8.93552 19.3333 7.66699 20.6019 7.66699 22.1667C7.66699 23.7315 8.93552 25 10.5003 25ZM13.2089 16.999C12.3995 16.5739 11.478 16.3333 10.5003 16.3333C7.27866 16.3333 4.66699 18.945 4.66699 22.1667C4.66699 25.3883 7.27866 28 10.5003 28C13.722 28 16.3337 25.3883 16.3337 22.1667C16.3337 21.4319 16.1978 20.7289 15.9499 20.0814C15.4406 18.7513 14.4584 17.6552 13.2089 16.999ZM15.5508 14.9186C16.06 16.2487 17.0423 17.3448 18.2917 18.001C19.1011 18.4261 20.0226 18.6667 21.0003 18.6667C23.4661 18.6667 25.5746 17.1367 26.4282 14.9743C26.6899 14.3115 26.8337 13.5892 26.8337 12.8333C26.8337 12.0775 26.6899 11.3552 26.4282 10.6923C25.5746 8.52995 23.4661 7 21.0003 7C17.7787 7 15.167 9.61167 15.167 12.8333C15.167 13.5681 15.3028 14.2711 15.5508 14.9186ZM29.5724 10.6923C29.3108 11.3552 29.167 12.0775 29.167 12.8333C29.167 13.5892 29.3108 14.3115 29.5724 14.9743C30.4261 17.1367 32.5345 18.6667 35.0003 18.6667C35.978 18.6667 36.8995 18.4261 37.7089 18.001C38.9584 17.3448 39.9406 16.2487 40.4499 14.9186C40.6978 14.2711 40.8337 13.5681 40.8337 12.8333C40.8337 9.61167 38.222 7 35.0003 7C32.5345 7 30.4261 8.52995 29.5724 10.6923ZM42.7917 16.999C41.5423 17.6552 40.56 18.7513 40.0508 20.0814C39.8028 20.7289 39.667 21.4319 39.667 22.1667C39.667 25.3883 42.2787 28 45.5003 28C48.722 28 51.3337 25.3883 51.3337 22.1667C51.3337 18.945 48.722 16.3333 45.5003 16.3333C44.5226 16.3333 43.6011 16.5739 42.7917 16.999ZM21.0003 15.6667C22.5651 15.6667 23.8337 14.3981 23.8337 12.8333C23.8337 11.2685 22.5651 10 21.0003 10C19.4355 10 18.167 11.2685 18.167 12.8333C18.167 14.3981 19.4355 15.6667 21.0003 15.6667ZM35.0003 15.6667C36.5651 15.6667 37.8337 14.3981 37.8337 12.8333C37.8337 11.2685 36.5651 10 35.0003 10C33.4355 10 32.167 11.2685 32.167 12.8333C32.167 14.3981 33.4355 15.6667 35.0003 15.6667ZM45.5003 25C47.0651 25 48.3337 23.7315 48.3337 22.1667C48.3337 20.6019 47.0651 19.3333 45.5003 19.3333C43.9355 19.3333 42.667 20.6019 42.667 22.1667C42.667 23.7315 43.9355 25 45.5003 25Z" fill="#7AA62C"/>
</svg>
