<svg width="20" height="20" viewBox="0 0 20 20" fill="none" xmlns="http://www.w3.org/2000/svg">
<path d="M7.8657 12.1187L7.7156 11.9985L7.53548 11.8983L7.35536 11.8482C7.1946 11.816 7.02839 11.8238 6.87135 11.871C6.71431 11.9181 6.57125 12.0032 6.45476 12.1187C6.35577 12.2094 6.28023 12.3228 6.23461 12.4492C6.18167 12.569 6.15433 12.6987 6.15433 12.8297C6.15433 12.9608 6.18167 13.0904 6.23461 13.2103C6.34213 13.451 6.53452 13.6435 6.77497 13.7512C6.89527 13.8025 7.02446 13.8297 7.15522 13.8313C7.28912 13.8288 7.42142 13.8016 7.54549 13.7512C7.66745 13.7028 7.77691 13.6275 7.8657 13.5308C7.9593 13.4394 8.03409 13.3305 8.08584 13.2103C8.13369 13.0892 8.15749 12.96 8.15589 12.8297C8.15927 12.6984 8.13186 12.568 8.07584 12.4492C8.02999 12.3253 7.95836 12.2127 7.8657 12.1187ZM1.49145 6.7504C1.62385 6.74985 1.75482 6.72301 1.87677 6.67143C1.99873 6.61986 2.10925 6.54457 2.20193 6.44994L6.44475 2.20341C6.63113 2.01576 6.73574 1.76192 6.73574 1.49733C6.73574 1.23273 6.63113 0.978891 6.44475 0.79124C6.25726 0.604703 6.00364 0.5 5.73928 0.5C5.47492 0.5 5.2213 0.604703 5.03381 0.79124L0.790986 5.03777C0.604611 5.22542 0.5 5.47926 0.5 5.74385C0.5 6.00845 0.604611 6.26229 0.790986 6.44994C0.97574 6.63864 1.22751 6.74664 1.49145 6.7504ZM19.1832 13.5408C18.9957 13.3543 18.7421 13.2496 18.4778 13.2496C18.2134 13.2496 17.9598 13.3543 17.7723 13.5408L13.5295 17.7874C13.389 17.9269 13.2929 18.1049 13.2535 18.299C13.2141 18.4931 13.2331 18.6946 13.3081 18.8779C13.383 19.0612 13.5106 19.2182 13.6747 19.3289C13.8388 19.4396 14.032 19.4992 14.2299 19.5C14.3623 19.4995 14.4933 19.4726 14.6153 19.421C14.7372 19.3695 14.8477 19.2942 14.9404 19.1995L19.1832 15.0031C19.2832 14.9094 19.3629 14.7962 19.4174 14.6704C19.4719 14.5447 19.5 14.409 19.5 14.272C19.5 14.1349 19.4719 13.9993 19.4174 13.8735C19.3629 13.7478 19.2832 13.6345 19.1832 13.5408ZM19.3533 7.87213C19.3553 7.07695 19.0422 6.31343 18.4828 5.74886L14.2299 1.49232C13.6573 0.948474 12.8979 0.645295 12.1085 0.645295C11.3191 0.645295 10.5598 0.948474 9.98711 1.49232L1.49145 9.99539C0.929277 10.5588 0.613508 11.3224 0.613508 12.1187C0.613508 12.9149 0.929277 13.6785 1.49145 14.2419L5.74429 18.4985C6.30716 19.0611 7.07017 19.3772 7.8657 19.3772C8.66123 19.3772 9.42423 19.0611 9.98711 18.4985L18.4828 9.99539C19.0422 9.43082 19.3553 8.6673 19.3533 7.87213ZM17.0618 8.58322L8.57617 17.0763C8.48315 17.1701 8.37247 17.2447 8.25053 17.2955C8.12859 17.3463 7.9978 17.3725 7.8657 17.3725C7.7336 17.3725 7.60281 17.3463 7.48087 17.2955C7.35892 17.2447 7.24825 17.1701 7.15522 17.0763L2.9124 12.8297C2.81861 12.7366 2.74416 12.6259 2.69336 12.5038C2.64256 12.3818 2.6164 12.2509 2.6164 12.1187C2.6164 11.9864 2.64256 11.8555 2.69336 11.7335C2.74416 11.6114 2.81861 11.5007 2.9124 11.4076L11.3981 2.9145C11.4911 2.82063 11.6017 2.74612 11.7237 2.69528C11.8456 2.64443 11.9764 2.61825 12.1085 2.61825C12.2406 2.61825 12.3714 2.64443 12.4934 2.69528C12.6153 2.74612 12.726 2.82063 12.819 2.9145L17.0618 7.16103C17.1556 7.25414 17.2301 7.36491 17.2809 7.48696C17.3317 7.609 17.3578 7.73991 17.3578 7.87213C17.3578 8.00434 17.3317 8.13525 17.2809 8.25729C17.2301 8.37934 17.1556 8.49011 17.0618 8.58322Z" fill="#E3DFD3"/>
</svg>
