<svg width="24" height="24" viewBox="0 0 24 24" fill="none" xmlns="http://www.w3.org/2000/svg">
<path d="M19.9604 9.68695C19.82 8.22586 19.3036 6.82603 18.4616 5.62377C17.6195 4.4215 16.4805 3.45778 15.1554 2.82644C13.8303 2.1951 12.3642 1.91767 10.9001 2.02115C9.43592 2.12464 8.0235 2.60551 6.80037 3.41695C5.74957 4.11959 4.86742 5.04625 4.21731 6.13034C3.5672 7.21443 3.16526 8.42905 3.04037 9.68695C2.91785 10.9366 3.07504 12.1979 3.50054 13.3792C3.92604 14.5606 4.60917 15.6324 5.50037 16.5169L10.8004 21.827C10.8933 21.9207 11.0039 21.9951 11.1258 22.0458C11.2477 22.0966 11.3784 22.1227 11.5104 22.1227C11.6424 22.1227 11.7731 22.0966 11.8949 22.0458C12.0168 21.9951 12.1274 21.9207 12.2204 21.827L17.5004 16.5169C18.3916 15.6324 19.0747 14.5606 19.5002 13.3792C19.9257 12.1979 20.0829 10.9366 19.9604 9.68695ZM16.1004 15.1069L11.5004 19.7069L6.90037 15.1069C6.22246 14.429 5.70317 13.6093 5.37984 12.7067C5.0565 11.8041 4.93715 10.8411 5.03037 9.88695C5.12419 8.91805 5.43213 7.98211 5.93194 7.14679C6.43175 6.31147 7.11093 5.59766 7.92037 5.05695C8.98131 4.35219 10.2267 3.97624 11.5004 3.97624C12.7741 3.97624 14.0194 4.35219 15.0804 5.05695C15.8874 5.59557 16.565 6.30623 17.0647 7.13789C17.5644 7.96955 17.8737 8.90155 17.9704 9.86695C18.0666 10.8244 17.9488 11.7912 17.6254 12.6975C17.3019 13.6038 16.781 14.4268 16.1004 15.1069ZM11.5004 6.05695C10.6104 6.05695 9.74032 6.32087 9.0003 6.81534C8.26028 7.3098 7.68351 8.01261 7.34291 8.83487C7.00232 9.65714 6.9132 10.5619 7.08684 11.4349C7.26047 12.3078 7.68905 13.1096 8.31839 13.7389C8.94773 14.3683 9.74955 14.7969 10.6225 14.9705C11.4954 15.1441 12.4002 15.055 13.2224 14.7144C14.0447 14.3738 14.7475 13.797 15.242 13.057C15.7364 12.317 16.0004 11.447 16.0004 10.5569C15.9977 9.36429 15.5228 8.22123 14.6794 7.37789C13.8361 6.53454 12.693 6.05959 11.5004 6.05695ZM11.5004 13.0569C11.0059 13.0569 10.5226 12.9103 10.1114 12.6356C9.70032 12.3609 9.37989 11.9705 9.19067 11.5137C9.00145 11.0568 8.95194 10.5542 9.04841 10.0692C9.14487 9.58427 9.38297 9.13881 9.7326 8.78918C10.0822 8.43955 10.5277 8.20145 11.0126 8.10499C11.4976 8.00852 12.0003 8.05803 12.4571 8.24725C12.9139 8.43647 13.3043 8.7569 13.579 9.16802C13.8537 9.57915 14.0004 10.0625 14.0004 10.5569C14.0004 11.22 13.737 11.8559 13.2681 12.3247C12.7993 12.7936 12.1634 13.0569 11.5004 13.0569Z" fill="white"/>
</svg>
