<svg width="56" height="50" viewBox="0 0 56 50" fill="none" xmlns="http://www.w3.org/2000/svg">
<path fill-rule="evenodd" clip-rule="evenodd" d="M52.7187 37.7329C52.7187 41.702 49.8474 45.0219 46.0468 45.7756V37.7329C46.0468 33.7638 48.9181 30.4439 52.7187 29.6902V37.7329ZM41.125 45.936C35.3494 45.936 30.5559 41.6504 29.7574 36.0923H31.2812C37.0567 36.0923 41.8502 40.3779 42.6488 45.936H41.125ZM10.2352 45.9362C10.9123 44.0264 12.7371 42.655 14.876 42.655H28.8548C29.6858 43.894 30.6995 45.0004 31.8567 45.9362H10.2352ZM3.28122 24.6079V22.9672H39.4843V24.6079C39.4843 27.9247 38.594 31.1177 36.8985 33.9222C35.1659 33.2067 33.2691 32.811 31.2812 32.811H26.3594V34.4517C26.3594 36.1767 26.6577 37.8332 27.204 39.3736H14.875C13.8274 39.3736 12.8262 39.5731 11.9043 39.9326C6.566 36.6141 3.28125 30.8155 3.28125 24.6079L3.28122 24.6079ZM27.8385 10.0036L30.6802 11.6443L26.0374 19.686H22.2485L27.8385 10.0036ZM27.4572 4.10076C27.9072 3.32123 28.9112 3.04571 29.6984 3.50018L35.3816 6.78144C36.1668 7.23478 36.4355 8.23723 35.9821 9.02254C35.5297 9.806 34.5243 10.0754 33.741 9.623L28.0577 6.34174C27.2724 5.88861 27.0038 4.88618 27.4572 4.10076ZM42.7656 37.7329V38.3073C41.9036 37.2414 40.8969 36.2972 39.7751 35.5055C41.7361 32.2168 42.7656 28.4835 42.7656 24.6079V19.686H29.8261L33.663 13.0402C35.6981 13.4163 37.7747 12.4811 38.8243 10.6631C40.1845 8.30737 39.3789 5.29997 37.0228 3.93966L31.3395 0.658401C28.9889 -0.698506 25.973 0.10967 24.6161 2.45993C23.5241 4.35114 23.8444 6.61269 25.1365 8.12119L18.4596 19.686H0V24.6079C0 31.4659 3.38034 37.8963 8.95661 41.9054C7.54315 43.3799 6.67188 45.3778 6.67188 47.5767V49.2173H36.2031V48.3727C37.7433 48.9189 39.3998 49.2173 41.125 49.2173H46.0469C46.1045 49.1843 56 47.2953 56 37.7329V26.2485H54.3594C47.9665 26.2485 42.7656 31.4004 42.7656 37.7329L42.7656 37.7329Z" fill="#7AA62C"/>
</svg>
