<svg width="53" height="50" viewBox="0 0 53 50" fill="none" xmlns="http://www.w3.org/2000/svg">
<path d="M51.5177 8.1147L42.3943 0.988697C42.1039 0.778086 41.7544 0.664673 41.3957 0.664673C41.0369 0.664673 40.6874 0.778086 40.397 0.988697L31.3857 8.1147C31.2016 8.2652 31.053 8.45451 30.9505 8.66909C30.8481 8.88368 30.7943 9.11825 30.793 9.35603V24.0934H28.2543C27.2213 24.0931 26.2029 24.3384 25.2832 24.809C24.3635 25.2796 23.5688 25.962 22.9647 26.8L10.8197 43.7424C10.5105 44.1706 10.1053 44.5204 9.63639 44.7635C9.16752 45.0067 8.64814 45.1364 8.12001 45.1424H2.45234C2.02287 45.1424 1.61098 45.313 1.3073 45.6167C1.00362 45.9203 0.833008 46.3322 0.833008 46.7617C0.833008 47.1912 1.00362 47.6031 1.3073 47.9067C1.61098 48.2104 2.02287 48.381 2.45234 48.381H8.12001C9.15229 48.3823 10.1701 48.1385 11.0897 47.6695C12.0094 47.2006 12.8045 46.52 13.4097 45.6837L25.5663 28.7904C25.8755 28.3621 26.2808 28.0124 26.7496 27.7692C27.2185 27.5261 27.7379 27.3963 28.266 27.3904H30.8023V47.9564C30.8023 48.3858 30.9729 48.7977 31.2766 49.1014C31.5803 49.4051 31.9922 49.5757 32.4217 49.5757C32.8511 49.5757 33.263 49.4051 33.5667 49.1014C33.8704 48.7977 34.041 48.3858 34.041 47.9564V45.252H48.9393V47.9517C48.943 48.38 49.1148 48.7898 49.4177 49.0927C49.7206 49.3956 50.1303 49.5674 50.5587 49.571C50.7724 49.5748 50.9846 49.5355 51.1828 49.4555C51.381 49.3755 51.561 49.2563 51.7122 49.1052C51.8633 48.9541 51.9824 48.774 52.0625 48.5758C52.1425 48.3777 52.1818 48.1654 52.178 47.9517V9.35603C52.1281 8.872 51.8912 8.42659 51.5177 8.1147ZM41.433 4.28336L48.937 10.168V24.0934H33.9663V10.168L41.433 4.28336ZM33.9663 27.332H48.8647V33.0534H33.9663V27.332ZM33.9663 41.9597V36.2384H48.8647V41.9667H33.9663V41.9597Z" fill="#7AA62C"/>
<path d="M38.3453 20.6937H44.4983C44.8674 20.6866 45.2193 20.5368 45.4803 20.2757C45.7413 20.0147 45.8911 19.6628 45.8983 19.2937V12.9167C45.8911 12.5477 45.7413 12.1957 45.4803 11.9347C45.2193 11.6737 44.8674 11.5239 44.4983 11.5167H38.3453C37.9763 11.5239 37.6243 11.6737 37.3633 11.9347C37.1023 12.1957 36.9525 12.5477 36.9453 12.9167V19.3404C36.9533 19.7049 37.1048 20.0516 37.367 20.305C37.6291 20.5584 37.9807 20.6981 38.3453 20.6937ZM39.7453 14.3237H43.152V17.9404H39.7453V14.3237Z" fill="#7AA62C"/>
</svg>
