<svg width="57" height="52" viewBox="0 0 57 52" fill="none" xmlns="http://www.w3.org/2000/svg">
<mask id="path-1-outside-1_366_50" maskUnits="userSpaceOnUse" x="-0.25" y="-0.666626" width="58" height="53" fill="black">
<rect fill="white" x="-0.25" y="-0.666626" width="58" height="53"/>
<path fill-rule="evenodd" clip-rule="evenodd" d="M36.5323 0.500029C31.634 1.34262 27.8335 4.9464 26.6732 9.84858C26.6024 10.1475 26.5146 11.0911 26.4782 11.9456L26.4119 13.4989L25.4922 13.8671C22.4447 15.0867 20.2134 17.8351 19.6202 21.0998C19.2771 22.9881 19.5078 24.7152 20.3929 26.8835C20.463 27.0547 20.2455 27.0711 17.4957 27.1009L14.5227 27.1331L14.2036 27.4882C13.7414 28.0025 13.8026 28.6099 14.3623 29.0603C14.5775 29.2335 15.1042 29.2483 21.1329 29.2505L27.6701 29.2529V31.6445V34.0361H15.3068H2.9435V31.6445V29.2529L4.77612 29.2505C6.34713 29.2485 6.64199 29.2213 6.8421 29.0603C7.40184 28.6098 7.463 28.0024 7.00064 27.4882L6.68138 27.1331H4.0376H1.39382L1.07456 27.4882L0.755306 27.8432V31.5991C0.755306 34.1511 0.794475 35.431 0.877517 35.5923C1.17183 36.164 1.33387 36.2052 3.29908 36.2078L5.1317 36.2102V38.167V40.1237H3.37567C1.45706 40.1237 1.12205 40.2037 0.886051 40.7186C0.70465 41.1141 0.70465 45.6557 0.886051 46.0513C1.12205 46.5662 1.45706 46.6462 3.37567 46.6462H5.1317V48.0594V49.4726H3.37567C2.06987 49.4726 1.5424 49.5123 1.31822 49.6275C0.590098 50.0017 0.590098 51.1177 1.31822 51.4918C1.77205 51.725 49.8483 51.725 50.3021 51.4918C50.6153 51.3309 50.865 50.9174 50.865 50.5597C50.865 50.0403 50.3333 49.4726 49.8467 49.4726C49.733 49.4726 49.6763 49.252 49.6299 48.6301C49.3914 45.4378 46.6799 42.9284 43.469 42.9284C42.129 42.9284 40.9862 43.255 39.9514 43.9339L39.5958 44.1672V38.8389V33.5106L40.1702 33.3899C42.3152 32.9396 44.4034 31.4685 45.5427 29.6051L45.941 28.9535L46.6252 29.1989C49.6812 30.2946 53.1115 29.3521 55.0946 26.8718C57.0929 24.3723 57.3014 20.8975 55.6146 18.2004C54.6347 16.6334 52.7516 15.2656 51.0496 14.8846L50.4137 14.7422L50.4985 13.926C50.8963 10.0961 49.7928 6.74529 47.2667 4.11282C44.4689 1.19728 40.4137 -0.167545 36.5323 0.500029ZM36.8346 2.67495C33.0467 3.38905 30.1674 5.95238 29.0208 9.63116C28.7354 10.5465 28.715 10.7426 28.702 12.675C28.6943 13.811 28.6805 14.8004 28.6714 14.8738C28.6433 15.0996 28.1993 15.3191 27.1751 15.6132C24.1298 16.4878 22.0806 18.9108 21.7071 22.0782C21.5577 23.3443 21.9972 25.3089 22.6841 26.4461L23.0336 27.0244L26.1269 27.0788L29.2201 27.1331L29.5393 27.4882C29.8487 27.8324 29.8583 27.8774 29.8583 28.9829C29.8583 29.9965 29.8795 30.1224 30.0498 30.121C30.4658 30.1175 31.6448 29.7824 32.3344 29.4718C33.3681 29.006 33.5296 29.0309 34.4711 29.8006C35.3244 30.4981 36.3229 31.0349 36.9973 31.1586L37.4076 31.2339V29.6175V28.0013L34.4531 25.0672C32.5488 23.1762 31.4587 22.0131 31.3863 21.7952C31.1631 21.1231 31.6797 20.4476 32.4168 20.4476C32.841 20.4476 32.9287 20.5203 35.1314 22.6999L37.4076 24.9521V20.7502C37.4076 18.3429 37.4522 16.4316 37.5121 16.2751C37.6566 15.8975 38.1244 15.62 38.594 15.6332C38.8886 15.6415 39.0648 15.7297 39.292 15.9822L39.5958 16.3202V18.6817V21.0433L41.5925 19.0721C42.6908 17.9879 43.7052 17.0422 43.8469 16.9706C44.5026 16.6392 45.315 17.1836 45.315 17.9545C45.315 18.3991 45.2756 18.4444 42.4553 21.2481L39.5958 24.0908V27.6623V31.2339L40.0061 31.1601C40.2318 31.1195 40.7743 30.9121 41.2118 30.6992C42.5788 30.0337 43.7442 28.6878 44.2416 27.1998C44.3803 26.7849 44.5282 26.569 44.7771 26.4183C45.2576 26.1271 45.5968 26.1567 46.2104 26.5434C47.4662 27.3347 48.9037 27.6282 50.2042 27.3588C51.3242 27.1267 52.1221 26.6982 52.9518 25.883C54.3162 24.5423 54.8427 22.7977 54.4202 21.0172C53.8598 18.6555 51.6507 16.8602 49.3048 16.8602C48.717 16.8602 48.1952 16.6414 48.0236 16.3227C47.8565 16.0123 47.885 15.5723 48.1416 14.5044C48.447 13.2333 48.3911 10.9424 48.0241 9.68639C47.2442 7.01782 45.3227 4.74137 42.8401 3.54461C41.0237 2.66897 38.6723 2.32839 36.8346 2.67495ZM38.1758 11.3287C37.5091 11.593 37.251 12.222 37.5632 12.8216C37.7782 13.2347 38.0389 13.3816 38.5576 13.3816C39.371 13.3816 39.8811 12.4215 39.4173 11.7637C39.2758 11.5628 38.624 11.1817 38.4778 11.2143C38.4609 11.2181 38.3249 11.2696 38.1758 11.3287ZM10.207 27.1812C9.64223 27.418 9.36433 28.1183 9.6303 28.635C10.1656 29.6751 11.6963 29.2938 11.6963 28.1204C11.6963 27.5098 10.7885 26.9373 10.207 27.1812ZM32.6904 31.7206C32.1704 31.9393 30.6391 32.2951 30.2139 32.296L29.8583 32.2967V33.8258C29.8583 36.1899 29.8428 36.2045 27.3145 36.2078L25.4819 36.2102V38.167V40.1237H27.2273C29.1308 40.1237 29.4487 40.1956 29.7024 40.683C29.9079 41.0777 29.9291 45.6118 29.7276 46.0513C29.4916 46.5662 29.1566 46.6462 27.238 46.6462H25.4819V48.0594V49.4726H28.9753H32.4686L32.636 48.9019C33.1645 47.1006 34.8775 45.5026 36.7273 45.0852L37.3529 44.944L37.3812 39.2318L37.4096 33.5195L36.6999 33.3423C35.5345 33.0515 34.8523 32.7563 33.9326 32.1446C33.071 31.5716 33.0565 31.5667 32.6904 31.7206ZM7.3199 38.167V40.1237H15.3068H23.2937V38.167V36.2102H15.3068H7.3199V38.167ZM2.9435 43.3849V44.472H15.3068H27.6701V43.3849V42.2979H15.3068H2.9435V43.3849ZM42.0192 45.3414C41.3345 45.5861 41.2969 45.6121 40.348 46.5033L39.623 47.184L38.4333 47.1596C37.349 47.1375 37.1901 47.1606 36.6417 47.4194C35.9603 47.741 35.2972 48.3563 34.9899 48.9519C34.8754 49.1737 34.7818 49.3816 34.7818 49.4139C34.7818 49.4462 37.6374 49.4726 41.1275 49.4726H47.4733V49.1149C47.4733 48.5169 47.1536 47.4937 46.7916 46.9332C45.8092 45.412 43.7464 44.724 42.0192 45.3414ZM7.3199 48.0594V49.4726H15.3068H23.2937V48.0594V46.6462H15.3068H7.3199V48.0594Z"/>
</mask>
<path fill-rule="evenodd" clip-rule="evenodd" d="M36.5323 0.500029C31.634 1.34262 27.8335 4.9464 26.6732 9.84858C26.6024 10.1475 26.5146 11.0911 26.4782 11.9456L26.4119 13.4989L25.4922 13.8671C22.4447 15.0867 20.2134 17.8351 19.6202 21.0998C19.2771 22.9881 19.5078 24.7152 20.3929 26.8835C20.463 27.0547 20.2455 27.0711 17.4957 27.1009L14.5227 27.1331L14.2036 27.4882C13.7414 28.0025 13.8026 28.6099 14.3623 29.0603C14.5775 29.2335 15.1042 29.2483 21.1329 29.2505L27.6701 29.2529V31.6445V34.0361H15.3068H2.9435V31.6445V29.2529L4.77612 29.2505C6.34713 29.2485 6.64199 29.2213 6.8421 29.0603C7.40184 28.6098 7.463 28.0024 7.00064 27.4882L6.68138 27.1331H4.0376H1.39382L1.07456 27.4882L0.755306 27.8432V31.5991C0.755306 34.1511 0.794475 35.431 0.877517 35.5923C1.17183 36.164 1.33387 36.2052 3.29908 36.2078L5.1317 36.2102V38.167V40.1237H3.37567C1.45706 40.1237 1.12205 40.2037 0.886051 40.7186C0.70465 41.1141 0.70465 45.6557 0.886051 46.0513C1.12205 46.5662 1.45706 46.6462 3.37567 46.6462H5.1317V48.0594V49.4726H3.37567C2.06987 49.4726 1.5424 49.5123 1.31822 49.6275C0.590098 50.0017 0.590098 51.1177 1.31822 51.4918C1.77205 51.725 49.8483 51.725 50.3021 51.4918C50.6153 51.3309 50.865 50.9174 50.865 50.5597C50.865 50.0403 50.3333 49.4726 49.8467 49.4726C49.733 49.4726 49.6763 49.252 49.6299 48.6301C49.3914 45.4378 46.6799 42.9284 43.469 42.9284C42.129 42.9284 40.9862 43.255 39.9514 43.9339L39.5958 44.1672V38.8389V33.5106L40.1702 33.3899C42.3152 32.9396 44.4034 31.4685 45.5427 29.6051L45.941 28.9535L46.6252 29.1989C49.6812 30.2946 53.1115 29.3521 55.0946 26.8718C57.0929 24.3723 57.3014 20.8975 55.6146 18.2004C54.6347 16.6334 52.7516 15.2656 51.0496 14.8846L50.4137 14.7422L50.4985 13.926C50.8963 10.0961 49.7928 6.74529 47.2667 4.11282C44.4689 1.19728 40.4137 -0.167545 36.5323 0.500029ZM36.8346 2.67495C33.0467 3.38905 30.1674 5.95238 29.0208 9.63116C28.7354 10.5465 28.715 10.7426 28.702 12.675C28.6943 13.811 28.6805 14.8004 28.6714 14.8738C28.6433 15.0996 28.1993 15.3191 27.1751 15.6132C24.1298 16.4878 22.0806 18.9108 21.7071 22.0782C21.5577 23.3443 21.9972 25.3089 22.6841 26.4461L23.0336 27.0244L26.1269 27.0788L29.2201 27.1331L29.5393 27.4882C29.8487 27.8324 29.8583 27.8774 29.8583 28.9829C29.8583 29.9965 29.8795 30.1224 30.0498 30.121C30.4658 30.1175 31.6448 29.7824 32.3344 29.4718C33.3681 29.006 33.5296 29.0309 34.4711 29.8006C35.3244 30.4981 36.3229 31.0349 36.9973 31.1586L37.4076 31.2339V29.6175V28.0013L34.4531 25.0672C32.5488 23.1762 31.4587 22.0131 31.3863 21.7952C31.1631 21.1231 31.6797 20.4476 32.4168 20.4476C32.841 20.4476 32.9287 20.5203 35.1314 22.6999L37.4076 24.9521V20.7502C37.4076 18.3429 37.4522 16.4316 37.5121 16.2751C37.6566 15.8975 38.1244 15.62 38.594 15.6332C38.8886 15.6415 39.0648 15.7297 39.292 15.9822L39.5958 16.3202V18.6817V21.0433L41.5925 19.0721C42.6908 17.9879 43.7052 17.0422 43.8469 16.9706C44.5026 16.6392 45.315 17.1836 45.315 17.9545C45.315 18.3991 45.2756 18.4444 42.4553 21.2481L39.5958 24.0908V27.6623V31.2339L40.0061 31.1601C40.2318 31.1195 40.7743 30.9121 41.2118 30.6992C42.5788 30.0337 43.7442 28.6878 44.2416 27.1998C44.3803 26.7849 44.5282 26.569 44.7771 26.4183C45.2576 26.1271 45.5968 26.1567 46.2104 26.5434C47.4662 27.3347 48.9037 27.6282 50.2042 27.3588C51.3242 27.1267 52.1221 26.6982 52.9518 25.883C54.3162 24.5423 54.8427 22.7977 54.4202 21.0172C53.8598 18.6555 51.6507 16.8602 49.3048 16.8602C48.717 16.8602 48.1952 16.6414 48.0236 16.3227C47.8565 16.0123 47.885 15.5723 48.1416 14.5044C48.447 13.2333 48.3911 10.9424 48.0241 9.68639C47.2442 7.01782 45.3227 4.74137 42.8401 3.54461C41.0237 2.66897 38.6723 2.32839 36.8346 2.67495ZM38.1758 11.3287C37.5091 11.593 37.251 12.222 37.5632 12.8216C37.7782 13.2347 38.0389 13.3816 38.5576 13.3816C39.371 13.3816 39.8811 12.4215 39.4173 11.7637C39.2758 11.5628 38.624 11.1817 38.4778 11.2143C38.4609 11.2181 38.3249 11.2696 38.1758 11.3287ZM10.207 27.1812C9.64223 27.418 9.36433 28.1183 9.6303 28.635C10.1656 29.6751 11.6963 29.2938 11.6963 28.1204C11.6963 27.5098 10.7885 26.9373 10.207 27.1812ZM32.6904 31.7206C32.1704 31.9393 30.6391 32.2951 30.2139 32.296L29.8583 32.2967V33.8258C29.8583 36.1899 29.8428 36.2045 27.3145 36.2078L25.4819 36.2102V38.167V40.1237H27.2273C29.1308 40.1237 29.4487 40.1956 29.7024 40.683C29.9079 41.0777 29.9291 45.6118 29.7276 46.0513C29.4916 46.5662 29.1566 46.6462 27.238 46.6462H25.4819V48.0594V49.4726H28.9753H32.4686L32.636 48.9019C33.1645 47.1006 34.8775 45.5026 36.7273 45.0852L37.3529 44.944L37.3812 39.2318L37.4096 33.5195L36.6999 33.3423C35.5345 33.0515 34.8523 32.7563 33.9326 32.1446C33.071 31.5716 33.0565 31.5667 32.6904 31.7206ZM7.3199 38.167V40.1237H15.3068H23.2937V38.167V36.2102H15.3068H7.3199V38.167ZM2.9435 43.3849V44.472H15.3068H27.6701V43.3849V42.2979H15.3068H2.9435V43.3849ZM42.0192 45.3414C41.3345 45.5861 41.2969 45.6121 40.348 46.5033L39.623 47.184L38.4333 47.1596C37.349 47.1375 37.1901 47.1606 36.6417 47.4194C35.9603 47.741 35.2972 48.3563 34.9899 48.9519C34.8754 49.1737 34.7818 49.3816 34.7818 49.4139C34.7818 49.4462 37.6374 49.4726 41.1275 49.4726H47.4733V49.1149C47.4733 48.5169 47.1536 47.4937 46.7916 46.9332C45.8092 45.412 43.7464 44.724 42.0192 45.3414ZM7.3199 48.0594V49.4726H15.3068H23.2937V48.0594V46.6462H15.3068H7.3199V48.0594Z" fill="#7AA62C"/>
<path fill-rule="evenodd" clip-rule="evenodd" d="M36.5323 0.500029C31.634 1.34262 27.8335 4.9464 26.6732 9.84858C26.6024 10.1475 26.5146 11.0911 26.4782 11.9456L26.4119 13.4989L25.4922 13.8671C22.4447 15.0867 20.2134 17.8351 19.6202 21.0998C19.2771 22.9881 19.5078 24.7152 20.3929 26.8835C20.463 27.0547 20.2455 27.0711 17.4957 27.1009L14.5227 27.1331L14.2036 27.4882C13.7414 28.0025 13.8026 28.6099 14.3623 29.0603C14.5775 29.2335 15.1042 29.2483 21.1329 29.2505L27.6701 29.2529V31.6445V34.0361H15.3068H2.9435V31.6445V29.2529L4.77612 29.2505C6.34713 29.2485 6.64199 29.2213 6.8421 29.0603C7.40184 28.6098 7.463 28.0024 7.00064 27.4882L6.68138 27.1331H4.0376H1.39382L1.07456 27.4882L0.755306 27.8432V31.5991C0.755306 34.1511 0.794475 35.431 0.877517 35.5923C1.17183 36.164 1.33387 36.2052 3.29908 36.2078L5.1317 36.2102V38.167V40.1237H3.37567C1.45706 40.1237 1.12205 40.2037 0.886051 40.7186C0.70465 41.1141 0.70465 45.6557 0.886051 46.0513C1.12205 46.5662 1.45706 46.6462 3.37567 46.6462H5.1317V48.0594V49.4726H3.37567C2.06987 49.4726 1.5424 49.5123 1.31822 49.6275C0.590098 50.0017 0.590098 51.1177 1.31822 51.4918C1.77205 51.725 49.8483 51.725 50.3021 51.4918C50.6153 51.3309 50.865 50.9174 50.865 50.5597C50.865 50.0403 50.3333 49.4726 49.8467 49.4726C49.733 49.4726 49.6763 49.252 49.6299 48.6301C49.3914 45.4378 46.6799 42.9284 43.469 42.9284C42.129 42.9284 40.9862 43.255 39.9514 43.9339L39.5958 44.1672V38.8389V33.5106L40.1702 33.3899C42.3152 32.9396 44.4034 31.4685 45.5427 29.6051L45.941 28.9535L46.6252 29.1989C49.6812 30.2946 53.1115 29.3521 55.0946 26.8718C57.0929 24.3723 57.3014 20.8975 55.6146 18.2004C54.6347 16.6334 52.7516 15.2656 51.0496 14.8846L50.4137 14.7422L50.4985 13.926C50.8963 10.0961 49.7928 6.74529 47.2667 4.11282C44.4689 1.19728 40.4137 -0.167545 36.5323 0.500029ZM36.8346 2.67495C33.0467 3.38905 30.1674 5.95238 29.0208 9.63116C28.7354 10.5465 28.715 10.7426 28.702 12.675C28.6943 13.811 28.6805 14.8004 28.6714 14.8738C28.6433 15.0996 28.1993 15.3191 27.1751 15.6132C24.1298 16.4878 22.0806 18.9108 21.7071 22.0782C21.5577 23.3443 21.9972 25.3089 22.6841 26.4461L23.0336 27.0244L26.1269 27.0788L29.2201 27.1331L29.5393 27.4882C29.8487 27.8324 29.8583 27.8774 29.8583 28.9829C29.8583 29.9965 29.8795 30.1224 30.0498 30.121C30.4658 30.1175 31.6448 29.7824 32.3344 29.4718C33.3681 29.006 33.5296 29.0309 34.4711 29.8006C35.3244 30.4981 36.3229 31.0349 36.9973 31.1586L37.4076 31.2339V29.6175V28.0013L34.4531 25.0672C32.5488 23.1762 31.4587 22.0131 31.3863 21.7952C31.1631 21.1231 31.6797 20.4476 32.4168 20.4476C32.841 20.4476 32.9287 20.5203 35.1314 22.6999L37.4076 24.9521V20.7502C37.4076 18.3429 37.4522 16.4316 37.5121 16.2751C37.6566 15.8975 38.1244 15.62 38.594 15.6332C38.8886 15.6415 39.0648 15.7297 39.292 15.9822L39.5958 16.3202V18.6817V21.0433L41.5925 19.0721C42.6908 17.9879 43.7052 17.0422 43.8469 16.9706C44.5026 16.6392 45.315 17.1836 45.315 17.9545C45.315 18.3991 45.2756 18.4444 42.4553 21.2481L39.5958 24.0908V27.6623V31.2339L40.0061 31.1601C40.2318 31.1195 40.7743 30.9121 41.2118 30.6992C42.5788 30.0337 43.7442 28.6878 44.2416 27.1998C44.3803 26.7849 44.5282 26.569 44.7771 26.4183C45.2576 26.1271 45.5968 26.1567 46.2104 26.5434C47.4662 27.3347 48.9037 27.6282 50.2042 27.3588C51.3242 27.1267 52.1221 26.6982 52.9518 25.883C54.3162 24.5423 54.8427 22.7977 54.4202 21.0172C53.8598 18.6555 51.6507 16.8602 49.3048 16.8602C48.717 16.8602 48.1952 16.6414 48.0236 16.3227C47.8565 16.0123 47.885 15.5723 48.1416 14.5044C48.447 13.2333 48.3911 10.9424 48.0241 9.68639C47.2442 7.01782 45.3227 4.74137 42.8401 3.54461C41.0237 2.66897 38.6723 2.32839 36.8346 2.67495ZM38.1758 11.3287C37.5091 11.593 37.251 12.222 37.5632 12.8216C37.7782 13.2347 38.0389 13.3816 38.5576 13.3816C39.371 13.3816 39.8811 12.4215 39.4173 11.7637C39.2758 11.5628 38.624 11.1817 38.4778 11.2143C38.4609 11.2181 38.3249 11.2696 38.1758 11.3287ZM10.207 27.1812C9.64223 27.418 9.36433 28.1183 9.6303 28.635C10.1656 29.6751 11.6963 29.2938 11.6963 28.1204C11.6963 27.5098 10.7885 26.9373 10.207 27.1812ZM32.6904 31.7206C32.1704 31.9393 30.6391 32.2951 30.2139 32.296L29.8583 32.2967V33.8258C29.8583 36.1899 29.8428 36.2045 27.3145 36.2078L25.4819 36.2102V38.167V40.1237H27.2273C29.1308 40.1237 29.4487 40.1956 29.7024 40.683C29.9079 41.0777 29.9291 45.6118 29.7276 46.0513C29.4916 46.5662 29.1566 46.6462 27.238 46.6462H25.4819V48.0594V49.4726H28.9753H32.4686L32.636 48.9019C33.1645 47.1006 34.8775 45.5026 36.7273 45.0852L37.3529 44.944L37.3812 39.2318L37.4096 33.5195L36.6999 33.3423C35.5345 33.0515 34.8523 32.7563 33.9326 32.1446C33.071 31.5716 33.0565 31.5667 32.6904 31.7206ZM7.3199 38.167V40.1237H15.3068H23.2937V38.167V36.2102H15.3068H7.3199V38.167ZM2.9435 43.3849V44.472H15.3068H27.6701V43.3849V42.2979H15.3068H2.9435V43.3849ZM42.0192 45.3414C41.3345 45.5861 41.2969 45.6121 40.348 46.5033L39.623 47.184L38.4333 47.1596C37.349 47.1375 37.1901 47.1606 36.6417 47.4194C35.9603 47.741 35.2972 48.3563 34.9899 48.9519C34.8754 49.1737 34.7818 49.3816 34.7818 49.4139C34.7818 49.4462 37.6374 49.4726 41.1275 49.4726H47.4733V49.1149C47.4733 48.5169 47.1536 47.4937 46.7916 46.9332C45.8092 45.412 43.7464 44.724 42.0192 45.3414ZM7.3199 48.0594V49.4726H15.3068H23.2937V48.0594V46.6462H15.3068H7.3199V48.0594Z" stroke="#7AA62C" stroke-width="0.4" mask="url(#path-1-outside-1_366_50)"/>
</svg>
