<svg width="47" height="48" viewBox="0 0 47 48" fill="none" xmlns="http://www.w3.org/2000/svg">
<path fill-rule="evenodd" clip-rule="evenodd" d="M21.6789 15.0667V22.1761H10.9845V15.0667H21.6789ZM17.9108 33.4654C16.2491 35.1267 13.5459 35.1267 11.8846 33.4654C11.5998 33.1809 11.2989 32.9232 10.9845 32.691V25.8224H21.6788V31.3659C20.297 31.6913 18.986 32.3902 17.9108 33.4654H17.9108ZM7.33715 31.2233C4.98008 30.9117 2.50838 31.6576 0.701075 33.4649C-0.0110353 34.177 -0.0110353 35.3309 0.701075 36.0426C1.41281 36.7547 2.56713 36.7547 3.27887 36.0429C4.94056 34.3813 7.6437 34.3813 9.30503 36.0429C12.3881 39.1255 17.4045 39.1255 20.4871 36.0429C22.1485 34.3813 24.852 34.3813 26.5136 36.0429C29.6034 39.1326 34.6052 39.133 37.6954 36.0429C39.3571 34.3813 42.0606 34.3813 43.7216 36.0429C44.4337 36.7546 45.588 36.7546 46.2997 36.0429C47.0115 35.3309 47.0115 34.1766 46.2997 33.4648C43.217 30.3823 38.2007 30.3823 35.1173 33.4648C33.4563 35.1261 30.7528 35.1261 29.0915 33.4648C28.0158 32.3896 26.7049 31.6903 25.3234 31.3653C25.3177 8.34887 25.3362 9.61993 25.3081 9.13252C25.0329 4.38547 21.0896 0.666649 16.3303 0.666649C15.3234 0.666649 14.5073 1.48269 14.5073 2.48957C14.5073 3.4961 15.3234 4.31248 16.3303 4.31248C19.1602 4.31248 21.5048 6.52241 21.6682 9.34364C21.6842 9.61601 21.6746 9.66193 21.6774 11.4215H10.9831C10.9788 9.7036 10.9931 9.56759 10.9678 9.1325C10.6926 4.38545 6.74933 0.666626 1.99001 0.666626C0.983455 0.666626 0.167021 1.48266 0.167021 2.48954C0.167021 3.49607 0.983455 4.31246 1.99001 4.31246C4.8199 4.31246 7.16485 6.52238 7.32828 9.34327C7.34536 9.64163 7.33397 8.27231 7.33717 31.2232L7.33715 31.2233Z" fill="#7AA62C"/>
<path fill-rule="evenodd" clip-rule="evenodd" d="M35.1177 42.4378C33.4563 44.0991 30.7528 44.0994 29.0915 42.4378C26.0017 39.3481 20.9999 39.3474 17.9094 42.4378C16.248 44.0991 13.5445 44.0991 11.8832 42.4378C8.7934 39.3481 3.79125 39.3477 0.701075 42.4378C-0.0110353 43.1499 -0.0110353 44.3041 0.701075 45.0159C1.41318 45.7276 2.56713 45.7276 3.27887 45.0159C4.94413 43.3507 7.63978 43.3503 9.30503 45.0159C12.3881 48.0984 17.4045 48.0984 20.4871 45.0159C22.1524 43.3507 24.848 43.3503 26.5136 45.0159C29.6034 48.1056 34.6053 48.1063 37.6958 45.0159C39.3606 43.3507 42.0563 43.3503 43.7219 45.0159C44.434 45.7279 45.588 45.7276 46.2997 45.0159C47.0114 44.3038 47.0118 43.1499 46.2997 42.4378C43.2099 39.3481 38.2081 39.3477 35.1176 42.4378H35.1177Z" fill="#7AA62C"/>
</svg>
