<svg width="56" height="56" viewBox="0 0 56 56" fill="none" xmlns="http://www.w3.org/2000/svg">
<g clip-path="url(#clip0_405_968)">
<path d="M44.3336 10.85H11.6669C8.63857 10.85 6.18359 13.3049 6.18359 16.3333V39.6666C6.18359 42.695 8.63857 45.15 11.6669 45.15H44.3336C47.362 45.15 49.8169 42.695 49.8169 39.6666V16.3333C49.8169 13.3049 47.362 10.85 44.3336 10.85Z" stroke="#7AA62C" stroke-width="3.03333"/>
<path d="M16.3336 20.1833H7.00026C6.54923 20.1833 6.18359 20.549 6.18359 21V35C6.18359 35.451 6.54923 35.8167 7.00026 35.8167H16.3336C16.7846 35.8167 17.1503 35.451 17.1503 35V21C17.1503 20.549 16.7846 20.1833 16.3336 20.1833Z" stroke="#7AA62C" stroke-width="3.03333"/>
<path d="M49.0006 20.1833H39.6673C39.2162 20.1833 38.8506 20.549 38.8506 21V35C38.8506 35.451 39.2162 35.8167 39.6673 35.8167H49.0006C49.4516 35.8167 49.8173 35.451 49.8173 35V21C49.8173 20.549 49.4516 20.1833 49.0006 20.1833Z" stroke="#7AA62C" stroke-width="3.03333"/>
<path d="M28 10.5V24.5" stroke="#7AA62C" stroke-width="3.03333"/>
<path d="M28 31.5V45.5" stroke="#7AA62C" stroke-width="3.03333"/>
<path d="M28.0006 31.15C29.7403 31.15 31.1506 29.7397 31.1506 28C31.1506 26.2603 29.7403 24.85 28.0006 24.85C26.2609 24.85 24.8506 26.2603 24.8506 28C24.8506 29.7397 26.2609 31.15 28.0006 31.15Z" stroke="#7AA62C" stroke-width="3.03333"/>
</g>
<defs>
<clipPath id="clip0_405_968">
<rect width="56" height="56" fill="white"/>
</clipPath>
</defs>
</svg>
