<svg width="57" height="44" viewBox="0 0 57 44" fill="none" xmlns="http://www.w3.org/2000/svg">
<path fill-rule="evenodd" clip-rule="evenodd" d="M4.03148 28.0051V24.3709H14.5859C15.3442 24.3709 15.9611 24.9878 15.9611 25.746V28.005H4.03146L4.03148 28.0051ZM14.5859 21.0894H4.03146V1.64073C4.03146 0.734603 3.29686 0 2.39073 0C1.4846 0 0.75 0.734603 0.75 1.64073V41.7248C0.75 42.6309 1.4846 43.3655 2.39073 43.3655C3.29686 43.3655 4.03146 42.6309 4.03146 41.7248V31.2865H15.9611V41.7248C15.9611 42.6309 16.6957 43.3655 17.6018 43.3655C18.5079 43.3655 19.2425 42.6309 19.2425 41.7248V25.746C19.2425 23.1783 17.1535 21.0894 14.5859 21.0894Z" fill="#7AA62C"/>
<path fill-rule="evenodd" clip-rule="evenodd" d="M41.7829 28.0046V25.7457C41.7829 24.9874 42.3998 24.3705 43.158 24.3705H53.468V28.0048H41.7829V28.0046ZM55.1083 -0.000244141C54.2022 -0.000244141 53.4676 0.734359 53.4676 1.64049V21.0892H43.1576C40.5899 21.0892 38.501 23.1782 38.501 25.7458V41.7245C38.501 42.6307 39.2356 43.3653 40.1418 43.3653C41.0479 43.3653 41.7825 42.6307 41.7825 41.7245V31.2863H53.4677V41.7246C53.4677 42.6307 54.2024 43.3653 55.1085 43.3653C56.0146 43.3653 56.7493 42.6307 56.7493 41.7246V1.64051C56.7491 0.734383 56.0146 -0.000220807 55.1083 -0.000220807V-0.000244141Z" fill="#7AA62C"/>
<path fill-rule="evenodd" clip-rule="evenodd" d="M11.4178 14.8837V11.9853H16.3449L18.9781 14.8837H11.4178ZM36.7537 11.9854L28.8271 20.8504L20.7733 11.9854H36.7537ZM46.0817 14.8841H38.5704L41.1623 11.9854H46.0817V14.8841ZM32.5202 39.9536H30.4772V23.9285L35.6293 18.1663H47.7153C48.6215 18.1663 49.3561 17.4317 49.3561 16.5256V10.3454C49.3561 9.43932 48.6215 8.70471 47.7153 8.70471H9.77159C8.86546 8.70471 8.13086 9.43932 8.13086 10.3454V16.5253C8.13086 17.4315 8.86546 18.1661 9.77159 18.1661H21.9538L27.1957 23.936V39.9536H24.9668C24.0607 39.9536 23.3261 40.6882 23.3261 41.5943C23.3261 42.5005 24.0607 43.2351 24.9668 43.2351H32.5203C33.4265 43.2351 34.1611 42.5005 34.1611 41.5943C34.1611 40.6882 33.4263 39.9536 32.5202 39.9536Z" fill="#7AA62C"/>
</svg>
