<svg width="80" height="80" viewBox="0 0 80 80" fill="none" xmlns="http://www.w3.org/2000/svg">
<path d="M48.3685 12.5653H31.6698C30.0698 18.7733 25.1738 23.6693 18.9658 25.2693V36.032C18.9658 49.76 27.3658 62.064 40.0165 67.1146C52.6671 62.0586 61.0672 49.76 61.0672 36.032V25.2693C54.8645 23.6693 49.9685 18.7733 48.3685 12.5653ZM40.0165 48.656C34.3365 48.656 29.7338 44.0533 29.7338 38.3733C29.7338 32.6933 34.3365 28.0906 40.0165 28.0906C45.6965 28.0906 50.2992 32.6933 50.2992 38.3733C50.2992 44.0533 45.6965 48.656 40.0165 48.656Z" fill="#7AA62C"/>
<path d="M40.0167 73.1147L39.6167 72.976C23.894 67.52 13.334 52.672 13.334 36.032V20.192H14.5607C21.2007 20.192 26.598 14.7947 26.598 8.15468V6.93335H53.446V8.15468C53.446 14.7893 58.8433 20.192 65.478 20.192H66.7047V36.032C66.7047 52.672 56.1447 67.52 40.422 72.976L40.022 73.1147H40.0167ZM15.782 22.592V36.032C15.782 51.488 25.5047 65.296 40.0167 70.5227C54.5287 65.296 64.2513 51.4933 64.2513 36.032V22.592C57.2433 22 51.638 16.3947 51.046 9.38135H28.9927C28.406 16.3947 22.7953 22 15.782 22.592Z" fill="white"/>
<path d="M38.6673 43.5307L33.6487 38.512L35.382 36.784L38.6673 40.0693L44.6567 34.08L46.3847 35.808L38.6673 43.5307Z" fill="white"/>
<path d="M40.0167 49.8773C33.67 49.8773 28.5073 44.7147 28.5073 38.368C28.5073 32.0213 33.67 26.8587 40.0167 26.8587C46.3633 26.8587 51.526 32.0213 51.526 38.368C51.526 44.7147 46.3633 49.8773 40.0167 49.8773ZM40.0167 29.312C35.0193 29.312 30.9553 33.376 30.9553 38.3733C30.9553 43.3707 35.0193 47.4347 40.0167 47.4347C45.014 47.4347 49.078 43.3707 49.078 38.3733C49.078 33.376 45.014 29.312 40.0167 29.312Z" fill="white"/>
</svg>
