<svg width="57" height="58" viewBox="0 0 57 58" fill="none" xmlns="http://www.w3.org/2000/svg">
<mask id="path-1-outside-1_313_2023" maskUnits="userSpaceOnUse" x="6.5" y="28" width="13" height="29" fill="black">
<rect fill="white" x="6.5" y="28" width="13" height="29"/>
<path fill-rule="evenodd" clip-rule="evenodd" d="M9.60159 46.9449V44.6162H16.3646C16.8504 44.6162 17.2457 45.0115 17.2457 45.4973V46.9448H9.60158L9.60159 46.9449ZM16.3657 42.5135H9.60267V30.0513C9.60267 29.4707 9.13196 29 8.55134 29C7.97071 29 7.5 29.4707 7.5 30.0513V55.7361C7.5 56.3167 7.97071 56.7874 8.55134 56.7874C9.13196 56.7874 9.60267 56.3167 9.60267 55.7361V49.0475H17.2468V55.7361C17.2468 56.3167 17.7176 56.7874 18.2982 56.7874C18.8788 56.7874 19.3495 56.3167 19.3495 55.7361V45.4974C19.3495 43.852 18.0109 42.5135 16.3657 42.5135Z"/>
</mask>
<path fill-rule="evenodd" clip-rule="evenodd" d="M9.60159 46.9449V44.6162H16.3646C16.8504 44.6162 17.2457 45.0115 17.2457 45.4973V46.9448H9.60158L9.60159 46.9449ZM16.3657 42.5135H9.60267V30.0513C9.60267 29.4707 9.13196 29 8.55134 29C7.97071 29 7.5 29.4707 7.5 30.0513V55.7361C7.5 56.3167 7.97071 56.7874 8.55134 56.7874C9.13196 56.7874 9.60267 56.3167 9.60267 55.7361V49.0475H17.2468V55.7361C17.2468 56.3167 17.7176 56.7874 18.2982 56.7874C18.8788 56.7874 19.3495 56.3167 19.3495 55.7361V45.4974C19.3495 43.852 18.0109 42.5135 16.3657 42.5135Z" fill="#7AA62C"/>
<path d="M9.60159 46.9449L9.50354 46.9645L9.70159 46.9449H9.60159ZM9.60159 44.6162V44.5162H9.50159V44.6162H9.60159ZM17.2457 46.9448V47.0448H17.3457V46.9448H17.2457ZM9.60158 46.9448V46.8448H9.47957L9.50352 46.9644L9.60158 46.9448ZM9.60267 42.5135H9.50267V42.6135H9.60267V42.5135ZM9.60267 49.0475V48.9475H9.50267V49.0475H9.60267ZM17.2468 49.0475H17.3468V48.9475H17.2468V49.0475ZM9.70159 46.9449V44.6162H9.50159V46.9449H9.70159ZM9.60159 44.7162H16.3646V44.5162H9.60159V44.7162ZM16.3646 44.7162C16.7952 44.7162 17.1457 45.0667 17.1457 45.4973H17.3457C17.3457 44.9562 16.9057 44.5162 16.3646 44.5162V44.7162ZM17.1457 45.4973V46.9448H17.3457V45.4973H17.1457ZM17.2457 46.8448H9.60158V47.0448H17.2457V46.8448ZM9.50352 46.9644L9.50354 46.9645L9.69965 46.9253L9.69963 46.9252L9.50352 46.9644ZM16.3657 42.4135H9.60267V42.6135H16.3657V42.4135ZM9.70267 42.5135V30.0513H9.50267V42.5135H9.70267ZM9.70267 30.0513C9.70267 29.4155 9.18719 28.9 8.55134 28.9V29.1C9.07673 29.1 9.50267 29.5259 9.50267 30.0513H9.70267ZM8.55134 28.9C7.91549 28.9 7.4 29.4155 7.4 30.0513H7.6C7.6 29.5259 8.02594 29.1 8.55134 29.1V28.9ZM7.4 30.0513V55.7361H7.6V30.0513H7.4ZM7.4 55.7361C7.4 56.3719 7.91549 56.8874 8.55134 56.8874V56.6874C8.02594 56.6874 7.6 56.2615 7.6 55.7361H7.4ZM8.55134 56.8874C9.18718 56.8874 9.70267 56.3719 9.70267 55.7361H9.50267C9.50267 56.2615 9.07673 56.6874 8.55134 56.6874V56.8874ZM9.70267 55.7361V49.0475H9.50267V55.7361H9.70267ZM9.60267 49.1475H17.2468V48.9475H9.60267V49.1475ZM17.1468 49.0475V55.7361H17.3468V49.0475H17.1468ZM17.1468 55.7361C17.1468 56.3719 17.6623 56.8874 18.2982 56.8874V56.6874C17.7728 56.6874 17.3468 56.2615 17.3468 55.7361H17.1468ZM18.2982 56.8874C18.934 56.8874 19.4495 56.3719 19.4495 55.7361H19.2495C19.2495 56.2615 18.8236 56.6874 18.2982 56.6874V56.8874ZM19.4495 55.7361V45.4974H19.2495V55.7361H19.4495ZM19.4495 45.4974C19.4495 43.7968 18.0662 42.4135 16.3657 42.4135V42.6135C17.9557 42.6135 19.2495 43.9072 19.2495 45.4974H19.4495Z" fill="#7AA62C" mask="url(#path-1-outside-1_313_2023)"/>
<mask id="path-3-outside-2_313_2023" maskUnits="userSpaceOnUse" x="36.833" y="28" width="13" height="29" fill="black">
<rect fill="white" x="36.833" y="28" width="13" height="29"/>
<path fill-rule="evenodd" clip-rule="evenodd" d="M39.9713 46.9457V45.4981C39.9713 45.0122 40.372 44.6168 40.8645 44.6168H47.5615V46.9458H39.9713V46.9457ZM48.6205 29C48.0319 29 47.5547 29.4708 47.5547 30.0514V42.5148H40.8578C39.1899 42.5148 37.833 43.8534 37.833 45.4989V55.7386C37.833 56.3192 38.3102 56.79 38.8988 56.79C39.4874 56.79 39.9646 56.3192 39.9646 55.7386V49.0494H47.5548V55.7386C47.5548 56.3192 48.032 56.79 48.6206 56.79C49.2091 56.79 49.6863 56.3192 49.6863 55.7386V30.0514C49.6862 29.4708 49.2091 29 48.6205 29V29Z"/>
</mask>
<path fill-rule="evenodd" clip-rule="evenodd" d="M39.9713 46.9457V45.4981C39.9713 45.0122 40.372 44.6168 40.8645 44.6168H47.5615V46.9458H39.9713V46.9457ZM48.6205 29C48.0319 29 47.5547 29.4708 47.5547 30.0514V42.5148H40.8578C39.1899 42.5148 37.833 43.8534 37.833 45.4989V55.7386C37.833 56.3192 38.3102 56.79 38.8988 56.79C39.4874 56.79 39.9646 56.3192 39.9646 55.7386V49.0494H47.5548V55.7386C47.5548 56.3192 48.032 56.79 48.6206 56.79C49.2091 56.79 49.6863 56.3192 49.6863 55.7386V30.0514C49.6862 29.4708 49.2091 29 48.6205 29V29Z" fill="#7AA62C"/>
<path d="M47.5615 44.6168H47.6615V44.5168H47.5615V44.6168ZM47.5615 46.9458V47.0458H47.6615V46.9458H47.5615ZM39.9713 46.9458H39.8713V47.0458H39.9713V46.9458ZM48.6205 29H48.7205V28.9H48.6205V29ZM47.5547 42.5148V42.6148H47.6547V42.5148H47.5547ZM39.9646 49.0494V48.9494H39.8646V49.0494H39.9646ZM47.5548 49.0494H47.6548V48.9494H47.5548V49.0494ZM49.6863 30.0514H49.7863V30.0514L49.6863 30.0514ZM48.6205 29H48.5205V29.1H48.6205V29ZM40.0713 46.9457V45.4981H39.8713V46.9457H40.0713ZM40.0713 45.4981C40.0713 45.0687 40.426 44.7168 40.8645 44.7168V44.5168C40.318 44.5168 39.8713 44.9557 39.8713 45.4981H40.0713ZM40.8645 44.7168H47.5615V44.5168H40.8645V44.7168ZM47.4615 44.6168V46.9458H47.6615V44.6168H47.4615ZM47.5615 46.8458H39.9713V47.0458H47.5615V46.8458ZM40.0713 46.9458V46.9457H39.8713V46.9458H40.0713ZM48.6205 28.9C47.9779 28.9 47.4547 29.4143 47.4547 30.0514H47.6547C47.6547 29.5273 48.0858 29.1 48.6205 29.1V28.9ZM47.4547 30.0514V42.5148H47.6547V30.0514H47.4547ZM47.5547 42.4148H40.8578V42.6148H47.5547V42.4148ZM40.8578 42.4148C39.1359 42.4148 37.733 43.7969 37.733 45.4989H37.933C37.933 43.9099 39.2438 42.6148 40.8578 42.6148V42.4148ZM37.733 45.4989V55.7386H37.933V45.4989H37.733ZM37.733 55.7386C37.733 56.3757 38.2563 56.89 38.8988 56.89V56.69C38.3642 56.69 37.933 56.2627 37.933 55.7386H37.733ZM38.8988 56.89C39.5413 56.89 40.0646 56.3757 40.0646 55.7386H39.8646C39.8646 56.2627 39.4334 56.69 38.8988 56.69V56.89ZM40.0646 55.7386V49.0494H39.8646V55.7386H40.0646ZM39.9646 49.1494H47.5548V48.9494H39.9646V49.1494ZM47.4548 49.0494V55.7386H47.6548V49.0494H47.4548ZM47.4548 55.7386C47.4548 56.3757 47.978 56.89 48.6206 56.89V56.69C48.0859 56.69 47.6548 56.2627 47.6548 55.7386H47.4548ZM48.6206 56.89C49.2631 56.89 49.7863 56.3757 49.7863 55.7386H49.5863C49.5863 56.2627 49.1552 56.69 48.6206 56.69V56.89ZM49.7863 55.7386V30.0514H49.5863V55.7386H49.7863ZM49.7863 30.0514C49.7862 29.4143 49.2631 28.9 48.6205 28.9V29.1C49.1552 29.1 49.5863 29.5273 49.5863 30.0515L49.7863 30.0514ZM48.7205 29V29H48.5205V29H48.7205Z" fill="#7AA62C" mask="url(#path-3-outside-2_313_2023)"/>
<mask id="path-5-outside-3_313_2023" maskUnits="userSpaceOnUse" x="-0.5" y="0" width="58" height="58" fill="black">
<rect fill="white" x="-0.5" width="58" height="58"/>
<path d="M41.9844 38.6761V36.6804H43.0123C43.5132 36.6804 43.9193 36.2743 43.9193 35.7733C43.9193 35.2723 43.5132 34.8662 43.0123 34.8662H41.3683L41.7311 33.7776H42.0448C42.5457 33.7776 42.9518 33.3715 42.9518 32.8705C42.9518 32.3695 42.5457 31.9633 42.0448 31.9633H41.096H35.2574H35.2531H34.305C33.804 31.9633 33.3979 32.3695 33.3979 32.8705C33.3979 33.3715 33.804 33.7776 34.305 33.7776H34.6187L34.9815 34.8662H29.4071V14.4255H55.131C55.7961 14.4255 56.3484 13.9694 56.4742 13.3162C56.6 12.6629 56.2565 12.0342 55.639 11.7871L28.8451 1.0681C28.8155 1.05588 28.7853 1.04548 28.7547 1.03653C28.7274 1.02867 28.699 1.02165 28.6711 1.01633C28.664 1.015 28.6569 1.01439 28.6498 1.0133C28.6286 1.0098 28.6073 1.00617 28.586 1.00411C28.5591 1.00157 28.5321 1.00036 28.505 1.00024L28.5001 1C28.4713 1 28.4426 1.00133 28.414 1.00411C28.3952 1.00593 28.3766 1.00919 28.358 1.0121C28.3483 1.01367 28.3385 1.01451 28.3289 1.01633C28.3023 1.02141 28.276 1.02794 28.2498 1.03544L28.2452 1.03653C28.2148 1.04548 28.1847 1.056 28.1552 1.0681L1.36095 11.787C0.743459 12.0341 0.400002 12.6628 0.525775 13.316C0.651548 13.9693 1.20386 14.4254 1.869 14.4254H27.5929V34.866H22.0185L22.3813 33.7775H22.695C23.196 33.7775 23.6021 33.3713 23.6021 32.8704C23.6021 32.3694 23.196 31.9632 22.695 31.9632H21.7462H15.9077H15.9033H14.9552C14.4543 31.9632 14.0482 32.3694 14.0482 32.8704C14.0482 33.3713 14.4543 33.7775 14.9552 33.7775H15.2689L15.6317 34.866H13.9877C13.4868 34.866 13.0807 35.2722 13.0807 35.7732C13.0807 36.2741 13.4868 36.6803 13.9877 36.6803H15.0156V38.676C15.0156 39.7098 15.8565 40.5507 16.8901 40.5507H27.5929V50.497C26.4694 50.8765 25.658 51.9399 25.658 53.1901V55.1857H23.6625C23.1616 55.1857 22.7555 55.5919 22.7555 56.0929C22.7555 56.5938 23.1616 57 23.6625 57H33.3374C33.8383 57 34.2444 56.5938 34.2444 56.0929C34.2444 55.5919 33.8383 55.1857 33.3374 55.1857H31.3419V53.1901C31.3419 51.94 30.5304 50.8766 29.407 50.497V40.5507H40.1099C41.1435 40.5507 41.9844 39.7099 41.9844 38.6761ZM39.8189 33.7776L39.4561 34.8662H36.8937L36.5309 33.7776H39.8189ZM52.8148 12.6113H40.4856L32.2661 4.39073L52.8148 12.6113ZM4.18528 12.6113L24.7341 4.39073L16.5146 12.6113H4.18528ZM19.08 12.6113L28.5001 3.18993L37.9202 12.6113H19.08ZM20.4692 33.7776L20.1064 34.8662H17.544L17.1812 33.7776H20.4692ZM29.528 53.1902V55.1859H27.4721V53.1902C27.4721 52.6233 27.9332 52.1621 28.5001 52.1621C29.0669 52.1621 29.528 52.6233 29.528 53.1902ZM40.1097 38.7366H16.8901C16.8569 38.7366 16.8298 38.7094 16.8298 38.6761V36.6804H16.8871L16.8901 36.6807L16.893 36.6804H40.107L40.1099 36.6807L40.1129 36.6804H40.1702V38.6761C40.1702 38.7094 40.1431 38.7366 40.1097 38.7366Z"/>
</mask>
<path d="M41.9844 38.6761V36.6804H43.0123C43.5132 36.6804 43.9193 36.2743 43.9193 35.7733C43.9193 35.2723 43.5132 34.8662 43.0123 34.8662H41.3683L41.7311 33.7776H42.0448C42.5457 33.7776 42.9518 33.3715 42.9518 32.8705C42.9518 32.3695 42.5457 31.9633 42.0448 31.9633H41.096H35.2574H35.2531H34.305C33.804 31.9633 33.3979 32.3695 33.3979 32.8705C33.3979 33.3715 33.804 33.7776 34.305 33.7776H34.6187L34.9815 34.8662H29.4071V14.4255H55.131C55.7961 14.4255 56.3484 13.9694 56.4742 13.3162C56.6 12.6629 56.2565 12.0342 55.639 11.7871L28.8451 1.0681C28.8155 1.05588 28.7853 1.04548 28.7547 1.03653C28.7274 1.02867 28.699 1.02165 28.6711 1.01633C28.664 1.015 28.6569 1.01439 28.6498 1.0133C28.6286 1.0098 28.6073 1.00617 28.586 1.00411C28.5591 1.00157 28.5321 1.00036 28.505 1.00024L28.5001 1C28.4713 1 28.4426 1.00133 28.414 1.00411C28.3952 1.00593 28.3766 1.00919 28.358 1.0121C28.3483 1.01367 28.3385 1.01451 28.3289 1.01633C28.3023 1.02141 28.276 1.02794 28.2498 1.03544L28.2452 1.03653C28.2148 1.04548 28.1847 1.056 28.1552 1.0681L1.36095 11.787C0.743459 12.0341 0.400002 12.6628 0.525775 13.316C0.651548 13.9693 1.20386 14.4254 1.869 14.4254H27.5929V34.866H22.0185L22.3813 33.7775H22.695C23.196 33.7775 23.6021 33.3713 23.6021 32.8704C23.6021 32.3694 23.196 31.9632 22.695 31.9632H21.7462H15.9077H15.9033H14.9552C14.4543 31.9632 14.0482 32.3694 14.0482 32.8704C14.0482 33.3713 14.4543 33.7775 14.9552 33.7775H15.2689L15.6317 34.866H13.9877C13.4868 34.866 13.0807 35.2722 13.0807 35.7732C13.0807 36.2741 13.4868 36.6803 13.9877 36.6803H15.0156V38.676C15.0156 39.7098 15.8565 40.5507 16.8901 40.5507H27.5929V50.497C26.4694 50.8765 25.658 51.9399 25.658 53.1901V55.1857H23.6625C23.1616 55.1857 22.7555 55.5919 22.7555 56.0929C22.7555 56.5938 23.1616 57 23.6625 57H33.3374C33.8383 57 34.2444 56.5938 34.2444 56.0929C34.2444 55.5919 33.8383 55.1857 33.3374 55.1857H31.3419V53.1901C31.3419 51.94 30.5304 50.8766 29.407 50.497V40.5507H40.1099C41.1435 40.5507 41.9844 39.7099 41.9844 38.6761ZM39.8189 33.7776L39.4561 34.8662H36.8937L36.5309 33.7776H39.8189ZM52.8148 12.6113H40.4856L32.2661 4.39073L52.8148 12.6113ZM4.18528 12.6113L24.7341 4.39073L16.5146 12.6113H4.18528ZM19.08 12.6113L28.5001 3.18993L37.9202 12.6113H19.08ZM20.4692 33.7776L20.1064 34.8662H17.544L17.1812 33.7776H20.4692ZM29.528 53.1902V55.1859H27.4721V53.1902C27.4721 52.6233 27.9332 52.1621 28.5001 52.1621C29.0669 52.1621 29.528 52.6233 29.528 53.1902ZM40.1097 38.7366H16.8901C16.8569 38.7366 16.8298 38.7094 16.8298 38.6761V36.6804H16.8871L16.8901 36.6807L16.893 36.6804H40.107L40.1099 36.6807L40.1129 36.6804H40.1702V38.6761C40.1702 38.7094 40.1431 38.7366 40.1097 38.7366Z" fill="#7AA62C"/>
<path d="M41.9844 38.6761V36.6804H43.0123C43.5132 36.6804 43.9193 36.2743 43.9193 35.7733C43.9193 35.2723 43.5132 34.8662 43.0123 34.8662H41.3683L41.7311 33.7776H42.0448C42.5457 33.7776 42.9518 33.3715 42.9518 32.8705C42.9518 32.3695 42.5457 31.9633 42.0448 31.9633H41.096H35.2574H35.2531H34.305C33.804 31.9633 33.3979 32.3695 33.3979 32.8705C33.3979 33.3715 33.804 33.7776 34.305 33.7776H34.6187L34.9815 34.8662H29.4071V14.4255H55.131C55.7961 14.4255 56.3484 13.9694 56.4742 13.3162C56.6 12.6629 56.2565 12.0342 55.639 11.7871L28.8451 1.0681C28.8155 1.05588 28.7853 1.04548 28.7547 1.03653C28.7274 1.02867 28.699 1.02165 28.6711 1.01633C28.664 1.015 28.6569 1.01439 28.6498 1.0133C28.6286 1.0098 28.6073 1.00617 28.586 1.00411C28.5591 1.00157 28.5321 1.00036 28.505 1.00024L28.5001 1C28.4713 1 28.4426 1.00133 28.414 1.00411C28.3952 1.00593 28.3766 1.00919 28.358 1.0121C28.3483 1.01367 28.3385 1.01451 28.3289 1.01633C28.3023 1.02141 28.276 1.02794 28.2498 1.03544L28.2452 1.03653C28.2148 1.04548 28.1847 1.056 28.1552 1.0681L1.36095 11.787C0.743459 12.0341 0.400002 12.6628 0.525775 13.316C0.651548 13.9693 1.20386 14.4254 1.869 14.4254H27.5929V34.866H22.0185L22.3813 33.7775H22.695C23.196 33.7775 23.6021 33.3713 23.6021 32.8704C23.6021 32.3694 23.196 31.9632 22.695 31.9632H21.7462H15.9077H15.9033H14.9552C14.4543 31.9632 14.0482 32.3694 14.0482 32.8704C14.0482 33.3713 14.4543 33.7775 14.9552 33.7775H15.2689L15.6317 34.866H13.9877C13.4868 34.866 13.0807 35.2722 13.0807 35.7732C13.0807 36.2741 13.4868 36.6803 13.9877 36.6803H15.0156V38.676C15.0156 39.7098 15.8565 40.5507 16.8901 40.5507H27.5929V50.497C26.4694 50.8765 25.658 51.9399 25.658 53.1901V55.1857H23.6625C23.1616 55.1857 22.7555 55.5919 22.7555 56.0929C22.7555 56.5938 23.1616 57 23.6625 57H33.3374C33.8383 57 34.2444 56.5938 34.2444 56.0929C34.2444 55.5919 33.8383 55.1857 33.3374 55.1857H31.3419V53.1901C31.3419 51.94 30.5304 50.8766 29.407 50.497V40.5507H40.1099C41.1435 40.5507 41.9844 39.7099 41.9844 38.6761ZM39.8189 33.7776L39.4561 34.8662H36.8937L36.5309 33.7776H39.8189ZM52.8148 12.6113H40.4856L32.2661 4.39073L52.8148 12.6113ZM4.18528 12.6113L24.7341 4.39073L16.5146 12.6113H4.18528ZM19.08 12.6113L28.5001 3.18993L37.9202 12.6113H19.08ZM20.4692 33.7776L20.1064 34.8662H17.544L17.1812 33.7776H20.4692ZM29.528 53.1902V55.1859H27.4721V53.1902C27.4721 52.6233 27.9332 52.1621 28.5001 52.1621C29.0669 52.1621 29.528 52.6233 29.528 53.1902ZM40.1097 38.7366H16.8901C16.8569 38.7366 16.8298 38.7094 16.8298 38.6761V36.6804H16.8871L16.8901 36.6807L16.893 36.6804H40.107L40.1099 36.6807L40.1129 36.6804H40.1702V38.6761C40.1702 38.7094 40.1431 38.7366 40.1097 38.7366Z" stroke="#7AA62C" stroke-width="0.4" mask="url(#path-5-outside-3_313_2023)"/>
</svg>
