<svg width="49" height="50" viewBox="0 0 49 50" fill="none" xmlns="http://www.w3.org/2000/svg">
<path d="M1.75033 47.1668C1.59562 47.1668 1.44725 47.2283 1.33785 47.3377C1.22845 47.4471 1.167 47.5954 1.167 47.7501C1.167 47.9049 1.22845 48.0532 1.33785 48.1626C1.44725 48.272 1.59562 48.3335 1.75033 48.3335H47.2503C47.405 48.3335 47.5534 48.272 47.6628 48.1626C47.7722 48.0532 47.8337 47.9049 47.8337 47.7501C47.8337 47.5954 47.7722 47.4471 47.6628 47.3377C47.5534 47.2283 47.405 47.1668 47.2503 47.1668H37.007V42.0965C37.9898 41.9862 38.926 41.6182 39.7209 41.0298C40.5158 40.4415 41.1411 39.6535 41.5337 38.7458C42.9153 38.6962 44.2453 38.2088 45.3318 37.3538C46.4182 36.4988 47.2046 35.3205 47.5776 33.9893C47.9505 32.6581 47.8906 31.2427 47.4065 29.9478C46.9224 28.6528 46.0391 27.5453 44.8843 26.7851C45.3238 26.0012 45.5537 25.1172 45.5517 24.2185C45.5516 23.0437 45.1596 21.9025 44.4377 20.9756C43.7158 20.0487 42.7054 19.3892 41.5663 19.1015C41.6436 18.7434 41.6827 18.3781 41.683 18.0118C41.6978 17.3092 41.5721 16.6107 41.3135 15.9573C41.0548 15.3039 40.6683 14.7086 40.1766 14.2065C39.6849 13.7044 39.098 13.3055 38.4501 13.0331C37.8023 12.7608 37.1066 12.6205 36.4038 12.6205C35.7011 12.6205 35.0054 12.7608 34.3575 13.0331C33.7097 13.3055 33.1227 13.7044 32.631 14.2065C32.1394 14.7086 31.7529 15.3039 31.4942 15.9573C31.2355 16.6107 31.1099 17.3092 31.1247 18.0118C31.1244 18.3733 31.1619 18.7338 31.2367 19.0875C30.4449 19.2777 29.708 19.6486 29.0836 20.1712C28.4592 20.6938 27.9643 21.3539 27.6377 22.0998C27.3111 22.8457 27.1617 23.657 27.2011 24.4703C27.2406 25.2836 27.4678 26.0767 27.865 26.7875C26.7102 27.5476 25.827 28.6551 25.3428 29.9501C24.8587 31.2451 24.7988 32.6604 25.1717 33.9916C25.5447 35.3229 26.3312 36.5011 27.4176 37.3561C28.504 38.2111 29.8341 38.6986 31.2157 38.7481C31.6144 39.6711 32.2541 40.4696 33.0679 41.06C33.8816 41.6504 34.8393 42.0108 35.8403 42.1035V47.1668H14.2197V26.5775C17.4726 26.4251 20.537 25.0062 22.7575 22.6241C24.978 20.242 26.1784 17.0857 26.1022 13.8301C26.0261 10.5744 24.6792 7.47773 22.3497 5.2021C20.0202 2.92647 16.8929 1.65247 13.6363 1.65247C10.3798 1.65247 7.25245 2.92647 4.92294 5.2021C2.59343 7.47773 1.2466 10.5744 1.17041 13.8301C1.09422 17.0857 2.2947 20.242 4.5152 22.6241C6.7357 25.0062 9.80001 26.4251 13.053 26.5775V47.1668H1.75033ZM32.177 37.9665C32.1377 37.8516 32.0635 37.7519 31.9648 37.6812C31.866 37.6105 31.7477 37.5724 31.6263 37.5721H31.6123H31.4607C30.2653 37.5709 29.1048 37.1696 28.164 36.4322C27.2232 35.6948 26.5563 34.6637 26.2696 33.5033C25.983 32.3428 26.0929 31.1198 26.5821 30.0291C27.0712 28.9384 27.9114 28.0429 28.9687 27.4851C29.0414 27.4459 29.105 27.3916 29.1553 27.3259C29.2055 27.2602 29.2411 27.1846 29.2599 27.104C29.2786 27.0235 29.2801 26.9399 29.264 26.8588C29.248 26.7776 29.2149 26.7009 29.167 26.6335C28.7423 26.0512 28.4784 25.3674 28.4017 24.6508C28.3249 23.9342 28.4382 23.21 28.7299 22.551C29.0217 21.892 29.4818 21.3214 30.0639 20.8966C30.6461 20.4717 31.3298 20.2075 32.0463 20.1305C32.1338 20.1213 32.2181 20.0925 32.2929 20.0461C32.3677 19.9998 32.431 19.9371 32.4781 19.8628C32.5253 19.7885 32.555 19.7045 32.5651 19.6172C32.5751 19.5298 32.5653 19.4412 32.5363 19.3581C32.318 18.7378 32.2516 18.0742 32.3426 17.4229C32.4336 16.7716 32.6795 16.1517 33.0595 15.615C33.4396 15.0783 33.9428 14.6406 34.5269 14.3385C35.111 14.0364 35.759 13.8787 36.4167 13.8787C37.0743 13.8787 37.7223 14.0364 38.3064 14.3385C38.8905 14.6406 39.3937 15.0783 39.7738 15.615C40.1538 16.1517 40.3997 16.7716 40.4907 17.4229C40.5818 18.0742 40.5153 18.7378 40.297 19.3581C40.2681 19.4407 40.2581 19.5287 40.2678 19.6156C40.2774 19.7026 40.3065 19.7862 40.3529 19.8604C40.3993 19.9345 40.4618 19.9973 40.5357 20.0441C40.6096 20.0908 40.6931 20.1204 40.78 20.1305C41.4923 20.2151 42.17 20.4849 42.7456 20.913C43.3212 21.3411 43.7745 21.9126 44.0603 22.5705C44.3462 23.2284 44.4547 23.9498 44.3749 24.6626C44.2951 25.3755 44.0299 26.055 43.6057 26.6335C43.5565 26.701 43.5224 26.7784 43.5057 26.8603C43.489 26.9421 43.4901 27.0266 43.5089 27.1081C43.5277 27.1895 43.5638 27.2659 43.6147 27.3322C43.6656 27.3984 43.7302 27.453 43.804 27.4921C44.8647 28.0505 45.7072 28.9488 46.1963 30.0432C46.6855 31.1375 46.793 32.3643 46.5017 33.5271C46.2103 34.6898 45.537 35.721 44.5896 36.4553C43.6422 37.1897 42.4756 37.5846 41.277 37.5768H41.165C41.041 37.5743 40.9193 37.6111 40.8175 37.682C40.7157 37.7528 40.6388 37.854 40.598 37.9711C40.331 38.7476 39.8546 39.4352 39.2212 39.9577C38.5879 40.4803 37.8224 40.8175 37.0093 40.9321V35.0685C38.4917 34.9519 39.876 34.2819 40.8871 33.1917C41.8982 32.1015 42.4622 30.6707 42.467 29.1838C42.467 29.0291 42.4055 28.8807 42.2961 28.7713C42.1867 28.6619 42.0384 28.6005 41.8837 28.6005C41.729 28.6005 41.5806 28.6619 41.4712 28.7713C41.3618 28.8807 41.3003 29.0291 41.3003 29.1838C41.2961 30.3617 40.8549 31.4961 40.0622 32.3673C39.2694 33.2385 38.1816 33.7845 37.0093 33.8995V25.8168C37.0093 25.6621 36.9479 25.5137 36.8385 25.4043C36.7291 25.2949 36.5807 25.2335 36.426 25.2335C36.2713 25.2335 36.1229 25.2949 36.0135 25.4043C35.9041 25.5137 35.8427 25.6621 35.8427 25.8168V30.8148C34.7581 30.6907 33.757 30.1724 33.0296 29.3585C32.3021 28.5446 31.8991 27.4918 31.897 26.4001C31.897 26.2454 31.8355 26.0971 31.7261 25.9877C31.6167 25.8783 31.4684 25.8168 31.3137 25.8168C31.159 25.8168 31.0106 25.8783 30.9012 25.9877C30.7918 26.0971 30.7303 26.2454 30.7303 26.4001C30.735 27.7996 31.2616 29.147 32.2071 30.1787C33.1526 31.2105 34.4489 31.8525 35.8427 31.9791V40.9251C35.0156 40.8248 34.2333 40.4943 33.5848 39.9713C32.9364 39.4482 32.4478 38.7536 32.1747 37.9665H32.177ZM2.33366 14.1361C2.33113 11.925 2.97723 9.76165 4.19194 7.91403C5.40666 6.06641 7.13663 4.61566 9.16763 3.74144C11.1986 2.86723 13.4415 2.60794 15.6184 2.99569C17.7953 3.38343 19.8106 4.40119 21.4148 5.92292C23.0191 7.44464 24.1417 9.4035 24.6438 11.5569C25.1458 13.7103 25.0052 15.9637 24.2394 18.038C23.4735 20.1123 22.1161 21.9164 20.3351 23.2269C18.5541 24.5374 16.4279 25.2967 14.2197 25.4108V21.3345C16.3082 21.2025 18.2685 20.2815 19.7034 18.7582C21.1383 17.2349 21.9406 15.2232 21.9477 13.1305C21.9477 12.9758 21.8862 12.8274 21.7768 12.718C21.6674 12.6086 21.519 12.5471 21.3643 12.5471C21.2096 12.5471 21.0612 12.6086 20.9519 12.718C20.8425 12.8274 20.781 12.9758 20.781 13.1305C20.7747 14.9142 20.0954 16.6299 18.879 17.9345C17.6626 19.2392 15.9986 20.0368 14.2197 20.1678V10.3911C14.2197 10.2364 14.1582 10.0881 14.0488 9.97867C13.9394 9.86927 13.791 9.80781 13.6363 9.80781C13.4816 9.80781 13.3332 9.86927 13.2238 9.97867C13.1145 10.0881 13.053 10.2364 13.053 10.3911V15.7928C11.5271 15.6694 10.1033 14.9773 9.0635 13.8537C8.02375 12.7302 7.44396 11.257 7.439 9.72615C7.439 9.57144 7.37754 9.42307 7.26814 9.31367C7.15875 9.20427 7.01037 9.14282 6.85566 9.14282C6.70095 9.14282 6.55258 9.20427 6.44318 9.31367C6.33379 9.42307 6.27233 9.57144 6.27233 9.72615C6.27814 11.5659 6.98095 13.335 8.23916 14.6772C9.49737 16.0194 11.2175 16.835 13.053 16.9595V25.4108C10.1628 25.2603 7.44035 24.0073 5.44622 21.9099C3.45209 19.8125 2.33811 17.0302 2.33366 14.1361Z" fill="#7AA62C" stroke="#7AA62C" stroke-width="2"/>
</svg>
