<svg width="32" height="33" viewBox="0 0 32 33" fill="none" xmlns="http://www.w3.org/2000/svg">
<path d="M30.8814 13.8118C30.4318 13.2721 29.8692 12.8376 29.2333 12.539C28.5975 12.2404 27.9038 12.085 27.2014 12.0838H19.9054L20.8014 9.79584C21.1741 8.79406 21.2982 7.71681 21.1631 6.65652C21.028 5.59623 20.6377 4.58453 20.0257 3.70822C19.4137 2.83191 18.5982 2.11713 17.6493 1.62521C16.7004 1.13328 15.6462 0.878894 14.5774 0.88386C14.2696 0.884503 13.9686 0.973901 13.7103 1.14134C13.4521 1.30877 13.2476 1.54714 13.1214 1.82786L8.56141 12.0838H4.80142C3.52838 12.0838 2.30748 12.5895 1.40731 13.4897C0.507139 14.3899 0.0014267 15.6108 0.0014267 16.8838V28.0838C0.0014267 29.3568 0.507139 30.5777 1.40731 31.4779C2.30748 32.3781 3.52838 32.8838 4.80142 32.8838H25.1694C26.2923 32.8834 27.3795 32.4894 28.2419 31.7702C29.1043 31.0511 29.6872 30.0524 29.8894 28.9478L31.9214 17.7478C32.047 17.0556 32.019 16.3443 31.8393 15.6641C31.6596 14.9839 31.3326 14.3516 30.8814 13.8118ZM8.00141 29.6838H4.80142C4.37707 29.6838 3.97011 29.5152 3.67005 29.2152C3.36999 28.9151 3.20142 28.5081 3.20142 28.0838V16.8838C3.20142 16.4595 3.36999 16.0525 3.67005 15.7525C3.97011 15.4524 4.37707 15.2838 4.80142 15.2838H8.00141V29.6838ZM28.8014 17.1718L26.7694 28.3718C26.7012 28.7445 26.503 29.081 26.21 29.3212C25.917 29.5615 25.5482 29.69 25.1694 29.6838H11.2014V14.0198L15.5534 4.22785C16.0014 4.35845 16.4174 4.5805 16.7752 4.87998C17.1331 5.17947 17.4249 5.54988 17.6324 5.96784C17.8399 6.3858 17.9585 6.84223 17.9807 7.30833C18.0029 7.77442 17.9282 8.24006 17.7614 8.67584L16.9134 10.9638C16.7327 11.4474 16.6717 11.9676 16.7356 12.4799C16.7995 12.9922 16.9864 13.4814 17.2803 13.9058C17.5743 14.3302 17.9665 14.6772 18.4236 14.9172C18.8807 15.1571 19.3891 15.2829 19.9054 15.2838H27.2014C27.4364 15.2834 27.6687 15.3349 27.8816 15.4344C28.0945 15.534 28.2829 15.6792 28.4334 15.8598C28.5875 16.0379 28.7004 16.2479 28.764 16.4747C28.8276 16.7015 28.8404 16.9395 28.8014 17.1718Z" fill="white"/>
</svg>
