<svg width="19" height="21" viewBox="0 0 19 21" fill="none" xmlns="http://www.w3.org/2000/svg">
<path d="M5.89166 12.29C5.75093 12.1515 5.57239 12.0576 5.37848 12.0202C5.18457 11.9829 4.98394 12.0037 4.80182 12.08C4.67775 12.125 4.56508 12.1966 4.47176 12.2899C4.37845 12.3833 4.30678 12.4959 4.26182 12.62C4.19695 12.7721 4.17081 12.9379 4.18574 13.1026C4.20066 13.2672 4.25618 13.4256 4.34732 13.5636C4.43846 13.7015 4.56239 13.8147 4.70801 13.8931C4.85363 13.9714 5.01639 14.0124 5.18174 14.0124C5.34708 14.0124 5.50985 13.9714 5.65546 13.8931C5.80108 13.8147 5.92501 13.7015 6.01615 13.5636C6.1073 13.4256 6.16281 13.2672 6.17773 13.1026C6.19266 12.9379 6.16652 12.7721 6.10166 12.62C6.05106 12.4988 5.98003 12.3872 5.89166 12.29ZM13.8917 12.29C13.6983 12.1115 13.4448 12.0124 13.1817 12.0124C12.9186 12.0124 12.6651 12.1115 12.4717 12.29C12.3834 12.3872 12.3123 12.4988 12.2617 12.6201C12.1837 12.8019 12.162 13.003 12.1994 13.1973C12.2368 13.3916 12.3317 13.5702 12.4717 13.71C12.5688 13.7984 12.6805 13.8694 12.8017 13.92C12.9214 13.9728 13.0508 14.0001 13.1816 14.0001C13.3124 14.0001 13.4418 13.9728 13.5615 13.92C13.6826 13.8692 13.7942 13.7982 13.8916 13.71C14.0316 13.5702 14.1264 13.3916 14.1638 13.1973C14.2013 13.003 14.1796 12.802 14.1016 12.6202C14.051 12.4989 13.98 12.3872 13.8917 12.29ZM16.4911 16.8953C17.199 16.331 17.7394 15.584 18.0539 14.7351C18.3684 13.8861 18.445 12.9674 18.2754 12.0781L16.7754 4.07808C16.5604 2.93216 15.9517 1.89741 15.0545 1.15275C14.1574 0.408092 13.0282 0.000339674 11.8623 0H6.501C5.33507 0.000350751 4.20592 0.408113 3.30879 1.15278C2.41166 1.89745 1.80295 2.9322 1.58791 4.07812L0.0879054 12.0781C-0.0816118 12.9674 -0.00500166 13.8862 0.309465 14.7351C0.623932 15.5841 1.16431 16.331 1.87227 16.8953L0.474655 18.293C0.380426 18.3855 0.305463 18.4958 0.254094 18.6175C0.202726 18.7392 0.17597 18.8698 0.175372 19.0019C0.174774 19.1339 0.200345 19.2648 0.25061 19.387C0.300874 19.5091 0.374836 19.62 0.468223 19.7134C0.56161 19.8068 0.672573 19.8808 0.794703 19.931C0.916834 19.9813 1.04771 20.0069 1.17978 20.0063C1.31185 20.0057 1.44249 19.9789 1.56416 19.9276C1.68583 19.8762 1.79612 19.8012 1.88866 19.707L3.7578 17.8379C4.16376 17.9438 4.58144 17.9983 5.001 18H13.3623C13.7819 17.9983 14.1995 17.9438 14.6055 17.8379L16.4747 19.707C16.6627 19.8917 16.9162 19.9947 17.1798 19.9935C17.4434 19.9923 17.6959 19.887 17.8823 19.7006C18.0687 19.5142 18.1739 19.2617 18.1751 18.9981C18.1763 18.7345 18.0734 18.4811 17.8887 18.293L16.4911 16.8953ZM3.55275 4.44727C3.68204 3.75974 4.04738 3.13895 4.58568 2.69213C5.12397 2.2453 5.80141 2.0005 6.501 2H11.8623C12.5619 2.0005 13.2393 2.2453 13.7776 2.69213C14.3159 3.13895 14.6813 3.75974 14.8106 4.44727L15.1572 6.2962C14.4107 7.14576 13.4915 7.82636 12.4611 8.2926C11.4306 8.75884 10.3127 9 9.18165 9C8.05066 9 6.93266 8.75884 5.90224 8.2926C4.87182 7.82636 3.95266 7.14576 3.20607 6.2962L3.55275 4.44727ZM15.6699 14.916C15.389 15.2556 15.0364 15.5289 14.6375 15.7163C14.2385 15.9037 13.8031 16.0006 13.3623 16H5.001C4.56026 15.9998 4.12498 15.9026 3.72608 15.7152C3.32719 15.5278 2.97448 15.2548 2.69303 14.9156C2.41157 14.5764 2.20829 14.1795 2.09763 13.7528C1.98697 13.3262 1.97164 12.8805 2.05275 12.4473L2.76381 8.65491C4.5594 10.1693 6.83269 11 9.18165 11C11.5306 11 13.8039 10.1693 15.5995 8.65491L16.3106 12.4473C16.3924 12.8805 16.3774 13.3266 16.2667 13.7534C16.1559 14.1802 15.9521 14.5772 15.6699 14.916Z" fill="white"/>
</svg>
