<svg width="80" height="80" viewBox="0 0 80 80" fill="none" xmlns="http://www.w3.org/2000/svg">
<path d="M75.6372 46.5386H64.2346C59.7066 46.5386 55.1946 44.8213 51.7386 41.3653C48.3039 37.9253 46.5812 33.4293 46.5652 28.9173V27.312C59.2052 27.904 70.0746 35.552 75.6319 46.5333L75.6372 46.5386Z" fill="#7AA62C"/>
<path d="M41.7492 32.0853H28.9012C28.0146 32.0853 27.2959 32.804 27.2959 33.6906V36.9013C27.2959 37.7879 28.0146 38.5066 28.9012 38.5066H41.7492C42.6358 38.5066 43.3546 37.7879 43.3546 36.9013V33.6906C43.3546 32.804 42.6358 32.0853 41.7492 32.0853Z" fill="#7AA62C"/>
<path fill-rule="evenodd" clip-rule="evenodd" d="M4.90024 9.68996C7.09581 7.49439 9.97778 6.39999 12.8476 6.39999C15.7179 6.39999 18.5938 7.49466 20.7885 9.68885C22.9856 11.8799 24.0796 14.7628 24.0796 17.632V22.448H20.8796V17.632C20.8796 15.5734 20.0965 13.5178 18.5285 11.9543L18.5269 11.9527C16.9565 10.3823 14.9048 9.59999 12.8476 9.59999C10.7894 9.59999 8.73275 10.3829 7.16298 11.9527C5.59257 13.5231 4.81028 15.5748 4.81028 17.632V64.208H1.61028V17.632C1.61028 14.7612 2.70531 11.8849 4.90024 9.68996Z" fill="white"/>
<path fill-rule="evenodd" clip-rule="evenodd" d="M78.6876 70.624H1.59961V67.424H78.6876V70.624Z" fill="white"/>
<path fill-rule="evenodd" clip-rule="evenodd" d="M9.62094 69.024V73.84H6.42094V69.024H9.62094Z" fill="white"/>
<path fill-rule="evenodd" clip-rule="evenodd" d="M16.0476 69.024V73.84H12.8476V69.024H16.0476Z" fill="white"/>
<path fill-rule="evenodd" clip-rule="evenodd" d="M22.4689 69.024V73.84H19.2689V69.024H22.4689Z" fill="white"/>
<path fill-rule="evenodd" clip-rule="evenodd" d="M28.8956 69.024V73.84H25.6956V69.024H28.8956Z" fill="white"/>
<path fill-rule="evenodd" clip-rule="evenodd" d="M35.3169 69.024V73.84H32.1169V69.024H35.3169Z" fill="white"/>
<path fill-rule="evenodd" clip-rule="evenodd" d="M41.7436 69.024V73.84H38.5436V69.024H41.7436Z" fill="white"/>
<path fill-rule="evenodd" clip-rule="evenodd" d="M48.1649 69.024V73.84H44.9649V69.024H48.1649Z" fill="white"/>
<path fill-rule="evenodd" clip-rule="evenodd" d="M54.5916 69.024V73.84H51.3916V69.024H54.5916Z" fill="white"/>
<path fill-rule="evenodd" clip-rule="evenodd" d="M61.0129 69.024V73.84H57.8129V69.024H61.0129Z" fill="white"/>
<path fill-rule="evenodd" clip-rule="evenodd" d="M67.4396 69.024V73.84H64.2396V69.024H67.4396Z" fill="white"/>
<path fill-rule="evenodd" clip-rule="evenodd" d="M73.8609 69.024V73.84H70.6609V69.024H73.8609Z" fill="white"/>
<path fill-rule="evenodd" clip-rule="evenodd" d="M46.5649 60.992C46.5649 62.7697 48.0033 64.208 49.7809 64.208C51.5586 64.208 52.9969 62.7697 52.9969 60.992H56.1969C56.1969 64.537 53.3259 67.408 49.7809 67.408C46.236 67.408 43.3649 64.537 43.3649 60.992H46.5649Z" fill="white"/>
<path fill-rule="evenodd" clip-rule="evenodd" d="M33.7169 60.992C33.7169 62.7697 35.1553 64.208 36.9329 64.208C38.7106 64.208 40.1489 62.7697 40.1489 60.992H43.3489C43.3489 64.537 40.4779 67.408 36.9329 67.408C33.388 67.408 30.5169 64.537 30.5169 60.992H33.7169Z" fill="white"/>
<path fill-rule="evenodd" clip-rule="evenodd" d="M27.2956 64.1973H8.02094V60.9973H27.2956V64.1973Z" fill="white"/>
<path fill-rule="evenodd" clip-rule="evenodd" d="M9.621 33.6887L9.62094 33.6907V36.9013L9.621 36.9033L9.6225 36.9051L9.62427 36.9066L9.62628 36.9067H22.4743L22.4763 36.9066L22.478 36.9051L22.4795 36.9033L22.4796 36.9013V33.6907L22.4795 33.6887L22.478 33.6869L22.4763 33.6854L22.4743 33.6853H9.62628L9.62427 33.6854L9.62251 33.6869L9.621 33.6887ZM6.42094 33.6907C6.42094 31.9204 7.85602 30.4853 9.62628 30.4853H22.4743C24.2445 30.4853 25.6796 31.9204 25.6796 33.6907V36.9013C25.6796 38.6716 24.2445 40.1067 22.4743 40.1067H9.62628C7.85602 40.1067 6.42094 38.6716 6.42094 36.9013V33.6907Z" fill="white"/>
<path fill-rule="evenodd" clip-rule="evenodd" d="M11.2369 44.928H8.02094V41.728H11.2369V44.928Z" fill="white"/>
<path fill-rule="evenodd" clip-rule="evenodd" d="M17.6583 44.928H14.4476V41.728H17.6583V44.928Z" fill="white"/>
<path fill-rule="evenodd" clip-rule="evenodd" d="M24.0849 44.928H20.8689V41.728H24.0849V44.928Z" fill="white"/>
<path fill-rule="evenodd" clip-rule="evenodd" d="M30.5063 44.928H27.2956V41.728H30.5063V44.928Z" fill="white"/>
<path fill-rule="evenodd" clip-rule="evenodd" d="M36.9329 44.928H33.7169V41.728H36.9329V44.928Z" fill="white"/>
<path fill-rule="evenodd" clip-rule="evenodd" d="M43.3543 44.928H40.1436V41.728H43.3543V44.928Z" fill="white"/>
<path fill-rule="evenodd" clip-rule="evenodd" d="M8.02094 25.6747H44.9596C60.2041 25.6747 73.206 35.4408 78.5675 49.1783L78.6769 49.4588V52.9707C78.6769 55.841 77.5822 58.717 75.3879 60.9118C73.1968 63.1087 70.3141 64.2027 67.4449 64.2027H59.4236V60.9973C59.4236 60.1742 59.1067 59.3485 58.4789 58.7207C57.8467 58.0885 57.0268 57.776 56.2023 57.776H8.02094V54.576H56.2023C57.8417 54.576 59.4859 55.2022 60.7416 56.458C61.9912 57.7075 62.6236 59.3565 62.6236 60.9973V61.0027H67.4449C69.5035 61.0027 71.5591 60.2195 73.1226 58.6516L73.1242 58.65C74.6946 57.0795 75.477 55.0279 75.477 52.9707V50.0646C70.4907 37.6029 58.6803 28.8747 44.9596 28.8747H8.02094V25.6747Z" fill="white"/>
<path fill-rule="evenodd" clip-rule="evenodd" d="M70.6556 49.7547H77.0823V52.9547H70.6556V49.7547Z" fill="white"/>
<path fill-rule="evenodd" clip-rule="evenodd" d="M30.5063 19.232H27.2956V16.032H30.5063V19.232Z" fill="white"/>
<path fill-rule="evenodd" clip-rule="evenodd" d="M62.6289 19.232H33.7169V16.032H62.6289V19.232Z" fill="white"/>
<path fill-rule="evenodd" clip-rule="evenodd" d="M46.5649 12.8053H30.5063V9.60533H46.5649V12.8053Z" fill="white"/>
<path fill-rule="evenodd" clip-rule="evenodd" d="M52.9916 12.8053H49.7809V9.60533H52.9916V12.8053Z" fill="white"/>
</svg>
