<svg width="57" height="56" viewBox="0 0 57 56" fill="none" xmlns="http://www.w3.org/2000/svg">
<path d="M47.9624 41.4554L46.3719 39.8648L48.3188 37.9179C49.0208 37.2141 49.4151 36.2606 49.4151 35.2665C49.4151 34.2724 49.0208 33.3189 48.3188 32.6151C48.0121 32.3143 47.6553 32.0692 47.2645 31.8908C48.101 30.9799 48.5491 29.7786 48.5136 28.5425C48.478 27.3063 47.9615 26.1327 47.0741 25.2715C46.1866 24.4102 44.9981 23.9292 43.7614 23.9307C42.5247 23.9322 41.3374 24.4161 40.452 25.2796L36.1193 29.6123L26.926 20.4189L31.257 16.0879C32.1204 15.2025 32.6044 14.0152 32.6059 12.7785C32.6074 11.5418 32.1264 10.3533 31.2651 9.46584C30.4039 8.57835 29.2303 8.0619 27.9941 8.02633C26.7579 7.99077 25.5567 8.4389 24.6458 9.27541C24.4673 8.88467 24.2222 8.52793 23.9215 8.22111C23.218 7.51934 22.2649 7.1251 21.2712 7.12479C20.2775 7.12448 19.3243 7.51813 18.6203 8.21946L16.6734 10.1664L15.0829 8.57584C14.8486 8.34158 14.531 8.20984 14.1997 8.20953C13.8684 8.20922 13.5505 8.34037 13.3158 8.5742L9.07389 12.8161C8.83934 13.0507 8.70757 13.3688 8.70758 13.7005C8.70757 14.0322 8.83934 14.3503 9.07389 14.5848L10.6644 16.1754L8.7208 18.119C8.01875 18.8228 7.62448 19.7763 7.62448 20.7704C7.62448 21.7645 8.01875 22.718 8.72081 23.4218C9.02765 23.7224 9.38438 23.9675 9.7751 24.1461C8.93859 25.057 8.49046 26.2583 8.52603 27.4944C8.56159 28.7306 9.07804 29.9042 9.96553 30.7654C10.853 31.6267 12.0415 32.1077 13.2782 32.1062C14.5149 32.1047 15.7022 31.6208 16.5876 30.7573L20.917 26.4279L30.1087 35.6196L25.7776 39.9506C24.9142 40.836 24.4302 42.0233 24.4287 43.26C24.4272 44.4967 24.9082 45.6852 25.7695 46.5727C26.6308 47.4602 27.8043 47.9767 29.0405 48.0122C30.2767 48.0478 31.478 47.5997 32.3888 46.7631C32.5672 47.154 32.8123 47.5108 33.1132 47.8174C33.8171 48.5205 34.7713 48.9154 35.7662 48.9154C36.7611 48.9154 37.7153 48.5205 38.4193 47.8174L40.3629 45.8738L41.9534 47.4644C42.1877 47.6986 42.5053 47.8304 42.8366 47.8307C43.1679 47.831 43.4858 47.6998 43.7205 47.466L47.9641 43.2224C48.1973 42.9874 48.3281 42.6697 48.3278 42.3386C48.3274 42.0074 48.1961 41.6899 47.9624 41.4554ZM38.5925 44.1068L36.6506 46.0487C36.416 46.2833 36.0979 46.415 35.7662 46.415C35.4345 46.415 35.1164 46.2833 34.8819 46.0487C34.6473 45.8142 34.5156 45.4961 34.5156 45.1644C34.5156 44.8327 34.6473 44.5146 34.8819 44.28L44.7814 34.3805C45.0159 34.146 45.334 34.0142 45.6657 34.0142C45.9974 34.0142 46.3155 34.146 46.5501 34.3805C46.7846 34.6151 46.9164 34.9332 46.9164 35.2649C46.9164 35.5966 46.7846 35.9147 46.5501 36.1492L38.5958 44.1035L38.5925 44.1068ZM33.1148 42.513L30.729 44.8987C30.3072 45.3206 29.7351 45.5576 29.1385 45.5576C28.542 45.5576 27.9698 45.3206 27.548 44.8987C27.1262 44.4769 26.8892 43.9048 26.8892 43.3082C26.8892 42.7117 27.1262 42.1395 27.548 41.7177L42.2174 27.0483C42.6392 26.6265 43.2114 26.3895 43.8079 26.3895C44.4045 26.3895 44.9766 26.6265 45.3984 27.0483C45.8203 27.4701 46.0572 28.0423 46.0572 28.6388C46.0572 29.2354 45.8203 29.8075 45.3984 30.2293L33.1148 42.513ZM19.1516 24.6592L14.8205 28.9903C14.3985 29.4123 13.8261 29.6494 13.2292 29.6494C12.6323 29.6494 12.0599 29.4123 11.6379 28.9903C11.2158 28.5682 10.9787 27.9958 10.9787 27.3989C10.9787 26.802 11.2158 26.2296 11.6379 25.8076L26.3073 11.1382C26.7293 10.7161 27.3017 10.479 27.8986 10.479C28.4955 10.479 29.0679 10.7161 29.4899 11.1382C29.912 11.5602 30.1491 12.1326 30.1491 12.7295C30.1491 13.3264 29.912 13.8988 29.4899 14.3208L19.1483 24.6625L19.1516 24.6592ZM10.4879 19.886L20.3874 9.98652C20.5014 9.86213 20.6395 9.76211 20.7933 9.69251C20.9471 9.6229 21.1133 9.58513 21.2821 9.58149C21.4508 9.57784 21.6186 9.60839 21.7752 9.6713C21.9318 9.7342 22.0741 9.82816 22.1934 9.94751C22.3128 10.0669 22.4067 10.2091 22.4696 10.3658C22.5325 10.5224 22.5631 10.6901 22.5595 10.8589C22.5558 11.0276 22.518 11.1939 22.4484 11.3476C22.3788 11.5014 22.2788 11.6395 22.1544 11.7536L12.2549 21.6531C12.1408 21.7775 12.0028 21.8775 11.849 21.9471C11.6952 22.0167 11.529 22.0545 11.3602 22.0581C11.1915 22.0618 11.0237 22.0312 10.8671 21.9683C10.7105 21.9054 10.5682 21.8114 10.4488 21.6921C10.3295 21.5727 10.2355 21.4305 10.1726 21.2738C10.1097 21.1172 10.0792 20.9495 10.0828 20.7807C10.0865 20.612 10.1242 20.4457 10.1938 20.292C10.2635 20.1382 10.3635 20.0001 10.4879 19.886ZM11.7253 13.6988L14.2002 11.224L14.908 11.9318L12.4331 14.4066L11.7253 13.6988ZM22.684 24.6576L25.1589 22.1827L34.3506 31.3744L31.8757 33.8493L22.684 24.6576ZM42.8361 44.8096L42.1316 44.1051L44.6065 41.6303L45.3143 42.3381L42.8361 44.8096Z" fill="#7AA62C" stroke="#7AA62C" stroke-width="0.15"/>
</svg>
