<svg width="21" height="21" viewBox="0 0 21 21" fill="none" xmlns="http://www.w3.org/2000/svg">
<path d="M13.5043 8.02682H10.5043V5.02682C10.5043 4.7616 10.3989 4.50725 10.2114 4.31971C10.0239 4.13218 9.76952 4.02682 9.5043 4.02682C9.23908 4.02682 8.98473 4.13218 8.79719 4.31971C8.60966 4.50725 8.5043 4.7616 8.5043 5.02682V8.02682H5.5043C5.23908 8.02682 4.98473 8.13218 4.79719 8.31971C4.60966 8.50725 4.5043 8.7616 4.5043 9.02682C4.5043 9.29204 4.60966 9.54639 4.79719 9.73393C4.98473 9.92146 5.23908 10.0268 5.5043 10.0268H8.5043V13.0268C8.5043 13.292 8.60966 13.5464 8.79719 13.7339C8.98473 13.9215 9.23908 14.0268 9.5043 14.0268C9.76952 14.0268 10.0239 13.9215 10.2114 13.7339C10.3989 13.5464 10.5043 13.292 10.5043 13.0268V10.0268H13.5043C13.7695 10.0268 14.0239 9.92146 14.2114 9.73393C14.3989 9.54639 14.5043 9.29204 14.5043 9.02682C14.5043 8.7616 14.3989 8.50725 14.2114 8.31971C14.0239 8.13218 13.7695 8.02682 13.5043 8.02682ZM20.2143 18.3168L16.5043 14.6368C17.9444 12.8412 18.6418 10.5621 18.4531 8.26812C18.2644 5.97412 17.204 3.8396 15.4898 2.30346C13.7757 0.767327 11.5381 -0.053669 9.23722 0.00929137C6.93634 0.0722518 4.74702 1.01438 3.11944 2.64196C1.49186 4.26954 0.54973 6.45886 0.486769 8.75974C0.423809 11.0606 1.2448 13.2982 2.78094 15.0123C4.31708 16.7265 6.4516 17.7869 8.7456 17.9756C11.0396 18.1643 13.3187 17.4669 15.1143 16.0268L18.7943 19.7068C18.8873 19.8005 18.9979 19.8749 19.1197 19.9257C19.2416 19.9765 19.3723 20.0026 19.5043 20.0026C19.6363 20.0026 19.767 19.9765 19.8889 19.9257C20.0107 19.8749 20.1213 19.8005 20.2143 19.7068C20.3945 19.5204 20.4953 19.2712 20.4953 19.0118C20.4953 18.7525 20.3945 18.5033 20.2143 18.3168ZM9.5043 16.0268C8.11983 16.0268 6.76645 15.6163 5.61531 14.8471C4.46416 14.0779 3.56696 12.9847 3.03714 11.7056C2.50733 10.4265 2.36871 9.01906 2.6388 7.66119C2.9089 6.30332 3.57558 5.05604 4.55455 4.07707C5.53352 3.09811 6.7808 2.43142 8.13867 2.16132C9.49653 1.89123 10.904 2.02985 12.1831 2.55966C13.4622 3.08948 14.5554 3.98669 15.3246 5.13783C16.0938 6.28897 16.5043 7.64235 16.5043 9.02682C16.5043 10.8833 15.7668 12.6638 14.454 13.9766C13.1413 15.2893 11.3608 16.0268 9.5043 16.0268Z" fill="white"/>
</svg>
