<svg width="25" height="24" viewBox="0 0 25 24" fill="none" xmlns="http://www.w3.org/2000/svg">
<path d="M13.0011 5.846C11.7841 5.846 10.5945 6.20687 9.58267 6.88297C8.57081 7.55907 7.78217 8.52004 7.31646 9.64435C6.85076 10.7687 6.72891 12.0058 6.96632 13.1994C7.20374 14.393 7.78975 15.4893 8.65027 16.3498C9.51078 17.2103 10.6071 17.7964 11.8007 18.0338C12.9943 18.2712 14.2314 18.1493 15.3557 17.6836C16.4801 17.2179 17.441 16.4293 18.1171 15.4174C18.7932 14.4056 19.1541 13.2159 19.1541 11.999C19.1553 11.1906 18.9969 10.39 18.6881 9.64295C18.3793 8.8959 17.9262 8.21712 17.3546 7.64553C16.783 7.07394 16.1042 6.62075 15.3571 6.31196C14.6101 6.00316 13.8095 5.84481 13.0011 5.846ZM13.0011 16C12.21 16 11.4366 15.7654 10.7788 15.3259C10.121 14.8864 9.60833 14.2616 9.30558 13.5307C9.00282 12.7998 8.92361 11.9956 9.07795 11.2196C9.23229 10.4437 9.61326 9.73098 10.1727 9.17157C10.7321 8.61216 11.4448 8.2312 12.2207 8.07686C12.9967 7.92252 13.8009 8.00173 14.5318 8.30448C15.2627 8.60723 15.8874 9.11992 16.327 9.77772C16.7665 10.4355 17.0011 11.2089 17.0011 12C16.999 13.0602 16.5769 14.0764 15.8272 14.8261C15.0775 15.5758 14.0613 15.9979 13.0011 16ZM20.8411 5.595C20.8415 5.8789 20.7577 6.15654 20.6002 6.39279C20.4428 6.62904 20.2188 6.81327 19.9566 6.92219C19.6945 7.03111 19.4059 7.05981 19.1274 7.00467C18.8489 6.94953 18.593 6.81301 18.3921 6.61241C18.1912 6.4118 18.0543 6.15611 17.9988 5.87769C17.9433 5.59927 17.9716 5.31064 18.0801 5.04831C18.1887 4.78598 18.3726 4.56175 18.6086 4.40398C18.8447 4.24621 19.1222 4.162 19.4061 4.162C19.5945 4.16161 19.7811 4.19839 19.9552 4.27024C20.1294 4.34209 20.2877 4.4476 20.421 4.58071C20.5543 4.71383 20.66 4.87195 20.7321 5.046C20.8042 5.22005 20.8412 5.40661 20.8411 5.595ZM24.9161 7.052C24.9559 5.18597 24.2593 3.37931 22.9771 2.023C21.6179 0.745299 19.8132 0.049457 17.9481 0.084C15.9671 -0.028 10.0271 -0.028 8.04809 0.084C6.18363 0.0467716 4.37862 0.740567 3.01909 2.017C1.73928 3.37482 1.04309 5.18046 1.08009 7.046C0.968094 9.027 0.968094 14.967 1.08009 16.946C1.04029 18.812 1.73687 20.6187 3.01909 21.975C4.37877 23.2519 6.18316 23.9476 8.04809 23.914C10.0291 24.026 15.9691 24.026 17.9481 23.914C19.8141 23.9538 21.6208 23.2572 22.9771 21.975C24.2548 20.6158 24.9506 18.8111 24.9161 16.946C25.0281 14.965 25.0281 9.031 24.9161 7.046V7.052ZM22.3561 19.075C22.1524 19.5912 21.8449 20.06 21.4525 20.4524C21.0601 20.8448 20.5913 21.1523 20.0751 21.356C18.4951 21.983 14.7461 21.838 13.0011 21.838C11.2561 21.838 7.50109 21.977 5.92709 21.356C5.41091 21.1523 4.94208 20.8448 4.54969 20.4524C4.15731 20.06 3.84975 19.5912 3.64609 19.075C3.01909 17.495 3.16409 13.746 3.16409 12.001C3.16409 10.256 3.02509 6.501 3.64609 4.927C3.84952 4.41044 4.15698 3.94122 4.54937 3.54849C4.94177 3.15575 5.41071 2.84788 5.92709 2.644C7.50609 2.017 11.2551 2.162 13.0011 2.162C14.7471 2.162 18.5011 2.023 20.0751 2.644C20.5913 2.84766 21.0601 3.15522 21.4525 3.5476C21.8449 3.93998 22.1524 4.40881 22.3561 4.925C22.9831 6.505 22.8381 10.254 22.8381 11.999C22.8381 13.744 22.9831 17.5 22.3571 19.074L22.3561 19.075Z" fill="url(#paint0_linear_1166_1640)"/>
<defs>
<linearGradient id="paint0_linear_1166_1640" x1="21.7355" y1="3.16774" x2="4.81713" y2="20.7865" gradientUnits="userSpaceOnUse">
<stop stop-color="#FA550B"/>
<stop offset="1" stop-color="#9323BC"/>
</linearGradient>
</defs>
</svg>
