<svg width="40" height="14" viewBox="0 0 40 14" fill="none" xmlns="http://www.w3.org/2000/svg">
<path d="M32.6664 0.257902C32.4948 0.429088 32.3978 0.66111 32.3965 0.903461C32.3952 1.14581 32.4897 1.37887 32.6594 1.5519L36.9344 5.8339H1.35036C1.10893 5.83496 0.877781 5.93182 0.707713 6.1032C0.537646 6.27458 0.442567 6.50646 0.443364 6.7479C0.442567 6.98934 0.537646 7.22122 0.707713 7.3926C0.877781 7.56398 1.10893 7.66084 1.35036 7.6619H36.9274L32.6524 11.9479C32.4841 12.1217 32.3906 12.3544 32.3919 12.5963C32.3932 12.8382 32.4892 13.07 32.6594 13.2419C32.7443 13.326 32.845 13.3924 32.9557 13.4376C33.0663 13.4827 33.1848 13.5056 33.3043 13.505C33.4238 13.5043 33.542 13.4801 33.6522 13.4338C33.7624 13.3875 33.8623 13.3199 33.9464 13.2349L39.7404 7.3989C39.8195 7.31431 39.8837 7.21694 39.9304 7.1109C39.9779 6.99969 40.0017 6.87982 40.0004 6.7589C40.0005 6.51981 39.9072 6.29013 39.7404 6.1189L33.9464 0.282902C33.8643 0.196589 33.766 0.127413 33.657 0.0793838C33.5481 0.0313545 33.4306 0.00542663 33.3116 0.00310131C33.1925 0.000775993 33.0742 0.0220999 32.9634 0.0658378C32.8527 0.109576 32.7517 0.174858 32.6664 0.257902Z" fill="#9C9C9C"/>
</svg>
