<svg xmlns="http://www.w3.org/2000/svg" width="21" height="21" viewBox="0 0 21 21"><defs><style>.a{fill:#57b4e5;}.b{fill:#fff;}</style></defs><g transform="translate(-633 -443)"><circle class="a" cx="10.5" cy="10.5" r="10.5" transform="translate(633 443)"/><path class="b" d="M2.639,11.789H.195V3.918H2.639ZM1.415,2.845A1.422,1.422,0,1,1,2.831,1.416,1.427,1.427,0,0,1,1.415,2.845Zm10.37,8.944H9.347V7.958c0-.913-.018-2.084-1.271-2.084-1.271,0-1.465.992-1.465,2.018v3.9H4.17V3.918H6.514V4.992h.034A2.568,2.568,0,0,1,8.86,3.721c2.473,0,2.928,1.629,2.928,3.744v4.323Z" transform="translate(638 446.999)"/></g></svg>