<svg xmlns="http://www.w3.org/2000/svg" width="178" height="178" viewBox="0 0 178 178">
  <g id="Grupo_4377" data-name="Grupo 4377" transform="translate(-594 -203)">
    <circle id="Elipse_7" data-name="Elipse 7" cx="89" cy="89" r="89" transform="translate(594 203)" fill="#532574"/>
    <g id="noun_like_984556" transform="translate(638 245)">
      <g id="Grupo_4376" data-name="Grupo 4376" transform="translate(0 0)">
        <path id="Caminho_17" data-name="Caminho 17" d="M27.264,76.517A4.567,4.567,0,1,1,22.7,81.084,4.574,4.574,0,0,1,27.264,76.517Z" transform="translate(40.464 -7.794)" fill="#fff"/>
        <path id="Caminho_18" data-name="Caminho 18" d="M5,45.62a8.715,8.715,0,0,1,8.711-8.7l20.484.1L32.843,22.177l-.006-.136c0-4.5,3.379-12.762,8.9-12.762h5.427l2.817,14.982,12.8,19.832a39.911,39.911,0,0,1,2.405,3.736,6.3,6.3,0,0,1,3.282-.924H88.589A6.419,6.419,0,0,1,95,53.317V84.311a6.418,6.418,0,0,1-6.411,6.411H68.472a6.417,6.417,0,0,1-5.13-2.61A10.524,10.524,0,0,1,57,90.251H22.609a8.713,8.713,0,0,1-8.7-8.7,8.573,8.573,0,0,1,.635-3.256A8.687,8.687,0,0,1,9.07,65.848,8.733,8.733,0,0,1,5,58.5a8.64,8.64,0,0,1,2.861-6.439A8.636,8.636,0,0,1,5,45.62ZM68.472,87.726H88.589A3.418,3.418,0,0,0,92,84.311V53.317A3.419,3.419,0,0,0,88.589,49.9H68.472a3.353,3.353,0,0,0-2.281.936l-.909,34.594A3.422,3.422,0,0,0,68.472,87.726ZM11.167,53.4a5.69,5.69,0,0,0,.6,10.459l2.007.732L12.4,66.224a5.7,5.7,0,0,0,4.372,9.361h3.293l-1.926,2.429A5.633,5.633,0,0,0,16.9,81.546a5.715,5.715,0,0,0,5.708,5.708H57a7.556,7.556,0,0,0,5.3-2.2L63.2,50.528a30.964,30.964,0,0,0-2.894-4.751L47.146,25.392,44.68,12.274H41.738c-3.127,0-5.873,6.016-5.905,9.7l1.644,18.046L13.7,39.911a5.7,5.7,0,0,0-2.537,10.808l2.664,1.338Z" transform="translate(-5 -7.794)" fill="#fff"/>
        <path id="Caminho_19" data-name="Caminho 19" d="M14.225,32.163c7.119.661,8.626,2.168,9.287,9.287a.322.322,0,0,0,.642,0c.661-7.119,2.168-8.626,9.287-9.287a.322.322,0,0,0,0-.642c-7.119-.661-8.626-2.168-9.287-9.287a.322.322,0,0,0-.642,0c-.661,7.119-2.168,8.626-9.287,9.287A.322.322,0,0,0,14.225,32.163Z" transform="translate(47.333 -7.794)" fill="#fff"/>
        <path id="Caminho_20" data-name="Caminho 20" d="M69.292,14.145c4.423.411,5.359,1.347,5.77,5.77a.2.2,0,0,0,.4,0c.411-4.423,1.347-5.359,5.77-5.77a.2.2,0,0,0,0-.4c-4.423-.411-5.359-1.347-5.77-5.77a.2.2,0,0,0-.4,0c-.411,4.423-1.347,5.359-5.77,5.77A.2.2,0,0,0,69.292,14.145Z" transform="translate(-55.522 -7.794)" fill="#fff"/>
        <path id="Caminho_21" data-name="Caminho 21" d="M83.7,30.478c3.644.338,4.416,1.11,4.754,4.754a.165.165,0,0,0,.329,0c.338-3.644,1.11-4.416,4.754-4.754a.165.165,0,0,0,0-.329c-3.644-.338-4.416-1.11-4.754-4.754a.165.165,0,0,0-.329,0c-.338,3.644-1.11,4.416-4.754,4.754A.165.165,0,0,0,83.7,30.478Z" transform="translate(-82.232 -7.794)" fill="#fff"/>
        <path id="Caminho_22" data-name="Caminho 22" d="M33.091,16.524c4.694.436,5.687,1.429,6.123,6.123a.213.213,0,0,0,.424,0c.436-4.694,1.429-5.687,6.123-6.123a.213.213,0,0,0,0-.424c-4.694-.436-5.687-1.429-6.123-6.123a.213.213,0,0,0-.424,0c-.436,4.694-1.429,5.687-6.123,6.123A.213.213,0,0,0,33.091,16.524Z" transform="translate(16.148 -7.794)" fill="#fff"/>
      </g>
    </g>
  </g>
</svg>
