<svg xmlns="http://www.w3.org/2000/svg" width="26.718" height="24.642" viewBox="0 0 26.718 24.642"><defs><style>.a{fill:#0c91e5;}</style></defs><path class="a" d="M34.315,27.192c-.662-.33-3.888-1.908-4.489-2.126s-1.041-.33-1.481.33-1.7,2.121-2.077,2.557-.768.462-1.421.165a17.858,17.858,0,0,1-5.287-3.268A19.963,19.963,0,0,1,15.907,20.3c-.383-.66-.042-1.023.286-1.353.3-.3.662-.759.992-1.151a5.578,5.578,0,0,0,.654-1.091,1.209,1.209,0,0,0-.055-1.153c-.165-.33-1.479-3.565-2.029-4.854-.528-1.285-1.072-1.122-1.479-1.122-.378-.033-.816-.033-1.256-.033a2.48,2.48,0,0,0-1.754.79,7.346,7.346,0,0,0-2.3,5.446c0,3.2,2.354,6.3,2.682,6.766.328.429,4.632,7.03,11.222,9.869,1.571.66,2.794,1.056,3.749,1.384a9.1,9.1,0,0,0,4.137.266c1.263-.2,3.888-1.586,4.436-3.138a5.447,5.447,0,0,0,.4-3.136c-.163-.3-.594-.462-1.254-.759" transform="translate(-8.967 -9.539)"/></svg>