<svg width="24" height="27" viewBox="0 0 24 27" fill="none" xmlns="http://www.w3.org/2000/svg">
<path d="M7.49624 9.37212C7.31499 9.25808 7.13022 9.15387 6.93562 9.05645C6.74102 8.96582 6.53939 8.88526 6.33145 8.81127C5.86146 8.66023 5.35799 8.57967 4.84093 8.57967C4.25689 8.57967 3.69602 8.68364 3.1792 8.87169C2.95415 8.95552 2.7462 9.04966 2.54128 9.16371C2.12842 9.38196 1.74905 9.6707 1.42004 9.99622C1.25565 10.1606 1.10438 10.3386 0.963399 10.5266C0.889631 10.6241 0.815636 10.728 0.75194 10.8355C0.647963 10.9933 0.563897 11.1512 0.476545 11.3224C0.409335 11.4633 0.348918 11.6078 0.295294 11.7554C0.241667 11.9132 0.191318 12.0776 0.147531 12.2488C0.134182 12.3024 0.124113 12.3628 0.110531 12.4268C0.0803216 12.5408 0.060183 12.6584 0.0501139 12.7792C0.0367656 12.8396 0.0332528 12.9 0.0266962 12.9604C0.0199051 13.004 0.0133481 13.0443 0.0133481 13.0881C0.00655703 13.1988 0 13.3063 0 13.4239C0 13.4541 7.50384e-08 13.4911 0.00679113 13.5213C0.00679113 13.7328 0.0236512 13.9409 0.0571383 14.1592V14.1726C0.0704866 14.2564 0.0805564 14.3437 0.100695 14.4278C0.107486 14.458 0.114044 14.4882 0.124113 14.5184C0.30209 15.2905 0.664592 15.9924 1.158 16.5696C1.85305 17.392 2.80636 17.9763 3.89085 18.1845C3.95806 18.1979 4.01847 18.2079 4.08545 18.2079C4.16928 18.2248 4.25663 18.2314 4.34726 18.2449C4.41447 18.2517 4.48824 18.2583 4.55872 18.2618L4.61586 18.262C4.68963 18.2688 4.7669 18.2688 4.8409 18.2688C4.93153 18.2688 5.02215 18.2688 5.1095 18.2555C5.16992 18.2555 5.22355 18.2555 5.28748 18.2487C5.30083 18.2487 5.31769 18.2419 5.33104 18.2419C5.48887 18.2285 5.64671 18.2049 5.80431 18.1747C5.88814 18.1578 5.9687 18.1311 6.05277 18.1143C6.2106 18.0707 6.35837 18.0304 6.50941 17.9733C6.80823 17.8625 7.09345 17.7248 7.36207 17.5637C7.61053 17.4059 7.84893 17.2279 8.0672 17.0333C8.12761 16.9797 8.18124 16.9293 8.23838 16.8755L14.3017 20.5113V22.0018C14.3017 24.9897 17.0277 27.3598 20.1296 26.7521C22.0096 26.3795 23.5338 24.8585 23.9031 22.9785C24.5108 19.8799 22.144 17.1471 19.1529 17.1471C17.8267 17.1471 16.6317 17.6843 15.7554 18.547L9.68856 14.9049L9.61807 14.8613L9.49395 14.7876C9.62158 14.3546 9.68856 13.8979 9.68856 13.4247C9.68856 12.9514 9.62135 12.4947 9.49395 12.0618L9.68856 11.9477L15.7584 8.30186C16.8361 9.37273 18.414 9.92678 20.0991 9.61115C21.9927 9.25192 23.5199 7.73444 23.8994 5.85449C24.5808 2.46382 21.7004 -0.497141 18.3231 0.0700992C16.527 0.36891 15.0365 1.71846 14.5128 3.47432C14.214 4.45461 14.2575 5.37441 14.506 6.22054L8.23831 9.96995C8.0135 9.74842 7.76504 9.5503 7.49643 9.37232L7.49624 9.37212Z" fill="#4C4D4F"/>
</svg>
