<svg width="53" height="52" viewBox="0 0 53 52" fill="none" xmlns="http://www.w3.org/2000/svg">
<rect x="0.75" width="52" height="52" rx="26" fill="#0A66C2"/>
<g clip-path="url(#clip0_2799_6056)">
<path d="M11.584 14.8799C11.584 13.9039 11.9256 13.0988 12.6088 12.4644C13.2919 11.83 14.1801 11.5128 15.2732 11.5128C16.3468 11.5128 17.2154 11.8251 17.879 12.4498C18.5622 13.0939 18.9038 13.9332 18.9038 14.9678C18.9038 15.9047 18.572 16.6855 17.9083 17.3101C17.2251 17.9543 16.3272 18.2763 15.2146 18.2763H15.1853C14.1118 18.2763 13.2432 17.9543 12.5795 17.3101C11.9158 16.666 11.584 15.8559 11.584 14.8799ZM11.9646 40.4993V20.9407H18.4646V40.4993H11.9646ZM22.066 40.4993H28.566V29.5781C28.566 28.8949 28.6441 28.3679 28.8002 27.9971C29.0735 27.3334 29.4883 26.7722 30.0446 26.3135C30.6009 25.8548 31.2987 25.6254 32.138 25.6254C34.3242 25.6254 35.4173 27.0991 35.4173 30.0466V40.4993H41.9173V29.2853C41.9173 26.3964 41.2341 24.2054 39.8678 22.7121C38.5014 21.2189 36.6959 20.4723 34.4511 20.4723C31.9331 20.4723 29.9714 21.5556 28.566 23.7223V23.7808H28.5367L28.566 23.7223V20.9407H22.066C22.105 21.5654 22.1245 23.5075 22.1245 26.7673C22.1245 30.0271 22.105 34.6044 22.066 40.4993Z" fill="white"/>
</g>
<defs>
<clipPath id="clip0_2799_6056">
<rect width="30.3333" height="30.3333" fill="white" transform="translate(11.584 10.8334)"/>
</clipPath>
</defs>
</svg>
