<svg width="27" height="27" viewBox="0 0 27 27" fill="none" xmlns="http://www.w3.org/2000/svg">
<rect x="0.398438" y="0.423889" width="26" height="26" rx="13" fill="#0A66C2"/>
<g clip-path="url(#clip0_2800_5987)">
<path d="M5.81641 7.86386C5.81641 7.37586 5.98721 6.97327 6.32879 6.65609C6.67038 6.33889 7.11446 6.1803 7.661 6.1803C8.19779 6.1803 8.63209 6.33644 8.96393 6.64877C9.30552 6.97084 9.47632 7.3905 9.47632 7.90778C9.47632 8.37624 9.31041 8.76662 8.97857 9.07895C8.63698 9.40102 8.18803 9.56205 7.63172 9.56205H7.61708C7.08029 9.56205 6.64599 9.40102 6.31415 9.07895C5.98232 8.75687 5.81641 8.35184 5.81641 7.86386ZM6.00672 20.6735V10.8943H9.25672V20.6735H6.00672ZM11.0574 20.6735H14.3074V15.213C14.3074 14.8714 14.3464 14.6078 14.4245 14.4224C14.5611 14.0906 14.7685 13.81 15.0467 13.5806C15.3249 13.3513 15.6738 13.2366 16.0934 13.2366C17.1865 13.2366 17.7331 13.9735 17.7331 15.4472V20.6735H20.9831V15.0666C20.9831 13.6221 20.6415 12.5266 19.9583 11.78C19.2751 11.0333 18.3723 10.66 17.25 10.66C15.991 10.66 15.0101 11.2017 14.3074 12.285V12.3143H14.2928L14.3074 12.285V10.8943H11.0574C11.0769 11.2066 11.0867 12.1777 11.0867 13.8075C11.0867 15.4374 11.0769 17.7261 11.0574 20.6735Z" fill="white"/>
</g>
<defs>
<clipPath id="clip0_2800_5987">
<rect width="15.1667" height="15.1667" fill="white" transform="translate(5.81641 5.84058)"/>
</clipPath>
</defs>
</svg>
