<svg width="53" height="52" viewBox="0 0 53 52" fill="none" xmlns="http://www.w3.org/2000/svg">
<rect x="0.5" width="52" height="52" rx="26" fill="url(#paint0_linear_2799_6060)"/>
<path fill-rule="evenodd" clip-rule="evenodd" d="M12.2712 25.7255C19.8507 22.4232 24.9049 20.2462 27.4338 19.1943C34.6543 16.1911 36.1546 15.6694 37.1325 15.6522C37.3476 15.6484 37.8285 15.7017 38.14 15.9544C38.4031 16.1679 38.4754 16.4562 38.5101 16.6586C38.5447 16.8609 38.5878 17.3219 38.5535 17.6821C38.1623 21.7933 36.4692 31.7701 35.6079 36.3747C35.2434 38.3231 34.5258 38.9764 33.831 39.0404C32.3211 39.1793 31.1746 38.0425 29.7122 37.0839C27.4239 35.5839 26.1311 34.6501 23.9099 33.1864C21.3429 31.4947 23.007 30.565 24.4699 29.0455C24.8528 28.6479 31.5053 22.5969 31.634 22.048C31.6501 21.9793 31.6651 21.7234 31.5131 21.5883C31.361 21.4532 31.1367 21.4994 30.9747 21.5361C30.7452 21.5882 27.0896 24.0045 20.0078 28.7849C18.9701 29.4974 18.0303 29.8446 17.1882 29.8264C16.2598 29.8063 14.4741 29.3015 13.1466 28.87C11.5183 28.3407 10.2242 28.0609 10.3369 27.162C10.3956 26.6938 11.0404 26.215 12.2712 25.7255Z" fill="white"/>
<defs>
<linearGradient id="paint0_linear_2799_6060" x1="26.5" y1="0" x2="26.5" y2="51.6143" gradientUnits="userSpaceOnUse">
<stop stop-color="#2AABEE"/>
<stop offset="1" stop-color="#229ED9"/>
</linearGradient>
</defs>
</svg>
