<svg width="27" height="27" viewBox="0 0 27 27" fill="none" xmlns="http://www.w3.org/2000/svg">
<rect x="0.601562" y="0.423889" width="26" height="26" rx="13" fill="url(#paint0_linear_2800_5983)"/>
<path fill-rule="evenodd" clip-rule="evenodd" d="M6.49007 13.2866C10.2798 11.6355 12.8069 10.547 14.0714 10.0211C17.6816 8.51943 18.4318 8.25858 18.9208 8.24997C19.0283 8.24808 19.2688 8.27473 19.4245 8.40111C19.556 8.50783 19.5922 8.65199 19.6095 8.75317C19.6268 8.85435 19.6484 9.08484 19.6313 9.26493C19.4356 11.3205 18.5891 16.309 18.1584 18.6113C17.9762 19.5855 17.6174 19.9121 17.27 19.9441C16.5151 20.0135 15.9418 19.4452 15.2106 18.9659C14.0664 18.2158 13.4201 17.7489 12.3094 17.0171C11.0259 16.1713 11.858 15.7064 12.5894 14.9467C12.7809 14.7478 16.1071 11.7223 16.1715 11.4479C16.1796 11.4136 16.187 11.2856 16.111 11.218C16.035 11.1505 15.9228 11.1736 15.8419 11.192C15.7271 11.218 13.8993 12.4261 10.3584 14.8163C9.83956 15.1726 9.36963 15.3462 8.94858 15.3371C8.48442 15.3271 7.59154 15.0746 6.92779 14.8589C6.11366 14.5942 5.46661 14.4543 5.52295 14.0049C5.5523 13.7708 5.87467 13.5314 6.49007 13.2866Z" fill="white"/>
<defs>
<linearGradient id="paint0_linear_2800_5983" x1="13.6016" y1="0.423889" x2="13.6016" y2="26.2311" gradientUnits="userSpaceOnUse">
<stop stop-color="#2AABEE"/>
<stop offset="1" stop-color="#229ED9"/>
</linearGradient>
</defs>
</svg>
