<svg width="27" height="27" viewBox="0 0 27 27" fill="none" xmlns="http://www.w3.org/2000/svg">
<rect x="0.800781" y="0.423889" width="26" height="26" rx="13" fill="#1D9BF0"/>
<path d="M11.4233 20.2814C17.1888 20.2814 20.3413 15.5039 20.3413 11.3634C20.3413 11.2269 20.3413 11.0904 20.3348 10.9604C20.9458 10.5184 21.4788 9.96589 21.9013 9.33539C21.3423 9.58239 20.7378 9.75139 20.1008 9.82939C20.7508 9.43939 21.2448 8.82839 21.4788 8.09389C20.8743 8.45139 20.2048 8.71139 19.4898 8.85439C18.9178 8.24339 18.1053 7.86639 17.2018 7.86639C15.4728 7.86639 14.0688 9.27039 14.0688 10.9994C14.0688 11.2464 14.0948 11.4869 14.1533 11.7144C11.5468 11.5844 9.23931 10.3364 7.69231 8.43839C7.42581 8.89989 7.26981 9.43939 7.26981 10.0114C7.26981 11.0969 7.82231 12.0589 8.66731 12.6179C8.15381 12.6049 7.67281 12.4619 7.25031 12.2279C7.25031 12.2409 7.25031 12.2539 7.25031 12.2669C7.25031 13.7879 8.32931 15.0489 9.76581 15.3414C9.50581 15.4129 9.22631 15.4519 8.94031 15.4519C8.73881 15.4519 8.54381 15.4324 8.34881 15.3934C8.74531 16.6414 9.90231 17.5449 11.2738 17.5709C10.2013 18.4094 8.84931 18.9099 7.38031 18.9099C7.12681 18.9099 6.87981 18.8969 6.63281 18.8644C8.00431 19.7614 9.65531 20.2814 11.4233 20.2814Z" fill="white"/>
</svg>
