<svg width="53" height="52" viewBox="0 0 53 52" fill="none" xmlns="http://www.w3.org/2000/svg">
<rect x="0.25" width="52" height="52" rx="26" fill="#1D9BF0"/>
<path d="M21.4931 39.715C33.0241 39.715 39.3291 30.16 39.3291 21.879C39.3291 21.606 39.3291 21.333 39.3161 21.073C40.5381 20.189 41.6041 19.084 42.4491 17.823C41.3311 18.317 40.1221 18.655 38.8481 18.811C40.1481 18.031 41.1361 16.809 41.6041 15.34C40.3951 16.055 39.0561 16.575 37.6261 16.861C36.4821 15.639 34.8571 14.885 33.0501 14.885C29.5921 14.885 26.7841 17.693 26.7841 21.151C26.7841 21.645 26.8361 22.126 26.9531 22.581C21.7401 22.321 17.1251 19.825 14.0311 16.029C13.4981 16.952 13.1861 18.031 13.1861 19.175C13.1861 21.346 14.2911 23.27 15.9811 24.388C14.9541 24.362 13.9921 24.076 13.1471 23.608C13.1471 23.634 13.1471 23.66 13.1471 23.686C13.1471 26.728 15.3051 29.25 18.1781 29.835C17.6581 29.978 17.0991 30.056 16.5271 30.056C16.1241 30.056 15.7341 30.017 15.3441 29.939C16.1371 32.435 18.4511 34.242 21.1941 34.294C19.0491 35.971 16.3451 36.972 13.4071 36.972C12.9001 36.972 12.4061 36.946 11.9121 36.881C14.6551 38.675 17.9571 39.715 21.4931 39.715Z" fill="white"/>
</svg>
