<svg width="27" height="27" viewBox="0 0 27 27" fill="none" xmlns="http://www.w3.org/2000/svg">
<rect x="0.199219" y="0.423889" width="26" height="26" rx="13" fill="url(#paint0_linear_2800_5990)"/>
<path d="M5.31641 20.9871L6.43108 16.9394C5.74194 15.7513 5.38042 14.4058 5.38419 13.0303C5.38419 8.72024 8.90898 5.21594 13.2359 5.21594C15.3372 5.21594 17.3105 6.02924 18.7905 7.50592C20.2742 8.98259 21.0914 10.9465 21.0876 13.0341C21.0876 17.3442 17.5628 20.8485 13.2321 20.8485H13.2284C11.9141 20.8485 10.6224 20.5187 9.47385 19.8965L5.31641 20.9871ZM9.67344 18.4835L9.91069 18.626C10.9124 19.2181 12.061 19.5292 13.2321 19.533H13.2359C16.8322 19.533 19.762 16.6208 19.762 13.0378C19.762 11.3025 19.0842 9.67221 17.8528 8.44289C16.6214 7.21358 14.9795 6.53895 13.2359 6.53895C9.63955 6.53521 6.70975 9.44733 6.70975 13.0303C6.70975 14.2559 7.05244 15.4515 7.70769 16.4859L7.86209 16.7333L7.20307 19.1282L9.67344 18.4835Z" fill="white"/>
<path d="M5.58594 20.7136L6.66296 16.8045C5.99641 15.6614 5.64619 14.3609 5.64619 13.0341C5.64996 8.87393 9.05048 5.48956 13.2305 5.48956C15.2603 5.48956 17.162 6.27662 18.593 7.70083C20.024 9.12504 20.8111 11.0215 20.8111 13.0379C20.8111 17.198 17.4068 20.5824 13.2305 20.5824H13.2268C11.9577 20.5824 10.7112 20.2638 9.60405 19.6642L5.58594 20.7136Z" fill="url(#paint1_linear_2800_5990)"/>
<path d="M5.31641 20.9871L6.43108 16.9394C5.74194 15.7513 5.38042 14.4058 5.38419 13.0303C5.38419 8.72024 8.90898 5.21594 13.2359 5.21594C15.3372 5.21594 17.3105 6.02924 18.7905 7.50592C20.2742 8.98259 21.0914 10.9465 21.0876 13.0341C21.0876 17.3442 17.5628 20.8485 13.2321 20.8485H13.2284C11.9141 20.8485 10.6224 20.5187 9.47385 19.8965L5.31641 20.9871ZM9.67344 18.4835L9.91069 18.626C10.9124 19.2181 12.061 19.5292 13.2321 19.533H13.2359C16.8322 19.533 19.762 16.6208 19.762 13.0378C19.762 11.3025 19.0842 9.67221 17.8528 8.44289C16.6214 7.21358 14.9795 6.53895 13.2359 6.53895C9.63955 6.53521 6.70975 9.44733 6.70975 13.0303C6.70975 14.2559 7.05244 15.4515 7.70769 16.4859L7.86209 16.7333L7.20307 19.1282L9.67344 18.4835Z" fill="url(#paint2_linear_2800_5990)"/>
<path fill-rule="evenodd" clip-rule="evenodd" d="M11.2682 9.7622C11.1213 9.43613 10.9669 9.42864 10.8276 9.42489C10.7146 9.42114 10.5828 9.42114 10.451 9.42114C10.3192 9.42114 10.1083 9.46987 9.92756 9.66476C9.74681 9.85965 9.24219 10.3319 9.24219 11.2951C9.24219 12.2546 9.94639 13.184 10.0443 13.3152C10.1422 13.4464 11.4038 15.4815 13.3959 16.2648C15.0528 16.917 15.3917 16.7858 15.7495 16.7521C16.1072 16.7183 16.9094 16.2798 17.0751 15.8226C17.237 15.3653 17.237 14.9755 17.188 14.8931C17.1391 14.8106 17.0073 14.7619 16.8115 14.6645C16.6156 14.567 15.6516 14.0948 15.4708 14.0273C15.2901 13.9636 15.1583 13.9299 15.0302 14.1248C14.8984 14.3197 14.5218 14.7582 14.4089 14.8893C14.2959 15.0205 14.1792 15.0355 13.9833 14.9381C13.7875 14.8406 13.1549 14.6345 12.4055 13.9674C11.8218 13.4501 11.4264 12.8093 11.3134 12.6144C11.2004 12.4195 11.3021 12.3145 11.4 12.2171C11.4866 12.1309 11.5958 11.9885 11.6937 11.876C11.7916 11.7636 11.8255 11.6811 11.8895 11.55C11.9536 11.4188 11.9234 11.3063 11.8745 11.2089C11.8255 11.1152 11.4414 10.1482 11.2682 9.7622Z" fill="white"/>
<defs>
<linearGradient id="paint0_linear_2800_5990" x1="13.1985" y1="26.4226" x2="13.1985" y2="0.422979" gradientUnits="userSpaceOnUse">
<stop stop-color="#20B038"/>
<stop offset="1" stop-color="#60D66A"/>
</linearGradient>
<linearGradient id="paint1_linear_2800_5990" x1="13.1981" y1="20.7128" x2="13.1981" y2="5.48903" gradientUnits="userSpaceOnUse">
<stop stop-color="#20B038"/>
<stop offset="1" stop-color="#60D66A"/>
</linearGradient>
<linearGradient id="paint2_linear_2800_5990" x1="13.2035" y1="20.9857" x2="13.2035" y2="5.21594" gradientUnits="userSpaceOnUse">
<stop stop-color="#F9F9F9"/>
<stop offset="1" stop-color="white"/>
</linearGradient>
</defs>
</svg>
