<svg width="53" height="52" viewBox="0 0 53 52" fill="none" xmlns="http://www.w3.org/2000/svg">
<rect x="0.5" width="52" height="52" rx="26" fill="url(#paint0_linear_2799_6059)"/>
<path d="M10.7285 41.1265L12.9579 33.031C11.5796 30.6549 10.8566 27.9639 10.8641 25.2129C10.8641 16.5927 17.9137 9.58411 26.5675 9.58411C30.7701 9.58411 34.7167 11.2107 37.6766 14.1641C40.6441 17.1174 42.2784 21.0452 42.2709 25.2204C42.2709 33.8406 35.2213 40.8492 26.56 40.8492H26.5524C23.9239 40.8492 21.3406 40.1895 19.0434 38.9452L10.7285 41.1265ZM19.4426 36.1193L19.9171 36.4041C21.9205 37.5885 24.2176 38.2106 26.56 38.2181H26.5675C33.7602 38.2181 39.6198 32.3939 39.6198 25.2279C39.6198 21.7573 38.2641 18.4966 35.8012 16.038C33.3384 13.5794 30.0546 12.2301 26.5675 12.2301C19.3748 12.2226 13.5152 18.0469 13.5152 25.2129C13.5152 27.664 14.2006 30.0552 15.5111 32.124L15.8199 32.6188L14.5019 37.4086L19.4426 36.1193Z" fill="white"/>
<path d="M11.2793 40.5794L13.4333 32.7612C12.1002 30.475 11.3998 27.874 11.3998 25.2204C11.4073 16.9001 18.2084 10.1313 26.5685 10.1313C30.628 10.1313 34.4315 11.7055 37.2935 14.5539C40.1555 17.4023 41.7296 21.1952 41.7296 25.2279C41.7296 33.5483 34.921 40.317 26.5685 40.317H26.5609C24.0228 40.317 21.5298 39.6799 19.3155 38.4805L11.2793 40.5794Z" fill="url(#paint1_linear_2799_6059)"/>
<path d="M10.7285 41.1265L12.9579 33.031C11.5796 30.6549 10.8566 27.9639 10.8641 25.2129C10.8641 16.5927 17.9137 9.58411 26.5675 9.58411C30.7701 9.58411 34.7167 11.2107 37.6766 14.1641C40.6441 17.1174 42.2784 21.0452 42.2709 25.2204C42.2709 33.8406 35.2213 40.8492 26.56 40.8492H26.5524C23.9239 40.8492 21.3406 40.1895 19.0434 38.9452L10.7285 41.1265ZM19.4426 36.1193L19.9171 36.4041C21.9205 37.5885 24.2176 38.2106 26.56 38.2181H26.5675C33.7602 38.2181 39.6198 32.3939 39.6198 25.2279C39.6198 21.7573 38.2641 18.4966 35.8012 16.038C33.3384 13.5794 30.0546 12.2301 26.5675 12.2301C19.3748 12.2226 13.5152 18.0469 13.5152 25.2129C13.5152 27.664 14.2006 30.0552 15.5111 32.124L15.8199 32.6188L14.5019 37.4086L19.4426 36.1193Z" fill="url(#paint2_linear_2799_6059)"/>
<path fill-rule="evenodd" clip-rule="evenodd" d="M22.6438 18.6766C22.3501 18.0245 22.0413 18.0095 21.7626 18.002C21.5367 17.9945 21.273 17.9945 21.0094 17.9945C20.7458 17.9945 20.3241 18.092 19.9625 18.4817C19.601 18.8715 18.5918 19.816 18.5918 21.7424C18.5918 23.6613 20.0002 25.5203 20.196 25.7827C20.3919 26.045 22.9149 30.1152 26.8992 31.6819C30.2131 32.9861 30.8909 32.7238 31.6064 32.6563C32.3219 32.5889 33.9262 31.7119 34.2575 30.7974C34.5814 29.8829 34.5814 29.1033 34.4835 28.9384C34.3856 28.7735 34.122 28.676 33.7303 28.4812C33.3387 28.2863 31.4106 27.3418 31.0491 27.2069C30.6876 27.0794 30.424 27.012 30.1679 27.4018C29.9043 27.7915 29.1511 28.6686 28.9252 28.9309C28.6992 29.1933 28.4657 29.2232 28.0741 29.0284C27.6824 28.8335 26.4171 28.4212 24.9183 27.0869C23.7509 26.0525 22.9601 24.7707 22.7342 24.3809C22.5082 23.9912 22.7116 23.7813 22.9074 23.5864C23.0806 23.414 23.2991 23.1291 23.4949 22.9043C23.6907 22.6794 23.7585 22.5145 23.8865 22.2521C24.0146 21.9898 23.9543 21.7649 23.8564 21.57C23.7585 21.3826 22.9903 19.4487 22.6438 18.6766Z" fill="white"/>
<defs>
<linearGradient id="paint0_linear_2799_6059" x1="26.4986" y1="51.9974" x2="26.4986" y2="-0.00181935" gradientUnits="userSpaceOnUse">
<stop stop-color="#20B038"/>
<stop offset="1" stop-color="#60D66A"/>
</linearGradient>
<linearGradient id="paint1_linear_2799_6059" x1="26.5037" y1="40.5779" x2="26.5037" y2="10.1303" gradientUnits="userSpaceOnUse">
<stop stop-color="#20B038"/>
<stop offset="1" stop-color="#60D66A"/>
</linearGradient>
<linearGradient id="paint2_linear_2799_6059" x1="26.5028" y1="41.1235" x2="26.5028" y2="9.58411" gradientUnits="userSpaceOnUse">
<stop stop-color="#F9F9F9"/>
<stop offset="1" stop-color="white"/>
</linearGradient>
</defs>
</svg>
