<svg xmlns="http://www.w3.org/2000/svg" xmlns:xlink="http://www.w3.org/1999/xlink" width="80" height="69.881" viewBox="0 0 80 69.881"><defs><style>.a{fill:url(#a);}.b{fill:url(#e);}.c{fill:url(#f);}.d{fill:#fff;}.e{fill:#25487b;}</style><linearGradient id="a" x1="0.195" y1="0.276" x2="0.905" y2="0.826" gradientUnits="objectBoundingBox"><stop offset="0" stop-color="#468bb7"/><stop offset="1" stop-color="#2a5780"/></linearGradient><linearGradient id="e" x1="0.715" y1="0.679" x2="0.229" gradientUnits="objectBoundingBox"><stop offset="0" stop-color="#519e1f"/><stop offset="1" stop-color="#125d2c"/></linearGradient><linearGradient id="f" x1="0.041" y1="0.316" x2="0.625" y2="1.303" gradientUnits="objectBoundingBox"><stop offset="0" stop-color="#eeef37"/><stop offset="1" stop-color="#e9a025"/></linearGradient></defs><g transform="translate(702.314 909.416)"><g transform="translate(-686.498 -909.416)"><path class="b" d="M842.4,386.511a52.858,52.858,0,0,0-6.17,1.044,41.043,41.043,0,0,0-5.9,1.783,28.229,28.229,0,0,0-8.084,4.626l11.18,6.522a2.667,2.667,0,0,0,2.246-.195l22.249-12.975a1.337,1.337,0,0,0,.6-1.023c-1.145-.09-2.3-.156-3.443-.2q-1.895-.072-3.789-.075a75.508,75.508,0,0,0-8.882.494" transform="translate(-810.148 -360.894)"/><path class="c" d="M792.728,324.3l-5.563,3.244-1.281.745-5.663,3.3-.255.15-10.108,5.895a1.381,1.381,0,0,0,0,1.954l7.043,4.1c.132-.1.267-.211.4-.309s.268-.2.4-.3.272-.2.41-.294.272-.193.412-.286a.559.559,0,0,0,.079-.055c.23-.155.466-.308.7-.456.02-.012.039-.023.059-.037.14-.09.283-.178.423-.261s.286-.176.43-.254v0q.581-.339,1.171-.647c.2-.1.4-.206.594-.3s.4-.2.6-.293h0q1.356-.644,2.745-1.159v0q1.541-.574,3.107-.989c.269-.077.542-.148.814-.216q1.576-.4,3.163-.672c.855-.15,1.713-.274,2.567-.379a58.966,58.966,0,0,1,6.562-.439c1.322-.017,2.633,0,3.944.057.331.012.662.028.993.045.148.008.295.015.443.027.636.033,1.27.078,1.9.13.336.028.674.057,1.011.088q.917.085,1.831.19c.315.033.629.072.944.111.629.076,1.258.158,1.884.246,1,.141,1.984.306,2.982.471h0a.533.533,0,0,0-.059-.063c-.02-.02-.039-.04-.061-.06l-.068-.057-.071-.05-10.05-5.858-.25-.145-5.243-3.06,0,0a0,0,0,0,0,0,0l-.211-.121-.048-.028-.8-.471-.466-.274-.007,0h0l-1.1-.64-.753-.439-.038-.022-2.62-1.53-.657-.382c-.051-.028-.1-.057-.158-.081a2.505,2.505,0,0,0-.324-.133,2.675,2.675,0,0,0-.853-.14,2.6,2.6,0,0,0-.912.163" transform="translate(-769.453 -313.334)"/><g transform="translate(7.136 0)"><path class="a" d="M3.631,16.028H1.244a1.255,1.255,0,0,1-.82-2.193l.354-.308c.008-.005.008-.005.008-.013L15.466.577a2.286,2.286,0,0,1,3.037,0l6.7,5.908L30.333,11l3.215,2.835a1.243,1.243,0,0,1,.3,1.462,1.2,1.2,0,0,1-1.123.732H30.333v7.107c-.148-.012-.295-.017-.443-.025-.331-.017-.662-.035-.993-.048-1.311-.055-2.621-.073-3.944-.057a59.031,59.031,0,0,0-6.562.439c-.855.1-1.713.229-2.567.379q-1.588.272-3.163.672c-.272.071-.545.141-.813.218q-1.564.419-3.107.989-1.391.517-2.745,1.159h0c-.2.1-.4.193-.6.293s-.4.2-.594.3c-.394.208-.787.426-1.171.65ZM25.207,4.561V3.2a1.4,1.4,0,0,1,1.4-1.4h2.342a1.4,1.4,0,0,1,1.39,1.4V9.083h0Z" transform="translate(0 0)"/><g transform="translate(18.928 11.375)"><path class="d" d="M-40.968,25.126v1.846a.475.475,0,0,1-.473.477h-1.828a.474.474,0,0,1-.473-.477V25.126a.475.475,0,0,1,.473-.477h1.828a.476.476,0,0,1,.473.477" transform="translate(47.267 -21.09)"/><path class="d" d="M-56.356,25.126v1.846a.474.474,0,0,1-.471.477h-1.83a.475.475,0,0,1-.473-.477V25.126a.476.476,0,0,1,.473-.477h1.83a.475.475,0,0,1,.471.477" transform="translate(59.129 -21.09)"/><path class="d" d="M-40.968,9.745v1.846a.476.476,0,0,1-.473.477h-1.828a.475.475,0,0,1-.473-.477V9.745a.474.474,0,0,1,.473-.477h1.828a.475.475,0,0,1,.473.477" transform="translate(47.267 -9.268)"/><path class="d" d="M-56.356,9.745v1.846a.475.475,0,0,1-.471.477h-1.83a.476.476,0,0,1-.473-.477V9.745a.475.475,0,0,1,.473-.477h1.83a.474.474,0,0,1,.471.477" transform="translate(59.129 -9.268)"/></g><path class="d" d="M-96.512,25.841v7.754q-1.588.274-3.163.677c-.272.071-.545.143-.813.219-1.041.279-2.08.61-3.107,1V25.841a1.183,1.183,0,0,1,1.172-1.192h4.739a1.183,1.183,0,0,1,1.172,1.192" transform="translate(112.336 -9.714)"/></g></g><g transform="translate(-702.314 -864.653)"><path class="e" d="M10.31-37.081a5.912,5.912,0,0,1,.3.831,5.984,5.984,0,0,1,.184.865,6.776,6.776,0,0,1-1.344.359,9.035,9.035,0,0,1-1.278.086,5.384,5.384,0,0,1-2.134-.392A4.272,4.272,0,0,1,4.5-36.45a4.841,4.841,0,0,1-.935-1.7,6.964,6.964,0,0,1-.316-2.142,6.748,6.748,0,0,1,.329-2.148,4.986,4.986,0,0,1,.949-1.709,4.343,4.343,0,0,1,1.535-1.131,5.039,5.039,0,0,1,2.068-.406A8.806,8.806,0,0,1,9.4-45.6a5.6,5.6,0,0,1,1.252.359,3.156,3.156,0,0,1-.171.845c-.1.276-.2.552-.316.831a5.9,5.9,0,0,0-.889-.239,5,5,0,0,0-.916-.073,2.572,2.572,0,0,0-2.114.9,4.179,4.179,0,0,0-.731,2.681q0,3.527,2.964,3.525a5.138,5.138,0,0,0,.929-.073A6.056,6.056,0,0,0,10.31-37.081Zm0,0" transform="translate(-3.249 45.682)"/><path class="e" d="M3.88-45.222c.2-.03.392-.053.573-.067s.385-.02.606-.02q.282,0,.553.02c.184.013.385.037.606.067l3.221,10.4a8.031,8.031,0,0,1-1.146.086,6.491,6.491,0,0,1-1.06-.086l-.573-2.082H3.254l-.593,2.082a6.076,6.076,0,0,1-.988.086,6.37,6.37,0,0,1-1.041-.086Zm2.292,6.565-1.186-4.37-1.252,4.37Zm0,0" transform="translate(7.619 45.395)"/><path class="e" d="M4.563-39.928a5.752,5.752,0,0,1-.876-.412,2.757,2.757,0,0,1-.659-.532,2.232,2.232,0,0,1-.422-.745,3.179,3.179,0,0,1-.151-1.044,3.128,3.128,0,0,1,.25-1.3,2.525,2.525,0,0,1,.711-.945,3.1,3.1,0,0,1,1.1-.579,4.89,4.89,0,0,1,1.449-.2,6.658,6.658,0,0,1,1.363.133,10.286,10.286,0,0,1,1.344.372,5.168,5.168,0,0,1-.461,1.65L7.777-43.7a3.958,3.958,0,0,0-.474-.146,4.7,4.7,0,0,0-.566-.093,5.648,5.648,0,0,0-.711-.04,2.788,2.788,0,0,0-.494.047,1.276,1.276,0,0,0-.454.16.914.914,0,0,0-.329.339,1.2,1.2,0,0,0-.125.585,1.084,1.084,0,0,0,.1.486,1.008,1.008,0,0,0,.27.333,1.9,1.9,0,0,0,.389.233c.145.063.287.123.428.18l.863.333a10.414,10.414,0,0,1,.981.446,2.638,2.638,0,0,1,.751.572,2.418,2.418,0,0,1,.481.825,3.489,3.489,0,0,1,.178,1.191,3.315,3.315,0,0,1-.27,1.35,2.875,2.875,0,0,1-.764,1.038,3.6,3.6,0,0,1-1.238.678,5.4,5.4,0,0,1-1.7.246c-.313,0-.593-.012-.843-.033a6.288,6.288,0,0,1-.711-.093,5.78,5.78,0,0,1-.665-.16c-.221-.07-.448-.153-.685-.246a6.346,6.346,0,0,1,.158-.871q.111-.459.27-.925a7.709,7.709,0,0,0,1.133.372,5.1,5.1,0,0,0,1.133.12A2.551,2.551,0,0,0,6.3-37.115a1.157,1.157,0,0,0,.514-1.038,1.188,1.188,0,0,0-.125-.572,1.249,1.249,0,0,0-.31-.392,1.852,1.852,0,0,0-.435-.266c-.163-.075-.329-.146-.5-.213Zm0,0" transform="translate(15.531 45.682)"/><path class="e" d="M3.88-45.222c.2-.03.392-.053.573-.067s.385-.02.606-.02q.282,0,.553.02c.184.013.385.037.606.067l3.221,10.4a8.031,8.031,0,0,1-1.146.086,6.491,6.491,0,0,1-1.06-.086l-.573-2.082H3.254l-.593,2.082a6.076,6.076,0,0,1-.988.086,6.37,6.37,0,0,1-1.041-.086Zm2.292,6.565-1.186-4.37-1.252,4.37Zm0,0" transform="translate(24.605 45.395)"/><path class="e" transform="translate(34.202 10.569)"/><path class="e" d="M.632-45.222c.161-.017.346-.035.553-.053a5.574,5.574,0,0,1,.56-.033,8.211,8.211,0,0,1,1.146.086l2.253,8.2,2.272-8.2q.289-.045.553-.06c.175-.008.352-.013.534-.013s.351,0,.527.013.357.03.547.06l-3.32,10.4c-.2.03-.4.053-.58.067s-.382.02-.593.02c-.194,0-.38-.007-.56-.02s-.38-.037-.6-.067Zm0,0" transform="translate(36.865 45.395)"/><path class="e" d="M4.37-44.934h5.843a4.642,4.642,0,0,1,.086.885,4.721,4.721,0,0,1-.086.9H6.464v2.261H9.442a4.959,4.959,0,0,1,.086.891,4.9,4.9,0,0,1-.086.911H6.464v2.747h3.847a4.708,4.708,0,0,1,.086.885,4.766,4.766,0,0,1-.086.911H4.37Zm0,0" transform="translate(43.222 45.107)"/><path class="e" d="M4.8-45.509c.422-.048.813-.088,1.179-.12s.779-.053,1.232-.053a8.317,8.317,0,0,1,1.548.146,4.025,4.025,0,0,1,1.383.512,2.816,2.816,0,0,1,.995,1,3.033,3.033,0,0,1,.382,1.6,3.34,3.34,0,0,1-.145,1.024,3,3,0,0,1-.362.772,3.27,3.27,0,0,1-.481.572,3.511,3.511,0,0,1-.487.379l-.244.16,2.51,4.4-.606.053a6.331,6.331,0,0,1-.646.033,6.825,6.825,0,0,1-1.074-.086L7.3-39.955l.343-.173c.132-.07.291-.156.481-.259a2.947,2.947,0,0,0,.553-.4,2.136,2.136,0,0,0,.454-.579,1.672,1.672,0,0,0,.184-.8A1.64,1.64,0,0,0,8.8-43.507a2.025,2.025,0,0,0-1.331-.426,3.753,3.753,0,0,0-.573.04v8.78c-.171.017-.346.033-.52.047s-.339.027-.5.027-.334,0-.514-.013-.367-.03-.56-.06Zm0,0" transform="translate(50.494 45.682)"/><path class="e" d="M4.571-45.509q.6-.072,1.258-.12t1.462-.053a5.7,5.7,0,0,1,4.117,1.364,5.407,5.407,0,0,1,1.41,4.071,5.151,5.151,0,0,1-1.436,4.024A6.176,6.176,0,0,1,7.133-34.94c-.487,0-.939-.018-1.35-.053s-.813-.071-1.212-.12Zm2.1,8.72c.087.01.2.018.329.027s.3.013.487.013A4.874,4.874,0,0,0,8.714-36.9a2.194,2.194,0,0,0,.981-.559,2.82,2.82,0,0,0,.659-1.084,5.286,5.286,0,0,0,.244-1.749,5.325,5.325,0,0,0-.244-1.736,2.755,2.755,0,0,0-.659-1.1,2.356,2.356,0,0,0-.955-.572,3.828,3.828,0,0,0-1.133-.166c-.137,0-.293,0-.468.007s-.333.017-.468.033Zm0,0" transform="translate(59.423 45.682)"/><path class="e" d="M4.37-44.934h5.843a4.642,4.642,0,0,1,.086.885,4.721,4.721,0,0,1-.086.9H6.464v2.261H9.442a4.959,4.959,0,0,1,.086.891,4.9,4.9,0,0,1-.086.911H6.464v2.747h3.847a4.708,4.708,0,0,1,.086.885,4.766,4.766,0,0,1-.086.911H4.37Zm0,0" transform="translate(69.603 45.107)"/></g><g transform="translate(-698.192 -850.19)"><path class="e" d="M4.37-44.934h5.843a4.642,4.642,0,0,1,.086.885,4.721,4.721,0,0,1-.086.9H6.464v2.261H9.442a4.959,4.959,0,0,1,.086.891,4.9,4.9,0,0,1-.086.911H6.464v2.747h3.847a4.708,4.708,0,0,1,.086.885,4.766,4.766,0,0,1-.086.911H4.37Zm0,0" transform="translate(-4.37 45.107)"/><path class="e" transform="translate(6.604 10.569)"/><path class="e" d="M3.88-45.222c.2-.03.392-.053.573-.067s.385-.02.606-.02q.282,0,.553.02c.184.013.385.037.606.067l3.221,10.4a8.031,8.031,0,0,1-1.146.086,6.491,6.491,0,0,1-1.06-.086l-.573-2.082H3.254l-.593,2.082a6.076,6.076,0,0,1-.988.086,6.37,6.37,0,0,1-1.041-.086Zm2.292,6.565-1.186-4.37-1.252,4.37Zm0,0" transform="translate(9.267 45.395)"/><path class="e" d="M4.283-45.222a7.515,7.515,0,0,1,1.1-.086,7.1,7.1,0,0,1,1.1.086l2.365,5.96,2.437-5.96a5.233,5.233,0,0,1,.988-.086,6.235,6.235,0,0,1,1.041.086l.487,10.4a6.655,6.655,0,0,1-1.028.086,5.445,5.445,0,0,1-.962-.086l-.257-7.057L9.467-36.994c-.137.018-.277.037-.422.053s-.283.02-.428.02c-.124,0-.247,0-.369-.013s-.254-.033-.389-.06L5.91-41.982l-.2,7.157a4.931,4.931,0,0,1-.889.086,5.5,5.5,0,0,1-.942-.086Zm0,0" transform="translate(15.872 45.395)"/><path class="e" d="M3.88-45.222c.2-.03.392-.053.573-.067s.385-.02.606-.02q.282,0,.553.02c.184.013.385.037.606.067l3.221,10.4a8.031,8.031,0,0,1-1.146.086,6.491,6.491,0,0,1-1.06-.086l-.573-2.082H3.254l-.593,2.082a6.076,6.076,0,0,1-.988.086,6.37,6.37,0,0,1-1.041-.086Zm2.292,6.565-1.186-4.37-1.252,4.37Zm0,0" transform="translate(30.077 45.395)"/><path class="e" d="M4.8-45.509c.422-.048.813-.088,1.179-.12s.779-.053,1.232-.053a8.317,8.317,0,0,1,1.548.146,4.025,4.025,0,0,1,1.383.512,2.816,2.816,0,0,1,.995,1,3.033,3.033,0,0,1,.382,1.6,3.34,3.34,0,0,1-.145,1.024,3,3,0,0,1-.362.772,3.27,3.27,0,0,1-.481.572,3.511,3.511,0,0,1-.487.379l-.244.16,2.51,4.4-.606.053a6.331,6.331,0,0,1-.646.033,6.825,6.825,0,0,1-1.074-.086L7.3-39.955l.343-.173c.132-.07.291-.156.481-.259a2.947,2.947,0,0,0,.553-.4,2.136,2.136,0,0,0,.454-.579,1.672,1.672,0,0,0,.184-.8A1.64,1.64,0,0,0,8.8-43.507a2.025,2.025,0,0,0-1.331-.426,3.753,3.753,0,0,0-.573.04v8.78c-.171.017-.346.033-.52.047s-.339.027-.5.027-.334,0-.514-.013-.367-.03-.56-.06Zm0,0" transform="translate(35.973 45.682)"/><path class="e" d="M4.37-44.934h5.843a4.642,4.642,0,0,1,.086.885,4.721,4.721,0,0,1-.086.9H6.464v2.261H9.442a4.959,4.959,0,0,1,.086.891,4.9,4.9,0,0,1-.086.911H6.464v2.747h3.847a4.708,4.708,0,0,1,.086.885,4.766,4.766,0,0,1-.086.911H4.37Zm0,0" transform="translate(45.056 45.107)"/><path class="e" d="M4.37-45.222a6.506,6.506,0,0,1,1.021-.086,6.735,6.735,0,0,1,1.041.086v8.574H10c.026.165.043.323.053.472s.013.289.013.426c0,.156,0,.309-.013.459s-.026.3-.053.466H4.37Zm0,0" transform="translate(52.661 45.395)"/><path class="e" d="M3.88-45.222c.2-.03.392-.053.573-.067s.385-.02.606-.02q.282,0,.553.02c.184.013.385.037.606.067l3.221,10.4a8.031,8.031,0,0,1-1.146.086,6.491,6.491,0,0,1-1.06-.086l-.573-2.082H3.254l-.593,2.082a6.076,6.076,0,0,1-.988.086,6.37,6.37,0,0,1-1.041-.086Zm2.292,6.565-1.186-4.37-1.252,4.37Zm0,0" transform="translate(62.603 45.395)"/></g></g></svg>